<?xml version="1.0" encoding="utf-8"?>
<!-- Generator: Adobe Illustrator 27.5.0, SVG Export Plug-In . SVG Version: 6.00 Build 0)  -->
<svg version="1.1" xmlns="http://www.w3.org/2000/svg" xmlns:xlink="http://www.w3.org/1999/xlink" x="0px" y="0px"
	 viewBox="0 0 500 500" style="enable-background:new 0 0 500 500;" xml:space="preserve">
<g id="BACKGROUND">
	<rect style="fill:#FFFEE9;" width="500" height="500"/>
</g>
<g id="OBJECTS">
	<g>
		<defs>
			<rect id="SVGID_1_" x="0" y="0" width="500" height="500"/>
		</defs>
		<clipPath id="SVGID_00000074401369672295525980000014489332851259201453_">
			<use xlink:href="#SVGID_1_"  style="overflow:visible;"/>
		</clipPath>
		<g style="clip-path:url(#SVGID_00000074401369672295525980000014489332851259201453_);">
			<g>
				<g>
					<polygon style="fill:#FFEDCC;" points="458.978,395.302 458.978,415.9 452.186,415.9 447.215,395.302 137.799,395.302 
						132.828,415.9 126.036,415.9 126.036,395.302 -205.135,395.302 -205.135,500 544.865,500 544.865,395.302 					"/>
					<g>
						<g>
							
								<rect x="-104.776" y="62.739" style="fill:none;stroke:#B77B53;stroke-width:0.3;stroke-linecap:round;stroke-linejoin:round;stroke-miterlimit:10;" width="208.74" height="126.574"/>
							
								<polygon style="fill:none;stroke:#B77B53;stroke-width:0.3;stroke-linecap:round;stroke-linejoin:round;stroke-miterlimit:10;" points="
								-104.776,88.954 -78.959,88.954 -78.959,142.757 -75.933,142.757 -75.933,73.581 -32.06,73.581 -32.06,146.417 
								-27.9,146.417 -27.9,82.731 7.653,82.731 7.653,94.078 19,94.078 19,109.37 27.399,109.37 27.399,128.482 32.994,128.482 
								32.994,146.417 40.067,146.417 40.067,71.751 71.024,71.751 71.024,155.967 76.111,155.967 76.111,77.241 104.128,77.241 
								104.128,189.313 -104.776,189.313 							"/>
							
								<circle style="fill:none;stroke:#B77B53;stroke-width:0.3;stroke-linecap:round;stroke-linejoin:round;stroke-miterlimit:10;" cx="24.295" cy="79.316" r="6.052"/>
							
								<path style="fill:none;stroke:#B77B53;stroke-width:0.3;stroke-linecap:round;stroke-linejoin:round;stroke-miterlimit:10;" d="
								M-104.451,165.38c3.683-0.244,7.452,0.817,10.336,2.908c2.884,2.091,4.855,5.193,5.405,8.505
								c0.065-5.092,3.168-10.196,8.067-12.682s11.066-2.636,16.259-0.702s9.379,5.838,11.725,10.464
								c0.319-4.116,4.578-8.326,9.109-8.678s9.098,2.622,10.182,6.628c0.478-6.042,3.735-11.833,8.88-15.694
								s12.061-5.714,18.693-5.009c3.867,0.412,7.723,1.723,10.479,4.219c4.377,3.966,5.228,10.027,5.841,15.612
								c1.836-3.16,5.253-5.678,9.165-6.092s8.004,1.023,10.592,3.716c3.499-4.339,8.102-9.074,13.545-11.199
								c5.444-2.125,12.233-2.012,16.853,1.355c3.011,2.194,4.795,5.464,6.263,8.704c1.488-1.498,4.255-2.176,6.456-2.459
								c3.17-0.408,6.547-0.097,9.295,1.395c2.748,1.492,4.732,4.301,4.512,7.199c1.537-1.039,4.401-1.308,6.039-0.406
								s2.577,2.746,2.272,4.462c-0.083-1.881,1.059-3.732,2.712-4.869s3.929-1.487,5.903-0.908v17.462h-208.905L-104.451,165.38z"
								/>
							
								<rect x="-108.886" y="189.313" style="fill:none;stroke:#B77B53;stroke-width:0.3;stroke-linecap:round;stroke-linejoin:round;stroke-miterlimit:10;" width="217.771" height="9.706"/>
						</g>
						
							<line style="fill:none;stroke:#B77B53;stroke-width:0.3;stroke-linecap:round;stroke-linejoin:round;stroke-miterlimit:10;" x1="458.978" y1="395.302" x2="544.865" y2="395.302"/>
						
							<line style="fill:none;stroke:#B77B53;stroke-width:0.3;stroke-linecap:round;stroke-linejoin:round;stroke-miterlimit:10;" x1="137.8" y1="395.302" x2="447.215" y2="395.302"/>
						
							<path style="fill:none;stroke:#B77B53;stroke-width:0.3;stroke-linecap:round;stroke-linejoin:round;stroke-miterlimit:10;" d="
							M137.8,395.302"/>
						
							<line style="fill:none;stroke:#B77B53;stroke-width:0.3;stroke-linecap:round;stroke-linejoin:round;stroke-miterlimit:10;" x1="-0.406" y1="395.302" x2="126.036" y2="395.302"/>
						
							<line style="fill:none;stroke:#B77B53;stroke-width:0.3;stroke-linecap:round;stroke-linejoin:round;stroke-miterlimit:10;" x1="519.348" y1="372.687" x2="544.865" y2="372.687"/>
						
							<line style="fill:none;stroke:#B77B53;stroke-width:0.3;stroke-linecap:round;stroke-linejoin:round;stroke-miterlimit:10;" x1="0" y1="372.687" x2="65.666" y2="372.687"/>
						<g>
							<g>
								<g>
									
										<path style="fill:none;stroke:#B77B53;stroke-width:0.3;stroke-linecap:round;stroke-linejoin:round;stroke-miterlimit:10;" d="
										M473.962,262.269c12.477,2.339,47.728,9.207,48.062,12.219c0.406,3.661-1.624,109.008-4.06,109.008s-30.833,0-30.833,0"/>
									
										<path style="fill:none;stroke:#B77B53;stroke-width:0.3;stroke-linecap:round;stroke-linejoin:round;stroke-miterlimit:10;" d="
										M473.967,269.685c6.693,2.186,12.804,4.451,13.164,5.533c0.812,2.44,0,108.279,0,108.279"/>
									
										<path style="fill:none;stroke:#B77B53;stroke-width:0.3;stroke-linecap:round;stroke-linejoin:round;stroke-miterlimit:10;" d="
										M489.534,274.757c0,0,19.938-1.536,29.798,0"/>
									
										<rect x="292.507" y="354.22" style="fill:none;stroke:#B77B53;stroke-width:0.3;stroke-linecap:round;stroke-linejoin:round;stroke-miterlimit:10;" width="194.625" height="29.276"/>
									
										<polygon style="fill:none;stroke:#B77B53;stroke-width:0.3;stroke-linecap:round;stroke-linejoin:round;stroke-miterlimit:10;" points="
										444.365,383.496 452.186,415.9 458.978,415.9 458.978,383.496 									"/>
									
										<line style="fill:none;stroke:#B77B53;stroke-width:0.3;stroke-linecap:round;stroke-linejoin:round;stroke-miterlimit:10;" x1="330.28" y1="322.484" x2="332.738" y2="322.484"/>
									
										<path style="fill:none;stroke:#B77B53;stroke-width:0.3;stroke-linecap:round;stroke-linejoin:round;stroke-miterlimit:10;" d="
										M467.529,322.484h10.604c4.97,0,8.999,4.029,8.999,8.999v13.739c0,4.97-4.029,8.999-8.999,8.999H301.506
										c-4.97,0-8.999-4.029-8.999-8.999v-13.739c0-4.97,4.029-8.999,8.999-8.999h25.585"/>
									
										<line style="fill:none;stroke:#B77B53;stroke-width:0.3;stroke-linecap:round;stroke-linejoin:round;stroke-miterlimit:10;" x1="410.083" y1="322.484" x2="462.653" y2="322.484"/>
									
										<line style="fill:none;stroke:#B77B53;stroke-width:0.3;stroke-linecap:round;stroke-linejoin:round;stroke-miterlimit:10;" x1="337.041" y1="322.484" x2="405.164" y2="322.484"/>
									
										<path style="fill:none;stroke:#B77B53;stroke-width:0.3;stroke-linecap:round;stroke-linejoin:round;stroke-miterlimit:10;" d="
										M334.995,313.247h-33.878c0,0-7.133-0.158-7.769,2.583c-0.884,3.807-0.841,15.89-0.841,15.89"/>
									
										<path style="fill:none;stroke:#B77B53;stroke-width:0.3;stroke-linecap:round;stroke-linejoin:round;stroke-miterlimit:10;" d="
										M487.132,331.72c0,0,1.671-7.995-8.484-11.386c-3.326-1.111-7.18-2.254-10.859-3.289"/>
									
										<path style="fill:none;stroke:#B77B53;stroke-width:0.3;stroke-linecap:round;stroke-linejoin:round;stroke-miterlimit:10;" d="
										M405.132,231.547h43.581c4.161,0,7.534,3.373,7.534,7.534V242"/>
									
										<line style="fill:none;stroke:#B77B53;stroke-width:0.3;stroke-linecap:round;stroke-linejoin:round;stroke-miterlimit:10;" x1="399.786" y1="231.547" x2="401.884" y2="231.547"/>
									
										<path style="fill:none;stroke:#B77B53;stroke-width:0.3;stroke-linecap:round;stroke-linejoin:round;stroke-miterlimit:10;" d="
										M334.995,313.089h-35.021c-4.161,0-7.534-3.373-7.534-7.534v-66.474c0-4.161,3.373-7.534,7.534-7.534h92.958"/>
								</g>
								<g>
									
										<path style="fill:none;stroke:#B77B53;stroke-width:0.3;stroke-linecap:round;stroke-linejoin:round;stroke-miterlimit:10;" d="
										M128.767,261.472h-13.399c0,0-51.973,9.355-52.379,13.016s1.624,109.008,4.06,109.008c2.436,0,30.833,0,30.833,0"/>
									
										<path style="fill:none;stroke:#B77B53;stroke-width:0.3;stroke-linecap:round;stroke-linejoin:round;stroke-miterlimit:10;" d="
										M128.767,264.32c0,0-30.073,8.457-30.885,10.898c-0.812,2.44,0,108.279,0,108.279"/>
									
										<path style="fill:none;stroke:#B77B53;stroke-width:0.3;stroke-linecap:round;stroke-linejoin:round;stroke-miterlimit:10;" d="
										M95.479,274.757c0,0-19.938-1.536-29.798,0"/>
									
										<rect x="97.882" y="354.22" transform="matrix(-1 -4.498325e-11 4.498325e-11 -1 390.3894 737.7165)" style="fill:none;stroke:#B77B53;stroke-width:0.3;stroke-linecap:round;stroke-linejoin:round;stroke-miterlimit:10;" width="194.625" height="29.276"/>
									
										<polygon style="fill:none;stroke:#B77B53;stroke-width:0.3;stroke-linecap:round;stroke-linejoin:round;stroke-miterlimit:10;" points="
										140.649,383.496 132.828,415.9 126.036,415.9 126.036,383.496 									"/>
									
										<path style="fill:none;stroke:#B77B53;stroke-width:0.3;stroke-linecap:round;stroke-linejoin:round;stroke-miterlimit:10;" d="
										M106.881,354.22h176.627c4.97,0,8.999-4.029,8.999-8.999v-13.739c0-4.97-4.029-8.999-8.999-8.999H106.881
										c-4.97,0-8.999,4.029-8.999,8.999v13.739C97.882,350.192,101.911,354.22,106.881,354.22z"/>
									
										<path style="fill:none;stroke:#B77B53;stroke-width:0.3;stroke-linecap:round;stroke-linejoin:round;stroke-miterlimit:10;" d="
										M97.882,331.72c0,0-1.671-7.995,8.484-11.386c10.155-3.391,25.233-7.087,25.233-7.087h152.298c0,0,6.507-1.116,7.769,2.583
										s0.841,15.89,0.841,15.89"/>
									
										<path style="fill:none;stroke:#B77B53;stroke-width:0.3;stroke-linecap:round;stroke-linejoin:round;stroke-miterlimit:10;" d="
										M136.301,313.089H285.04c4.161,0,7.534-3.373,7.534-7.534v-66.474c0-4.161-3.373-7.534-7.534-7.534H136.301
										c-4.161,0-7.534,3.373-7.534,7.534v66.474C128.767,309.716,132.14,313.089,136.301,313.089z"/>
								</g>
							</g>
							
								<path style="fill:none;stroke:#B77B53;stroke-width:0.3;stroke-linecap:round;stroke-linejoin:round;stroke-miterlimit:10;" d="
								M402.834,311.442c18.962,6.451,38.543,8.656,58.742,6.616c0.366,1.825,3.034,14.378,6.613,11.906
								c3.857-2.663-3.503-11.672-3.503-11.672s7.508,6.3,8.453,3.211c0.823-2.688-7.307-4.992-9.432-5.546
								c8.676-21.447,11.853-43.698,9.526-66.753c2.12-0.433,14.221-3.077,11.793-6.606c-2.658-3.864-11.652,3.51-11.652,3.51
								s6.289-7.521,3.205-8.468c-2.679-0.823-4.976,7.293-5.533,9.438c-21.125-8.558-43.031-11.753-65.719-9.583
								c0.078-2.178,0.203-10.675-2.609-10.653c-3.225,0.025,0.656,9.032,0.656,9.032s-6.514-9.641-10.164-6.699
								c-3.391,2.733,7.889,8.894,9.507,9.755c-0.668,1.626-1.304,3.256-1.908,4.891"/>
							
								<path style="fill:none;stroke:#B77B53;stroke-width:0.3;stroke-linecap:round;stroke-linejoin:round;stroke-miterlimit:10;" d="
								M402.619,312.769c3.595-21.224,2.035-42.075-4.687-62.553c1.84-0.818,12.304-5.648,9.393-8.366
								c-3.187-2.977-9.884,5.525-9.884,5.525s4.21-8.093,1.219-8.336c-2.598-0.21-3.063,7.624-3.14,9.683
								c-20.901-3.538-41.441-2.046-61.618,4.475c-0.364-1.994-1.949-9.738-4.499-9.155c-2.925,0.67,2.401,8.074,2.401,8.074
								s-7.845-7.452-10.573-4.047c-2.535,3.163,8.945,6.498,10.586,6.955c-3.711,21.218-2.267,42.063,4.324,62.537
								c-1.844,0.334-9.811,1.929-9.22,4.522c0.668,2.93,8.06-2.405,8.06-2.405s-7.439,7.859-4.04,10.591
								c3.167,2.546,6.506-9.027,6.947-10.62c21.453,3.778,42.524,2.263,63.214-4.545c0.698,1.585,5.63,12.453,8.387,9.49
								c2.972-3.193-5.516-9.901-5.516-9.901s8.079,4.217,8.321,1.222C412.506,313.308,404.661,312.845,402.619,312.769z"/>
						</g>
						<g>
							
								<rect x="274.189" y="78.428" style="fill:none;stroke:#B77B53;stroke-width:0.3;stroke-linecap:round;stroke-linejoin:round;stroke-miterlimit:10;" width="132.112" height="104.902"/>
							
								<rect x="276.93" y="81.169" style="fill:none;stroke:#B77B53;stroke-width:0.3;stroke-linecap:round;stroke-linejoin:round;stroke-miterlimit:10;" width="126.63" height="99.42"/>
							
								<rect x="290.04" y="94.279" style="fill:none;stroke:#B77B53;stroke-width:0.3;stroke-linecap:round;stroke-linejoin:round;stroke-miterlimit:10;" width="100.41" height="73.201"/>
							
								<rect x="290.04" y="141.356" style="fill:none;stroke:#B77B53;stroke-width:0.3;stroke-linecap:round;stroke-linejoin:round;stroke-miterlimit:10;" width="100.41" height="26.124"/>
							
								<circle style="fill:none;stroke:#B77B53;stroke-width:0.3;stroke-linecap:round;stroke-linejoin:round;stroke-miterlimit:10;" cx="348.178" cy="108.747" r="5.903"/>
							<g>
								
									<path style="fill:none;stroke:#B77B53;stroke-width:0.3;stroke-linecap:round;stroke-linejoin:round;stroke-miterlimit:10;" d="
									M368.885,106.32c1.128-0.73,2.787,1.261,2.787,1.261s-0.331-2.415,0.22-4.323c-0.341-0.141-0.67-0.23-0.975-0.22
									c-5.999,0.194-22.449,32.319-22.449,32.319s-25.933-36.77-32.126-36.77c-2.124,0-5.886,4.44-9.911,10.274
									c0.71,1.941,0.748,4.483,0.748,4.483s1.7-3.825,5.207-2.975c3.506,0.85,2.869,7.013,2.869,7.013h-14.34
									c-5.821,9.459-10.875,18.944-10.875,18.944v5.032h100.41v-7.935c0,0-5.782-13.062-11.463-22.058h-10.832
									C368.155,111.363,367.757,107.05,368.885,106.32z"/>
								
									<path style="fill:none;stroke:#B77B53;stroke-width:0.3;stroke-linecap:round;stroke-linejoin:round;stroke-miterlimit:10;" d="
									M312.386,110.368c-3.506-0.85-5.207,2.975-5.207,2.975s-0.038-2.541-0.748-4.483c-0.329-0.899-0.802-1.67-1.483-1.999
									c-2.153-1.039-5.313,2.338-5.313,2.338s0.531-6.8-3.081-7.65c-3.613-0.85-6.514,3.825-6.514,3.825v12.007h10.875h14.34
									C315.255,117.381,315.893,111.218,312.386,110.368z"/>
								
									<path style="fill:none;stroke:#B77B53;stroke-width:0.3;stroke-linecap:round;stroke-linejoin:round;stroke-miterlimit:10;" d="
									M387.465,97.362c-2.057,0.531-1.924,4.778-1.924,4.778s-2.389-2.969-4.579-2.414c-2.19,0.556-1.725,5.931-1.725,5.931
									s-2.654-5.375-5.508-4.579c-0.996,0.278-1.541,1.157-1.837,2.18c-0.552,1.908-0.22,4.323-0.22,4.323
									s-1.659-1.991-2.787-1.261c-1.128,0.73-0.73,5.043-0.73,5.043h10.832h11.463v-10.617
									C390.45,100.746,389.522,96.831,387.465,97.362z"/>
							</g>
							
								<path style="fill:none;stroke:#B77B53;stroke-width:0.3;stroke-linecap:round;stroke-linejoin:round;stroke-miterlimit:10;" d="
								M356.911,163.8c-22.285,0-28.637-4.276-28.637-4.276c-19.639-12.945-38.234-9.359-38.234-9.359v17.316h61.942
								C351.981,167.48,353.804,165.931,356.911,163.8L356.911,163.8z"/>
							
								<path style="fill:none;stroke:#B77B53;stroke-width:0.3;stroke-linecap:round;stroke-linejoin:round;stroke-miterlimit:10;" d="
								M356.911,163.8c-3.107,2.131-4.929,3.68-4.929,3.68h4.929h33.539v-15.913C376.863,151.567,363.763,159.1,356.911,163.8z"/>
						</g>
					</g>
				</g>
			</g>
			<g>
				<g>
					<path style="fill:#7F996B;" d="M237.206,413.037c-0.359-2.21-0.217-4.527,0.608-6.608c0.825-2.082,2.362-3.91,4.369-4.904
						c2.047-1.014,4.405-1.115,6.646-1.554s4.609-1.395,5.668-3.418c0.091,2.699-0.499,5.746-1.841,8.09
						c-1.342,2.344-3.621,4.219-6.275,4.721c-1.347,0.254-2.741,0.158-4.088,0.41C239.947,410.211,238.334,410.933,237.206,413.037z
						"/>
					
						<path style="fill:none;stroke:#1F204B;stroke-width:0.3;stroke-linecap:round;stroke-linejoin:round;stroke-miterlimit:10;" d="
						M237.206,413.037c0,0,0.413-6.446,6.164-8.546c5.751-2.1,8.708-1.331,11.128-7.939"/>
				</g>
				<g>
					<g>
						<path style="fill:#ECAE4A;" d="M185.942,473.734c76.56,15.475,132.758-1.105,132.758-1.105s3.665,11.402,7.737,9.366
							c4.072-2.036-4.173-10.995-4.173-10.995s19.648,4.072,16.39-2.851c-3.258-6.923-17.898,0-17.898,0
							c4.093-12.624-5.722-24.434-5.722-24.434s18.325-4.48,14.66-8.145c-3.665-3.665-13.846,4.48-13.846,4.48
							s5.701-12.217,0-12.272c-5.701-0.055-3.258,13.086-3.258,13.086c-69.637-33.8-126.649,3.531-126.649,3.531
							s1.736-11.5-1.55-12.205s-1.174,11.97-1.174,11.97s-7.745-14.317-11.5-11.031c-3.755,3.286,10.327,12.909,10.327,12.909
							s-6.572,11.266,0.704,24.174c0,0-12.439-3.286-12.909,0c-0.469,3.286,12.674,2.112,12.674,2.112s-3.051,11.5,0.939,13.143
							C187.443,487.112,185.942,473.734,185.942,473.734z"/>
						<g>
							<path style="fill:#D6943F;" d="M295.641,442.754c0,2.592-18.967,4.694-42.364,4.694s-42.364-2.102-42.364-4.694
								c0-2.592,18.967-10.12,42.364-10.12S295.641,440.161,295.641,442.754z"/>
							
								<path style="fill:none;stroke:#1F204B;stroke-width:0.3;stroke-linecap:round;stroke-linejoin:round;stroke-miterlimit:10;" d="
								M189.092,467.268c44.433-16.312,89.048-15.817,127.493-1.926"/>
						</g>
					</g>
					<g>
						<g>
							<g>
								<g>
									<path style="fill:#ECAE4A;" d="M324.959,288.628c0,0-21.108,11.619-28.647,11.512l-46.948,11.085l-0.023,0.474v-0.474
										l-46.948-11.085c-7.539,0.108-30.232-11.786-30.232-11.786l-33.73,21.392c0,0,13.372,25.204,52.327,43.369
										c33.903,15.81,53.16,5.48,57.587,2.534c4.842,2.946,25.7,13.276,59.603-2.534c38.954-18.165,51.637-42.92,51.637-42.92
										L324.959,288.628z"/>
									<g>
										<g>
											<g>
												<path style="fill:#ECAE4A;" d="M276.012,358.856c0,0-109.961-80.778-120.233-77.043
													c-10.272,3.735-25.914,13.38-16.576,30.036c9.339,16.656,133.774,64.75,133.774,64.75L276.012,358.856z"/>
												<path style="fill:#DB684D;" d="M254.065,342.995c-3.618,7.286-7.582,14.382-11.94,21.24
													c17.877,7.348,30.853,12.364,30.853,12.364l3.035-17.743C276.012,358.856,267.074,352.29,254.065,342.995z"/>
											</g>
											<g>
												<path style="fill:#1F1F4B;" d="M329.596,358.856c-6.524-3.753-31.561-5.944-34.558-6.473
													c-2.175-0.384-11.207,3.196-16.002,5.19l-9.751-7.602l-0.879,5.276c0,0,7.181,2.785,6.009,8.207
													c-1.172,5.423-2.638,9.087-8.794,7.475l-1.026,4.104l10.319,1.995c6.363,1.394,26.686,5.738,34.228,6.034
													c8.992,0.353,26.095-1.234,26.447-5.642C335.944,373.011,329.596,358.856,329.596,358.856z"/>
												
													<path style="fill:none;stroke:#FDFDF1;stroke-width:0.3;stroke-linecap:round;stroke-linejoin:round;stroke-miterlimit:10;" d="
													M290.78,353.177c0,0,28.449,5.347,32.293,9.135c3.879,3.823,10.266,10.927,3.017,19.629"/>
												
													<path style="fill:none;stroke:#FDFDF1;stroke-width:0.3;stroke-linecap:round;stroke-linejoin:round;stroke-miterlimit:10;" d="
													M289.957,361.843c-0.827,3.795-0.998,7.732-0.503,11.584"/>
												
													<path style="fill:none;stroke:#FDFDF1;stroke-width:0.3;stroke-linecap:round;stroke-linejoin:round;stroke-miterlimit:10;" d="
													M297.002,361.843c-0.827,3.795-0.998,7.732-0.503,11.584"/>
												
													<path style="fill:none;stroke:#FDFDF1;stroke-width:0.3;stroke-linecap:round;stroke-linejoin:round;stroke-miterlimit:10;" d="
													M303.771,361.843c-0.827,3.795-0.998,7.732-0.503,11.584"/>
											</g>
											<g>
												
													<path style="fill:none;stroke:#1F204B;stroke-width:0.3;stroke-linecap:round;stroke-linejoin:round;stroke-miterlimit:10;" d="
													M261.957,348.656c-17.135-12.339-46.741-33.343-70.464-48.543"/>
												
													<path style="fill:none;stroke:#1F204B;stroke-width:0.3;stroke-linecap:round;stroke-linejoin:round;stroke-miterlimit:10;" d="
													M159.882,326.755c23.163,12.705,60.315,28.521,85.669,38.886"/>
												
													<path style="fill:none;stroke:#1F204B;stroke-width:0.3;stroke-linecap:round;stroke-linejoin:round;stroke-miterlimit:10;" d="
													M143.392,295.796c1.908-4.033,6.133-6.865,10.589-7.098"/>
											</g>
										</g>
										<g>
											<g>
												<path style="fill:#ECAE4A;" d="M221.919,358.856c0,0,109.961-80.778,120.233-77.043
													c10.272,3.735,25.914,13.38,16.576,30.036s-133.774,64.75-133.774,64.75L221.919,358.856z"/>
												<path style="fill:#DB684D;" d="M243.866,342.995c3.618,7.286,7.582,14.382,11.94,21.24
													c-17.877,7.348-30.853,12.364-30.853,12.364l-3.035-17.743C221.919,358.856,230.857,352.29,243.866,342.995z"/>
											</g>
											<g>
												<path style="fill:#1F1F4B;" d="M168.335,358.856c6.524-3.753,31.561-5.944,34.558-6.473
													c2.175-0.384,11.207,3.196,16.002,5.19l9.751-7.602l0.879,5.276c0,0-7.181,2.785-6.009,8.207
													c1.172,5.423,2.638,9.087,8.794,7.475l1.026,4.104l-10.319,1.995c-6.363,1.394-26.686,5.738-34.228,6.034
													c-8.992,0.353-26.095-1.234-26.447-5.642C161.987,373.011,168.335,358.856,168.335,358.856z"/>
												
													<path style="fill:none;stroke:#FDFDF1;stroke-width:0.3;stroke-linecap:round;stroke-linejoin:round;stroke-miterlimit:10;" d="
													M207.151,353.177c0,0-28.449,5.347-32.293,9.135c-3.879,3.823-10.266,10.927-3.017,19.629"/>
												
													<path style="fill:none;stroke:#FDFDF1;stroke-width:0.3;stroke-linecap:round;stroke-linejoin:round;stroke-miterlimit:10;" d="
													M207.974,361.843c0.827,3.795,0.998,7.732,0.503,11.584"/>
												
													<path style="fill:none;stroke:#FDFDF1;stroke-width:0.3;stroke-linecap:round;stroke-linejoin:round;stroke-miterlimit:10;" d="
													M200.929,361.843c0.827,3.795,0.998,7.732,0.503,11.584"/>
												
													<path style="fill:none;stroke:#FDFDF1;stroke-width:0.3;stroke-linecap:round;stroke-linejoin:round;stroke-miterlimit:10;" d="
													M194.16,361.843c0.827,3.795,0.998,7.732,0.503,11.584"/>
											</g>
											<g>
												
													<path style="fill:none;stroke:#1F204B;stroke-width:0.3;stroke-linecap:round;stroke-linejoin:round;stroke-miterlimit:10;" d="
													M235.974,348.656c17.135-12.339,46.741-33.343,70.464-48.543"/>
												
													<path style="fill:none;stroke:#1F204B;stroke-width:0.3;stroke-linecap:round;stroke-linejoin:round;stroke-miterlimit:10;" d="
													M338.049,326.755c-23.163,12.705-60.315,28.521-85.669,38.886"/>
												
													<path style="fill:none;stroke:#1F204B;stroke-width:0.3;stroke-linecap:round;stroke-linejoin:round;stroke-miterlimit:10;" d="
													M354.539,295.796c-1.908-4.033-6.133-6.865-10.589-7.098"/>
											</g>
										</g>
									</g>
								</g>
								<g>
									<g>
										<g>
											<path style="fill:#DB684D;" d="M299.913,215.005c0-1.129-32.179-13.549-33.308-14.114
												c-1.129-0.565,1.243-21.046,1.243-21.046l-20.096,4.282l-16.907-4.282c0,0,1.579,20.682,0.45,21.247
												c-1.129,0.565-32.586,12.784-32.586,13.913c0,1.129,8.75,86.939,8.75,86.939s20.779,8.712,38.451,9.773v0.107
												c0.559,0,1.126-0.01,1.7-0.028c0.568,0.018,1.132,0.028,1.69,0.028v-0.105c18.043-1.051,41.862-9.775,41.862-9.775
												S299.913,216.134,299.913,215.005z"/>
											<path style="fill:#C64A36;" d="M267.333,184.601c0.283-2.761,0.514-4.756,0.514-4.756l-20.096,4.282l-16.907-4.282
												c0,0,0.207,2.715,0.417,6.201c2.366,3.988,8.98,9.038,18.035,9.038C259.757,195.083,264.405,188.694,267.333,184.601z"/>
										</g>
										<g>
											<g>
												<path style="fill:#94B9BD;" d="M294.526,268.873c-13.344-8.872-6.933-58.011-6.741-59.461
													c-5.371-2.212-11.422-4.616-15.682-6.308c-3.58,9.068-12.416,15.487-22.756,15.487
													c-10.374,0-19.234-6.461-22.791-15.576c-4.418,1.766-9.983,3.97-15.723,6.362c0.385-0.161-0.394,0.163-0.001,0l0.001,0
													c0,0,6.807,50.491-6.737,59.496l0-0.001c1.803,17.767,3.364,33.072,3.364,33.072s20.779,8.712,38.451,9.773v0.107
													c0.559,0,1.126-0.01,1.7-0.028c0.568,0.018,1.132,0.028,1.69,0.028v-0.105c18.043-1.051,41.862-9.775,41.862-9.775
													S292.723,286.639,294.526,268.873L294.526,268.873z"/>
											</g>
										</g>
									</g>
									<g>
										<g>
											<path style="fill:#C64A36;" d="M85.42,222.377c0,0-1.149-0.984-0.623-2.572c0.526-1.588,5.362-13.468,5.362-13.468
												s3.574,0.421,3.259,4.1c-0.315,3.68-2.208,9.368-2.208,9.368l2.838,3.143h5.012c0,0,0.349,5.677-4.907,5.046
												C88.898,227.363,85.42,222.377,85.42,222.377z"/>
											<path style="fill:#DB684D;" d="M124.475,223.964c0,0-9.718-8.723-15.268-10.177c0,0-5.286-3.7-6.211-4.097
												c-0.925-0.396-9.515-4.619-10.175-3.961c-0.661,0.658-2.907,3.036-2.114,3.565c0.793,0.529,4.361,4.097,7.268,4.493
												c0,0,4.229,2.643,4.097,3.304c-0.132,0.661-4.145,6.184-4.145,6.184s-2.161,1.761-5.748,1.712
												c0,0-5.832-2.611-6.757-2.611c0,0-2.511-3.172-5.286-4.361c0,0-3.964-7.797-7.665-4.889l2.114,5.154
												c0,0-3.7-1.982-5.55,0.264l6.475,5.815l9.383,6.343l7.4,1.718l23.306,1.531L124.475,223.964z"/>
											
												<polyline style="fill:none;stroke:#1F204B;stroke-width:0.3;stroke-linecap:round;stroke-linejoin:round;stroke-miterlimit:10;" points="
												74.584,218.28 78.7,222.002 88.566,227.319 											"/>
											
												<path style="fill:none;stroke:#1F204B;stroke-width:0.3;stroke-linecap:round;stroke-linejoin:round;stroke-miterlimit:10;" d="
												M75.509,224.359c0,0,1.614-2.794,5.504,0l6.939,3.005l8.803-0.629c0,0,12.131-8.705,19.266-6.309"/>
										</g>
										<g>
											<g>
												<path style="fill:#DB684D;" d="M199.538,214.392c0,0-9.965,4.764-20.691,20.299l-15.809,23.874l-38.562-34.6
													l-8.877,9.987c0,0,32.179,56.591,50.303,55.481s36.979-32.548,36.979-32.548L199.538,214.392z"/>
												<g>
													
														<line style="fill:none;stroke:#1F204B;stroke-width:0.3;stroke-linecap:round;stroke-linejoin:round;stroke-miterlimit:10;" x1="139.886" y1="237.792" x2="165.76" y2="261.05"/>
													
														<line style="fill:none;stroke:#1F204B;stroke-width:0.3;stroke-linecap:round;stroke-linejoin:round;stroke-miterlimit:10;" x1="206.58" y1="293.321" x2="200.951" y2="237.792"/>
												</g>
											</g>
											<g>
												<path style="fill:#C64A36;" d="M154.797,284.921c3.984,2.972,7.781,4.714,11.104,4.511
													c3.165-0.194,6.35-1.326,9.456-3.041c0.009-0.178,0.027-0.353,0.027-0.533c0-5.698-4.619-10.317-10.317-10.317
													C159.685,275.541,155.271,279.663,154.797,284.921z"/>
												<g>
													
														<path style="fill:none;stroke:#1F204B;stroke-width:0.3;stroke-linecap:round;stroke-linejoin:round;stroke-miterlimit:10;" d="
														M162.201,287.146c3.357,1.228,7.335,0.569,10.117-1.674"/>
													
														<path style="fill:none;stroke:#1F204B;stroke-width:0.3;stroke-linecap:round;stroke-linejoin:round;stroke-miterlimit:10;" d="
														M165.163,285.125c0.731-1.271,2.238-2.051,3.698-1.915"/>
												</g>
											</g>
										</g>
									</g>
									<g>
										<g>
											<path style="fill:#C64A36;" d="M413.186,222.377c0,0,1.149-0.984,0.623-2.572c-0.526-1.588-5.362-13.468-5.362-13.468
												s-3.574,0.421-3.259,4.1c0.315,3.68,2.208,9.368,2.208,9.368l-2.839,3.143h-5.012c0,0-0.349,5.677,4.907,5.046
												C409.709,227.363,413.186,222.377,413.186,222.377z"/>
											<path style="fill:#DB684D;" d="M374.131,223.964c0,0,9.718-8.723,15.268-10.177c0,0,5.286-3.7,6.211-4.097
												c0.925-0.396,9.515-4.619,10.175-3.961c0.661,0.658,2.907,3.036,2.114,3.565c-0.793,0.529-4.361,4.097-7.268,4.493
												c0,0-4.229,2.643-4.097,3.304c0.132,0.661,4.145,6.184,4.145,6.184s2.161,1.761,5.748,1.712c0,0,5.832-2.611,6.757-2.611
												c0,0,2.511-3.172,5.286-4.361c0,0,3.964-7.797,7.665-4.889l-2.114,5.154c0,0,3.7-1.982,5.55,0.264l-6.475,5.815
												l-9.383,6.343l-7.4,1.718l-23.306,1.531L374.131,223.964z"/>
											
												<polyline style="fill:none;stroke:#1F204B;stroke-width:0.3;stroke-linecap:round;stroke-linejoin:round;stroke-miterlimit:10;" points="
												424.022,218.28 419.906,222.002 410.04,227.319 											"/>
											
												<path style="fill:none;stroke:#1F204B;stroke-width:0.3;stroke-linecap:round;stroke-linejoin:round;stroke-miterlimit:10;" d="
												M423.097,224.359c0,0-1.614-2.794-5.504,0l-6.939,3.005l-8.803-0.629c0,0-12.131-8.705-19.266-6.309"/>
										</g>
										<g>
											<g>
												<path style="fill:#DB684D;" d="M299.068,214.392c0,0,9.965,4.764,20.691,20.299l15.809,23.874l38.562-34.6l8.877,9.987
													c0,0-32.179,56.591-50.303,55.481s-36.979-32.548-36.979-32.548L299.068,214.392z"/>
												<g>
													
														<line style="fill:none;stroke:#1F204B;stroke-width:0.3;stroke-linecap:round;stroke-linejoin:round;stroke-miterlimit:10;" x1="358.72" y1="237.792" x2="332.846" y2="261.05"/>
													
														<line style="fill:none;stroke:#1F204B;stroke-width:0.3;stroke-linecap:round;stroke-linejoin:round;stroke-miterlimit:10;" x1="292.026" y1="293.321" x2="297.655" y2="237.792"/>
												</g>
											</g>
											<g>
												<path style="fill:#C64A36;" d="M343.809,284.921c-3.984,2.972-7.781,4.714-11.104,4.511
													c-3.165-0.194-6.35-1.326-9.456-3.041c-0.009-0.178-0.027-0.353-0.027-0.533c0-5.698,4.619-10.317,10.317-10.317
													C338.921,275.541,343.335,279.663,343.809,284.921z"/>
												<g>
													
														<path style="fill:none;stroke:#1F204B;stroke-width:0.3;stroke-linecap:round;stroke-linejoin:round;stroke-miterlimit:10;" d="
														M336.405,287.146c-3.357,1.228-7.335,0.569-10.117-1.674"/>
													
														<path style="fill:none;stroke:#1F204B;stroke-width:0.3;stroke-linecap:round;stroke-linejoin:round;stroke-miterlimit:10;" d="
														M333.443,285.125c-0.731-1.271-2.238-2.051-3.698-1.915"/>
												</g>
											</g>
										</g>
									</g>
								</g>
								<g>
									<path style="fill:#DB684D;" d="M272.255,150.092c0.053-0.639,0.087-1.284,0.087-1.937
										c0-12.715-10.308-23.023-23.023-23.023c-12.715,0-23.023,10.308-23.023,23.023c0,0.653,0.034,1.298,0.087,1.937
										l-0.007-0.001c0,0,0.327,6.758,2.259,14.599l-0.109-0.129c0,0,2.086,15.647,2.74,16.956
										c0.654,1.309,8.693,6.946,17.527,6.946l-0.027-0.032c0.186,0.006,0.363,0.032,0.552,0.032c0.209,0,0.403-0.027,0.608-0.035
										l-0.029,0.035c8.835,0,16.873-5.638,17.527-6.946c0.654-1.309,2.51-16.232,2.51-16.232l0.045-0.506
										c1.952-7.878,2.281-14.688,2.281-14.688L272.255,150.092z"/>
									<polyline style="fill:#C64A36;" points="249.298,148.157 255.945,165.285 247.905,165.285 									"/>
									<g>
										<path style="fill:#DB684D;" d="M271.711,155.43c0,0,1.247-3.525,3.921-2.047c3.352,1.853,2.082,12.509-5.558,11.038
											C270.074,164.422,270.074,161.186,271.711,155.43z"/>
										<g>
											
												<line style="fill:none;stroke:#1F204B;stroke-width:0.3;stroke-linecap:round;stroke-linejoin:round;stroke-miterlimit:10;" x1="276.269" y1="154.992" x2="271.333" y2="163.261"/>
											
												<line style="fill:none;stroke:#1F204B;stroke-width:0.3;stroke-linecap:round;stroke-linejoin:round;stroke-miterlimit:10;" x1="272.936" y1="154.704" x2="274.699" y2="162.364"/>
										</g>
									</g>
									<g>
										<path style="fill:#DB684D;" d="M226.889,155.43c0,0-1.247-3.525-3.921-2.047c-3.352,1.853-2.082,12.509,5.558,11.038
											C228.527,164.422,228.527,161.186,226.889,155.43z"/>
										<g>
											
												<line style="fill:none;stroke:#1F204B;stroke-width:0.3;stroke-linecap:round;stroke-linejoin:round;stroke-miterlimit:10;" x1="222.331" y1="154.992" x2="227.267" y2="163.261"/>
											
												<line style="fill:none;stroke:#1F204B;stroke-width:0.3;stroke-linecap:round;stroke-linejoin:round;stroke-miterlimit:10;" x1="225.665" y1="154.704" x2="223.902" y2="162.364"/>
										</g>
									</g>
									
										<polyline style="fill:none;stroke:#1F204B;stroke-width:0.3;stroke-linecap:round;stroke-linejoin:round;stroke-miterlimit:10;" points="
										249.298,148.157 255.945,165.285 247.905,165.285 									"/>
									
										<path style="fill:none;stroke:#1F204B;stroke-width:0.3;stroke-linecap:round;stroke-linejoin:round;stroke-miterlimit:10;" d="
										M240.326,171.582c5.847,1.696,12.235,1.463,17.943-0.654"/>
									
										<path style="fill:none;stroke:#1F204B;stroke-width:0.3;stroke-linecap:round;stroke-linejoin:round;stroke-miterlimit:10;" d="
										M235.383,154.353c0,0-0.469-3.826,1.796-3.826s1.796,3.826,1.796,3.826"/>
									<path style="fill:#1F1F4B;" d="M241.51,146.83c-1.273-0.02-2.527-0.306-3.798-0.386c-1.552-0.097-3.104,0.115-4.649,0.296
										c-0.347,0.041-0.829-0.023-0.854-0.371c-0.013-0.178,0.117-0.331,0.245-0.456c0.99-0.969,2.312-1.549,3.671-1.818
										c1.359-0.269,2.759-0.242,4.139-0.124c0.784,0.067,1.714,0.294,1.861,1.196C242.206,145.66,242.104,146.84,241.51,146.83z"
										/>
									
										<path style="fill:none;stroke:#1F204B;stroke-width:0.3;stroke-linecap:round;stroke-linejoin:round;stroke-miterlimit:10;" d="
										M263.239,154.353c0,0,0.469-3.826-1.796-3.826s-1.796,3.826-1.796,3.826"/>
									<path style="fill:#1F1F4B;" d="M257.112,146.83c1.273-0.02,2.527-0.306,3.798-0.386c1.552-0.097,3.104,0.115,4.649,0.296
										c0.347,0.041,0.829-0.023,0.854-0.371c0.013-0.178-0.117-0.331-0.245-0.456c-0.99-0.969-2.312-1.549-3.671-1.818
										c-1.359-0.269-2.759-0.242-4.139-0.124c-0.784,0.067-1.714,0.294-1.861,1.196
										C256.416,145.66,256.517,146.84,257.112,146.83z"/>
									<path style="fill:#1F1F4B;" d="M272.345,148.027c0-13.008-10.308-23.553-23.023-23.553c0,0-0.001,0-0.001,0
										s-0.001,0-0.002,0c-12.715,0-23.023,10.545-23.023,23.553c0,0.668,0.034,1.328,0.087,1.982l-0.007-0.001
										c0,0,0.068,1.41,0.318,3.684c0.003-0.034,1.629-16.121,8.649-18.437c0,0,0.794,3.942,4.648,1.391
										c0,0,0.113,4.29,4.42,2.551c0,0,0.755,3.478,4.911,3.478s4.911-3.478,4.911-3.478c4.306,1.739,4.42-2.551,4.42-2.551
										c3.853,2.551,4.648-1.391,4.648-1.391c7.02,2.316,8.645,18.403,8.649,18.437c0.249-2.274,0.318-3.684,0.318-3.684
										l-0.007,0.001C272.311,149.355,272.345,148.695,272.345,148.027z"/>
									<g>
										<path style="fill:#C64A36;" d="M238.754,165.102c-0.725-5.304-5.612-9.016-10.916-8.291
											c-0.244,0.033-0.48,0.085-0.717,0.135c0.339,2.27,0.823,4.934,1.515,7.743l-0.109-0.129c0,0,0.868,6.508,1.66,11.481
											c0.093-0.01,0.184-0.011,0.277-0.024C235.767,175.293,239.479,170.406,238.754,165.102z"/>
										<path style="fill:#C64A36;" d="M269.981,164.778c0.698-2.818,1.186-5.492,1.528-7.774
											c-1.079-0.235-2.213-0.299-3.371-0.141c-5.304,0.725-9.016,5.612-8.291,10.916c0.62,4.535,4.285,7.895,8.648,8.325
											c0.794-4.981,1.44-10.82,1.44-10.82L269.981,164.778z"/>
									</g>
								</g>
								<g>
									<path style="fill:#1F1F4B;" d="M342.567,342.779c-0.12-0.2-0.379-0.267-0.577-0.147
										c-25.506,15.156-51.485,6.658-65.919-8.492c-10.673-11.201-13.836-24.782-7.872-33.795
										c15.369-23.224,5.313-46.625,5.219-46.837c-2.812-7.454-8.865-12.939-13.824-16.884c-1.669-1.327-3.406-2.629-5.085-3.888
										c-1.609-1.206-3.231-2.441-4.833-3.709c2.485-2.008,4.461-3.801,6.181-5.62c6.586-6.966,11.352-16.37,14.164-27.952
										c2.491-10.257,3.187-20.938,3.861-31.268c0.015-0.232-0.16-0.433-0.393-0.448c-0.258-0.015-0.434,0.161-0.448,0.393
										c-0.672,10.293-1.365,20.938-3.839,31.124c-2.777,11.437-7.473,20.713-13.958,27.571c-1.728,1.829-3.717,3.631-6.245,5.665
										c-2.198-1.769-4.333-3.626-6.262-5.665c-6.485-6.858-11.181-16.134-13.958-27.571c-2.473-10.186-3.167-20.831-3.839-31.124
										c-0.015-0.233-0.223-0.413-0.448-0.393c-0.232,0.015-0.408,0.216-0.393,0.448c0.673,10.33,1.37,21.011,3.861,31.268
										c2.812,11.581,7.578,20.985,14.165,27.952c3.571,3.777,7.795,6.943,11.879,10.004c1.674,1.255,3.406,2.552,5.065,3.873
										c4.874,3.878,10.821,9.261,13.569,16.544c0.101,0.229,9.976,23.208-5.142,46.052c-6.186,9.348-2.985,23.351,7.964,34.842
										c9.249,9.708,23.16,16.728,38.675,16.728c9.083,0,18.72-2.408,28.285-8.093
										C342.619,343.238,342.685,342.979,342.567,342.779z"/>
									<ellipse style="fill:#ECAE4A;" cx="224.957" cy="163.727" rx="2.164" ry="2.655"/>
									<ellipse style="fill:#ECAE4A;" cx="273.023" cy="163.727" rx="2.164" ry="2.655"/>
									<g>
										<polygon style="fill:#94B9BD;" points="339.367,339.194 345.783,347.099 360.274,336.709 353.561,329.143 										"/>
										<polygon style="fill:#1F1F4B;" points="341.139,339.713 345.781,336.371 350.729,341.546 345.807,345.417 										"/>
										
											<circle style="fill:none;stroke:#1F204B;stroke-width:0.3;stroke-linecap:round;stroke-linejoin:round;stroke-miterlimit:10;" cx="352.956" cy="335.693" r="2.428"/>
										
											<line style="fill:none;stroke:#1F204B;stroke-width:0.3;stroke-linecap:round;stroke-linejoin:round;stroke-miterlimit:10;" x1="345.922" y1="334.552" x2="352.855" y2="342.028"/>
										<polygon style="fill:#1F1F4B;" points="339.367,339.194 339.367,340.462 345.781,348.062 345.781,347.099 										"/>
										<polygon style="fill:#1F1F4B;" points="345.781,347.099 360.274,336.709 360.274,337.696 345.781,348.062 										"/>
									</g>
								</g>
							</g>
						</g>
						<g>
							<g>
								<path style="fill:#7F996B;" d="M348.444,105.446c-0.236-2.505,0.099-5.093,1.181-7.364c1.082-2.272,2.944-4.206,5.269-5.169
									c2.372-0.982,5.023-0.918,7.57-1.241c2.547-0.323,5.273-1.217,6.614-3.405c-0.102,3.034-0.994,6.406-2.675,8.933
									s-4.379,4.458-7.393,4.82c-1.529,0.184-3.085-0.03-4.615,0.151C351.73,102.484,349.868,103.172,348.444,105.446z"/>
								
									<path style="fill:none;stroke:#1F204B;stroke-width:0.3;stroke-linecap:round;stroke-linejoin:round;stroke-miterlimit:10;" d="
									M348.444,105.446c0,0,0.949-7.197,7.557-9.118c6.608-1.921,9.866-0.835,13.077-8.062"/>
							</g>
							<g>
								<path style="fill:#7F996B;" d="M170.411,146.868c-0.236-2.505,0.098-5.093,1.181-7.364s2.944-4.206,5.269-5.169
									c2.372-0.982,5.023-0.918,7.57-1.241c2.547-0.323,5.273-1.217,6.614-3.405c-0.102,3.034-0.994,6.406-2.675,8.933
									c-1.682,2.527-4.379,4.458-7.393,4.82c-1.529,0.184-3.085-0.03-4.615,0.151
									C173.698,143.906,171.835,144.593,170.411,146.868z"/>
								
									<path style="fill:none;stroke:#1F204B;stroke-width:0.3;stroke-linecap:round;stroke-linejoin:round;stroke-miterlimit:10;" d="
									M170.411,146.868c0,0,0.949-7.197,7.557-9.118c6.608-1.921,9.866-0.835,13.077-8.062"/>
							</g>
							<g>
								<path style="fill:#7F996B;" d="M105.467,113.545c-0.236-2.505,0.099-5.093,1.181-7.364c1.082-2.272,2.944-4.206,5.269-5.169
									c2.372-0.982,5.023-0.918,7.57-1.241s5.273-1.217,6.614-3.405c-0.102,3.034-0.994,6.406-2.675,8.933
									c-1.682,2.527-4.379,4.458-7.393,4.82c-1.529,0.184-3.085-0.03-4.615,0.151C108.753,110.583,106.891,111.27,105.467,113.545
									z"/>
								
									<path style="fill:none;stroke:#1F204B;stroke-width:0.3;stroke-linecap:round;stroke-linejoin:round;stroke-miterlimit:10;" d="
									M105.467,113.545c0,0,0.949-7.197,7.557-9.118c6.608-1.921,9.866-0.835,13.077-8.062"/>
							</g>
							<g>
								<path style="fill:#7F996B;" d="M107.676,292.18c-1.838,1.719-4.09,3.035-6.55,3.568c-2.46,0.532-5.128,0.242-7.312-1.009
									c-2.227-1.276-3.798-3.414-5.61-5.232c-1.812-1.818-4.187-3.429-6.739-3.152c2.463-1.774,5.677-3.13,8.705-3.344
									c3.028-0.214,6.205,0.74,8.334,2.904c1.08,1.098,1.863,2.46,2.941,3.56C103.323,291.39,105.006,292.444,107.676,292.18z"/>
								
									<path style="fill:none;stroke:#1F204B;stroke-width:0.3;stroke-linecap:round;stroke-linejoin:round;stroke-miterlimit:10;" d="
									M107.676,292.18c0,0-6.276,3.648-11.835-0.406c-5.56-4.055-6.692-7.297-14.375-5.42"/>
							</g>
							<g>
								<path style="fill:#7F996B;" d="M348.246,204.433c-1.838,1.719-4.09,3.035-6.55,3.568c-2.46,0.532-5.128,0.242-7.312-1.009
									c-2.227-1.276-3.798-3.414-5.61-5.232c-1.812-1.818-4.187-3.429-6.739-3.153c2.463-1.774,5.677-3.13,8.705-3.344
									s6.205,0.74,8.334,2.904c1.08,1.098,1.863,2.46,2.94,3.56C343.893,203.643,345.576,204.696,348.246,204.433z"/>
								
									<path style="fill:none;stroke:#1F204B;stroke-width:0.3;stroke-linecap:round;stroke-linejoin:round;stroke-miterlimit:10;" d="
									M348.246,204.433c0,0-6.276,3.648-11.835-0.406c-5.56-4.055-6.692-7.297-14.375-5.42"/>
							</g>
							<g>
								<path style="fill:#ECAE4A;" d="M196.051,89.611c-2.779-0.501-5.355-1.771-7.838-3.118c-0.898-0.487-1.811-1.004-2.464-1.789
									c-0.653-0.786-1-1.907-0.608-2.851c0.351-0.846,1.238-1.389,2.146-1.511s1.83,0.122,2.669,0.49
									c-3.039-1.719-5.735-4.209-7.687-7.105c-0.612-0.907-1.167-1.885-1.354-2.963c-0.187-1.078,0.05-2.28,0.837-3.041
									c1.014-0.98,2.683-0.978,3.958-0.376s2.249,1.684,3.186,2.737c-1.204-1.486-1.789-3.373-2.213-5.238
									c-0.367-1.611-0.635-3.265-0.505-4.913c0.13-1.648,0.685-3.301,1.797-4.525c0.676-0.744,1.638-1.335,2.635-1.207
									c0.846,0.108,1.545,0.706,2.105,1.349c1.569,1.803,2.443,4.132,2.815,6.493s0.271,4.77,0.081,7.153
									c0.373-0.875,0.871-1.854,1.638-2.415c0.767-0.561,1.803-0.811,2.695-0.482c1.012,0.373,1.66,1.418,1.83,2.483
									c0.17,1.065-0.064,2.151-0.363,3.187c-0.761,2.635-1.946,5.124-3.126,7.6c0.716-0.546,1.656-1.129,2.486-0.781
									c0.419,0.175,0.719,0.564,0.89,0.985c0.527,1.297-0.047,2.769-0.747,3.982C199.696,85.865,197.963,88.103,196.051,89.611z"
									/>
								
									<line style="fill:none;stroke:#1F204B;stroke-width:0.3;stroke-linecap:round;stroke-linejoin:round;stroke-miterlimit:10;" x1="189.212" y1="54.461" x2="196.051" y2="89.611"/>
							</g>
							<g>
								<path style="fill:#ECAE4A;" d="M437.073,304.277c-2.459-0.443-4.738-1.567-6.934-2.758c-0.794-0.431-1.602-0.888-2.18-1.583
									s-0.885-1.687-0.538-2.522c0.311-0.748,1.095-1.229,1.898-1.337c0.803-0.108,1.619,0.107,2.361,0.433
									c-2.689-1.521-5.073-3.724-6.8-6.285c-0.541-0.803-1.033-1.668-1.198-2.621s0.044-2.017,0.741-2.69
									c0.897-0.867,2.373-0.865,3.502-0.332s1.989,1.489,2.818,2.422c-1.065-1.314-1.582-2.984-1.958-4.634
									c-0.325-1.426-0.561-2.889-0.447-4.346c0.115-1.457,0.606-2.92,1.589-4.003c0.598-0.658,1.449-1.181,2.331-1.068
									c0.748,0.096,1.367,0.625,1.862,1.194c1.388,1.595,2.161,3.655,2.49,5.744s0.24,4.22,0.071,6.328
									c0.33-0.774,0.77-1.64,1.449-2.137s1.595-0.717,2.384-0.427c0.895,0.33,1.469,1.255,1.619,2.197
									c0.15,0.942-0.057,1.903-0.321,2.82c-0.673,2.331-1.721,4.533-2.765,6.723c0.633-0.483,1.465-0.999,2.199-0.691
									c0.371,0.155,0.636,0.499,0.788,0.872c0.466,1.147-0.042,2.45-0.661,3.523C440.297,300.963,438.764,302.943,437.073,304.277
									z"/>
								
									<line style="fill:none;stroke:#1F204B;stroke-width:0.3;stroke-linecap:round;stroke-linejoin:round;stroke-miterlimit:10;" x1="431.023" y1="273.181" x2="437.073" y2="304.277"/>
							</g>
							<g>
								<path style="fill:#ECAE4A;" d="M409.339,160.184c-2.459-0.443-4.738-1.567-6.934-2.758c-0.794-0.431-1.602-0.888-2.18-1.583
									c-0.578-0.695-0.885-1.687-0.538-2.522c0.311-0.748,1.095-1.229,1.898-1.337c0.803-0.108,1.619,0.107,2.361,0.433
									c-2.689-1.521-5.073-3.724-6.8-6.285c-0.541-0.803-1.033-1.668-1.198-2.621c-0.165-0.954,0.044-2.017,0.741-2.69
									c0.897-0.867,2.373-0.865,3.502-0.332c1.128,0.533,1.989,1.489,2.818,2.422c-1.065-1.314-1.582-2.984-1.958-4.634
									c-0.325-1.426-0.561-2.889-0.447-4.346c0.115-1.458,0.606-2.92,1.589-4.003c0.598-0.658,1.449-1.181,2.331-1.068
									c0.748,0.096,1.367,0.625,1.862,1.193c1.388,1.595,2.161,3.655,2.49,5.744c0.329,2.089,0.24,4.22,0.072,6.328
									c0.33-0.774,0.77-1.64,1.449-2.137s1.595-0.717,2.384-0.427c0.895,0.33,1.469,1.255,1.619,2.197
									c0.15,0.942-0.057,1.903-0.321,2.82c-0.673,2.331-1.721,4.533-2.765,6.723c0.633-0.483,1.465-0.999,2.199-0.691
									c0.371,0.155,0.636,0.499,0.788,0.872c0.466,1.147-0.042,2.45-0.661,3.523C412.564,156.87,411.031,158.85,409.339,160.184z"
									/>
								
									<line style="fill:none;stroke:#1F204B;stroke-width:0.3;stroke-linecap:round;stroke-linejoin:round;stroke-miterlimit:10;" x1="403.29" y1="129.088" x2="409.339" y2="160.184"/>
							</g>
							<g>
								<path style="fill:#ECAE4A;" d="M126.33,367.697c0.094,2.497-0.514,4.964-1.206,7.364c-0.25,0.868-0.524,1.755-1.078,2.469
									c-0.555,0.714-1.458,1.226-2.348,1.067c-0.798-0.143-1.435-0.806-1.713-1.567c-0.278-0.761-0.242-1.604-0.083-2.399
									c-0.908,2.952-2.549,5.754-4.68,7.99c-0.668,0.701-1.407,1.366-2.303,1.733s-1.98,0.39-2.786-0.146
									c-1.039-0.69-1.354-2.133-1.076-3.349c0.278-1.216,1.028-2.263,1.761-3.272c-1.055,1.322-2.575,2.186-4.106,2.907
									c-1.323,0.623-2.701,1.168-4.149,1.369s-2.983,0.034-4.251-0.693c-0.771-0.442-1.464-1.162-1.543-2.047
									c-0.067-0.751,0.317-1.469,0.766-2.074c1.26-1.698,3.106-2.895,5.076-3.665c1.969-0.77,4.07-1.14,6.165-1.427
									c-0.826-0.156-1.767-0.4-2.398-0.957s-1.043-1.404-0.928-2.237c0.13-0.945,0.91-1.704,1.798-2.053s1.871-0.353,2.823-0.291
									c2.421,0.157,4.797,0.709,7.16,1.258c-0.608-0.515-1.29-1.216-1.147-2c0.072-0.396,0.351-0.729,0.682-0.956
									c1.021-0.701,2.402-0.485,3.582-0.11C122.401,365.259,124.664,366.331,126.33,367.697z"/>
								
									<line style="fill:none;stroke:#1F204B;stroke-width:0.3;stroke-linecap:round;stroke-linejoin:round;stroke-miterlimit:10;" x1="97.257" y1="380.278" x2="126.33" y2="367.697"/>
							</g>
						</g>
					</g>
				</g>
			</g>
		</g>
	</g>
</g>
</svg>
