<?xml version="1.0" encoding="utf-8"?>
<!-- Generator: Adobe Illustrator 27.5.0, SVG Export Plug-In . SVG Version: 6.00 Build 0)  -->
<svg version="1.1" xmlns="http://www.w3.org/2000/svg" xmlns:xlink="http://www.w3.org/1999/xlink" x="0px" y="0px"
	 viewBox="0 0 750 500" style="enable-background:new 0 0 750 500;" xml:space="preserve">
<g id="BACKGROUND">
	<g>
		<rect style="fill:#FEEBE4;" width="750" height="500"/>
		<path style="fill:#E8D5D9;" d="M118.977,372.033c0,0-14.051-29.596,6.169-68.31c20.358-38.979,33.938-55.057,30.304-100.092
			c-3.682-45.625-1.693-75.424,41.39-100.375c43.027-24.919,74.653-19.459,94.593-31.43c19.93-11.965,37.826-50.408,91.858-46.836
			c53.439,3.532,66.362,54.269,107.389,63.833c40.601,9.464,84.593,27.065,93.941,73.698c9.21,45.946-2.63,71.328,17.297,101.676
			c19.679,29.969,46.037,64.392,23.37,107.836H118.977z"/>
		<rect y="363.396" style="fill:#FFFFFD;" width="750" height="136.604"/>
	</g>
</g>
<g id="OBJECTS">
	<g>
		<g>
			<g>
				<g>
					<g>
						<path style="fill:#D3C5DC;" d="M269.838,163.785c0,0-8.07-15.415,0-26.97c8.069-11.555,26.126-16.953,27.892-22.448
							C297.73,114.367,308.675,159.034,269.838,163.785z"/>
						<path style="fill:#D3C5DC;" d="M258.694,144.376c0,0-3.75-35.013-43.346-23.826
							C215.348,120.55,227.852,158.045,258.694,144.376z"/>
						<path style="fill:#D3C5DC;" d="M305.076,219.636c0,0-12.89-9.443-11.566-25.929c1.325-16.486,11.629-21.578,13.248-30.366
							C306.758,163.341,336.66,197.137,305.076,219.636z"/>
						<path style="fill:#D3C5DC;" d="M280.11,201.705c0,0-7.502-13.738-22.222-18.007c-14.72-4.269-29.033,3.959-35.916,3.533
							C221.972,187.23,248.762,219.636,280.11,201.705z"/>
						<path style="fill:#D3C5DC;" d="M318.406,245.626c0,0-9.882-13.354-22.982-16.886c-13.101-3.533-28.851,9.715-36.358,9.568
							C259.066,238.308,290.016,265.015,318.406,245.626z"/>
						<path style="fill:#D3C5DC;" d="M337.179,259.367c0,0-23.43-28.051,10.059-49.616
							C347.237,209.751,365.097,237.592,337.179,259.367z"/>
					</g>
				</g>
				<g>
					<g>
						<g>
							<g>
								<path style="fill:#FFFFFF;" d="M257.388,116.821c0.695,18.461,4.651,37.314,10.731,54.698
									c3.674,10.506,8.65,20.19,15.008,29.313c6.052,8.685,12.939,16.769,19.896,24.734c23.956,27.424,54.363,56.993,56.03,95.762
									c0.028,0.642,1.028,0.645,1,0c-0.93-21.632-11.249-40.962-23.87-58.041c-13.244-17.922-29.057-33.725-43.102-50.991
									c-5.567-6.844-10.829-13.968-15.266-21.603c-5.468-9.409-9.174-19.771-12.129-30.21
									c-3.987-14.087-6.746-28.994-7.298-43.662C258.364,116.178,257.364,116.175,257.388,116.821L257.388,116.821z"/>
							</g>
						</g>
						<g>
							<g>
								<path style="fill:#FFFFFF;" d="M289.329,128.439c-9.647,11.916-18.252,26.353-21.71,41.375
									c-0.145,0.628,0.82,0.894,0.964,0.266c3.415-14.833,11.918-29.155,21.453-40.933
									C290.438,128.65,289.735,127.938,289.329,128.439L289.329,128.439z"/>
							</g>
						</g>
						<g>
							<g>
								<path style="fill:#FFFFFF;" d="M227.138,125.824c13.208,3.817,25.997,12.254,34.685,22.818
									c0.41,0.498,1.113-0.213,0.707-0.707c-8.798-10.697-21.76-19.212-35.126-23.075
									C226.783,124.68,226.52,125.645,227.138,125.824L227.138,125.824z"/>
							</g>
						</g>
						<g>
							<g>
								<path style="fill:#FFFFFF;" d="M237.575,189.604c5.346,0.417,10.681,1.548,15.879,2.814
									c11.825,2.88,23.269,7.431,33.647,13.808c0.551,0.339,1.053-0.527,0.505-0.863c-14.778-9.081-32.633-15.402-50.031-16.758
									C236.932,188.554,236.936,189.554,237.575,189.604L237.575,189.604z"/>
							</g>
						</g>
						<g>
							<g>
								<path style="fill:#FFFFFF;" d="M306.276,177.726c-3.25,16.584-3.464,34.48-0.358,51.061
									c0.119,0.633,1.082,0.364,0.964-0.266c-3.069-16.384-2.853-34.141,0.358-50.53
									C307.364,177.362,306.4,177.093,306.276,177.726L306.276,177.726z"/>
							</g>
						</g>
						<g>
							<g>
								<path style="fill:#FFFFFF;" d="M274.522,237.483c5.384-0.102,10.814,0.396,16.146,1.083
									c11.357,1.463,22.844,4.425,32.763,10.288c0.556,0.329,1.059-0.536,0.505-0.863c-9.71-5.739-20.817-8.648-31.906-10.24
									c-5.765-0.828-11.675-1.379-17.508-1.268C273.878,236.495,273.876,237.495,274.522,237.483L274.522,237.483z"/>
							</g>
						</g>
						<g>
							<g>
								<path style="fill:#FFFFFF;" d="M344.745,218.822c-2.317,4.156-3.841,8.853-5.11,13.411
									c-3.084,11.079-3.771,22.756-2.315,34.146c0.081,0.63,1.082,0.638,1,0c-1.451-11.353-0.714-22.831,2.279-33.88
									c1.213-4.479,2.738-9.098,5.009-13.172C345.923,218.763,345.059,218.258,344.745,218.822L344.745,218.822z"/>
							</g>
						</g>
					</g>
				</g>
			</g>
			<g>
				<path style="fill:#AFA0C1;" d="M125.836,259.411c0,0,10.609,8.75,13.19,35.92c2.581,27.17,8.555,46.15,33.582,61.756
					c0,0,6.482-7.165,9.853-16.632c3.372-9.467,16.591-20.765,26.981-18.304c10.391,2.461,4.712,11.779-0.783,14.948
					s-13.555,18.123-14.472,31.035c0,0,22.086,23.194,50.781,19.136c0,0-1.465-13.985,3.658-25.771s21.5-22.899,27.57-20.35
					c6.069,2.55-5.972,16.783-11.311,22.317c-5.339,5.533-5.9,21.449-2.989,25.021c0,0,24.831,1.927,44.408-8.414
					c19.576-10.341,28.861-14.26,28.861-14.26s3.353-20.72-9.152-56.602c-12.505-35.882-63.377-57.25-63.377-57.25
					s-12.554,12.434-12.338,21.664c0.216,9.23,3.606,17.699-0.906,18.47c-4.511,0.77-14.813-7.794-12.067-20.563
					c2.746-12.77,5.581-26.43,3.124-27.891c0,0-23.994-11.886-46.68-6.922C171.085,241.681,142.308,264.608,125.836,259.411z"/>
				<g>
					<g>
						<g>
							<g>
								<path style="fill:#746BA0;" d="M158.008,272.522c6.628,1.532,13.169,3.53,19.654,5.57
									c16.809,5.289,33.299,11.607,49.402,18.755c39.137,17.373,76.325,40.076,107.746,69.319c0.471,0.439,1.18-0.267,0.707-0.707
									c-35.73-33.253-78.784-58.037-123.898-76.228c-17.282-6.969-35.15-13.468-53.345-17.674
									C157.646,271.413,157.38,272.377,158.008,272.522L158.008,272.522z"/>
							</g>
						</g>
						<g>
							<g>
								<path style="fill:#746BA0;" d="M161.045,312.618c5.975-3.315,12.381-5.954,18.768-8.344
									c13.816-5.17,28.397-8.661,43.168-9.258c0.643-0.026,0.645-1.026,0-1c-14.888,0.601-29.497,4.138-43.434,9.294
									c-6.471,2.394-12.963,5.092-19.006,8.445C159.976,312.068,160.48,312.931,161.045,312.618L161.045,312.618z"/>
							</g>
						</g>
						<g>
							<g>
								<path style="fill:#746BA0;" d="M205.401,247.888c-0.918,14.681,2.93,30.3,9.106,43.483c0.273,0.584,1.135,0.076,0.863-0.505
									c-6.105-13.031-9.876-28.476-8.97-42.979C206.441,247.243,205.441,247.247,205.401,247.888L205.401,247.888z"/>
							</g>
						</g>
						<g>
							<g>
								<path style="fill:#746BA0;" d="M219.927,358.128c3.417-5.792,7.675-11.169,12.082-16.226
									c9.35-10.73,20.647-20.221,33.887-25.713c0.587-0.243,0.33-1.211-0.266-0.964c-13.087,5.428-24.182,14.621-33.563,25.103
									c-4.775,5.335-9.355,11.112-13.003,17.295C218.735,358.18,219.6,358.683,219.927,358.128L219.927,358.128z"/>
							</g>
						</g>
						<g>
							<g>
								<path style="fill:#746BA0;" d="M270.82,267.319c-0.773,6.136-1.017,12.365-1.062,18.543
									c-0.087,11.82,0.848,23.99,4.624,35.259c0.204,0.608,1.17,0.347,0.964-0.266c-3.757-11.214-4.631-23.236-4.589-34.993
									c0.022-6.174,0.289-12.411,1.062-18.543C271.9,266.68,270.899,266.688,270.82,267.319L270.82,267.319z"/>
							</g>
						</g>
						<g>
							<g>
								<path style="fill:#746BA0;" d="M278.427,369.937c8.528-10.591,21.212-20.198,34.827-22.405
									c0.635-0.103,0.365-1.067-0.266-0.964c-13.763,2.231-26.649,11.959-35.268,22.663
									C277.32,369.727,278.023,370.439,278.427,369.937L278.427,369.937z"/>
							</g>
						</g>
					</g>
				</g>
			</g>
			<g>
				<path style="fill:#D3C5DC;" d="M614.743,268.382c0,0-11.408,7.681-16.611,34.472c-5.203,26.791-12.989,45.103-39.411,58.21
					c0,0-5.756-7.759-8.194-17.509c-2.438-9.75-14.499-22.276-25.079-20.833c-10.58,1.442-5.831,11.267-0.67,14.953
					c5.162,3.686,11.734,19.352,11.395,32.292c0,0-24.231,20.944-52.397,14.122c0,0,2.813-13.777-1.142-26.005
					c-3.955-12.228-19.179-24.876-25.467-22.927c-6.288,1.949,4.317,17.284,9.094,23.308c4.777,6.025,3.792,21.92,0.549,25.192
					c0,0-24.901-0.489-43.383-12.679c-18.482-12.19-27.342-16.991-27.342-16.991s-1.328-20.948,14.596-55.448
					c15.925-34.5,68.629-50.836,68.629-50.836s11.289,13.592,10.179,22.758c-1.11,9.166-5.305,17.266-0.889,18.47
					c4.415,1.204,15.499-6.321,14.004-19.297c-1.495-12.976-2.993-26.847-0.406-28.062c0,0,25.034-9.504,47.131-2.364
					C571.427,246.348,597.845,271.956,614.743,268.382z"/>
				<g>
					<g>
						<g>
							<g>
								<path style="fill:#746BA0;" d="M581.366,277.318c-6.942,0.908-13.838,2.301-20.682,3.752
									c-17.633,3.737-35.037,8.573-52.122,14.309c-40.192,13.493-78.958,32.378-112.728,58.177
									c-0.505,0.386-0.008,1.255,0.505,0.863c39.81-30.413,86.447-51.22,134.46-64.887c16.43-4.677,33.861-9.029,50.567-11.215
									C581.996,278.236,582.004,277.235,581.366,277.318L581.366,277.318z"/>
							</g>
						</g>
						<g>
							<g>
								<path style="fill:#746BA0;" d="M575.088,317.087c-5.749-3.964-12.012-7.276-18.277-10.329
									c-13.244-6.452-27.4-11.317-42.024-13.338c-0.63-0.087-0.902,0.876-0.266,0.964c14.779,2.043,28.994,7.006,42.37,13.522
									c6.068,2.956,12.126,6.205,17.693,10.044C575.115,318.318,575.615,317.451,575.088,317.087L575.088,317.087z"/>
							</g>
						</g>
						<g>
							<g>
								<path style="fill:#746BA0;" d="M535.673,249.15c-0.503,14.517-5.785,29.536-13.118,41.899
									c-0.33,0.556,0.535,1.059,0.864,0.505c7.433-12.531,12.746-27.702,13.255-42.404
									C536.695,248.505,535.695,248.507,535.673,249.15L535.673,249.15z"/>
							</g>
						</g>
						<g>
							<g>
								<path style="fill:#746BA0;" d="M512.411,357.049c-2.977-6.392-6.903-12.432-11.025-18.129
									c-8.281-11.448-18.567-21.809-31.116-28.506c-0.569-0.303-1.074,0.56-0.505,0.863c12.596,6.722,22.789,17.131,31.094,28.612
									c4.007,5.539,7.795,11.452,10.688,17.665C511.82,358.138,512.682,357.63,512.411,357.049L512.411,357.049z"/>
							</g>
						</g>
						<g>
							<g>
								<path style="fill:#746BA0;" d="M468.678,262.147c0.169,5.971-0.169,11.98-0.684,17.925
									c-1.025,11.846-3.096,23.977-7.979,34.895c-0.261,0.583,0.601,1.092,0.863,0.505c4.797-10.726,6.866-22.498,7.998-34.127
									c0.619-6.357,0.982-12.808,0.801-19.198C469.66,261.504,468.66,261.502,468.678,262.147L468.678,262.147z"/>
							</g>
						</g>
						<g>
							<g>
								<path style="fill:#746BA0;" d="M452.974,363.023c-7.569-11.534-19.456-22.488-32.996-26.055
									c-0.624-0.164-0.889,0.8-0.266,0.964c13.276,3.497,24.97,14.277,32.399,25.596
									C452.462,364.064,453.329,363.564,452.974,363.023L452.974,363.023z"/>
							</g>
						</g>
					</g>
				</g>
			</g>
			<g>
				<path style="fill:#AFA0C1;" d="M391.488,299.426c0,0,9.934-18.436,32.185-49.541s57.971-61.998,77.598-75.01
					c19.626-13.012,43.178-16.937,48.281-11.245c5.103,5.692-2.748,27.6-33.757,50.796c-31.01,23.196-84.674,48.71-119.076,87.178
					L391.488,299.426z"/>
				<g>
					<g>
						<path style="fill:#746BA0;" d="M511.616,185.376c-5.012,3.204-9.773,6.85-14.474,10.486
							c-13.506,10.447-26.344,21.748-38.725,33.5c-23.215,22.037-44.727,45.847-64.855,70.721c-0.402,0.496,0.301,1.209,0.707,0.707
							c29.614-36.595,62.259-71.341,99.139-100.737c6.042-4.816,12.193-9.647,18.712-13.814
							C512.662,185.893,512.161,185.027,511.616,185.376L511.616,185.376z"/>
					</g>
				</g>
			</g>
			<g>
				<path style="fill:#D3C5DC;" d="M379.194,316.948c0,0,3.614-20.628,14.922-57.162c11.309-36.535,35.465-77.115,49.988-95.651
					c14.522-18.536,35.635-29.688,42.272-25.895s6.095,27.058-16.019,58.849c-22.114,31.79-64.995,72.924-85.513,120.277
					L379.194,316.948z"/>
				<g>
					<g>
						<path style="fill:#746BA0;" d="M457.256,170.814c-3.678,4.537-6.99,9.401-10.253,14.239
							c-9.376,13.898-17.852,28.403-25.779,43.17c-15.356,28.607-28.468,58.404-39.888,88.786c-0.227,0.605,0.74,0.864,0.964,0.266
							c16.507-43.915,36.464-87.023,62.07-126.434c4.274-6.579,8.645-13.216,13.593-19.319
							C458.365,171.025,457.662,170.313,457.256,170.814L457.256,170.814z"/>
					</g>
				</g>
			</g>
		</g>
		<g>
			<g>
				<polygon style="fill:#FF9EAF;" points="563.413,372.454 186.587,372.454 99.446,461.362 650.554,461.362 				"/>
				
					<line style="fill:none;stroke:#FFFFFF;stroke-width:2;stroke-miterlimit:10;" x1="220.807" y1="372.454" x2="149.493" y2="461.362"/>
				
					<line style="fill:none;stroke:#FFFFFF;stroke-width:2;stroke-miterlimit:10;" x1="529.193" y1="372.454" x2="600.507" y2="461.362"/>
				<rect x="99.446" y="461.362" style="fill:#F0626E;" width="551.108" height="2.944"/>
			</g>
			<g>
				<g>
					<g>
						<path style="fill:#746BA0;" d="M584.862,352.66c-6.683-8.275-7.002-23.409-7.002-23.409h-8.275h-8.275
							c0,0-0.318,15.135-7.002,23.409c-6.683,8.275-22.596,16.834-20.05,32.922c2.546,16.089,14.321,20.226,35.326,20.226
							s32.78-4.137,35.326-20.226C607.458,369.493,591.545,360.934,584.862,352.66z"/>
						<path style="fill:#FFD057;" d="M577.86,329.25h-8.275h-8.275c0,0-0.318,15.135-7.002,23.409
							c-4.551,5.634-13.375,11.402-17.743,19.587h66.039c-4.368-8.185-13.193-13.953-17.743-19.587
							C578.178,344.385,577.86,329.25,577.86,329.25z"/>
					</g>
					<g style="opacity:0.5;">
						<path style="fill:#FFFFFF;" d="M567.705,321.434c0,0,10.893-13.03,7.065-29.683c-3.827-16.654-15.309-32.848-12.659-43.887
							c2.649-11.039,10.304-17.623,10.304-24.046c0,0,2.061,6.379-1.178,19.265c-2.003,7.97-1.652,16.514,5.594,28.481
							C581.675,279.563,592.729,304.475,567.705,321.434z"/>
						<path style="fill:#FFFFFF;" d="M563.583,314.546c0,0,7.065-10.304,4.416-21.491c-2.65-11.187-11.776-18.033-11.776-31.243
							c0,0-2.65,6.084,1.766,18.517C562.406,292.76,567.116,299.826,563.583,314.546z"/>
					</g>
				</g>
				<g>
					<g>
						<path style="fill:#746BA0;" d="M195.691,352.66c-6.683-8.275-7.002-23.409-7.002-23.409h-8.275h-8.275
							c0,0-0.318,15.135-7.002,23.409s-22.596,16.834-20.05,32.922c2.546,16.089,14.321,20.226,35.326,20.226
							s32.78-4.137,35.326-20.226C218.287,369.493,202.374,360.934,195.691,352.66z"/>
						<path style="fill:#FFD057;" d="M188.689,329.25h-8.275h-8.275c0,0-0.318,15.135-7.002,23.409
							c-4.55,5.634-13.375,11.402-17.743,19.587h66.039c-4.368-8.185-13.193-13.953-17.743-19.587
							C189.008,344.385,188.689,329.25,188.689,329.25z"/>
					</g>
					<g style="opacity:0.5;">
						<path style="fill:#FFFFFF;" d="M178.534,321.434c0,0,10.893-13.03,7.065-29.683c-3.827-16.654-15.309-32.848-12.659-43.887
							c2.65-11.039,10.304-17.623,10.304-24.046c0,0,2.061,6.379-1.178,19.265c-2.003,7.97-1.652,16.514,5.593,28.481
							C192.504,279.563,203.558,304.475,178.534,321.434z"/>
						<path style="fill:#FFFFFF;" d="M174.413,314.546c0,0,7.065-10.304,4.416-21.491c-2.65-11.187-11.776-18.033-11.776-31.243
							c0,0-2.649,6.084,1.766,18.517C173.235,292.76,177.945,299.826,174.413,314.546z"/>
					</g>
				</g>
			</g>
			<g>
				<g>
					<g>
						<path style="fill:#D6BDC3;" d="M558.822,392.277c-1.766-5.79-23.552-14.818-57.702-20.391
							c-34.15-5.573-67.106-5.279-67.106-5.279l-56.92,10.556l-56.92-10.556c0,0-32.956-0.294-67.106,5.279
							s-55.935,14.602-57.702,20.391c-1.766,5.79-2.65,28.458,3.827,33.463c6.457,4.989,176.838,9.685,177.889,9.714v0.001
							c0,0,0.011,0,0.012,0l0.012,0v-0.001c1.05-0.029,171.432-4.725,177.889-9.714
							C561.472,420.735,560.589,398.067,558.822,392.277z"/>
						<path style="fill:none;stroke:#E8D5D9;stroke-linecap:round;stroke-linejoin:round;stroke-miterlimit:10;" d="
							M320.957,372.454c0,0,27.789,17.369,44.275,51.814"/>
						<path style="fill:none;stroke:#E8D5D9;stroke-linecap:round;stroke-linejoin:round;stroke-miterlimit:10;" d="
							M433.232,372.454c0,0-27.789,17.369-44.275,51.814"/>
					</g>
					<g>
						<path style="fill:#E8D5D9;" d="M465.3,403.897c2.998-9.991,9.535-24.61,13.61-26.24c4.075-1.629,9.834,2.987,11.461,3.32
							c1.627,0.333,3.078-2.894,6.044-3.041c2.966-0.146,5.362,4.189,6.552,4.092c1.19-0.098,44.35-0.928,51.023,5.488
							c6.673,6.417,9.944,28.649,0.547,38.598c-9.397,9.949-46.344,8.934-53.613,8.721c-7.269-0.213-12.427,0.94-15.024-0.269
							c-6.37-2.965-8.722,0.438-12.125-0.224c-5.23-1.018-8.904,0.635-13.288-1.109C456.102,431.49,465.3,403.897,465.3,403.897z"/>
						<g>
							<path style="fill:#ED8C8C;" d="M305.439,407.888c3.301-0.611,11.271-4.082,20.733-4.178
								c9.462-0.097,17.041-2.418,20.953-6.819c3.912-4.4,12.666-13.714,20.66-10.388s9.117,18.191,16.72,19.121
								c6.432,0.787,75.18-13.097,96.211-17.394c-1.602,9.246-5.839,28.176-15.263,41.743c-28.052-2.747-80.654-6.544-92.122-7.261
								c-14.107-0.882-70.557-7.661-74.322-8.566C295.243,413.241,302.138,408.499,305.439,407.888z"/>
							<path style="fill:none;stroke:#D6BDC3;stroke-miterlimit:10;" d="M481.542,382.702c0,0-3.595,32.491-18.706,50.728"/>
						</g>
						<g>
							<g>
								<path style="fill:none;stroke:#D6BDC3;stroke-miterlimit:10;" d="M490.077,384.498c0,0,4.051,10.983,3.869,25.384
									c-0.182,14.401-4.937,21.4-6.469,20.878c-1.532-0.522,2.441-23.589,2.668-36.686"/>
								<path style="fill:none;stroke:#D6BDC3;stroke-miterlimit:10;" d="M487.379,400.816c0,0-4.534,19.374-11.762,30.46"/>
							</g>
						</g>
					</g>
					<g>
						<path style="fill:#E8D5D9;" d="M284.86,412.884c-2.156-10.206-7.456-25.318-11.381-27.281
							c-3.925-1.963-10.048,2.159-11.697,2.355c-1.649,0.196-2.827-3.14-5.771-3.533c-2.944-0.393-5.692,3.729-6.869,3.533
							c-1.178-0.196-44.119-4.613-51.303,1.226c-7.184,5.839-12.292,27.723-3.755,38.419c8.537,10.696,45.441,12.757,52.702,13.15
							c7.262,0.393,12.306,1.97,14.995,0.981c6.594-2.425,8.655,1.162,12.101,0.785c5.296-0.579,8.82,1.374,13.334,0
							C291.732,441.147,284.86,412.884,284.86,412.884z"/>
						<g>
							<path style="fill:#FEB49B;" d="M443.836,430.156c-3.238-0.883-10.893-5.005-20.313-5.888
								c-9.421-0.883-16.781-3.827-20.313-8.538c-3.533-4.71-11.482-14.72-19.725-12.07c-8.243,2.65-10.598,17.369-18.253,17.664
								c-6.475,0.249-73.83-19.304-94.431-25.335c0.828,9.348,3.476,28.564,11.739,42.868c28.183-0.405,80.919,0.186,92.407,0.425
								c14.131,0.294,70.949-1.766,74.776-2.355C453.551,436.338,447.075,431.039,443.836,430.156z"/>
							<path style="fill:none;stroke:#D6BDC3;stroke-miterlimit:10;" d="M270.438,390.412c0,0,0.881,32.678,14.423,52.108"/>
						</g>
						<g>
							<g>
								<path style="fill:none;stroke:#D6BDC3;stroke-miterlimit:10;" d="M261.783,391.492c0,0-4.951,10.608-5.967,24.975
									c-1.016,14.367,3.14,21.736,4.71,21.344c1.57-0.392-0.471-23.71,0.393-36.781"/>
								<path style="fill:none;stroke:#D6BDC3;stroke-miterlimit:10;" d="M263.114,407.978c0,0,2.907,19.684,9.188,31.333"/>
							</g>
						</g>
					</g>
				</g>
				<g>
					<path style="fill:#ED8C8C;" d="M312.63,236.849c0,0-42.713,59.05-48.586,73.58c-5.873,14.53,17.678,17.67,25.725,12.371
						c8.047-5.299,31.188-35.406,31.188-35.406L312.63,236.849z"/>
					<path style="fill:#ED8C8C;" d="M441.559,236.849c0,0,42.713,59.05,48.586,73.58c5.873,14.53-17.678,17.67-25.725,12.371
						c-8.047-5.299-31.188-35.406-31.188-35.406L441.559,236.849z"/>
					<g>
						<path style="fill:#FF9EAF;" d="M440.623,232.175c-2.502-2.65-24.582-16.633-27.379-17.516c-2.797-0.883-4.122,1.03-4.122,1.03
							h-32.016h-0.024h-32.016c0,0-1.325-1.914-4.121-1.03c-2.797,0.883-24.876,14.867-27.379,17.516
							c-2.502,2.65-28.998,28.409-28.704,30.764c0.294,2.355,5.005,18.547,15.161,29.292c10.157,10.745,16.045,13.248,18.105,13.248
							c2.061,0,7.802-2.355,7.802-2.355s4.563,15.603,4.858,17.369c0.294,1.766-3.238,5.005-3.238,6.477
							c0,1.472,2.797,4.122,2.797,5.446s-6.624,8.832-7.065,10.745s1.178,7.801,1.178,8.832c0,1.03-6.035,10.745-5.888,12.365
							c0.147,1.619,15.745,20.06,58.511,20.068v0c0.004,0,0.008,0,0.012,0c0.004,0,0.008,0,0.012,0v0
							c42.767-0.007,58.364-18.449,58.511-20.068c0.147-1.619-5.888-11.334-5.888-12.365c0-1.03,1.619-6.918,1.177-8.832
							c-0.441-1.914-7.065-9.421-7.065-10.745s2.797-3.974,2.797-5.446c0-1.472-3.533-4.71-3.238-6.477
							c0.294-1.766,4.858-17.369,4.858-17.369s5.741,2.355,7.801,2.355c2.061,0,7.949-2.502,18.105-13.248
							c10.157-10.746,14.867-26.937,15.161-29.292C469.621,260.584,443.125,234.824,440.623,232.175z"/>
						<g>
							<defs>
								<path id="SVGID_1_" d="M440.623,232.175c-2.502-2.65-24.582-16.633-27.379-17.516c-2.797-0.883-4.122,1.03-4.122,1.03
									h-32.016h-0.024h-32.016c0,0-1.325-1.914-4.121-1.03c-2.797,0.883-24.876,14.867-27.379,17.516
									c-2.502,2.65-28.998,28.409-28.704,30.764c0.294,2.355,5.005,18.547,15.161,29.292
									c10.157,10.745,16.045,13.248,18.105,13.248c2.061,0,7.802-2.355,7.802-2.355s4.563,15.603,4.858,17.369
									c0.294,1.766-3.238,5.005-3.238,6.477c0,1.472,2.797,4.122,2.797,5.446s-6.624,8.832-7.065,10.745s1.178,7.801,1.178,8.832
									c0,1.03-6.035,10.745-5.888,12.365c0.147,1.619,15.745,20.06,58.511,20.068v0c0.004,0,0.008,0,0.012,0
									c0.004,0,0.008,0,0.012,0v0c42.767-0.007,58.364-18.449,58.511-20.068c0.147-1.619-5.888-11.334-5.888-12.365
									c0-1.03,1.619-6.918,1.177-8.832c-0.441-1.914-7.065-9.421-7.065-10.745s2.797-3.974,2.797-5.446
									c0-1.472-3.533-4.71-3.238-6.477c0.294-1.766,4.858-17.369,4.858-17.369s5.741,2.355,7.801,2.355
									c2.061,0,7.949-2.502,18.105-13.248c10.157-10.746,14.867-26.937,15.161-29.292
									C469.621,260.584,443.125,234.824,440.623,232.175z"/>
							</defs>
							<clipPath id="SVGID_00000020356745257565466130000017365791837415240580_">
								<use xlink:href="#SVGID_1_"  style="overflow:visible;"/>
							</clipPath>
							<g style="clip-path:url(#SVGID_00000020356745257565466130000017365791837415240580_);">
								<g>
									<g>
										<g>
											<path style="fill:#FEEBE4;" d="M273.47,274.096c0.191,3.613,3.807,5.292,6.845,6.227
												c3.917,1.206,7.907,1.357,11.707-0.202c5.752-2.361,10.939-6.832,17.427-6.849c5.453-0.014,7.011,4.66,9.756,8.338
												c2.366,3.17,5.808,3.643,9.476,2.681c5.242-1.375,8.833-6.368,13.062-9.402c6.342-4.549,12.997-1.916,18.673,2.237
												c4.052,2.965,8.308,7.776,13.762,7.549c4.106-0.171,8.043-3.979,11.155-6.249c5.93-4.325,12.892-5.53,19.511-2.06
												c4.454,2.336,8.362,5.708,13.392,6.77c4.766,1.007,8.934-1.27,12.528-4.145c5.209-4.168,10.485-7.93,17.474-5.768
												c2.843,0.88,5.326,2.663,7.935,4.041c1.998,1.056,4.089,1.931,6.224,2.67c8.888,3.078,18.243,1.792,23.972-6.174
												c0.377-0.525-0.491-1.023-0.863-0.505c-8.362,11.629-22.299,6.882-32.616,1.008c-5.355-3.049-10.433-3.46-16.074-0.893
												c-6.157,2.801-9.544,9.286-17.077,8.96c-6.3-0.272-11.002-5.734-16.617-7.902c-6.145-2.373-12.192-0.84-17.573,2.639
												c-4.682,3.027-9.291,8.389-15.324,5.788c-5.777-2.491-9.805-7.865-15.671-10.355c-3.641-1.545-7.493-1.432-11.072,0.196
												c-4.067,1.85-7.036,5.623-10.552,8.267c-3.244,2.439-8.314,4.28-11.789,1.303c-2.232-1.912-3.255-4.975-5.166-7.183
												c-5.626-6.5-15.309-0.487-21.039,2.535c-4.01,2.114-7.25,3.059-11.717,2.345c-3.167-0.506-8.538-1.93-8.746-5.867
												C274.436,273.454,273.436,273.451,273.47,274.096L273.47,274.096z"/>
										</g>
									</g>
									<g>
										<g>
											<path style="fill:#FEEBE4;" d="M273.47,236.432c0.191,3.613,3.807,5.292,6.845,6.227
												c3.917,1.205,7.907,1.357,11.707-0.202c5.752-2.361,10.939-6.832,17.427-6.849c5.453-0.014,7.011,4.661,9.756,8.338
												c2.366,3.17,5.808,3.643,9.476,2.681c5.242-1.375,8.833-6.368,13.062-9.402c6.342-4.549,12.997-1.916,18.673,2.237
												c4.052,2.964,8.308,7.776,13.762,7.548c4.106-0.171,8.043-3.979,11.155-6.249c5.93-4.325,12.892-5.531,19.511-2.059
												c4.454,2.336,8.362,5.708,13.392,6.77c4.766,1.007,8.934-1.27,12.528-4.145c5.209-4.168,10.485-7.93,17.474-5.768
												c2.843,0.88,5.326,2.662,7.935,4.041c1.998,1.056,4.089,1.931,6.224,2.67c8.888,3.078,18.243,1.792,23.972-6.174
												c0.377-0.525-0.491-1.023-0.863-0.505c-8.362,11.629-22.299,6.882-32.616,1.008c-5.355-3.049-10.433-3.46-16.074-0.893
												c-6.157,2.801-9.544,9.286-17.077,8.961c-6.3-0.272-11.002-5.734-16.617-7.902c-6.145-2.373-12.192-0.84-17.573,2.639
												c-4.682,3.027-9.291,8.389-15.324,5.788c-5.777-2.491-9.805-7.865-15.671-10.355c-3.641-1.545-7.493-1.432-11.072,0.196
												c-4.067,1.85-7.036,5.623-10.552,8.267c-3.244,2.439-8.314,4.28-11.789,1.303c-2.232-1.912-3.255-4.975-5.166-7.183
												c-5.626-6.5-15.309-0.487-21.039,2.535c-4.01,2.114-7.25,3.059-11.717,2.345c-3.167-0.506-8.538-1.93-8.746-5.867
												C274.436,235.791,273.436,235.787,273.47,236.432L273.47,236.432z"/>
										</g>
									</g>
									<g>
										<g>
											<path style="fill:#FEEBE4;" d="M273.47,311.76c0.191,3.613,3.807,5.292,6.845,6.227
												c3.917,1.206,7.907,1.358,11.707-0.202c5.752-2.361,10.939-6.832,17.427-6.849c5.453-0.014,7.011,4.66,9.756,8.337
												c2.366,3.17,5.808,3.643,9.476,2.681c5.242-1.375,8.833-6.368,13.062-9.401c6.342-4.549,12.997-1.916,18.673,2.237
												c4.052,2.965,8.308,7.776,13.762,7.548c4.106-0.171,8.043-3.979,11.155-6.249c5.93-4.325,12.892-5.53,19.511-2.059
												c4.454,2.336,8.362,5.708,13.392,6.77c4.766,1.007,8.934-1.27,12.528-4.145c5.209-4.168,10.485-7.93,17.474-5.768
												c2.843,0.88,5.326,2.663,7.935,4.041c1.998,1.056,4.089,1.931,6.224,2.67c8.888,3.078,18.243,1.792,23.972-6.175
												c0.377-0.525-0.491-1.023-0.863-0.505c-8.362,11.629-22.299,6.882-32.616,1.008c-5.355-3.049-10.433-3.46-16.074-0.893
												c-6.157,2.801-9.544,9.286-17.077,8.961c-6.3-0.272-11.002-5.734-16.617-7.902c-6.145-2.373-12.192-0.84-17.573,2.639
												c-4.682,3.027-9.291,8.389-15.324,5.788c-5.777-2.491-9.805-7.865-15.671-10.355c-3.641-1.545-7.493-1.432-11.072,0.196
												c-4.067,1.85-7.036,5.623-10.552,8.267c-3.244,2.439-8.314,4.28-11.789,1.303c-2.232-1.912-3.255-4.975-5.166-7.183
												c-5.626-6.5-15.309-0.487-21.039,2.534c-4.01,2.114-7.25,3.059-11.717,2.345c-3.167-0.506-8.538-1.93-8.746-5.867
												C274.436,311.118,273.436,311.115,273.47,311.76L273.47,311.76z"/>
										</g>
									</g>
									<g>
										<g>
											<path style="fill:#FEEBE4;" d="M273.47,349.424c0.191,3.613,3.807,5.292,6.845,6.227
												c3.917,1.206,7.907,1.357,11.707-0.202c5.752-2.361,10.939-6.832,17.427-6.849c5.453-0.014,7.011,4.66,9.756,8.337
												c2.366,3.17,5.808,3.643,9.476,2.681c5.242-1.375,8.833-6.368,13.062-9.401c6.342-4.549,12.997-1.916,18.673,2.236
												c4.052,2.965,8.308,7.776,13.762,7.548c4.106-0.171,8.043-3.979,11.155-6.249c5.93-4.325,12.892-5.531,19.511-2.059
												c4.454,2.336,8.362,5.708,13.392,6.77c4.766,1.007,8.934-1.27,12.528-4.145c5.209-4.167,10.485-7.93,17.474-5.768
												c2.843,0.88,5.326,2.662,7.935,4.041c1.998,1.056,4.089,1.931,6.224,2.67c8.888,3.078,18.243,1.792,23.972-6.174
												c0.377-0.525-0.491-1.023-0.863-0.505c-8.362,11.629-22.299,6.882-32.616,1.008c-5.355-3.049-10.433-3.46-16.074-0.893
												c-6.157,2.801-9.544,9.286-17.077,8.96c-6.3-0.272-11.002-5.734-16.617-7.902c-6.145-2.373-12.192-0.84-17.573,2.639
												c-4.682,3.027-9.291,8.389-15.324,5.788c-5.777-2.491-9.805-7.865-15.671-10.355c-3.641-1.545-7.493-1.432-11.072,0.196
												c-4.067,1.85-7.036,5.623-10.552,8.267c-3.244,2.439-8.314,4.28-11.789,1.303c-2.232-1.912-3.255-4.975-5.166-7.183
												c-5.626-6.5-15.309-0.487-21.039,2.535c-4.01,2.114-7.25,3.059-11.717,2.345c-3.167-0.506-8.538-1.93-8.746-5.867
												C274.436,348.782,273.436,348.779,273.47,349.424L273.47,349.424z"/>
										</g>
									</g>
								</g>
							</g>
						</g>
						<path style="fill:#F0626E;" d="M409.122,215.689h-32.016h-0.024h-32.016c0,0-1.325-1.914-4.121-1.03
							c-0.558,0.176-1.892,0.88-3.677,1.905c15.055,32.155,39.304,40.12,39.814,40.284h0.024c0.51-0.164,24.759-8.129,39.814-40.284
							c-1.785-1.025-3.119-1.729-3.677-1.905C410.447,213.775,409.122,215.689,409.122,215.689z"/>
						<path style="fill:#F0626E;" d="M431.993,356.597c-11.253,6.085-34.35,17.03-54.898,17.035
							c-20.548-0.004-43.645-10.95-54.898-17.035c-1.696,3.123-3.711,6.817-3.625,7.762c0.147,1.619,15.745,20.06,58.511,20.068v0
							c0.004,0,0.008,0,0.012,0c0.004,0,0.008,0,0.012,0v0c42.767-0.007,58.364-18.449,58.511-20.068
							C435.704,363.414,433.689,359.72,431.993,356.597z"/>
						<g>
							<path style="fill:none;stroke:#F0626E;stroke-linecap:round;stroke-linejoin:round;stroke-miterlimit:10;" d="
								M313.566,232.175c0,0-3.385,11.04,0,27.526c3.386,16.486,12.365,43.423,12.365,43.423"/>
							<path style="fill:none;stroke:#F0626E;stroke-linecap:round;stroke-linejoin:round;stroke-miterlimit:10;" d="
								M440.623,232.175c0,0,3.386,11.04,0,27.526c-3.385,16.486-12.365,43.423-12.365,43.423"/>
							<path style="fill:none;stroke:#F0626E;stroke-linecap:round;stroke-linejoin:round;stroke-miterlimit:10;" d="
								M333.496,331.239c0,0,38.802,19.43,91.499,17.369"/>
							<path style="fill:none;stroke:#F0626E;stroke-linecap:round;stroke-linejoin:round;stroke-miterlimit:10;" d="
								M327.256,353.408c0,0,35.342,10.312,86.559-0.776"/>
						</g>
					</g>
					<g>
						<path style="fill:#FEB49B;" d="M362.001,305.76c0.117-1.994,1.642-17.36,1.642-18.367s4.223-10.02,5.044-13.187
							c0.821-3.167,4.34-16.891,4.692-18.651s3.284-1.408,3.583,0c0.298,1.408,0.054,17.243,0,20.879
							c-0.054,3.636-1.471,11.261-1.354,13.841c0.065,1.426,1.056,14.78,1.29,17.83c0.235,3.05-0.174,6.686-1.319,7.976
							s-13.578,4.34-13.578,4.34c-11.488,2.868-88.325,12.289-96.274,8.167c-7.949-4.121-2.649-21.165,5.005-28.23
							c7.654-7.066,20.542-5.055,41.33-0.933C332.849,303.547,362.001,305.76,362.001,305.76z"/>
						<path style="fill:none;stroke:#D67676;stroke-linecap:round;stroke-linejoin:round;stroke-miterlimit:10;" d="
							M377.107,268.341c0,0-2.32-1.642-3.376,0.704c-1.056,2.346-1.877,9.384-2.463,11.73c-0.586,2.346-3.167,7.742-3.402,8.211"/>
						<path style="fill:none;stroke:#D67676;stroke-linecap:round;stroke-linejoin:round;stroke-miterlimit:10;" d="
							M377.103,260.012c0,0-1.205-3.24-3.056-0.624c-1.851,2.616-1.561,7.311-4.493,15.287c-0.735,2-5.911,12.718-5.911,12.718"/>
					</g>
					<g>
						<path style="fill:#FEB49B;" d="M392.188,305.76c-0.117-1.994-1.642-17.36-1.642-18.367s-4.223-10.02-5.044-13.187
							c-0.821-3.167-4.34-16.891-4.692-18.651s-3.284-1.408-3.583,0c-0.298,1.408-0.054,17.243,0,20.879
							c0.054,3.636,1.471,11.261,1.354,13.841c-0.065,1.426-1.056,14.78-1.29,17.83c-0.235,3.05,0.174,6.686,1.319,7.976
							c1.145,1.29,13.578,4.34,13.578,4.34c11.488,2.868,88.325,12.289,96.274,8.167c7.949-4.121,2.65-21.165-5.005-28.23
							c-7.654-7.066-20.542-5.055-41.33-0.933C421.34,303.547,392.188,305.76,392.188,305.76z"/>
						<path style="fill:none;stroke:#D67676;stroke-linecap:round;stroke-linejoin:round;stroke-miterlimit:10;" d="
							M377.082,268.341c0,0,2.32-1.642,3.376,0.704c1.056,2.346,1.877,9.384,2.463,11.73c0.586,2.346,3.167,7.742,3.402,8.211"/>
						<path style="fill:none;stroke:#D67676;stroke-linecap:round;stroke-linejoin:round;stroke-miterlimit:10;" d="
							M377.086,260.012c0,0,1.205-3.24,3.056-0.624c1.851,2.616,1.561,7.311,4.493,15.287c0.735,2,5.911,12.718,5.911,12.718"/>
					</g>
					<g>
						<path style="fill:#FEB49B;" d="M377.094,248.212c0.004,0.002,0.008,0.005,0.012,0.007l0,0
							c23.582-13.982,32.016-32.531,32.016-32.531l-14.76-7.507c-2.543-10.893,0-20.706,0-20.706l-17.268,0.981l-17.267-0.981
							c0,0,2.543,9.813,0,20.706l-14.76,7.507c0,0,8.434,18.534,32.016,32.516L377.094,248.212z"/>
						<path style="fill:#ED8C8C;" d="M393.486,192.941c0.333-3.344,0.876-5.466,0.876-5.466l-17.268,0.981l-17.267-0.981
							c0,0,0.544,2.126,0.877,5.473c3.582,3.334,9.621,7.774,16.379,7.774C383.844,200.723,389.897,196.276,393.486,192.941z"/>
						<path style="fill:#595387;" d="M377.082,214.511c8.684,0,15.327-3.176,18.991-5.459l-1.711-0.87
							c-0.468-2.004-0.761-3.97-0.932-5.847c-2.376,1.65-8.313,5.111-16.347,5.111c-8.434,0-14.324-3.826-16.304-5.321
							c-0.168,1.94-0.466,3.978-0.951,6.057l-1.566,0.796C361.807,211.282,368.327,214.511,377.082,214.511z"/>
					</g>
				</g>
				<g>
					<path style="fill:#746BA0;" d="M354.389,172.26c0,0-3.711,6.388-12.512,15.22c-8.8,8.832-18.036,23.324-19.417,40.193
						c-1.513,18.49,5.317,29.089,13.462,34.584c0,0-1.021,18.857,13.64,27.617c0,0-5.103-13.29-0.392-26.832
						c4.71-13.542,9.911-22.178,12.708-38.075C364.676,209.069,361.387,183.002,354.389,172.26z"/>
					<g>
						<g>
							
								<path style="fill:none;stroke:#595387;stroke-width:0.75;stroke-linecap:round;stroke-linejoin:round;stroke-miterlimit:10;" d="
								M335.923,262.257c1.276-12.757,13.796-24.725,18.466-39.645c6.941-22.178,0-50.351,0-50.351"/>
							
								<path style="fill:none;stroke:#595387;stroke-width:0.75;stroke-linecap:round;stroke-linejoin:round;stroke-miterlimit:10;" d="
								M339.652,250.773c0,0-11.88-28.554,1.371-62.409"/>
							
								<path style="fill:none;stroke:#595387;stroke-width:0.75;stroke-linecap:round;stroke-linejoin:round;stroke-miterlimit:10;" d="
								M352.681,174.846c0,0-16.543,28.566-17.681,53.474"/>
						</g>
					</g>
					<g>
						<g>
							
								<path style="fill:none;stroke:#746BA0;stroke-width:0.75;stroke-linecap:round;stroke-linejoin:round;stroke-miterlimit:10;" d="
								M357.539,183.163c0,0,10.367,27.139,5.335,57.289c-3.836,22.983-16.303,24.749-8.484,51.637"/>
							
								<path style="fill:none;stroke:#746BA0;stroke-width:0.75;stroke-linecap:round;stroke-linejoin:round;stroke-miterlimit:10;" d="
								M331.115,204.752c0,0-10.238,11.972-10.615,31.795c-0.376,19.823,11.987,28.458,11.987,28.458"/>
						</g>
					</g>
				</g>
				<g>
					<path style="fill:#595387;" d="M418.518,159.593c1.914-3.52,3.533-20.415,2.65-28.968c-0.883-8.554-4.563-19.446-6.624-21.36
						c-2.061-1.914-6.771-1.03-6.771-1.03s-6.624-17.811-16.928-20.461c-10.304-2.65-34.297,2.061-44.306,6.035
						c-10.009,3.974-18.34,10.326-20.313,15.456c-2.208,5.741,3.288,11.334,8.194,12.659c0,0-9.813,7.801-10.991,17.664
						c-1.178,9.862,4.935,17.49,8.797,20.006C336.088,162.109,418.518,159.593,418.518,159.593z"/>
					<path style="fill:#FEB49B;" d="M377.107,102.592L377.107,102.592c-0.004-0.001-0.008,0-0.012,0c-0.004,0-0.008,0-0.012,0v0.001
						c-30.206,0.015-41.467,27.385-39.424,47.495c2.551,25.114,13.732,40.42,39.424,40.43v0c0.004,0,0.008,0,0.012,0
						c0.004,0,0.008,0,0.012,0v0c25.693-0.01,36.874-15.316,39.424-40.43C418.574,129.977,407.313,102.607,377.107,102.592z"/>
					<g>
						<g>
							<path style="fill:#7C71A9;" d="M355.085,145.172c0,0,0.216,0.122,0.594,0.334c0.184,0.102,0.408,0.225,0.665,0.367
								c0.249,0.146,0.554,0.274,0.852,0.449c0.301,0.173,0.661,0.295,0.999,0.481c0.341,0.187,0.743,0.273,1.11,0.453
								c0.373,0.176,0.794,0.209,1.184,0.353c0.399,0.115,0.809,0.113,1.211,0.195l0.151,0.027l0.005,0.001
								c0.016,0.001-0.119-0.002-0.06-0.001h0.011h0.022h0.045h0.089l0.358,0c0.261,0.006,0.362-0.038,0.553-0.044
								c0.36-0.055,0.758-0.132,1.121-0.255c0.359-0.144,0.722-0.277,1.056-0.448c0.329-0.177,0.65-0.35,0.941-0.53
								c1.153-0.733,1.939-1.382,1.939-1.382s-0.053,0.248-0.223,0.656c-0.172,0.405-0.46,0.974-0.943,1.575
								c-0.238,0.303-0.522,0.618-0.867,0.911c-0.341,0.298-0.734,0.588-1.186,0.827c-0.463,0.225-0.944,0.447-1.51,0.559
								c-0.276,0.042-0.64,0.122-0.856,0.114l-0.357,0.009l-0.245,0.002l-0.203-0.028c-0.533-0.102-1.095-0.137-1.586-0.326
								c-0.485-0.196-0.981-0.367-1.395-0.624c-0.415-0.254-0.827-0.489-1.154-0.783c-0.335-0.284-0.656-0.543-0.904-0.833
								c-0.523-0.548-0.876-1.069-1.103-1.445C355.177,145.403,355.085,145.172,355.085,145.172z"/>
						</g>
						
							<line style="fill:none;stroke:#7C71A9;stroke-linecap:round;stroke-linejoin:round;stroke-miterlimit:10;" x1="353.801" y1="149.328" x2="357.147" y2="147.004"/>
					</g>
					<ellipse style="fill:#E58399;" cx="352.886" cy="161.069" rx="12.512" ry="10.304"/>
					<g>
						<g>
							<path style="fill:#7C71A9;" d="M399.104,145.172c0,0-0.092,0.231-0.314,0.615c-0.227,0.375-0.58,0.897-1.103,1.445
								c-0.248,0.29-0.569,0.549-0.904,0.833c-0.328,0.293-0.739,0.529-1.154,0.783c-0.413,0.257-0.91,0.428-1.394,0.624
								c-0.491,0.189-1.053,0.224-1.586,0.326l-0.203,0.028l-0.245-0.002l-0.357-0.009c-0.216,0.008-0.58-0.072-0.856-0.114
								c-0.566-0.112-1.048-0.333-1.51-0.559c-0.452-0.239-0.845-0.529-1.186-0.827c-0.344-0.293-0.629-0.607-0.867-0.911
								c-0.483-0.6-0.771-1.17-0.943-1.575c-0.17-0.408-0.223-0.656-0.223-0.656s0.786,0.649,1.939,1.382
								c0.291,0.18,0.612,0.353,0.941,0.53c0.335,0.171,0.698,0.304,1.056,0.448c0.363,0.123,0.761,0.2,1.121,0.255
								c0.191,0.005,0.292,0.049,0.553,0.044l0.357,0h0.09h0.045h0.022h0.011c0.06-0.001-0.075,0.002-0.06,0.001l0.005-0.001
								l0.151-0.027c0.402-0.081,0.812-0.079,1.211-0.195c0.39-0.144,0.811-0.177,1.184-0.353c0.367-0.18,0.769-0.266,1.11-0.453
								c0.338-0.185,0.699-0.307,0.999-0.481c0.298-0.175,0.603-0.303,0.852-0.449c0.257-0.142,0.481-0.265,0.665-0.367
								C398.888,145.294,399.104,145.172,399.104,145.172z"/>
						</g>
						
							<line style="fill:none;stroke:#7C71A9;stroke-linecap:round;stroke-linejoin:round;stroke-miterlimit:10;" x1="400.389" y1="149.328" x2="397.042" y2="147.004"/>
					</g>
					<ellipse style="fill:#E58399;" cx="401.303" cy="161.069" rx="12.512" ry="10.304"/>
					<g>
						<path style="fill:#746BA0;" d="M414.544,109.265c-2.061-1.914-6.771-1.03-6.771-1.03s-6.624-17.811-16.928-20.461
							c-10.304-2.65-34.297,2.061-44.306,6.035c-10.009,3.974-18.34,10.326-20.313,15.456c-2.208,5.741,3.288,11.334,8.194,12.659
							c0,0-7.138,13.689,3.006,18.105c10.144,4.416,35.315-8.832,44.147-20.608c0,0,8.257,10.745,19.731-3.533
							c0,0-1.804,32.946,19.185,34.792c0.824-6.5,1.219-14.832,0.68-20.056C420.285,122.071,416.605,111.178,414.544,109.265z"/>
						<g>
							<g>
								
									<path style="fill:none;stroke:#595387;stroke-width:0.75;stroke-linecap:round;stroke-linejoin:round;stroke-miterlimit:10;" d="
									M332.839,135.698c0,0,12.836-34.983,55.072-48.446"/>
								
									<path style="fill:none;stroke:#595387;stroke-width:0.75;stroke-linecap:round;stroke-linejoin:round;stroke-miterlimit:10;" d="
									M330.003,119.634c0,0,10.277-9.879,28.715-17.043"/>
							</g>
						</g>
						<g>
							<g>
								
									<path style="fill:none;stroke:#595387;stroke-width:0.75;stroke-linecap:round;stroke-linejoin:round;stroke-miterlimit:10;" d="
									M407.773,108.234c0,0,13.935,19.011,10.132,42.036"/>
								
									<path style="fill:none;stroke:#595387;stroke-width:0.75;stroke-linecap:round;stroke-linejoin:round;stroke-miterlimit:10;" d="
									M409.459,145.389c0,0,6.105-7.868,5.595-22.658"/>
							</g>
						</g>
						
							<path style="fill:none;stroke:#746BA0;stroke-width:0.75;stroke-linecap:round;stroke-linejoin:round;stroke-miterlimit:10;" d="
							M383.78,118.841c0,0-13.802,24.339-43.406,26.547"/>
					</g>
					<path style="fill:none;stroke:#D67676;stroke-linecap:round;stroke-linejoin:round;stroke-miterlimit:10;" d="M377.094,134.059
						c0,0-3.03,9.944-1.852,19.953c0,0,5.502-2.107,6.477-0.883c2.061,2.588-3.363,10.304-5.594,12.365"/>
					<path style="fill:none;stroke:#D67676;stroke-linecap:round;stroke-linejoin:round;stroke-miterlimit:10;" d="M364.202,168.732
						c0,0,11.496,9.617,24.589-1.374"/>
					<g>
						<g>
							<path style="fill:#FEB49B;" d="M342.372,169.712l-4.583-18.44c0,0-6.019-14.138-15.636-8.643
								C314.023,147.275,323.338,173.44,342.372,169.712z"/>
							<path style="fill:#ED8C8C;" d="M322.08,159.315c0,0.001,0,0.001,0,0.002c3.693,6.653,10.778,12.258,20.292,10.395
								l-4.583-18.44C337.789,151.272,323.773,142.832,322.08,159.315z"/>
						</g>
						<path style="fill:#595387;" d="M338.148,165.494c0,1.03-0.835,1.865-1.864,1.865c-1.03,0-1.865-0.835-1.865-1.865
							c0-1.03,0.835-1.865,1.865-1.865C337.314,163.63,338.148,164.464,338.148,165.494z"/>
					</g>
					<g>
						<g>
							<path style="fill:#FEB49B;" d="M411.817,169.712l4.583-18.44c0,0,6.019-14.138,15.636-8.643
								C440.166,147.275,430.851,173.44,411.817,169.712z"/>
							<path style="fill:#ED8C8C;" d="M432.109,159.315c0,0.001,0,0.001,0,0.002c-3.693,6.653-10.778,12.258-20.292,10.395
								l4.583-18.44C416.4,151.272,430.416,142.832,432.109,159.315z"/>
						</g>
						<circle style="fill:#595387;" cx="417.905" cy="165.494" r="1.864"/>
					</g>
					<g>
						<path style="fill:#595387;" d="M350.009,137.292c0.86-3.719,4.704-6.55,8.177-7.571c2.181-0.568,4.337-0.757,6.549-0.228
							c0.953,0.228,1.868,0.632,2.719,1.114c0.416,0.254,1.617,0.949,1.743,1.448c0.113,0.447-0.141,0.336-0.571,0.28
							c-0.997-0.131-1.983-0.226-2.99-0.245c-2.314-0.045-4.59,0.445-6.791,1.113c-2.227,0.676-4.333,1.689-6.332,2.87
							c-0.685,0.404-1.357,0.832-2.005,1.293C350.291,137.519,349.944,137.762,350.009,137.292z"/>
						<path style="fill:#595387;" d="M402.284,137.292c-0.859-3.719-4.704-6.55-8.177-7.571c-2.181-0.568-4.337-0.757-6.549-0.228
							c-0.953,0.228-1.868,0.632-2.719,1.114c-0.416,0.254-1.617,0.949-1.743,1.448c-0.113,0.447,0.141,0.336,0.571,0.28
							c0.997-0.131,1.983-0.226,2.99-0.245c2.314-0.045,4.59,0.445,6.791,1.113c2.227,0.676,4.333,1.689,6.332,2.87
							c0.685,0.404,1.357,0.832,2.005,1.293C402.002,137.519,402.349,137.762,402.284,137.292z"/>
					</g>
				</g>
			</g>
		</g>
		<g>
			<path style="fill:#FFFFFF;" d="M190.026,179.89c0,0-0.757,9.46-9.232,14.454c8.476,4.995,9.232,14.454,9.232,14.454
				s0.757-9.46,9.232-14.454C190.783,189.35,190.026,179.89,190.026,179.89z"/>
			<path style="fill:#FFFFFF;" d="M457.609,130.718c0,0-0.757,9.46-9.233,14.454c8.476,4.995,9.233,14.454,9.233,14.454
				s0.757-9.46,9.233-14.454C458.366,140.178,457.609,130.718,457.609,130.718z"/>
			<path style="fill:#FFFFFF;" d="M237.021,316.785c0,0-0.757,9.459-9.232,14.454c8.476,4.995,9.232,14.454,9.232,14.454
				s0.757-9.46,9.232-14.454C237.778,326.244,237.021,316.785,237.021,316.785z"/>
			<path style="fill:#FFFFFF;" d="M519.07,250.55c0,0-0.757,9.459-9.232,14.454c8.476,4.995,9.232,14.454,9.232,14.454
				s0.757-9.46,9.232-14.454C519.827,260.01,519.07,250.55,519.07,250.55z"/>
			<path style="fill:#FFFFFF;" d="M200.531,166.153c0,0-0.393,4.912-4.794,7.505c4.401,2.593,4.794,7.505,4.794,7.505
				s0.393-4.912,4.794-7.505C200.924,171.065,200.531,166.153,200.531,166.153z"/>
			<path style="fill:#FFFFFF;" d="M312.062,95.087c0,0-0.393,4.912-4.794,7.505c4.401,2.593,4.794,7.505,4.794,7.505
				s0.393-4.912,4.794-7.505C312.455,99.998,312.062,95.087,312.062,95.087z"/>
			<path style="fill:#FFFFFF;" d="M448.377,117.837c0,0-0.393,4.912-4.794,7.505c4.401,2.593,4.794,7.505,4.794,7.505
				s0.393-4.912,4.794-7.505C448.77,122.749,448.377,117.837,448.377,117.837z"/>
			<path style="fill:#FFFFFF;" d="M423.401,76.024c0,0-0.393,4.912-4.794,7.505c4.401,2.593,4.794,7.505,4.794,7.505
				s0.393-4.912,4.794-7.505C423.793,80.935,423.401,76.024,423.401,76.024z"/>
			<path style="fill:#FFFFFF;" d="M529.58,240.383c0,0-0.393,4.912-4.794,7.505c4.401,2.593,4.794,7.505,4.794,7.505
				s0.393-4.912,4.794-7.505C529.973,245.294,529.58,240.383,529.58,240.383z"/>
			<path style="fill:#FFFFFF;" d="M605.185,317.705c0,0-0.393,4.912-4.794,7.505c4.401,2.593,4.794,7.505,4.794,7.505
				s0.393-4.912,4.794-7.505C605.578,322.617,605.185,317.705,605.185,317.705z"/>
			<path style="fill:#FFFFFF;" d="M219.495,294.098c0,0-0.393,4.912-4.794,7.505c4.401,2.593,4.794,7.505,4.794,7.505
				s0.393-4.912,4.794-7.505C219.888,299.01,219.495,294.098,219.495,294.098z"/>
		</g>
	</g>
</g>
</svg>
