<svg xmlns="http://www.w3.org/2000/svg" viewBox="0 0 618.56 390.91"><g id="Layer_2" data-name="Layer 2"><g id="Layer_1-2" data-name="Layer 1"><g id="OBJECTS"><path d="M557.51,288.47c0-134.76-109.24-244-244-244s-244,109.24-244,244a245,245,0,0,0,4.39,46.19H553.12A245,245,0,0,0,557.51,288.47Z" fill="#fbf4ef"/><circle cx="84.97" cy="45.85" r="45.84" fill="#fbf4ef"/><circle cx="583.77" cy="124.78" r="29.93" transform="translate(22.14 327.11) rotate(-31.88)" fill="#fbf4ef"/><path d="M400.91,89.16H536.4s-.65-6.08-15.71-11-25.85,7.61-42.87,0-26.05-18.53-48-12.44S400.91,89.16,400.91,89.16Z" fill="none" stroke="#fff" stroke-miterlimit="10" stroke-width="2.22"/><path d="M83,138.4h92.69s-.45-4.48-10.75-8.06-17.69,5.59-29.33,0-17.82-13.63-32.82-9.15A31.22,31.22,0,0,0,83,138.4Z" fill="none" stroke="#fff" stroke-miterlimit="10" stroke-width="1.75"/><path d="M617.59,202.15a5.4,5.4,0,1,1-5.39-5.47A5.42,5.42,0,0,1,617.59,202.15Z" fill="none" stroke="#fff" stroke-miterlimit="10" stroke-width="1.93"/><path d="M233.15,9.49A5.4,5.4,0,1,1,227.76,4,5.43,5.43,0,0,1,233.15,9.49Z" fill="none" stroke="#fff" stroke-miterlimit="10" stroke-width="1.93"/><path d="M489.17,30.55a3.92,3.92,0,1,1-3.92-4A3.94,3.94,0,0,1,489.17,30.55Z" fill="#fff"/><ellipse cx="8.67" cy="202.93" rx="7.71" ry="7.81" fill="none" stroke="#fff" stroke-miterlimit="10" stroke-width="1.93"/><path d="M372,262.35c4-18.63,9.63-36.32,20.09-55S418,169.1,441.23,145.44c0,0-.73,4.82-2.64,12.79a208.22,208.22,0,0,1-10.31,31.34C418.13,214.2,399.89,244,372,262.35Z" fill="#f9ebe3"/><path d="M363.94,273.94c8-14.58,4.62-34.12-1.57-51.46s-15.13-32.72-17.6-40.29a160.15,160.15,0,0,0-7.09,38C336.76,240.37,340.56,263.56,363.94,273.94Z" fill="#f9ebe3"/><path d="M362.33,277.13c16.12-14.94,36.28-22,55.85-26.1s38.28-5.32,50.48-7.57a122.53,122.53,0,0,1-9.86,9.72,156.39,156.39,0,0,1-25.63,18.95C412.24,284.5,384.94,292.09,362.33,277.13Z" fill="#f9ebe3"/><path d="M338.05,309c13.41-17.31,7.34-40.28-2.22-58.13a155.13,155.13,0,0,0-22.55-31.26,104.77,104.77,0,0,0-1.92,10.51A138.42,138.42,0,0,0,310,255C310.78,274.15,316.11,296.78,338.05,309Z" fill="#f9ebe3"/><path d="M338.93,307.83c15.26-11,36.21-16.72,57.55-17.4s43.25,4,59.58,15.38a127,127,0,0,1-26.19,11.53c-15.27,4.84-34.91,7.54-51.67.55s-26.53-9.63-32.14-10.35S338.93,307.83,338.93,307.83Z" fill="#f9ebe3"/><path d="M319.87,325.23a13,13,0,0,1,.16,1.59l.82.1,1.45.05c3.95-10.23,2-23.69-5.06-35.69-8.76-15-25.34-27.7-47-31a89,89,0,0,0,6.2,18.64c4.68,10.14,12.47,22.11,25.64,28.47C314.84,313.54,319,320.1,319.87,325.23Z" fill="#f9ebe3"/><path d="M182.28,267.37c-12.51-9.72-23.81-20.28-34.22-34.93s-19.88-33.4-29.77-59.65c0,0,3.35,2.27,8.64,6.57a175.59,175.59,0,0,1,19.89,19C161.77,214.91,177.84,239.45,182.28,267.37Z" fill="#f9ebe3"/><path d="M188.23,277.65C180,266.34,164.39,262,149.45,260.59s-29.33,0-35.78-.82a133.55,133.55,0,0,0,25.89,18.92C154.28,286.57,172.77,291.89,188.23,277.65Z" fill="#f9ebe3"/><path d="M190.07,280c-5.76-17.66-4.33-35.61-.91-52.08s8.73-31.23,11.09-41.37a108.49,108.49,0,0,1,4,11,138.59,138.59,0,0,1,5.59,26.37C212.07,244.38,208.68,268,190.07,280Z" fill="#f9ebe3"/><path d="M205.7,309.93C197.28,293.51,178.19,290,161.76,291a121.11,121.11,0,0,0-30.71,6.18,84.37,84.37,0,0,0,7.18,5.2,112,112,0,0,0,18,9.91C170.79,318.47,189.37,322.42,205.7,309.93Z" fill="#f9ebe3"/><path d="M205.15,308.85c-3.13-15.59-.45-33.68,6.11-50.28s17.31-31.73,31.17-40.21a111.66,111.66,0,0,1-.1,24.16c-1.46,13.43-6,29.44-16.7,39.81s-15.95,16.91-18.34,20.95S205.15,308.85,205.15,308.85Z" fill="#f9ebe3"/><path d="M216.14,330.67c-4.93-10.17-2-24.53,6.54-36.51s22.76-21.52,41-20.35a66.55,66.55,0,0,1-6.64,16.27c-4.84,8.51-12.64,17.58-24.07,20.74-11,3.1-15.22,8.13-16.67,12.28A12.33,12.33,0,0,0,216.14,330.67Z" fill="#f9ebe3"/><path d="M200.36,334.92a7.94,7.94,0,0,1,1.74.09c3.3.55,6.81-.07,10.2-.22l.07-.07c3.31-4-4-1.75,7.33-15.53,5.72-7,1.4-30.71-18.63-51.14,8.17,16.13,4.68,38.22,2.87,32.23-1.87-6.21-1.73-32.78-12-40.34a121.67,121.67,0,0,0-37.77-18.89c15.25,18.34,18.93,35.16,13.63,35.22-2.3,0-12.19-35.61-28.65-38.61-13.63-2.47-29.26-2.95-47-1.32,1.51,14.51,2.41,28.1,7.89,38.62,13,24.91,52.75,22.3,55.68,29.21,2.25,5.29-34.23.62-50-12.73,7.24,17,20.6,32.3,30.37,39.15s34.08-5.28,40.53-5.37c6.19-.09,4.26,5.66-12.42,9.56,1.1-.07-1.08.14,0,0,1.87-.4,1.94.25,3.82-.14a8.62,8.62,0,0,1,5,.11,83.88,83.88,0,0,1,9.38,0,36.7,36.7,0,0,1,4.45,0C191.47,334,195.72,334.56,200.36,334.92Z" fill="#d0dbe4" fill-rule="evenodd"/><path d="M111.25,254.61s39.31,22.52,93.6,79.58" fill="none" stroke="#fbf4ef" stroke-miterlimit="10" stroke-width="1.05"/><line x1="144.17" y1="262.19" x2="151.86" y2="284.33" fill="none" stroke="#fbf4ef" stroke-miterlimit="10" stroke-width="1.05"/><path d="M524.81,283.28c5.78-11,6.8-25.15,8.44-40.3-18.49-1.8-34.82-1.38-49.07,1.14-17.22,3-27.73,40.22-30.13,40.18-5.54-.09-1.6-17.63,14.42-36.72a127.12,127.12,0,0,0-39.56,19.54c-10.77,7.85-10.76,35.61-12.74,42.08-1.92,6.25-5.45-16.84,3.17-33.66-21,21.25-25.68,46-19.73,53.34,11.76,14.45,21.19-1.47,24.63,2.76,1,1.19,1.31,1.6.08,3.22,1.65-.38,2.27.08,3.78,0,1.89-.07,4.28-.75,5.83-.21,1-.05,1.67-.19,2.68-.23a17,17,0,0,1,1.89,0c7.55-.34,13.94.23,21.49.28,1.28,0,2.56,0,3.83.08,10.39-.63,20.74-1.16,31.14-.35a110.15,110.15,0,0,0,23.82-34c-16.53,13.86-54.66,18.56-52.29,13C469.6,306.31,511.13,309.24,524.81,283.28Z" fill="#d0dbe4" fill-rule="evenodd"/><path d="M513.24,262S483,275.11,426,334.45" fill="none" stroke="#fbf4ef" stroke-miterlimit="10" stroke-width="1.05"/><line x1="478.8" y1="269.72" x2="471.21" y2="291.28" fill="none" stroke="#fbf4ef" stroke-miterlimit="10" stroke-width="1.05"/><path d="M280.44,334.3A77.8,77.8,0,0,0,283.19,316c-2.81,8-8.54,14.89-13.13,19.13C273.53,334.94,277,334.41,280.44,334.3Z" fill="#94d0db" fill-rule="evenodd"/><path d="M218,334.76c1.53,0,3.06,0,4.58-.06-2.05-1.6-4.47-3.61-7.32-6.11.51,2.17,1,4.22,1.41,6.19C217.16,334.76,217.6,334.75,218,334.76Z" fill="#94d0db" fill-rule="evenodd"/><path d="M236.85,333.08a6.87,6.87,0,0,1,3.58.64,78.46,78.46,0,0,1,9.32-.53c1.41-.11,2.8-.15,4.2-.16,2.31-.28,4.61-.62,7-.81,2.78-.23,5.57-.12,8.35-.13-12.17-35-46.89-118.65-110.11-152.52,0,0-15,58.05,65.1,154.68,3.28-.21,6.53-.58,9.8-.91C235,333.23,235.92,333.15,236.85,333.08Z" fill="#edd0c1"/><line x1="171.03" y1="205.93" x2="246.39" y2="332.69" fill="none" stroke="#fbf4ef" stroke-miterlimit="10" stroke-width="1.05"/><line x1="207.12" y1="266.62" x2="209.86" y2="237.9" fill="none" stroke="#fbf4ef" stroke-miterlimit="10" stroke-width="1.05"/><line x1="214.2" y1="301.26" x2="231.43" y2="307.52" fill="none" stroke="#fbf4ef" stroke-miterlimit="10" stroke-width="1.05"/><path d="M345.8,328.63c4.67.71,9.62,1.37,14.27,2.17a45,45,0,0,1,5.06.76c1.69-.13,2.85.94,4.34,1.11.26,0,.5.08.75.12,88.27-96.05,75.14-156.52,75.14-156.52-89.94,48.1-95.72,101.78-113,150.09,3.31.63,6.62,1.29,9.95,1.82C343.42,328.36,345,328.1,345.8,328.63Z" fill="#edd0c1"/><line x1="432.47" y1="202.15" x2="350.05" y2="329.26" fill="none" stroke="#fbf4ef" stroke-miterlimit="10" stroke-width="1.05"/><line x1="394.06" y1="261.39" x2="392.47" y2="233.3" fill="none" stroke="#fbf4ef" stroke-miterlimit="10" stroke-width="1.05"/><line x1="385.63" y1="295.73" x2="368.17" y2="301.31" fill="none" stroke="#fbf4ef" stroke-miterlimit="10" stroke-width="1.05"/><path d="M112.87,335S65.6,302.43,71.38,236.79" fill="none" stroke="#e2c2af" stroke-miterlimit="10" stroke-width="2.06"/><circle cx="72.09" cy="232.79" r="8.88" fill="#d0dbe4"/><path d="M78.25,220.38a5.09,5.09,0,1,1-5.45-4.71A5.09,5.09,0,0,1,78.25,220.38Z" fill="#d0dbe4"/><path d="M111.74,333.85s-49.2,5.1-69.87-42.94" fill="none" stroke="#e2c2af" stroke-miterlimit="10" stroke-width="2.06"/><path d="M46.8,284.07a7,7,0,1,1-9.72-2.17A7,7,0,0,1,46.8,284.07Z" fill="#d0dbe4"/><circle cx="37.08" cy="279.04" r="4.04" fill="#d0dbe4"/><path d="M510.46,335s47.27-32.59,41.49-98.23" fill="none" stroke="#e2c2af" stroke-miterlimit="10" stroke-width="2.06"/><path d="M542.39,232.15a8.88,8.88,0,1,0,9.49-8.22A8.86,8.86,0,0,0,542.39,232.15Z" fill="#d0dbe4"/><path d="M545.09,220.38a5.09,5.09,0,1,0,5.44-4.71A5.08,5.08,0,0,0,545.09,220.38Z" fill="#d0dbe4"/><path d="M511.6,333.85c-.05,0,49.2,5.1,69.86-42.94" fill="none" stroke="#e2c2af" stroke-miterlimit="10" stroke-width="2.06"/><path d="M576.53,284.07a7,7,0,1,0,9.72-2.17A7,7,0,0,0,576.53,284.07Z" fill="#d0dbe4"/><circle cx="586.26" cy="279.06" r="4.04" transform="translate(-46.45 133.28) rotate(-12.48)" fill="#d0dbe4"/><line x1="15.83" y1="335.02" x2="610.2" y2="335.02" fill="none" stroke="#e2c2af" stroke-miterlimit="10" stroke-width="1.91"/><polygon points="151.88 351.61 65.62 389.95 556.35 389.95 472.47 351.61 151.88 351.61" fill="none" stroke="#e2c2af" stroke-miterlimit="10" stroke-width="1.91"/><polygon points="280.81 275.86 263.88 303.39 296.37 341.98 329.14 341.98 359.7 302.74 340.78 275.86 280.81 275.86" fill="#aab5fb"/><path d="M263.87,303.39S191,309,172.71,328.12s-7.75,31.73,8.12,39.81c22.35,11.38,88.32,8.94,130.09-4.87l6.83-39.82Z" fill="#aab5fb"/><path d="M357.81,302.44s76.33,6.58,94.61,25.68,7.74,31.73-8.13,39.81c-22.34,11.38-102.86,9.49-144.63-4.32l7.72-40.37Z" fill="#aab5fb"/><path d="M374.92,335l-16.41-1.95L356,326.59l6.43-2.85s-.89-9.15,7-10.67,17.24,4.82,26.37.73c8.43-3.78,18.74-7.24,28.36-2a3.4,3.4,0,0,1,1.6,4l0,.12a3.41,3.41,0,0,1-3.63,2.34,25,25,0,0,0-15.42,3.35c-6,3.68-20.68,9.36-31.73,13.42Z" fill="#eab49b"/><line x1="322.83" y1="330.67" x2="355.05" y2="327.5" fill="none" stroke="#462c3b" stroke-linecap="round" stroke-miterlimit="10" stroke-width="1.3"/><path d="M304.38,365.07c-25.69-5.93-52.56-21.15-52.56-21.15l1.6-2.71" fill="none" stroke="#462c3b" stroke-linecap="round" stroke-miterlimit="10" stroke-width="1.3"/><path d="M263,330.24s118.85-3.66,149.34,15.56" fill="none" stroke="#462c3b" stroke-linecap="round" stroke-miterlimit="10" stroke-width="1.3"/><path d="M205.12,337.88s21.53-10.09,36.24-3.48" fill="none" stroke="#462c3b" stroke-linecap="round" stroke-miterlimit="10" stroke-width="1.3"/><path d="M255.11,342,263,330l-7.87-4.26s1.6-9.05-6.12-11.18-17.57,3.46-26.35-1.33c-8.11-4.42-18.12-8.68-28.11-4.23a3.39,3.39,0,0,0-1.91,3.87l0,.12a3.42,3.42,0,0,0,3.44,2.62,24.84,24.84,0,0,1,15.11,4.54C221,327.17,255.11,342,255.11,342Z" fill="#eab49b"/><line x1="281.85" y1="316.7" x2="299.82" y2="329.72" fill="none" stroke="#462c3b" stroke-linecap="round" stroke-miterlimit="10" stroke-width="1.3"/><path d="M358.71,155.26c-12.16-19.63-14.2-51.91-14.2-51.91L314.62,91V90l-1.81.51L311,90v1l-29.67,12s-3.22,33.56-15.38,53.19c-12,19.4-3.39,43.63,46.86,40.06C363.06,199.88,370.72,174.66,358.71,155.26Z" fill="#d25f3e"/><path d="M329.49,170.21l28.93,9.27c5.41,2,6.79,8,5.38,13.57l-23,82.81h-60L260,191.31c-.87-3.88,1-9.55,4.73-11L296,168.78Z" fill="#d3626d"/><path d="M350.84,213.16l30.24,67.63a14,14,0,0,0,16.1,8.9h0a14,14,0,0,0,10.21-18.28c-5.95-16.87-23.85-51-30-67.88a14.12,14.12,0,0,0-20.25-7.46h0A14.13,14.13,0,0,0,350.84,213.16Z" fill="#eab49b"/><path d="M359.48,180.28s9.89.9,22.16,33.28l-28.72,14.91-9.34-27.78Z" fill="#d3626d"/><line x1="354.9" y1="226.83" x2="358.94" y2="208.45" fill="none" stroke="#462c3b" stroke-linecap="round" stroke-miterlimit="10" stroke-width="1.3"/><path d="M388.35,258c-.83-.28-.36,1.48-72.84-29.21L312.4,233c-.15,4.31.84,8.45,3.51,10.2l71.62,45.15Z" fill="#eab49b"/><path d="M312.4,233,312,197.62a1.43,1.43,0,0,1,1.43-1.45h0a1.41,1.41,0,0,1,1.41,1.21l9.58,41.85Z" fill="#eab49b"/><line x1="367.48" y1="250.36" x2="381.65" y2="255.86" fill="none" stroke="#dc9c82" stroke-miterlimit="10" stroke-width="0.95"/><path d="M273.38,213.16l-30.24,67.63a14,14,0,0,1-16.1,8.9h0a14,14,0,0,1-10.2-18.28c5.94-16.87,23.85-51,30-67.88a14.12,14.12,0,0,1,20.25-7.46h0A14.12,14.12,0,0,1,273.38,213.16Z" fill="#eab49b"/><path d="M264.75,180.28s-9.89.9-22.16,33.28l28.71,14.91,9.34-27.78Z" fill="#d3626d"/><line x1="268.46" y1="226.83" x2="264.42" y2="208.45" fill="none" stroke="#462c3b" stroke-linecap="round" stroke-miterlimit="10" stroke-width="1.3"/><path d="M235.88,258c.82-.28.36,1.48,72.83-29.21l3.11,4.16c.3,4.88-1.16,8.65-3.83,10.41l-71.3,44.94Z" fill="#eab49b"/><path d="M311.82,233l.43-35.33a1.43,1.43,0,0,0-1.43-1.45h0a1.43,1.43,0,0,0-1.41,1.21l-9.58,41.85Z" fill="#eab49b"/><line x1="312.08" y1="197.05" x2="312.41" y2="234.74" fill="none" stroke="#dc9c82" stroke-miterlimit="10" stroke-width="0.95"/><line x1="256.75" y1="250.36" x2="243.23" y2="255.86" fill="none" stroke="#dc9c82" stroke-miterlimit="10" stroke-width="0.95"/><path d="M301.15,165.88l-22.23,9a72,72,0,0,0,32.34,8.29,78.38,78.38,0,0,0,34.65-7.81l-23.2-10.44Z" fill="#eab49b"/><path d="M322.76,143.82a61.71,61.71,0,0,0-8.23,1c-4.79.89-8.7-1.63-9.67,1.61,0,.07-3.91-3.24-3.91-3.24l-2,31.92s12.73,7.76,26.57-.4Z" fill="#eab49b"/><path d="M297.92,139.67S303.7,154,323.76,155l-1.68-19.13Z" fill="#472d3c"/><path d="M344.67,103.53c0,18.27-14.22,33.08-31.76,33.08s-31.76-14.81-31.76-33.08,14.22-30.7,31.76-30.7S344.67,85.26,344.67,103.53Z" fill="#d25f3e"/><path d="M337.82,104.16a113.29,113.29,0,0,1-3,25.73c-1.47,6.23-5.61,10.59-11.46,14.09l-1.06.64a20.51,20.51,0,0,1-20.46.22h0c-6.34-3.6-10.78-8.36-12.14-15A165.51,165.51,0,0,1,287,104.16S284.58,77.93,312,78.44,337.82,104.16,337.82,104.16Z" fill="#eab49b"/><path d="M289.94,130.31c-4.63,4.47-16.17-8.67-11.89-13.92,3.95-4.83,9.55.69,9.55.69l.95,4.93,1.41,6.64.37,1.49Z" fill="#eab49b"/><path d="M334.8,130c4.91,3.86,16.8-10.44,12-14.58s-9.94,1.3-9.94,1.3l-.86,5-1.29,6.66-.34,1.5Z" fill="#eab49b"/><polygon points="282.23 112.55 288.07 119.94 286.89 101.93 282.23 112.55" fill="#d25f3e"/><polygon points="341.87 112.55 336.59 119.77 337.8 101.93 341.87 112.55" fill="#d25f3e"/><polyline points="312.79 119.07 313.22 122.4 311.73 123.33" fill="none" stroke="#462c3b" stroke-linecap="round" stroke-miterlimit="10" stroke-width="1.55"/><path d="M304,130h16.08s-1.81,2.64-8,2.64C305.3,132.64,304,130,304,130Z" fill="#d3626c"/><path d="M304,130l3.67-1.9a3.3,3.3,0,0,1,2.53-.11l1.94.75,1.74-.7a3.35,3.35,0,0,1,2.55.09l3.65,1.87Z" fill="#d3626c"/><path d="M304,113.9a5.66,5.66,0,0,1-6.86,0" fill="none" stroke="#462c3b" stroke-linecap="round" stroke-miterlimit="10" stroke-width="1.55"/><path d="M326.47,113.9a5.65,5.65,0,0,1-6.86,0" fill="none" stroke="#462c3b" stroke-linecap="round" stroke-miterlimit="10" stroke-width="1.55"/><path d="M317.11,105.85s8.18.42,13.63,3.73c0,0,0-3.43-5.19-5A9.41,9.41,0,0,0,317.11,105.85Z" fill="#472d3c"/><path d="M306.64,105.85s-8.18.42-13.63,3.73c0,0,0-3.43,5.19-5A9.41,9.41,0,0,1,306.64,105.85Z" fill="#472d3c"/><path d="M289.93,83.7s9.55,19.35,50.8,20.31c0,0,4.46-18.31-16.68-25.58S289.93,83.7,289.93,83.7Z" fill="#d25f3e"/><path d="M284.07,107.23s12.73-3.74,14.37-24.78C298.44,82.45,285.55,84.42,284.07,107.23Z" fill="#d25f3e"/><path d="M287.55,124.14s-.64-3.51-5.49-3.41" fill="none" stroke="#462c3b" stroke-linecap="round" stroke-miterlimit="10" stroke-width="1.3"/><path d="M336.82,124.14s.65-3.51,5.5-3.41" fill="none" stroke="#462c3b" stroke-linecap="round" stroke-miterlimit="10" stroke-width="1.3"/></g></g></g></svg>