<?xml version="1.0" encoding="utf-8"?>
<!-- Generator: Adobe Illustrator 27.5.0, SVG Export Plug-In . SVG Version: 6.00 Build 0)  -->
<svg version="1.1" xmlns="http://www.w3.org/2000/svg" xmlns:xlink="http://www.w3.org/1999/xlink" x="0px" y="0px"
	 viewBox="0 0 750 500" style="enable-background:new 0 0 750 500;" xml:space="preserve">
<g id="BACKGROUND">
	<rect style="fill:#F9EBE3;" width="750" height="500"/>
</g>
<g id="OBJECTS">
	<g>
		<g>
			<g>
				<g>
					<path style="fill:#FBF4EF;" d="M614.316,334.72c0-134.757-109.242-243.999-243.999-243.999S126.318,199.963,126.318,334.72
						c0,15.797,1.519,31.236,4.387,46.197h479.224C612.797,365.956,614.316,350.516,614.316,334.72z"/>
				</g>
				
					<ellipse transform="matrix(0.9113 -0.4117 0.4117 0.9113 -25.3473 66.5325)" style="fill:#FBF4EF;" cx="141.774" cy="92.107" rx="45.837" ry="45.837"/>
				
					<ellipse transform="matrix(0.8492 -0.5281 0.5281 0.8492 6.2907 364.0838)" style="fill:#FBF4EF;" cx="640.566" cy="171.028" rx="29.933" ry="29.933"/>
			</g>
			<g>
				<path style="fill:none;stroke:#FFFFFF;stroke-width:2.2156;stroke-miterlimit:10;" d="M457.714,135.418h135.494
					c0,0-0.655-6.087-15.709-10.957c-15.055-4.87-25.855,7.609-42.874,0c-17.018-7.609-26.045-18.526-47.972-12.439
					C464.725,118.109,457.714,135.418,457.714,135.418z"/>
				<path style="fill:none;stroke:#FFFFFF;stroke-width:1.7477;stroke-miterlimit:10;" d="M139.752,184.65h92.691
					c0,0-0.448-4.478-10.747-8.06c-10.299-3.582-17.687,5.597-29.33,0c-11.642-5.597-17.817-13.628-32.818-9.15
					C144.548,171.917,139.752,184.65,139.752,184.65z"/>
				<path style="fill:none;stroke:#FFFFFF;stroke-width:1.9333;stroke-miterlimit:10;" d="M674.396,248.399
					c0,3.021-2.415,5.469-5.394,5.469c-2.979,0-5.393-2.449-5.393-5.469c0-3.02,2.415-5.469,5.393-5.469
					C671.981,242.93,674.396,245.378,674.396,248.399z"/>
				<path style="fill:none;stroke:#FFFFFF;stroke-width:1.9333;stroke-miterlimit:10;" d="M289.954,55.739
					c0,3.021-2.415,5.469-5.393,5.469c-2.979,0-5.393-2.449-5.393-5.469c0-3.021,2.415-5.469,5.393-5.469
					C287.539,50.27,289.954,52.718,289.954,55.739z"/>
				<path style="fill:#FFFFFF;" d="M545.977,76.805c0,2.194-1.754,3.972-3.917,3.972c-2.163,0-3.917-1.778-3.917-3.972
					c0-2.194,1.754-3.972,3.917-3.972C544.224,72.833,545.977,74.611,545.977,76.805z"/>
				
					<ellipse style="fill:none;stroke:#FFFFFF;stroke-width:1.9333;stroke-miterlimit:10;" cx="65.477" cy="249.18" rx="7.705" ry="7.813"/>
			</g>
		</g>
		<g>
			<g>
				<path style="fill:#F9EBE3;" d="M428.791,308.607c4.048-18.634,9.636-36.327,20.098-54.992
					c10.475-18.699,25.864-38.26,49.145-61.926c0,0-0.729,4.824-2.642,12.792c-1.926,7.958-5.136,19.038-10.302,31.347
					C474.937,260.456,456.696,290.204,428.791,308.607z"/>
				<path style="fill:#F9EBE3;" d="M420.748,320.194c7.997-14.58,4.617-34.121-1.575-51.461
					c-6.219-17.426-15.129-32.718-17.6-40.294c0,0-6.003,17.778-7.09,37.99C393.567,286.627,397.362,309.81,420.748,320.194z"/>
				<path style="fill:#F9EBE3;" d="M419.131,323.384c16.129-14.937,36.28-21.982,55.855-26.102
					c19.462-4.152,38.283-5.317,50.475-7.566c0,0-3.577,4.109-9.853,9.721c-6.205,5.674-15.173,12.794-25.629,18.946
					C469.046,330.75,441.747,338.347,419.131,323.384z"/>
				<path style="fill:#F9EBE3;" d="M394.857,355.23c13.412-17.308,7.334-40.278-2.225-58.122
					c-9.613-17.974-22.544-31.261-22.544-31.261s-1.036,4.041-1.918,10.505c-0.929,6.434-1.783,15.26-1.391,24.891
					C367.59,320.406,372.918,343.037,394.857,355.23z"/>
				<path style="fill:#F9EBE3;" d="M395.739,354.085c15.252-11,36.202-16.721,57.544-17.404c21.336-0.589,43.25,4.016,59.579,15.379
					c0,0-10.882,6.739-26.184,11.533c-15.275,4.841-34.913,7.544-51.676,0.55c-16.798-7.017-26.526-9.631-32.132-10.348
					C397.25,353.03,395.739,354.085,395.739,354.085z"/>
				<path style="fill:#F9EBE3;" d="M376.679,371.482c0.091,0.55,0.139,1.078,0.161,1.59c0.273,0.032,0.545,0.07,0.818,0.101
					c0.484,0.013,0.968,0.035,1.451,0.05c3.942-10.229,2.022-23.686-5.066-35.694c-8.755-15.007-25.339-27.692-47.03-30.966
					c0,0,1.575,8.49,6.206,18.637c4.68,10.145,12.469,22.115,25.641,28.474C371.645,359.793,375.799,366.358,376.679,371.482z"/>
			</g>
			<g>
				<path style="fill:#F9EBE3;" d="M239.087,313.625c-12.512-9.718-23.815-20.283-34.226-34.928
					c-10.432-14.667-19.878-33.407-29.762-59.653c0,0,3.345,2.271,8.635,6.567c5.279,4.301,12.452,10.696,19.892,19.025
					C218.573,261.162,234.647,285.703,239.087,313.625z"/>
				<path style="fill:#F9EBE3;" d="M245.038,323.904c-8.191-11.306-23.838-15.652-38.779-17.063
					c-15.014-1.42-29.334-0.02-35.785-0.815c0,0,11.229,10.913,25.894,18.922C211.081,332.82,229.574,338.141,245.038,323.904z"/>
				<path style="fill:#F9EBE3;" d="M246.874,326.276c-5.763-17.665-4.327-35.611-0.908-52.078
					c3.359-16.391,8.725-31.23,11.091-41.374c0,0,1.87,4.2,3.964,11.003c2.164,6.771,4.487,16.171,5.597,26.37
					C268.88,290.633,265.488,314.253,246.874,326.276z"/>
				<path style="fill:#F9EBE3;" d="M262.51,356.186c-8.426-16.425-27.515-19.921-43.946-18.929
					c-16.546,0.987-30.706,6.181-30.706,6.181s2.661,2.228,7.174,5.2c4.476,2.996,10.754,6.784,18.044,9.903
					C227.591,364.723,246.18,368.673,262.51,356.186z"/>
				<path style="fill:#F9EBE3;" d="M261.951,355.104c-3.126-15.595-0.442-33.684,6.118-50.284
					c6.628-16.562,17.309-31.724,31.164-40.205c0,0,1.406,10.733-0.097,24.163c-1.46,13.427-5.954,29.438-16.705,39.803
					c-10.78,10.384-15.945,16.912-18.334,20.954C261.667,353.572,261.951,355.104,261.951,355.104z"/>
				<path style="fill:#F9EBE3;" d="M272.948,376.923c-4.929-10.17-1.959-24.531,6.534-36.511
					c8.558-11.94,22.762-21.523,41.048-20.346c0,0-1.787,7.77-6.649,16.265c-4.833,8.509-12.639,17.585-24.065,20.747
					c-11.045,3.098-15.217,8.121-16.672,12.28C271.714,373.517,272.948,376.923,272.948,376.923z"/>
			</g>
			<g>
				<g>
					<path style="fill-rule:evenodd;clip-rule:evenodd;fill:#D0DBE4;" d="M257.165,381.171c0.556-0.03,1.136-0.004,1.741,0.097
						c3.299,0.547,6.814-0.079,10.204-0.226c0.023-0.027,0.042-0.043,0.064-0.07c3.312-4.031-3.991-1.75,7.329-15.529
						c5.727-6.971,1.4-30.71-18.631-51.143c8.17,16.132,4.682,38.225,2.876,32.233c-1.87-6.206-1.728-32.781-12.004-40.337
						c-9.763-7.179-22.84-14.614-37.769-18.891c15.246,18.342,18.932,35.154,13.63,35.216c-2.299,0.027-12.187-35.609-28.651-38.603
						c-13.627-2.479-29.255-2.955-46.967-1.322c1.507,14.511,2.41,28.095,7.89,38.613c12.981,24.915,52.745,22.305,55.679,29.215
						c2.247,5.292-34.227,0.616-49.986-12.73c7.231,16.958,20.598,32.297,30.367,39.15c9.76,6.846,34.083-5.28,40.524-5.374
						c6.194-0.091,4.268,5.668-12.413,9.564c1.095-0.066-1.082,0.139,0,0c1.872-0.398,1.942,0.25,3.815-0.145
						c1.781-0.376,3.69-0.473,4.992,0.118c3.105-0.281,6.263-0.04,9.377,0.027c1.614,0.035,2.866-0.219,4.458,0
						C248.271,380.243,252.522,380.812,257.165,381.171z"/>
				</g>
				<path style="fill-rule:evenodd;clip-rule:evenodd;fill:none;stroke:#FBF4EF;stroke-width:1.046;stroke-miterlimit:10;" d="
					M168.054,300.866c0,0,39.315,22.513,93.597,79.574"/>
				
					<line style="fill-rule:evenodd;clip-rule:evenodd;fill:none;stroke:#FBF4EF;stroke-width:1.046;stroke-miterlimit:10;" x1="200.979" y1="308.443" x2="208.661" y2="330.585"/>
			</g>
			<g>
				<g>
					<path style="fill-rule:evenodd;clip-rule:evenodd;fill:#D0DBE4;" d="M581.619,329.531c5.779-10.96,6.792-25.147,8.44-40.299
						c-18.496-1.797-34.825-1.379-49.074,1.141c-17.216,3.044-27.728,40.223-30.13,40.183c-5.539-0.092-1.603-17.636,14.419-36.721
						c-15.618,4.391-29.318,12.093-39.554,19.542c-10.775,7.842-10.763,35.606-12.747,42.08c-1.917,6.251-5.448-16.848,3.17-33.659
						c-21.031,21.244-25.673,46.022-19.726,53.334c11.755,14.453,21.191-1.468,24.63,2.76c0.971,1.193,1.312,1.599,0.074,3.224
						c1.654-0.385,2.278,0.078,3.784,0.026c1.886-0.065,4.278-0.747,5.83-0.212c1.009-0.043,1.672-0.185,2.681-0.23
						c0.386-0.047,1.531-0.015,1.892,0c7.545-0.341,13.935,0.229,21.49,0.287c1.28,0.01,2.556,0.043,3.832,0.075
						c10.386-0.631,20.734-1.161,31.132-0.349c8.665-8.317,18.063-20.661,23.824-33.989c-16.532,13.862-54.661,18.56-52.286,13.043
						C526.401,352.563,567.931,355.493,581.619,329.531z"/>
				</g>
				<path style="fill-rule:evenodd;clip-rule:evenodd;fill:none;stroke:#FBF4EF;stroke-width:1.046;stroke-miterlimit:10;" d="
					M570.046,308.223c0,0-30.276,13.143-87.277,72.476"/>
				
					<line style="fill-rule:evenodd;clip-rule:evenodd;fill:none;stroke:#FBF4EF;stroke-width:1.046;stroke-miterlimit:10;" x1="535.61" y1="315.971" x2="528.011" y2="337.533"/>
			</g>
			<g>
				<path style="fill-rule:evenodd;clip-rule:evenodd;fill:#94D0DB;" d="M337.248,380.552c1.515-5.461,2.531-11.596,2.744-18.289
					c-2.805,7.966-8.538,14.894-13.129,19.133C330.331,381.196,333.788,380.661,337.248,380.552z"/>
				<path style="fill-rule:evenodd;clip-rule:evenodd;fill:#94D0DB;" d="M274.845,381.013c1.535,0.022,3.06-0.011,4.582-0.061
					c-2.053-1.599-4.472-3.604-7.318-6.113c0.503,2.178,0.966,4.226,1.409,6.193C273.963,381.016,274.406,381.007,274.845,381.013z"
					/>
			</g>
			<g>
				<path style="fill:#EDD0C1;" d="M293.659,379.332c1.393-0.099,2.581,0.156,3.58,0.641c3.098-0.403,6.195-0.495,9.321-0.53
					c1.402-0.105,2.797-0.154,4.199-0.161c2.308-0.274,4.609-0.62,6.967-0.812c2.781-0.226,5.565-0.117,8.348-0.13
					c-12.172-35.004-46.886-118.647-110.107-152.519c0,0-14.994,58.056,65.096,154.686c3.286-0.211,6.533-0.588,9.805-0.914
					C291.793,379.488,292.723,379.399,293.659,379.332z"/>
				
					<line style="fill:none;stroke:#FBF4EF;stroke-width:1.046;stroke-miterlimit:10;" x1="227.84" y1="252.18" x2="303.196" y2="378.942"/>
				
					<line style="fill:none;stroke:#FBF4EF;stroke-width:1.046;stroke-miterlimit:10;" x1="263.921" y1="312.876" x2="266.665" y2="284.157"/>
				
					<line style="fill:none;stroke:#FBF4EF;stroke-width:1.046;stroke-miterlimit:10;" x1="271.006" y1="347.514" x2="288.234" y2="353.774"/>
			</g>
			<g>
				<path style="fill:#EDD0C1;" d="M402.607,374.885c4.667,0.712,9.62,1.365,14.266,2.165c1.72,0.296,3.187,0.256,5.062,0.768
					c1.686-0.133,2.852,0.932,4.342,1.106c0.258,0.03,0.5,0.076,0.749,0.115c88.271-96.043,75.142-156.517,75.142-156.517
					c-89.939,48.105-95.724,101.778-113.039,150.088c3.311,0.631,6.617,1.293,9.948,1.82
					C400.223,374.612,401.81,374.355,402.607,374.885z"/>
				
					<line style="fill:none;stroke:#FBF4EF;stroke-width:1.046;stroke-miterlimit:10;" x1="489.278" y1="248.399" x2="406.852" y2="375.51"/>
				
					<line style="fill:none;stroke:#FBF4EF;stroke-width:1.046;stroke-miterlimit:10;" x1="450.861" y1="307.643" x2="449.278" y2="279.557"/>
				
					<line style="fill:none;stroke:#FBF4EF;stroke-width:1.046;stroke-miterlimit:10;" x1="442.432" y1="341.979" x2="424.974" y2="347.564"/>
			</g>
			<g>
				<g>
					<path style="fill:none;stroke:#E2C2AF;stroke-width:2.0622;stroke-miterlimit:10;" d="M169.676,381.271
						c0,0-47.269-32.588-41.487-98.225"/>
					<g>
						<circle style="fill:#D0DBE4;" cx="128.895" cy="279.042" r="8.879"/>
						<path style="fill:#D0DBE4;" d="M135.052,266.634c0.203,2.804-1.906,5.241-4.709,5.444c-2.804,0.203-5.241-1.906-5.444-4.71
							c-0.203-2.804,1.906-5.241,4.71-5.444C132.412,261.722,134.849,263.83,135.052,266.634z"/>
					</g>
				</g>
				<g>
					<path style="fill:none;stroke:#E2C2AF;stroke-width:2.0622;stroke-miterlimit:10;" d="M168.541,380.1
						c0.048,0.023-49.199,5.099-69.867-42.939"/>
					<g>
						<path style="fill:#D0DBE4;" d="M103.606,330.322c2.086,3.284,1.115,7.637-2.168,9.723c-3.284,2.086-7.636,1.115-9.723-2.168
							c-2.086-3.284-1.115-7.637,2.168-9.723S101.52,327.038,103.606,330.322z"/>
						
							<ellipse transform="matrix(0.2177 -0.976 0.976 0.2177 -244.0305 346.1118)" style="fill:#D0DBE4;" cx="93.888" cy="325.281" rx="4.038" ry="4.038"/>
					</g>
				</g>
			</g>
			<g>
				<g>
					<path style="fill:none;stroke:#E2C2AF;stroke-width:2.0622;stroke-miterlimit:10;" d="M567.27,381.271
						c0,0,47.266-32.588,41.484-98.225"/>
					<g>
						<path style="fill:#D0DBE4;" d="M599.193,278.401c-0.354,4.891,3.325,9.142,8.216,9.496c4.891,0.354,9.142-3.324,9.496-8.215
							c0.354-4.891-3.325-9.142-8.215-9.496C603.798,269.832,599.547,273.51,599.193,278.401z"/>
						<path style="fill:#D0DBE4;" d="M601.892,266.634c-0.203,2.804,1.906,5.241,4.71,5.444c2.804,0.203,5.241-1.906,5.443-4.71
							c0.203-2.804-1.906-5.241-4.709-5.444C604.532,261.722,602.094,263.83,601.892,266.634z"/>
					</g>
				</g>
				<g>
					<path style="fill:none;stroke:#E2C2AF;stroke-width:2.0622;stroke-miterlimit:10;" d="M568.403,380.1
						c-0.048,0.023,49.199,5.099,69.867-42.939"/>
					<g>
						<path style="fill:#D0DBE4;" d="M633.338,330.322c-2.086,3.284-1.115,7.637,2.168,9.723c3.284,2.086,7.636,1.115,9.722-2.168
							c2.086-3.284,1.115-7.637-2.168-9.723C639.777,326.067,635.424,327.038,633.338,330.322z"/>
						
							<ellipse transform="matrix(0.9764 -0.2161 0.2161 0.9764 -55.1049 146.6749)" style="fill:#D0DBE4;" cx="643.056" cy="325.281" rx="4.038" ry="4.038"/>
					</g>
				</g>
			</g>
			
				<line style="fill:none;stroke:#E2C2AF;stroke-width:1.9057;stroke-miterlimit:10;" x1="72.64" y1="381.271" x2="667.002" y2="381.271"/>
		</g>
	</g>
	<g>
		<polygon style="fill:none;stroke:#E2C2AF;stroke-width:1.9057;stroke-miterlimit:10;" points="208.682,397.861 122.426,436.207 
			613.156,436.207 529.273,397.861 		"/>
		<g>
			<g>
				<polygon style="fill:#AAB5FB;" points="337.619,322.111 320.68,349.645 353.175,388.234 385.947,388.234 416.507,348.991 
					397.589,322.111 				"/>
				<path style="fill:#AAB5FB;" d="M320.68,349.645c0,0-72.885,5.632-91.167,24.726c-18.282,19.095-7.743,31.736,8.125,39.815
					c22.345,11.376,88.315,8.938,130.084-4.875l6.83-39.815L320.68,349.645z"/>
				<path style="fill:#AAB5FB;" d="M414.619,348.692c0,0,76.324,6.585,94.606,25.679c18.282,19.095,7.743,31.736-8.125,39.815
					c-22.345,11.376-102.867,9.488-144.636-4.325l7.722-40.365L414.619,348.692z"/>
				<g>
					<path style="fill:#EAB49B;" d="M431.722,381.268l-16.409-1.951l-2.504-6.471l6.427-2.854c0,0-0.886-9.148,6.976-10.668
						c7.862-1.521,17.245,4.821,26.376,0.73c8.428-3.776,18.736-7.244,28.354-2.024c1.42,0.771,2.087,2.464,1.602,4.005
						l-0.037,0.117c-0.489,1.552-2.01,2.511-3.629,2.345c-3.393-0.348-9.448-0.274-15.42,3.351
						C457.408,371.521,442.771,377.204,431.722,381.268L431.722,381.268z"/>
					
						<line style="fill:none;stroke:#462C3B;stroke-width:1.2951;stroke-linecap:round;stroke-miterlimit:10;" x1="379.64" y1="376.923" x2="411.856" y2="373.756"/>
				</g>
				<g>
					<path style="fill:none;stroke:#462C3B;stroke-width:1.2951;stroke-linecap:round;stroke-miterlimit:10;" d="M361.181,411.321
						c-25.685-5.93-52.557-21.143-52.557-21.143l1.602-2.719"/>
					<path style="fill:none;stroke:#462C3B;stroke-width:1.2951;stroke-linecap:round;stroke-miterlimit:10;" d="M319.785,376.494
						c0,0,118.855-3.662,149.336,15.556"/>
					<path style="fill:none;stroke:#462C3B;stroke-width:1.2951;stroke-linecap:round;stroke-miterlimit:10;" d="M261.926,384.132
						c0,0,21.529-10.085,36.236-3.479"/>
					<path style="fill:#EAB49B;" d="M311.917,388.212l7.869-11.979l-7.869-4.259c0,0,1.597-9.05-6.122-11.18
						c-7.72-2.13-17.568,3.46-26.353-1.331c-8.107-4.422-18.114-8.684-28.11-4.231c-1.476,0.658-2.273,2.293-1.91,3.868l0.027,0.119
						c0.366,1.586,1.808,2.66,3.435,2.621c3.41-0.083,9.441,0.464,15.112,4.544C277.779,373.424,311.917,388.212,311.917,388.212z"
						/>
					
						<line style="fill:none;stroke:#462C3B;stroke-width:1.2951;stroke-linecap:round;stroke-miterlimit:10;" x1="338.653" y1="362.951" x2="356.63" y2="375.971"/>
				</g>
			</g>
			<path style="fill:#D25F3E;" d="M415.514,201.518c-12.159-19.631-14.203-51.91-14.203-51.91l-29.89-12.335v-1.017l-1.807,0.508
				l-1.807-0.508v1.017l-29.667,12.041c0,0-3.228,33.558-15.387,53.189c-12.016,19.4-3.392,43.632,46.861,40.062
				C419.866,246.135,427.529,220.918,415.514,201.518z"/>
			<g>
				<path style="fill:#D3626D;" d="M386.299,216.467l28.929,9.266c5.409,1.983,6.789,7.986,5.373,13.571l-23.012,82.808h-59.969
					l-20.793-84.55c-0.869-3.882,1.033-9.552,4.729-11.023l31.29-11.504L386.299,216.467z"/>
				<g>
					<g>
						<path style="fill:#EAB49B;" d="M407.65,259.409l30.24,67.637c2.379,6.58,9.262,10.383,16.099,8.896l0,0
							c8.209-1.785,12.997-10.355,10.204-18.279c-5.946-16.868-23.852-50.993-29.984-67.882
							c-2.985-8.221-12.647-11.777-20.252-7.457l0,0C407.974,245.723,405.31,252.938,407.65,259.409z"/>
						<g>
							<path style="fill:#D3626D;" d="M416.281,226.538c0,0,9.894,0.892,22.16,33.278l-28.712,14.91l-9.342-27.783L416.281,226.538z
								"/>
							
								<line style="fill:none;stroke:#462C3B;stroke-width:1.2951;stroke-linecap:round;stroke-miterlimit:10;" x1="411.704" y1="273.081" x2="415.749" y2="254.703"/>
						</g>
					</g>
					<g>
						<path style="fill:#EAB49B;" d="M445.151,304.25c-0.821-0.274-0.357,1.483-72.834-29.208l-3.108,4.162
							c-0.151,4.309,0.837,8.447,3.511,10.202l71.618,45.15L445.151,304.25z"/>
						<path style="fill:#EAB49B;" d="M369.209,279.204l-0.43-35.334c-0.01-0.796,0.633-1.447,1.429-1.447l0,0
							c0.704,0,1.303,0.513,1.412,1.209l9.58,41.849L369.209,279.204z"/>
						
							<line style="fill:none;stroke:#DC9C82;stroke-width:0.9529;stroke-miterlimit:10;" x1="424.286" y1="296.617" x2="438.453" y2="302.116"/>
					</g>
				</g>
				<g>
					<g>
						<path style="fill:#EAB49B;" d="M330.187,259.409l-30.24,67.637c-2.379,6.58-9.262,10.383-16.099,8.896l0,0
							c-8.209-1.785-12.997-10.355-10.204-18.279c5.946-16.868,23.852-50.993,29.984-67.882c2.985-8.221,12.647-11.777,20.252-7.457
							l0,0C329.863,245.723,332.527,252.938,330.187,259.409z"/>
						<g>
							<path style="fill:#D3626D;" d="M321.556,226.538c0,0-9.894,0.892-22.16,33.278l28.712,14.91l9.342-27.783L321.556,226.538z"
								/>
							
								<line style="fill:none;stroke:#462C3B;stroke-width:1.2951;stroke-linecap:round;stroke-miterlimit:10;" x1="325.27" y1="273.081" x2="321.224" y2="254.703"/>
						</g>
					</g>
					<g>
						<path style="fill:#EAB49B;" d="M292.685,304.25c0.821-0.274,0.357,1.483,72.834-29.208l3.108,4.162
							c0.298,4.881-1.162,8.651-3.835,10.406l-71.294,44.945L292.685,304.25z"/>
						<path style="fill:#EAB49B;" d="M368.628,279.204l0.43-35.334c0.01-0.796-0.633-1.447-1.429-1.447l0,0
							c-0.704,0-1.303,0.513-1.412,1.209l-9.58,41.849L368.628,279.204z"/>
						
							<line style="fill:none;stroke:#DC9C82;stroke-width:0.9529;stroke-miterlimit:10;" x1="368.887" y1="243.308" x2="369.214" y2="280.99"/>
						
							<line style="fill:none;stroke:#DC9C82;stroke-width:0.9529;stroke-miterlimit:10;" x1="313.551" y1="296.617" x2="300.031" y2="302.116"/>
					</g>
				</g>
			</g>
			<g>
				<path style="fill:#EAB49B;" d="M357.958,212.133l-22.233,9.012c0,0,14.258,8.23,32.336,8.285
					c20.223,0.061,34.656-7.809,34.656-7.809l-23.202-10.441L357.958,212.133z"/>
				<path style="fill:#EAB49B;" d="M379.563,190.072c0,0-3.435,0.119-8.226,1.009c-4.791,0.89-8.704-1.627-9.667,1.617
					c-0.019,0.065-3.912-3.244-3.912-3.244l-2.002,31.922c0,0,12.727,7.761,26.57-0.401L379.563,190.072z"/>
				<path style="fill:#472D3C;" d="M354.725,185.92c0,0,5.785,14.333,25.839,15.333l-1.679-19.128L354.725,185.92z"/>
				<g>
					<path style="fill:#D25F3E;" d="M401.473,149.781c0,18.271-14.218,33.082-31.757,33.082c-17.539,0-31.757-14.812-31.757-33.082
						s14.218-30.701,31.757-30.701C387.255,119.08,401.473,131.51,401.473,149.781z"/>
				</g>
				<path style="fill:#EAB49B;" d="M394.629,150.416c0,10.393-1.504,19.362-3.006,25.727c-1.471,6.232-5.608,10.587-11.455,14.093
					l-1.065,0.639c-6.187,3.709-14.18,3.796-20.462,0.221v0c-6.335-3.605-10.771-8.358-12.136-15.045
					c-2.483-12.163-2.754-25.634-2.754-25.634s-2.362-26.237,25.077-25.727C396.266,125.199,394.629,150.416,394.629,150.416z"/>
				<g>
					<path style="fill:#EAB49B;" d="M346.743,176.565c-4.629,4.473-16.166-8.672-11.886-13.919c3.944-4.836,9.547,0.683,9.547,0.683
						l0.949,4.932l1.413,6.639l0.365,1.489L346.743,176.565z"/>
				</g>
				<g>
					<path style="fill:#EAB49B;" d="M391.61,176.24c4.905,3.863,16.797-10.441,12.039-14.573c-4.757-4.132-9.941,1.301-9.941,1.301
						l-0.86,4.947l-1.293,6.661l-0.337,1.494L391.61,176.24z"/>
				</g>
				<polygon style="fill:#D25F3E;" points="339.038,158.808 344.877,166.198 343.7,148.187 				"/>
				<polygon style="fill:#D25F3E;" points="398.679,158.808 393.396,166.026 394.605,148.187 				"/>
				<g>
					<polyline style="fill:none;stroke:#462C3B;stroke-width:1.5542;stroke-linecap:round;stroke-miterlimit:10;" points="
						369.591,165.327 370.025,168.653 368.535,169.587 					"/>
					<g>
						<path style="fill:#D3626C;" d="M360.786,176.261h16.082c0,0-1.809,2.638-8.041,2.638
							C362.104,178.898,360.786,176.261,360.786,176.261z"/>
						<path style="fill:#D3626C;" d="M360.786,176.261l3.674-1.9c0.709-0.367,1.741-0.41,2.53-0.106l1.94,0.747l1.735-0.694
							c0.787-0.315,1.832-0.279,2.551,0.089l3.653,1.865H360.786z"/>
					</g>
					<path style="fill:none;stroke:#462C3B;stroke-width:1.5542;stroke-linecap:round;stroke-miterlimit:10;" d="M360.786,160.155
						c0,0-3.046,2.603-6.864,0"/>
					<path style="fill:none;stroke:#462C3B;stroke-width:1.5542;stroke-linecap:round;stroke-miterlimit:10;" d="M383.279,160.155
						c0,0-3.046,2.603-6.864,0"/>
					<path style="fill:#472D3C;" d="M373.917,152.1c0,0,8.177,0.424,13.629,3.737c0,0,0-3.434-5.192-4.949
						C377.162,149.373,373.917,152.1,373.917,152.1z"/>
					<path style="fill:#472D3C;" d="M363.445,152.1c0,0-8.177,0.424-13.629,3.737c0,0,0-3.434,5.192-4.949
						C360.2,149.373,363.445,152.1,363.445,152.1z"/>
				</g>
				<path style="fill:#D25F3E;" d="M346.738,129.957c0,0,9.549,19.345,50.802,20.307c0,0,4.457-18.309-16.686-25.581
					C359.71,117.409,346.738,129.957,346.738,129.957z"/>
				<path style="fill:#D25F3E;" d="M340.872,153.484c0,0,12.731-3.738,14.378-24.777
					C355.25,128.707,342.353,130.671,340.872,153.484z"/>
				<path style="fill:none;stroke:#462C3B;stroke-width:1.2951;stroke-linecap:round;stroke-miterlimit:10;" d="M344.359,170.392
					c0,0-0.645-3.509-5.498-3.411"/>
				<path style="fill:none;stroke:#462C3B;stroke-width:1.2951;stroke-linecap:round;stroke-miterlimit:10;" d="M393.629,170.392
					c0,0,0.645-3.509,5.498-3.411"/>
			</g>
		</g>
	</g>
</g>
<g id="DESIGNED_BY_FREEPIK">
	<g>
		<g id="XMLID_29_">
			<g id="XMLID_48_">
				<path id="XMLID_56_" style="fill:#1C1C1B;" d="M385.084,465.471c-0.432,0.443-0.803,0.931-1.108,1.453l-0.465-0.241
					c-0.067-0.298-0.349-0.503-0.659-0.466c-0.331,0.039-0.568,0.339-0.529,0.67c0.039,0.331,0.339,0.568,0.67,0.529
					c0.065-0.008,0.127-0.026,0.184-0.052l0.452,0.234c-0.251,0.554-0.433,1.139-0.539,1.744l0.746,0.132
					c0.23-1.306,0.85-2.507,1.792-3.472L385.084,465.471z"/>
				<path id="XMLID_55_" style="fill:#1C1C1B;" d="M390.572,463.169c-0.171,0-0.341,0.006-0.51,0.017l-0.074-0.626
					c0.188-0.149,0.296-0.389,0.266-0.645c-0.046-0.393-0.402-0.674-0.795-0.628s-0.674,0.402-0.628,0.795
					c0.03,0.254,0.189,0.461,0.405,0.564l0.073,0.624c-0.714,0.116-1.403,0.332-2.06,0.646l0.327,0.684
					c0.934-0.447,1.942-0.673,2.995-0.673c0.496,0,0.993,0.053,1.475,0.158l0.161-0.741
					C391.672,463.228,391.122,463.169,390.572,463.169z"/>
				<path id="XMLID_54_" style="fill:#1C1C1B;" d="M397.174,465.716c0.331-0.04,0.566-0.341,0.525-0.672
					c-0.04-0.331-0.341-0.566-0.672-0.526c-0.309,0.038-0.535,0.304-0.53,0.609l-0.416,0.363c-0.418-0.43-0.89-0.813-1.408-1.139
					l-0.404,0.641c1.134,0.715,2.021,1.726,2.563,2.925l0.69-0.313c-0.251-0.554-0.567-1.072-0.942-1.545l0.402-0.351
					C397.045,465.721,397.109,465.724,397.174,465.716z"/>
				<path id="XMLID_53_" style="fill:#1C1C1B;" d="M390.024,473.377c-0.386,0.023-0.775,0.035-1.157,0.035
					c-0.88,0-1.733-0.061-2.478-0.179c-0.39-0.062-0.846-0.155-1.27-0.292c1.046,1.861,3.069,3.125,5.388,3.125
					c2.855,0,5.262-1.916,5.95-4.504c-0.682,0.449-1.505,0.825-2.459,1.123C392.818,473.052,391.443,473.292,390.024,473.377z"/>
				<path id="XMLID_49_" style="fill:#1C1C1B;" d="M390.572,464.685c-3.352,0-6.08,2.666-6.08,5.944
					c0,0.425,0.046,0.849,0.137,1.261c0.673,0.483,2.706,0.89,5.348,0.731c2.879-0.173,5.297-0.957,6.672-2.158
					c-0.005-0.195-0.021-0.39-0.045-0.582C396.223,466.919,393.63,464.685,390.572,464.685z M388.412,471.2
					c-1.02,0-1.85-0.83-1.85-1.85c0-1.02,0.83-1.85,1.85-1.85c1.02,0,1.85,0.83,1.85,1.85
					C390.262,470.37,389.432,471.2,388.412,471.2z M393.15,470.292c-0.75,0-1.36-0.61-1.36-1.36s0.61-1.361,1.36-1.361
					c0.75,0,1.361,0.61,1.361,1.361S393.9,470.292,393.15,470.292z"/>
			</g>
			<path id="XMLID_46_" style="fill:#1C1C1B;" d="M406.575,466.552c-0.295-0.116-0.806-0.309-1.382-0.237
				c-0.551,0.068-0.844,0.34-0.844,1.007v0.866h2.228v1.717h-2.228v5.455h-1.932v-5.455h-1.34v-1.717h1.34v-0.888
				c0-1.68,0.896-2.783,2.568-2.783c0.643,0,1.157,0.122,1.59,0.308L406.575,466.552z"/>
			<path id="XMLID_44_" style="fill:#1C1C1B;" d="M411.278,469.884c-0.177-0.03-0.358-0.046-0.526-0.046
				c-0.896,0-1.51,0.548-1.51,1.613v3.908h-1.932v-7.172h1.873v0.785c0.451-0.673,1.14-0.977,2.021-0.977
				c0.414,0,0.848,0.128,1.094,0.337L411.278,469.884z"/>
			<path id="XMLID_41_" style="fill:#1C1C1B;" d="M418.945,471.762c0,0.222-0.015,0.489-0.037,0.651h-5.085
				c0.207,1.036,0.933,1.488,1.843,1.488c0.622,0,1.295-0.252,1.813-0.688l1.133,1.243c-0.814,0.748-1.85,1.088-3.057,1.088
				c-2.198,0-3.723-1.495-3.723-3.753c0-2.258,1.48-3.797,3.626-3.797C417.524,467.995,418.937,469.527,418.945,471.762z
				 M413.83,471.096h3.175c-0.177-0.918-0.733-1.436-1.562-1.436C414.534,469.66,414.001,470.208,413.83,471.096z"/>
			<path id="XMLID_38_" style="fill:#1C1C1B;" d="M426.598,471.762c0,0.222-0.015,0.489-0.037,0.651h-5.085
				c0.207,1.036,0.932,1.488,1.843,1.488c0.622,0,1.295-0.252,1.813-0.688l1.132,1.243c-0.814,0.748-1.85,1.088-3.057,1.088
				c-2.198,0-3.723-1.495-3.723-3.753c0-2.258,1.48-3.797,3.627-3.797C425.177,467.995,426.591,469.527,426.598,471.762z
				 M421.484,471.096h3.175c-0.178-0.918-0.733-1.436-1.562-1.436C422.187,469.66,421.654,470.208,421.484,471.096z"/>
			<path id="XMLID_35_" style="fill:#1C1C1B;" d="M434.944,471.77c0,2.154-1.495,3.775-3.471,3.775
				c-0.962,0-1.643-0.378-2.109-0.933v3.708h-1.924v-10.133h1.887v0.792c0.466-0.585,1.155-0.984,2.139-0.984
				C433.449,467.995,434.944,469.616,434.944,471.77z M429.267,471.77c0,1.132,0.748,1.976,1.843,1.976
				c1.14,0,1.85-0.881,1.85-1.976c0-1.095-0.71-1.976-1.85-1.976C430.014,469.794,429.267,470.637,429.267,471.77z"/>
			<path id="XMLID_32_" style="fill:#1C1C1B;" d="M438.047,465.841c0,0.696-0.54,1.229-1.236,1.229
				c-0.696,0-1.229-0.533-1.229-1.229c0-0.696,0.533-1.243,1.229-1.243C437.507,464.598,438.047,465.146,438.047,465.841z
				 M437.788,475.359h-1.932v-7.172h1.932V475.359z"/>
			<path id="XMLID_30_" style="fill:#1C1C1B;" d="M441.012,470.741l2.701-2.554h2.368l-3.479,3.375l3.501,3.797h-2.376l-2.716-2.901
				v2.901h-1.932v-10.658h1.932V470.741z"/>
		</g>
		<g>
			<path style="fill:#1C1C1B;" d="M309.392,475.294v-1.055c-0.527,0.718-1.391,1.231-2.388,1.231c-1.846,0-3.149-1.406-3.149-3.706
				c0-2.256,1.289-3.721,3.149-3.721c0.952,0,1.816,0.469,2.388,1.245v-3.765h1.099v9.77H309.392z M309.392,473.376v-3.208
				c-0.395-0.615-1.245-1.143-2.124-1.143c-1.421,0-2.27,1.172-2.27,2.739c0,1.567,0.85,2.724,2.27,2.724
				C308.147,474.489,308.997,473.991,309.392,473.376z"/>
			<path style="fill:#1C1C1B;" d="M311.912,471.75c0-2.051,1.465-3.706,3.486-3.706c2.139,0,3.398,1.67,3.398,3.794v0.279h-5.727
				c0.088,1.333,1.025,2.446,2.549,2.446c0.806,0,1.626-0.322,2.182-0.893l0.527,0.718c-0.703,0.703-1.655,1.084-2.812,1.084
				C313.42,475.47,311.912,473.962,311.912,471.75z M315.383,468.952c-1.509,0-2.256,1.274-2.314,2.358h4.643
				C317.697,470.255,316.994,468.952,315.383,468.952z"/>
			<path style="fill:#1C1C1B;" d="M319.587,474.357l0.571-0.791c0.469,0.542,1.362,1.011,2.329,1.011c1.084,0,1.67-0.513,1.67-1.216
				c0-1.714-4.38-0.659-4.38-3.281c0-1.098,0.952-2.036,2.636-2.036c1.201,0,2.051,0.454,2.622,1.026l-0.513,0.762
				c-0.424-0.513-1.201-0.894-2.109-0.894c-0.967,0-1.567,0.483-1.567,1.113c0,1.552,4.38,0.527,4.38,3.281
				c0,1.187-0.952,2.139-2.783,2.139C321.286,475.47,320.304,475.119,319.587,474.357z"/>
			<path style="fill:#1C1C1B;" d="M326.457,466.477c0-0.41,0.337-0.747,0.732-0.747c0.41,0,0.747,0.337,0.747,0.747
				c0,0.41-0.337,0.732-0.747,0.732C326.794,467.209,326.457,466.887,326.457,466.477z M326.647,475.294v-7.075h1.099v7.075H326.647
				z"/>
			<path style="fill:#1C1C1B;" d="M329.562,477.111l0.556-0.82c0.586,0.703,1.289,0.967,2.3,0.967c1.172,0,2.27-0.571,2.27-2.124
				v-1.011c-0.513,0.718-1.377,1.26-2.373,1.26c-1.845,0-3.149-1.377-3.149-3.662c0-2.27,1.289-3.677,3.149-3.677
				c0.952,0,1.802,0.469,2.373,1.245v-1.069h1.099v6.87c0,2.344-1.641,3.076-3.369,3.076
				C331.217,478.165,330.396,477.931,329.562,477.111z M334.688,473.259v-3.091c-0.381-0.615-1.23-1.143-2.109-1.143
				c-1.421,0-2.27,1.128-2.27,2.695c0,1.553,0.849,2.695,2.27,2.695C333.458,474.416,334.307,473.874,334.688,473.259z"/>
			<path style="fill:#1C1C1B;" d="M342.393,475.294v-4.629c0-1.245-0.63-1.641-1.582-1.641c-0.865,0-1.685,0.527-2.095,1.099v5.17
				h-1.099v-7.075h1.099v1.025c0.498-0.586,1.465-1.201,2.519-1.201c1.48,0,2.256,0.747,2.256,2.285v4.966H342.393z"/>
			<path style="fill:#1C1C1B;" d="M344.912,471.75c0-2.051,1.465-3.706,3.486-3.706c2.138,0,3.398,1.67,3.398,3.794v0.279h-5.727
				c0.088,1.333,1.025,2.446,2.549,2.446c0.806,0,1.626-0.322,2.183-0.893l0.527,0.718c-0.703,0.703-1.655,1.084-2.812,1.084
				C346.421,475.47,344.912,473.962,344.912,471.75z M348.384,468.952c-1.509,0-2.256,1.274-2.314,2.358h4.643
				C350.698,470.255,349.995,468.952,348.384,468.952z"/>
			<path style="fill:#1C1C1B;" d="M358.33,475.294v-1.055c-0.527,0.718-1.391,1.231-2.388,1.231c-1.846,0-3.149-1.406-3.149-3.706
				c0-2.256,1.289-3.721,3.149-3.721c0.952,0,1.817,0.469,2.388,1.245v-3.765h1.099v9.77H358.33z M358.33,473.376v-3.208
				c-0.396-0.615-1.245-1.143-2.124-1.143c-1.421,0-2.27,1.172-2.27,2.739c0,1.567,0.849,2.724,2.27,2.724
				C357.085,474.489,357.934,473.991,358.33,473.376z"/>
			<path style="fill:#1C1C1B;" d="M364.672,475.294v-9.77h1.099v3.765c0.572-0.776,1.421-1.245,2.388-1.245
				c1.845,0,3.149,1.465,3.149,3.721c0,2.299-1.304,3.706-3.149,3.706c-0.996,0-1.86-0.513-2.388-1.231v1.055H364.672z
				 M367.879,474.489c1.436,0,2.286-1.157,2.286-2.724c0-1.568-0.85-2.739-2.286-2.739c-0.864,0-1.728,0.527-2.109,1.143v3.208
				C366.151,473.991,367.015,474.489,367.879,474.489z"/>
			<path style="fill:#1C1C1B;" d="M372.508,477.067c0.161,0.073,0.425,0.117,0.601,0.117c0.483,0,0.806-0.161,1.055-0.747
				l0.469-1.069l-2.959-7.148h1.187l2.358,5.801l2.344-5.801h1.201l-3.545,8.51c-0.425,1.025-1.143,1.421-2.08,1.435
				c-0.234,0-0.601-0.044-0.806-0.103L372.508,477.067z"/>
		</g>
	</g>
</g>
</svg>
