<svg xmlns="http://www.w3.org/2000/svg" viewBox="0 0 635.7 412.11"><g style="isolation:isolate"><g id="Layer_2" data-name="Layer 2"><g id="OBJECTS"><polygon points="438.48 375.95 302.42 375.95 166.35 375.95 130.99 398.13 302.42 398.13 473.84 398.13 438.48 375.95" fill="#cbc5d8"/><rect x="130.99" y="398.13" width="342.85" height="3" fill="#766faa"/><path d="M401,390.34H198.18l78.47-15.89,126.15,5.47S464,390.34,401,390.34Z" fill="#a99fbe" opacity="0.3"/><path d="M454.15,160.78a55.59,55.59,0,0,1-14.28-38.93" fill="none" stroke="#fff" stroke-miterlimit="10"/><path d="M449.37,154.69a26.72,26.72,0,0,1-20-6.06" fill="none" stroke="#fff" stroke-miterlimit="10"/><path d="M445.43,147.86a26.61,26.61,0,0,1,8.07-12.92" fill="none" stroke="#fff" stroke-miterlimit="10"/><path d="M441.36,136.49a27,27,0,0,1-9.38-6.06" fill="none" stroke="#fff" stroke-miterlimit="10"/><path d="M450.35,138.23a17.34,17.34,0,0,1-2.44-9.7" fill="none" stroke="#fff" stroke-miterlimit="10"/><path d="M438.61,153.61a35.47,35.47,0,0,1-12.77,1.55" fill="none" stroke="#fff" stroke-miterlimit="10"/><path d="M440,128.94c2.2-3.94,5.62-7.77,9.74-9.61" fill="none" stroke="#fff" stroke-miterlimit="10"/><path d="M454.16,132.71a1.4,1.4,0,1,0,1.51,1.29A1.4,1.4,0,0,0,454.16,132.71Z" fill="#fff"/><path d="M447.89,126.93a1.41,1.41,0,1,0,1.51,1.3A1.42,1.42,0,0,0,447.89,126.93Z" fill="#fff"/><path d="M429.71,147.63a1.4,1.4,0,1,0,1.5,1.3A1.4,1.4,0,0,0,429.71,147.63Z" fill="#fff"/><path d="M425.72,153.57a1.4,1.4,0,1,0,1.51,1.29A1.41,1.41,0,0,0,425.72,153.57Z" fill="#fff"/><path d="M440.14,120.27a1.4,1.4,0,1,0,1.51,1.29A1.41,1.41,0,0,0,440.14,120.27Z" fill="#fff"/><path d="M450,117.51a1.41,1.41,0,1,0,1.51,1.3A1.41,1.41,0,0,0,450,117.51Z" fill="#fff"/><path d="M432,129.34a1.4,1.4,0,1,0,1.51,1.29A1.41,1.41,0,0,0,432,129.34Z" fill="#fff"/><path d="M166.4,172.6A99.06,99.06,0,0,0,145,101.88" fill="none" stroke="#fff" stroke-miterlimit="10"/><path d="M166.7,158.82a47.61,47.61,0,0,0,21.9-30" fill="none" stroke="#fff" stroke-miterlimit="10"/><path d="M165,144.87a47.5,47.5,0,0,0-25.34-9.75" fill="none" stroke="#fff" stroke-miterlimit="10"/><path d="M158.58,124.31a47.89,47.89,0,0,0,6.85-18.68" fill="none" stroke="#fff" stroke-miterlimit="10"/><path d="M147.65,136.43A31,31,0,0,0,140.73,120" fill="none" stroke="#fff" stroke-miterlimit="10"/><path d="M180.84,145.74C188,143,195,139.39,200.69,134.26" fill="none" stroke="#fff" stroke-miterlimit="10"/><path d="M152.44,112.09c-7.36-3.24-16.32-5-24.17-3.24" fill="none" stroke="#fff" stroke-miterlimit="10"/><path d="M136.3,132.65a2.51,2.51,0,1,1-.75,3.47A2.51,2.51,0,0,1,136.3,132.65Z" fill="#fff"/><path d="M139.05,117.71a2.5,2.5,0,1,1-.76,3.46A2.51,2.51,0,0,1,139.05,117.71Z" fill="#fff"/><path d="M187.11,127.68a2.51,2.51,0,1,1-.75,3.46A2.51,2.51,0,0,1,187.11,127.68Z" fill="#fff"/><path d="M199.15,131.86a2.51,2.51,0,1,1-.75,3.46A2.49,2.49,0,0,1,199.15,131.86Z" fill="#fff"/><path d="M142.93,99.91a2.5,2.5,0,1,1-.76,3.46A2.51,2.51,0,0,1,142.93,99.91Z" fill="#fff"/><path d="M125.94,106.57a2.5,2.5,0,1,1-.76,3.46A2.51,2.51,0,0,1,125.94,106.57Z" fill="#fff"/><path d="M164.3,104.06a2.5,2.5,0,1,1-.76,3.46A2.51,2.51,0,0,1,164.3,104.06Z" fill="#fff"/><path d="M224.31,161.34c-4-6.19-8.71-12.39-15.38-15.56s-15.84-2.26-20,3.87c-2,2.95-2.57,6.63-2.75,10.19-1.4,27.51,17.13,51.39,28.71,76.39,15,32.43,11.61,60.14,12.42,94.16,1,40.39,17,7.21,22-13.36C262.2,264.65,254,206.72,224.31,161.34Z" fill="#a99fbe"/><path d="M228.66,349.07a204.68,204.68,0,0,0,11.25-91.52,205.81,205.81,0,0,0-29.68-87.77,206.69,206.69,0,0,1,31.53,87.56,207.52,207.52,0,0,1-9.6,93Z" fill="#766faa"/><path d="M102.34,222.64c-6.78-2.94-14.1-5.53-21.42-4.49S66.47,225,66.4,232.39c0,3.56,1.51,7,3.32,10,14,23.72,42.64,33.43,66.08,47.9,30.42,18.77,42.85,43.76,62.3,71.69,23.08,33.16,18.16-3.37,11-23.3C190.92,287.92,152.1,244.15,102.34,222.64Z" fill="#a99fbe"/><path d="M209.51,376.84a204.67,204.67,0,0,0-41.1-82.55,205.81,205.81,0,0,0-73.16-56.84A209.79,209.79,0,0,1,213.13,376Z" fill="#766faa"/><path d="M176.23,174.85c-14-13.63-31.49-25.66-51-25.72-6.35,0-12.91,1.35-18,5.1-13.07,9.53-11.58,30.5-2.1,43.6s24.37,20.93,37.41,30.49c37.41,27.39,61.29,72.43,63,118.76.18,4.93.15,10,2.09,14.56s6.48,8.4,11.37,7.77c27.22-3.46,15.4-79.9,12-95.38C222.57,236.69,203.7,201.58,176.23,174.85Z" fill="#cbc5d8"/><path d="M217.29,374.06a197.49,197.49,0,0,0,.52-60.48,214.34,214.34,0,0,0-17.1-58.22,210.84,210.84,0,0,0-32.86-51.16,200.07,200.07,0,0,0-21.74-21.44c-1-.81-1.94-1.65-2.93-2.45l-3-2.36c-2-1.6-4-3.09-6.12-4.58a43.8,43.8,0,0,0-6.41-4.14,14.76,14.76,0,0,0-3.59-1.27,9.13,9.13,0,0,0-3.79.06,9,9,0,0,1,3.8-.11,15,15,0,0,1,3.63,1.21,45.25,45.25,0,0,1,6.49,4.06c2.09,1.46,4.19,2.92,6.2,4.49l3.05,2.32c1,.79,2,1.61,3,2.42a200.26,200.26,0,0,1,22.13,21.17,212,212,0,0,1,33.85,51,216.46,216.46,0,0,1,18.19,58.59,201.16,201.16,0,0,1,.39,61.48Z" fill="#766faa"/><path d="M191.05,202.46a1.55,1.55,0,0,0-1.11,1,2.92,2.92,0,0,0,0,1.58c.39,1.61,2.49,3,3.38,1C193.91,204.71,192.8,202.12,191.05,202.46Z" fill="#766faa"/><path d="M127.81,183.21a1.53,1.53,0,0,0-1.11,1,2.92,2.92,0,0,0,0,1.58c.39,1.61,2.48,3,3.38,1C130.66,185.46,129.56,182.87,127.81,183.21Z" fill="#766faa"/><path d="M189.68,243.27a1.34,1.34,0,0,0-1,.9,2.44,2.44,0,0,0,0,1.34c.33,1.37,2.11,2.57,2.87.84C192.11,245.19,191.17,243,189.68,243.27Z" fill="#766faa"/><path d="M209.38,295.69a1.31,1.31,0,0,0-.94.9,2.35,2.35,0,0,0,0,1.34c.33,1.37,2.11,2.57,2.87.84C211.81,297.61,210.87,295.4,209.38,295.69Z" fill="#766faa"/><path d="M207.23,230.27a1.31,1.31,0,0,0-.95.89,2.48,2.48,0,0,0,0,1.35c.33,1.37,2.12,2.57,2.88.83C209.66,232.19,208.72,230,207.23,230.27Z" fill="#766faa"/><path d="M200.91,239.05a1.32,1.32,0,0,0-.94.89,2.38,2.38,0,0,0,0,1.35c.33,1.37,2.12,2.57,2.88.84C203.34,241,202.4,238.76,200.91,239.05Z" fill="#766faa"/><path d="M200.11,268.19a1.35,1.35,0,0,0-.94.9,2.44,2.44,0,0,0,0,1.34c.33,1.37,2.12,2.58,2.88.84C202.55,270.11,201.6,267.9,200.11,268.19Z" fill="#766faa"/><path d="M146.69,206.52a2.74,2.74,0,0,0-2,1.86,5.09,5.09,0,0,0,0,2.79c.68,2.84,4.39,5.33,6,1.74C151.73,210.51,149.78,205.93,146.69,206.52Z" fill="#766faa"/><path d="M194.71,254.71a2.72,2.72,0,0,0-2,1.86,5.09,5.09,0,0,0,0,2.79c.68,2.84,4.38,5.33,6,1.73C199.75,258.7,197.8,254.11,194.71,254.71Z" fill="#766faa"/><path d="M167.67,209a2.76,2.76,0,0,0-2,1.85,5.09,5.09,0,0,0,0,2.79c.68,2.85,4.38,5.34,6,1.74C172.72,213,170.76,208.44,167.67,209Z" fill="#766faa"/><path d="M168,184.34a2.74,2.74,0,0,0-2,1.86,5,5,0,0,0,0,2.79c.68,2.84,4.39,5.33,6,1.74C173.05,188.33,171.09,183.74,168,184.34Z" fill="#766faa"/><path d="M173.81,236.68a1.54,1.54,0,0,0-1.08-1.09,2.93,2.93,0,0,0-1.58,0c-1.6.43-3,2.56-.9,3.41C171.63,239.59,174.19,238.42,173.81,236.68Z" fill="#766faa"/><path d="M155,198a2.3,2.3,0,0,0,.17-1.5,2,2,0,0,0-.61-1c-.82-.76-2.45-.13-2.13,1.86C152.68,198.63,154.25,199.51,155,198Z" fill="#766faa"/><path d="M219.58,281.63a2.31,2.31,0,0,0,.17-1.5,2,2,0,0,0-.61-1c-.82-.76-2.45-.13-2.13,1.86C217.23,282.27,218.8,283.15,219.58,281.63Z" fill="#766faa"/><path d="M178.35,223.27a1.55,1.55,0,0,0-1.07-1.08,2.83,2.83,0,0,0-1.58,0c-1.6.43-3,2.56-.9,3.4C176.17,226.19,178.74,225,178.35,223.27Z" fill="#766faa"/><path d="M193.22,223a1.57,1.57,0,0,0-1.08-1.08,2.83,2.83,0,0,0-1.58,0c-1.6.42-3,2.56-.9,3.4C191,225.94,193.6,224.77,193.22,223Z" fill="#766faa"/><path d="M165.36,223.55a1.29,1.29,0,0,0-.89-.89,2.39,2.39,0,0,0-1.3,0c-1.32.35-2.44,2.11-.74,2.81C163.56,226,165.67,225,165.36,223.55Z" fill="#766faa"/><path d="M139,196.33a1.73,1.73,0,0,0-.83-.93,1.88,1.88,0,0,0-1.05-.15c-1,.14-1.69,1.59-.23,2.45C137.85,198.27,139.43,197.67,139,196.33Z" fill="#766faa"/><path d="M183.78,240.51a1.57,1.57,0,0,0-1.08-1.08,2.83,2.83,0,0,0-1.58,0c-1.6.43-3,2.56-.9,3.4C181.59,243.42,184.16,242.25,183.78,240.51Z" fill="#766faa"/><path d="M385,161c4-6.19,8.71-12.39,15.38-15.56s15.84-2.25,20,3.87c2,3,2.57,6.63,2.76,10.19,1.39,27.51-17.13,51.39-28.71,76.39-15,32.44-11.61,60.14-12.42,94.16-1,40.39-17,7.21-22.05-13.35C347.06,264.35,355.3,206.43,385,161Z" fill="#a99fbe"/><path d="M377.09,350A209.74,209.74,0,0,1,399,169.49,207.86,207.86,0,0,0,380.6,348.78Z" fill="#766faa"/><path d="M506.92,222.34c6.78-2.94,14.1-5.53,21.41-4.49s14.45,6.85,14.53,14.24c0,3.56-1.51,6.95-3.32,10-14,23.72-42.64,33.42-66.08,47.89-30.42,18.77-42.86,43.76-62.3,71.69-23.08,33.16-18.17-3.37-11-23.3C418.34,287.62,457.16,243.85,506.92,222.34Z" fill="#a99fbe"/><path d="M396.13,375.66A209.79,209.79,0,0,1,514,237.15,207.9,207.9,0,0,0,399.75,376.54Z" fill="#766faa"/><path d="M433,174.55c14-13.63,31.5-25.66,51-25.72,6.35,0,12.9,1.35,18,5.1,13.06,9.53,11.58,30.5,2.1,43.6S479.83,218.46,466.78,228c-37.4,27.39-61.28,72.43-63,118.76-.18,4.93-.16,10-2.09,14.56s-6.49,8.4-11.38,7.77c-27.21-3.46-15.4-79.9-12-95.38C386.68,236.4,405.56,201.28,433,174.55Z" fill="#cbc5d8"/><path d="M388.29,374.35a201.16,201.16,0,0,1,.39-61.48,216.79,216.79,0,0,1,18.18-58.59,212.07,212.07,0,0,1,33.86-51,200.26,200.26,0,0,1,22.13-21.17c1-.81,2-1.63,3-2.42l3.05-2.32c2-1.57,4.11-3,6.21-4.49a45.25,45.25,0,0,1,6.49-4.06,14.9,14.9,0,0,1,3.63-1.21,9,9,0,0,1,3.8.11,9.14,9.14,0,0,0-3.79-.06,14.76,14.76,0,0,0-3.59,1.27,44.64,44.64,0,0,0-6.41,4.14c-2.07,1.49-4.14,3-6.12,4.58l-3,2.36c-1,.8-1.95,1.64-2.93,2.46a199.06,199.06,0,0,0-21.74,21.43,210.84,210.84,0,0,0-32.86,51.16,214.36,214.36,0,0,0-17.11,58.22,197.49,197.49,0,0,0,.53,60.48Z" fill="#766faa"/><path d="M418.21,202.16a1.55,1.55,0,0,1,1.11,1.05,2.92,2.92,0,0,1,0,1.58c-.39,1.61-2.49,3-3.38,1C415.35,204.41,416.46,201.82,418.21,202.16Z" fill="#766faa"/><path d="M481.45,182.91a1.55,1.55,0,0,1,1.11,1.05,2.92,2.92,0,0,1,0,1.58c-.39,1.61-2.49,3-3.38,1C478.59,185.17,479.7,182.57,481.45,182.91Z" fill="#766faa"/><path d="M419.58,243a1.31,1.31,0,0,1,.94.9,2.35,2.35,0,0,1,0,1.34c-.33,1.37-2.11,2.57-2.88.84C417.15,244.89,418.09,242.68,419.58,243Z" fill="#766faa"/><path d="M399.88,295.39a1.33,1.33,0,0,1,.94.9,2.35,2.35,0,0,1,0,1.34c-.33,1.37-2.12,2.57-2.88.84C397.45,297.31,398.39,295.1,399.88,295.39Z" fill="#766faa"/><path d="M402,230a1.31,1.31,0,0,1,1,.89,2.48,2.48,0,0,1,0,1.35c-.32,1.37-2.11,2.57-2.87.84C399.6,231.89,400.54,229.68,402,230Z" fill="#766faa"/><path d="M408.35,238.75a1.35,1.35,0,0,1,.94.9,2.44,2.44,0,0,1,0,1.34c-.33,1.37-2.12,2.57-2.88.84C405.91,240.67,406.86,238.46,408.35,238.75Z" fill="#766faa"/><path d="M409.14,267.89a1.34,1.34,0,0,1,.95.9,2.44,2.44,0,0,1,0,1.34c-.33,1.38-2.12,2.58-2.88.84C406.71,269.82,407.65,267.61,409.14,267.89Z" fill="#766faa"/><path d="M462.57,206.23a2.71,2.71,0,0,1,2,1.85,5.09,5.09,0,0,1,0,2.79c-.68,2.84-4.38,5.33-6,1.74C457.53,210.21,459.48,205.63,462.57,206.23Z" fill="#766faa"/><path d="M414.55,254.41a2.78,2.78,0,0,1,2,1.86,5.09,5.09,0,0,1,0,2.79c-.68,2.84-4.38,5.33-6,1.73C409.51,258.4,411.46,253.81,414.55,254.41Z" fill="#766faa"/><path d="M441.59,208.74a2.73,2.73,0,0,1,2,1.86,5,5,0,0,1,0,2.78c-.68,2.85-4.39,5.34-6,1.74C436.54,212.72,438.5,208.14,441.59,208.74Z" fill="#766faa"/><path d="M441.25,184a2.74,2.74,0,0,1,2,1.86,5.09,5.09,0,0,1,0,2.79c-.68,2.84-4.39,5.33-6,1.74C436.21,188,438.16,183.44,441.25,184Z" fill="#766faa"/><path d="M435.45,236.38a1.57,1.57,0,0,1,1.07-1.09,2.93,2.93,0,0,1,1.58,0c1.6.42,3,2.55.9,3.4C437.63,239.29,435.06,238.12,435.45,236.38Z" fill="#766faa"/><path d="M454.23,197.69a2.3,2.3,0,0,1-.17-1.5,2,2,0,0,1,.6-1c.82-.76,2.46-.13,2.13,1.86C456.58,198.33,455,199.21,454.23,197.69Z" fill="#766faa"/><path d="M389.68,281.33a2.31,2.31,0,0,1-.17-1.5,2,2,0,0,1,.6-1c.82-.76,2.46-.13,2.13,1.86C392,282,390.45,282.85,389.68,281.33Z" fill="#766faa"/><path d="M430.9,223a1.57,1.57,0,0,1,1.08-1.08,2.93,2.93,0,0,1,1.58,0c1.6.43,3,2.56.9,3.4C433.09,225.89,430.52,224.72,430.9,223Z" fill="#766faa"/><path d="M416,222.73a1.55,1.55,0,0,1,1.08-1.08,2.83,2.83,0,0,1,1.58,0c1.6.42,3,2.56.9,3.4C418.23,225.64,415.66,224.47,416,222.73Z" fill="#766faa"/><path d="M443.9,223.25a1.27,1.27,0,0,1,.89-.89,2.39,2.39,0,0,1,1.3,0c1.32.36,2.44,2.11.74,2.81C445.7,225.65,443.59,224.69,443.9,223.25Z" fill="#766faa"/><path d="M470.28,196a1.73,1.73,0,0,1,.83-.93,1.88,1.88,0,0,1,1.05-.15c1,.15,1.69,1.59.23,2.45C471.41,198,469.83,197.38,470.28,196Z" fill="#766faa"/><path d="M425.48,240.21a1.57,1.57,0,0,1,1.08-1.08,2.83,2.83,0,0,1,1.58,0c1.6.43,3,2.56.9,3.4C427.67,243.13,425.1,242,425.48,240.21Z" fill="#766faa"/><path d="M560,293.9a3.69,3.69,0,0,1-.49,1.48,4.16,4.16,0,0,1-.87,1.07,4.33,4.33,0,0,1-1.16.74,3.58,3.58,0,0,1-1.54.32,3.54,3.54,0,0,1,.5-1.49,4.29,4.29,0,0,1,.87-1.06,4.62,4.62,0,0,1,1.16-.75A3.72,3.72,0,0,1,560,293.9Z" fill="#d3626d"/><path d="M548.84,303.32a2.63,2.63,0,0,1,0,1.24,2.14,2.14,0,0,1-.46.87,2.24,2.24,0,0,1-.78.59,2.59,2.59,0,0,1-1.23.21,2.53,2.53,0,0,1,0-1.24,2.32,2.32,0,0,1,.47-.86,2.37,2.37,0,0,1,.79-.59A2.66,2.66,0,0,1,548.84,303.32Z" fill="#d3626d"/><path d="M547.24,296a3.69,3.69,0,0,1-.62,1.46,4.63,4.63,0,0,1-1,1,4.41,4.41,0,0,1-1.23.66,3.67,3.67,0,0,1-1.57.22,3.73,3.73,0,0,1,.62-1.47,4.57,4.57,0,0,1,1-1,4.41,4.41,0,0,1,1.23-.66A3.67,3.67,0,0,1,547.24,296Z" fill="#d3626d"/><path d="M75,311.75a3.69,3.69,0,0,1-.49,1.49,4.53,4.53,0,0,1-.87,1.07,4.33,4.33,0,0,1-1.16.74,3.72,3.72,0,0,1-1.53.32,3.69,3.69,0,0,1,.49-1.49,4.32,4.32,0,0,1,2-1.81A3.72,3.72,0,0,1,75,311.75Z" fill="#d3626d"/><path d="M63.81,321.18a2.79,2.79,0,0,1,0,1.24,2.28,2.28,0,0,1-.47.87,2.24,2.24,0,0,1-.78.59,2.57,2.57,0,0,1-1.22.21,2.68,2.68,0,0,1,0-1.24,2.24,2.24,0,0,1,1.26-1.45A2.54,2.54,0,0,1,63.81,321.18Z" fill="#d3626d"/><path d="M62.21,313.86a3.75,3.75,0,0,1-.62,1.46,4.62,4.62,0,0,1-1,1,4.41,4.41,0,0,1-1.23.66,3.68,3.68,0,0,1-1.57.21,3.75,3.75,0,0,1,.62-1.46,4.56,4.56,0,0,1,2.19-1.67A3.84,3.84,0,0,1,62.21,313.86Z" fill="#d3626d"/><path d="M33.53,146.71a2.47,2.47,0,0,1,.17-1.16,1.8,1.8,0,0,1,.54-.72,1.93,1.93,0,0,1,.81-.4,2.38,2.38,0,0,1,1.17,0,2.33,2.33,0,0,1-.17,1.16,1.88,1.88,0,0,1-1.35,1.12A2.38,2.38,0,0,1,33.53,146.71Z" fill="#d3626d"/><path d="M40.93,140.89a2.05,2.05,0,0,1-.16-1,1.07,1.07,0,0,1,.26-.61,1.12,1.12,0,0,1,.58-.31,2.11,2.11,0,0,1,1,.08,2,2,0,0,1,.16,1,1,1,0,0,1-.26.6,1.05,1.05,0,0,1-.58.31A2.11,2.11,0,0,1,40.93,140.89Z" fill="#d3626d"/><path d="M41.79,145.64a2.41,2.41,0,0,1,.27-1.15,2,2,0,0,1,.6-.69,2,2,0,0,1,.85-.34,2.46,2.46,0,0,1,1.18.13,2.41,2.41,0,0,1-.27,1.15,2,2,0,0,1-.6.69,2,2,0,0,1-.85.34A2.45,2.45,0,0,1,41.79,145.64Z" fill="#d3626d"/><circle cx="29.93" cy="32.1" r="29.93" transform="translate(-13.93 30.57) rotate(-45)" fill="#f49dad"/><path d="M138.54,66.54c-1.54-7.45-8.47-13.06-15.95-14.42s-15.28,1-21.75,5A19.15,19.15,0,0,0,77,51.43C68.42,42.61,55.28,37.76,43.42,41S22.27,56.57,24.35,68.69H138.54Z" fill="#fff"/><path d="M450,43.07c2.5-12.09,13.74-21.18,25.88-23.39s24.78,1.58,35.27,8.08c8.34-11.83,25.89-16,38.66-9.2C563.74,4.26,585.06-3.61,604.3,1.63s34.3,25.27,30.93,44.93H450Z" fill="#fff"/><path d="M206.93,366.61S159.66,334,165.44,268.38" fill="none" stroke="#fff" stroke-miterlimit="10"/><circle cx="166.15" cy="264.38" r="8.88" fill="#fff"/><path d="M172.31,252a5.09,5.09,0,1,1-5.45-4.71A5.09,5.09,0,0,1,172.31,252Z" fill="#fff"/><path d="M205.79,365.43c.05,0-49.19,5.1-69.86-42.93" fill="none" stroke="#fff" stroke-miterlimit="10"/><path d="M140.86,315.66a7,7,0,1,1-9.72-2.17A7,7,0,0,1,140.86,315.66Z" fill="#fff"/><path d="M134.55,308.45a4,4,0,1,1-5.57-1.24A4,4,0,0,1,134.55,308.45Z" fill="#fff"/><path d="M395.7,366.61S443,334,437.18,268.38" fill="none" stroke="#fff" stroke-miterlimit="10"/><circle cx="436.48" cy="264.38" r="8.88" fill="#fff"/><path d="M430.32,252a5.09,5.09,0,1,0,5.45-4.71A5.09,5.09,0,0,0,430.32,252Z" fill="#fff"/><path d="M396.83,365.43c-.05,0,49.2,5.1,69.87-42.93" fill="none" stroke="#fff" stroke-miterlimit="10"/><path d="M461.77,315.66a7,7,0,1,0,9.72-2.17A7,7,0,0,0,461.77,315.66Z" fill="#fff"/><circle cx="471.49" cy="310.62" r="4.04" transform="translate(-55.99 109.25) rotate(-12.48)" fill="#fff"/><path d="M259.7,162.84s6.13-.31,6.33-7.52c0,0,1.37,7.31,5.93,7.21,0,0-6.34,2.58-6.13,8.2C265.83,170.73,267,163.52,259.7,162.84Z" fill="#fff"/><path d="M254.8,186.31s3.17-.16,3.28-3.89c0,0,.71,3.78,3.07,3.73,0,0-3.28,1.34-3.18,4.25C258,190.4,258.57,186.67,254.8,186.31Z" fill="#fff"/><path d="M281,154.53A3.38,3.38,0,0,0,284,150.9s.66,3.53,2.87,3.48c0,0-3.07,1.25-3,4C283.92,158.34,284.47,154.86,281,154.53Z" fill="#fff"/><path d="M297.39,141.64s3.56-.17,3.67-4.35c0,0,.8,4.23,3.44,4.18,0,0-3.67,1.49-3.55,4.75C301,146.22,301.62,142,297.39,141.64Z" fill="#fff"/><path d="M252.37,143.91a3.26,3.26,0,0,0,2.94-3.49s.64,3.39,2.76,3.34c0,0-2.95,1.2-2.85,3.81C255.22,147.57,255.75,144.23,252.37,143.91Z" fill="#fff"/><path d="M339.68,143.16a3.36,3.36,0,0,0,3-3.6s.65,3.5,2.84,3.45c0,0-3,1.23-2.94,3.92C342.61,146.93,343.17,143.48,339.68,143.16Z" fill="#fff"/><path d="M341.29,161.22s-6.13-.31-6.32-7.52c0,0-1.38,7.31-5.94,7.21,0,0,6.34,2.58,6.13,8.19C335.16,169.1,334,161.9,341.29,161.22Z" fill="#fff"/><path d="M346.19,184.69s-3.17-.16-3.27-3.89c0,0-.71,3.78-3.08,3.73,0,0,3.28,1.34,3.18,4.25C343,188.78,342.42,185,346.19,184.69Z" fill="#fff"/><path d="M320,152.91a3.39,3.39,0,0,1-3.06-3.63s-.66,3.53-2.87,3.48c0,0,3.07,1.25,3,4C317.08,156.72,316.52,153.24,320,152.91Z" fill="#fff"/><polygon points="278.04 313.09 265.29 333.81 289.74 362.84 314.39 362.84 337.39 333.31 323.15 313.09 278.04 313.09" fill="#f49dad"/><path d="M260.73,327.07s-61.65,4.76-77.12,20.92-6.55,26.84,6.87,33.68c18.91,9.62,74.71,7.56,110-4.13l5.78-33.68Z" fill="#f49dad"/><path d="M340.2,326.26s64.57,5.57,80,21.73,6.55,26.84-6.88,33.68c-18.9,9.62-87,8-122.35-3.66l6.53-34.15Z" fill="#f49dad"/><path d="M348.83,357.6l-12.34-1.47-1.88-4.87,4.83-2.15s-.67-6.88,5.25-8,13,3.63,19.84.55c6.35-2.84,14.1-5.45,21.34-1.53a2.56,2.56,0,0,1,1.2,3l0,.09a2.57,2.57,0,0,1-2.73,1.76,18.74,18.74,0,0,0-11.6,2.52c-4.55,2.76-15.56,7-23.88,10.1Z" fill="#eab49b"/><line x1="309.65" y1="354.33" x2="333.89" y2="351.95" fill="none" stroke="#aa4453" stroke-miterlimit="10"/><path d="M295.76,380.21c-19.32-4.46-39.54-15.91-39.54-15.91l1.21-2" fill="none" stroke="#aa4453" stroke-miterlimit="10"/><path d="M264.62,354S354,351.25,377,365.71" fill="none" stroke="#aa4453" stroke-miterlimit="10"/><path d="M221.09,359.75s16.19-7.58,27.26-2.61" fill="none" stroke="#aa4453" stroke-miterlimit="10"/><path d="M258.7,362.82l5.92-9-5.92-3.2s1.2-6.81-4.61-8.42-13.22,2.61-19.83-1c-6.1-3.32-13.62-6.53-21.14-3.18a2.57,2.57,0,0,0-1.44,2.91l0,.09a2.56,2.56,0,0,0,2.58,2,18.74,18.74,0,0,1,11.37,3.42C233,351.7,258.7,362.82,258.7,362.82Z" fill="#eab49b"/><line x1="278.81" y1="343.82" x2="292.34" y2="353.61" fill="none" stroke="#aa4453" stroke-miterlimit="10"/><path d="M336.64,222.36C327.49,207.59,326,183.3,326,183.3L303.47,174v-.76l-1.36.38-1.36-.38V174l-22.32,9.06s-2.43,25.25-11.58,40c-9,14.6-2.55,32.83,35.26,30.14C339.91,255.93,345.68,237,336.64,222.36Z" fill="#fccf5e"/><path d="M314.66,233.61l21.77,7c4.07,1.49,5.1,6,4,10.21l-17.32,62.3H278l-15.65-63.61c-.65-2.92.78-7.19,3.56-8.3l23.54-8.65Z" fill="#d3626d"/><path d="M330.72,265.92l22.76,50.88a10.5,10.5,0,0,0,12.11,6.7h0a10.51,10.51,0,0,0,7.68-13.76c-4.48-12.69-17.95-38.36-22.56-51.07a10.63,10.63,0,0,0-15.24-5.61h0A10.64,10.64,0,0,0,330.72,265.92Z" fill="#eab49b"/><path d="M337.22,241.18s7.44.68,16.67,25l-21.6,11.22-7-20.9Z" fill="#d3626d"/><line x1="333.77" y1="276.2" x2="336.82" y2="262.37" fill="none" stroke="#aa4453" stroke-miterlimit="10"/><path d="M358.94,299.65c-.62-.2-.27,1.12-54.8-22l-2.34,3.13c-.11,3.24.63,6.35,2.64,7.67l53.89,34Z" fill="#eab49b"/><path d="M301.8,280.81l-.32-26.59a1.07,1.07,0,0,1,1.07-1.08h0a1.08,1.08,0,0,1,1.07.91l7.2,31.48Z" fill="#eab49b"/><line x1="343.24" y1="293.91" x2="353.9" y2="298.05" fill="none" stroke="#dc9c82" stroke-miterlimit="10" stroke-width="0.95"/><path d="M272.44,265.92,249.69,316.8a10.51,10.51,0,0,1-12.11,6.7h0a10.51,10.51,0,0,1-7.68-13.76c4.48-12.69,17.95-38.36,22.56-51.07a10.63,10.63,0,0,1,15.24-5.61h0A10.64,10.64,0,0,1,272.44,265.92Z" fill="#eab49b"/><path d="M266,241.18s-7.44.68-16.67,25l21.6,11.22,7-20.9Z" fill="#d3626d"/><line x1="268.74" y1="276.2" x2="265.7" y2="262.37" fill="none" stroke="#aa4453" stroke-miterlimit="10"/><path d="M244.23,299.65c.62-.2.27,1.12,54.8-22l2.34,3.13c.22,3.67-.88,6.51-2.89,7.83l-53.64,33.81Z" fill="#eab49b"/><path d="M301.37,280.81l.32-26.59a1.08,1.08,0,0,0-1.08-1.08h0a1.07,1.07,0,0,0-1.06.91l-7.21,31.48Z" fill="#eab49b"/><line x1="301.56" y1="253.8" x2="301.81" y2="282.15" fill="none" stroke="#dc9c82" stroke-miterlimit="10" stroke-width="0.95"/><line x1="259.93" y1="293.91" x2="249.76" y2="298.05" fill="none" stroke="#dc9c82" stroke-miterlimit="10" stroke-width="0.95"/><path d="M293.34,230.35l-16.73,6.78a54.12,54.12,0,0,0,24.33,6.23A58.88,58.88,0,0,0,327,237.48l-17.45-7.85Z" fill="#eab49b"/><path d="M309.59,213.75a46.47,46.47,0,0,0-6.19.76c-3.6.67-6.54-1.23-7.27,1.21,0,.05-2.94-2.44-2.94-2.44l-1.51,24a20.32,20.32,0,0,0,20-.3Z" fill="#eab49b"/><path d="M290.9,210.62s4.36,10.79,19.44,11.54l-1.26-14.39Z" fill="#aa4453"/><path d="M326.08,183.44c0,13.74-10.7,24.89-23.9,24.89s-23.89-11.15-23.89-24.89,10.7-23.1,23.89-23.1S326.08,169.69,326.08,183.44Z" fill="#fccf5e"/><path d="M320.93,183.91a85.16,85.16,0,0,1-2.26,19.36c-1.11,4.69-4.22,8-8.62,10.6l-.8.48a15.45,15.45,0,0,1-15.4.17h0c-4.76-2.71-8.1-6.29-9.13-11.32a123.94,123.94,0,0,1-2.07-19.29s-1.78-19.74,18.87-19.35S320.93,183.91,320.93,183.91Z" fill="#eab49b"/><path d="M284.9,203.59c-3.48,3.36-12.16-6.53-8.94-10.48,3-3.63,7.18.52,7.18.52l.71,3.71,1.07,5,.27,1.12Z" fill="#eab49b"/><path d="M318.66,203.34c3.69,2.91,12.63-7.85,9-11s-7.47,1-7.47,1l-.65,3.72-1,5-.26,1.12Z" fill="#eab49b"/><polygon points="279.1 190.23 283.5 195.79 282.61 182.24 279.1 190.23" fill="#fccf5e"/><polygon points="323.97 190.23 320 195.66 320.91 182.24 323.97 190.23" fill="#fccf5e"/><polyline points="302.09 195.13 302.42 197.63 301.3 198.34" fill="none" stroke="#aa4453" stroke-miterlimit="10"/><path d="M295.47,203.36h12.09s-1.36,2-6.05,2C296.46,205.34,295.47,203.36,295.47,203.36Z" fill="#d3626d"/><path d="M295.47,203.36l2.76-1.43a2.45,2.45,0,0,1,1.9-.08l1.46.56,1.31-.52a2.5,2.5,0,0,1,1.92.06l2.74,1.41Z" fill="#d3626d"/><path d="M295.47,191.24a4.26,4.26,0,0,1-5.17,0" fill="none" stroke="#aa4453" stroke-miterlimit="10"/><path d="M312.39,191.24a4.26,4.26,0,0,1-5.17,0" fill="none" stroke="#aa4453" stroke-miterlimit="10"/><path d="M305.34,185.18s6.16.32,10.26,2.81c0,0,0-2.58-3.91-3.72A7.08,7.08,0,0,0,305.34,185.18Z" fill="#aa4453"/><path d="M297.47,185.18s-6.16.32-10.26,2.81c0,0,0-2.58,3.91-3.72A7.08,7.08,0,0,1,297.47,185.18Z" fill="#aa4453"/><path d="M284.9,168.52s7.18,14.55,38.22,15.28c0,0,3.35-13.78-12.56-19.25S284.9,168.52,284.9,168.52Z" fill="#fccf5e"/><path d="M280.48,186.22s9.58-2.81,10.82-18.64C291.3,167.58,281.6,169.06,280.48,186.22Z" fill="#fccf5e"/><path d="M283.11,198.94s-.49-2.64-4.14-2.56" fill="none" stroke="#aa4453" stroke-miterlimit="10"/><path d="M320.18,198.94s.48-2.64,4.13-2.56" fill="none" stroke="#aa4453" stroke-miterlimit="10"/><g opacity="0.3"><path d="M191,407c-.35,5.08-20.56,5.11-45.93,5.11s-45.5,0-45.92-5.11c-.46-5.53,20.56-6.44,45.92-6.44S191.38,400.8,191,407Z" fill="#fccf5e"/></g><path d="M168.78,370.09c-9-4.31-18.57-2.2-28.51-.77-2.47-3.35-9.61-12.47-10.89-11.84-.57.28-3.69,8.54-5.28,11.52-.29.55-6.84,3.58-9.11,4.28,0,0-13.14-5.07-13.57-4.61-.27.3,2.71,15.19,3.11,16.82s.41,3.34.75,5c1.26,6.13,3.15,8.47,5.89,10.08a13.27,13.27,0,0,0-2.32.69c-1.8.74-2.1,3.77-2.1,5.24l30.93-.2c3.26,1.13,10.15.07,12.8,0,13.35-.2,23.41.05,29.28.11,3.52,0,5.39.38,5.92-.53C188.32,401.34,186,378.3,168.78,370.09Z" fill="#fccf5e"/><g opacity="0.5"><path d="M184.14,387.79c3,7.93,3,15.67,1.54,18.11-.53.91-2.4.56-5.92.53-5.87-.06-15.93-.31-29.28-.11-2.65,0-9.54,1.1-12.8,0,0,0,26-4.56,31.67-7.09S184.14,387.79,184.14,387.79Z" fill="#c18e27"/></g><path d="M113.11,375a.48.48,0,0,1-.2-.91l13-6.1a.49.49,0,0,1,.64.23.47.47,0,0,1-.23.63l-13,6.11A.48.48,0,0,1,113.11,375Z" fill="#c18e27"/><path d="M117.3,385.7a2.69,2.69,0,0,1-2.5-1.7.49.49,0,0,1,.27-.62.48.48,0,0,1,.62.27,1.73,1.73,0,0,0,2.24,1,1.71,1.71,0,0,0,1-2.24.48.48,0,0,1,.89-.35,2.68,2.68,0,0,1-1.52,3.48A2.78,2.78,0,0,1,117.3,385.7Z" fill="#c18e27"/><path d="M125.59,381.46a2.66,2.66,0,0,1-1.07-.22,2.73,2.73,0,0,1-1.43-1.48.49.49,0,0,1,.27-.62.48.48,0,0,1,.62.27,1.72,1.72,0,0,0,.92.95,1.68,1.68,0,0,0,1.32,0,1.77,1.77,0,0,0,1-.92,1.72,1.72,0,0,0,0-1.32.48.48,0,0,1,.89-.35,2.65,2.65,0,0,1,0,2.05,2.69,2.69,0,0,1-1.48,1.43A2.78,2.78,0,0,1,125.59,381.46Z" fill="#c18e27"/><path d="M121.13,385.73c-.26-1.2,3.73-2.84,4.52-2.16s-1.31,3-1.31,3S121.31,386.54,121.13,385.73Z" fill="#c18e27"/><path d="M107.17,406.4a.48.48,0,0,1-.48-.48c0-1.54.31-4.26,2.39-5.11,3-1.24,8.25-1.67,15.57-1.28a.46.46,0,0,1,.45.5.47.47,0,0,1-.5.45c-7.08-.38-12.32,0-15.15,1.21-1.63.67-1.8,3.18-1.8,4.23A.48.48,0,0,1,107.17,406.4Z" fill="#c18e27"/><path d="M138,406.39a.49.49,0,0,1-.2-.05,3.58,3.58,0,0,1-1.73-3.53,4.4,4.4,0,0,1,1.39-3.48c1.83-1.51,5.1-1,9.25-.31a51.83,51.83,0,0,0,9.37.93c1.84,0,3.61-.22,5.32-.39,4.29-.43,8.73-.88,14.87.8a.48.48,0,0,1-.25.92c-6-1.64-10.32-1.2-14.53-.77-1.73.17-3.52.35-5.39.39a54.11,54.11,0,0,1-9.54-.94c-3.76-.6-7-1.13-8.49.1a3.52,3.52,0,0,0-1,2.77,2.7,2.7,0,0,0,1.19,2.65.48.48,0,0,1-.21.91Z" fill="#c18e27"/><path d="M179.28,379.28c-1.13,1.7-3.61,2.05-5.51,1.3a11.83,11.83,0,0,1-4.6-3.93,3,3,0,0,0-.9-.85,2.15,2.15,0,0,0-1.18-.15c-2.26.22-4.31,2-6.55,1.58a4.92,4.92,0,0,1-3.6-3.77c-.46-1.77,0-4.17.27-6,0,0,6-.3,13.79,3.7C178.38,374.94,179.28,379.28,179.28,379.28Z" fill="#c18e27"/><path d="M169.18,380.46a7.09,7.09,0,0,0-2.26-.15.9.9,0,0,0-.36.05.68.68,0,0,0-.26.22c-1.39,1.84,1.46,3.23,2.93,3a1.62,1.62,0,0,0,1.3-.87,1.44,1.44,0,0,0-.25-1.36A2.31,2.31,0,0,0,169.18,380.46Z" fill="#c18e27"/><path d="M114.21,358.36h-3.48a.37.37,0,0,1-.32-.21.35.35,0,0,1,.07-.38l2.93-3.18h-2.33a.35.35,0,0,1-.35-.35.34.34,0,0,1,.35-.34h3.13a.34.34,0,0,1,.25.58l-2.93,3.18h2.68a.35.35,0,0,1,0,.7Z" fill="#c18e27"/><path d="M122.17,351.69H118.7a.35.35,0,0,1-.32-.2.35.35,0,0,1,.06-.38l2.94-3.18H119a.35.35,0,0,1,0-.7h3.13a.35.35,0,0,1,.26.59L119.49,351h2.68a.35.35,0,0,1,.35.35A.35.35,0,0,1,122.17,351.69Z" fill="#c18e27"/><path d="M110.44,346.62H107a.35.35,0,0,1-.32-.2.35.35,0,0,1,.06-.38l2.94-3.18h-2.34a.35.35,0,0,1,0-.7h3.13a.37.37,0,0,1,.32.21.35.35,0,0,1-.06.38l-2.94,3.18h2.68a.35.35,0,0,1,.35.35A.35.35,0,0,1,110.44,346.62Z" fill="#c18e27"/><g opacity="0.47"><path d="M103.57,371.25c-.85.7,1.17,8,1.17,8s6.58-2.31,6.2-4C110.82,374.68,104.37,370.6,103.57,371.25Z" fill="#fff"/></g><g opacity="0.47"><path d="M130.2,360.27c1.09-.18,5,5.15,5,5.15s-6.06,3.26-7.09,1.85C127.73,366.82,129.18,360.44,130.2,360.27Z" fill="#fff"/></g><path d="M515.1,407.64c0,2.08-12.15,3.76-27.14,3.76s-27.14-1.68-27.14-3.76S473,403.88,488,403.88,515.1,405.57,515.1,407.64Z" fill="#ef8191" opacity="0.3"/><g opacity="0.5"><path d="M484.2,208.28c0-.22-.39-.09-.47-.12C483.86,208.5,484.31,208.26,484.2,208.28Z" fill="#f194a2"/><polygon points="485.49 211.81 485.32 211.75 485.78 212.26 485.49 211.81" fill="#f194a2"/><path d="M485.75,215.22c.69-.37-.2-1.23,0-1.86l.16-.11-.6-.23C485.47,213.75,485.91,214.69,485.75,215.22Z" fill="#f194a2"/><path d="M484.33,217.14c.27-.13.27.38.06-.43a.18.18,0,0,1-.06.08A2,2,0,0,1,484.33,217.14Z" fill="#f194a2"/><path d="M484.33,216.79c-.05-.35-.22.25,0,0Z" fill="#f194a2"/><path d="M484.58,218.44l-.27-.46c-.16.11-.17.53-.3.38C484.17,218.84,484.33,218.73,484.58,218.44Z" fill="#f194a2"/><path d="M485.13,218.86l-.12-.24C484.94,218.66,484.92,218.73,485.13,218.86Z" fill="#f194a2"/><path d="M484.76,218.11l.25.51c.11-.08.34-.1-.09-.24C485.13,218.41,484.92,218.32,484.76,218.11Z" fill="#f194a2"/><path d="M484.85,217.81c.14-.27.22-.62.49-.16C485.19,216.75,484.7,216.91,484.85,217.81Z" fill="#f194a2"/><path d="M486.5,215.34l.18-.37-.26-.29C486.55,214.83,486.28,215.38,486.5,215.34Z" fill="#f194a2"/><path d="M484.37,221.39c.15,0,.39-.17.59-.22l-.19-.34C484.67,221,484.59,221.36,484.37,221.39Z" fill="#f194a2"/><path d="M485,221.17l.28.51C485.25,221.22,485.12,221.14,485,221.17Z" fill="#f194a2"/><polygon points="485.93 218.9 485.33 218.07 485.94 219.06 485.93 218.9" fill="#f194a2"/><polygon points="484.43 223.38 484.07 223.1 484.62 223.61 484.43 223.38" fill="#f194a2"/><path d="M484.54,224.7c-.3-.21-.49.32-.67.09a2.06,2.06,0,0,0,.55.93A1,1,0,0,1,484.54,224.7Z" fill="#f194a2"/><path d="M484.76,226.17a3.8,3.8,0,0,0-.34-.45A1.34,1.34,0,0,0,484.76,226.17Z" fill="#f194a2"/><path d="M485.2,222.58a.66.66,0,0,0-.42.43l.42-.23Z" fill="#f194a2"/><path d="M485.22,222.78h0v.45Z" fill="#f194a2"/><path d="M485.2,222.53v.05S485.26,222.54,485.2,222.53Z" fill="#f194a2"/><path d="M485.62,220.29c.25.3.53.93.87.29C486.19,220.37,486,220.74,485.62,220.29Z" fill="#f194a2"/><path d="M485.72,222.25l.08-.56c-.11,0-.27.12-.4,0Z" fill="#f194a2"/><polygon points="485.87 222.52 485.72 222.25 485.7 222.46 485.87 222.52" fill="#f194a2"/><path d="M485.13,225.21a1.37,1.37,0,0,1,.25.79,3.54,3.54,0,0,0,.11-1C485.35,225,485.11,224.87,485.13,225.21Z" fill="#f194a2"/><path d="M485.22,224l0,.05S485.29,224,485.22,224Z" fill="#f194a2"/><polygon points="485.44 228.92 485.51 228.87 485.44 228.86 485.44 228.92" fill="#f194a2"/><path d="M485.57,225a.47.47,0,0,0-.17-.51,2.61,2.61,0,0,1,.09.57C485.55,225.06,485.59,225.06,485.57,225Z" fill="#f194a2"/><path d="M485,227a2.82,2.82,0,0,0,.23-.42C485.07,226.68,484.86,226.94,485,227Z" fill="#f194a2"/><path d="M485.13,224.16l0,0C485,224.21,485.07,224.2,485.13,224.16Z" fill="#f194a2"/><path d="M485.13,224.16a1.34,1.34,0,0,0,.27.31,2,2,0,0,0-.15-.39A.5.5,0,0,1,485.13,224.16Z" fill="#f194a2"/><path d="M488.18,229.78a.75.75,0,0,1-.34-1.22c-.3-.54-1.6-.16-2.32.31.17,0,.33,0,.56.56.22-.19.5-1.23.86-.77.21.73-.13.61-.34,1,.49-.31.72.93,1.45.77l-.26-.65C487.9,229.73,488.08,230,488.18,229.78Z" fill="#f194a2"/><path d="M485.54,227.83l-.05-.23a2,2,0,0,1-.52.79c.19.37.34.45.47.47l0-1.11Z" fill="#f194a2"/><path d="M485.46,226.59c.44.16.63.7,1.09.36,0-.67-.37-.46-.57-.85.14,1.07-.24-.3-.47.48a2.79,2.79,0,0,1-.13-.58,3.33,3.33,0,0,1-.18.56l0,0h0c0-.05.09-.06.06,0s0,0,0,0l.16.05c-.08.31-.11,0-.16-.05h-.07l.26,1.07A3.22,3.22,0,0,0,485.46,226.59Z" fill="#f194a2"/><path d="M487.44,221.11a.26.26,0,0,1-.1,0C487.4,221.22,487.43,221.24,487.44,221.11Z" fill="#f194a2"/><path d="M487.2,221.57c-.07-.08-.24-.14-.21-.39s.21,0,.35,0c-.12-.15-.33-.53-.52,0l.06.07c-.13.44-.64,1-.7.95A3.17,3.17,0,0,0,487.2,221.57Z" fill="#f194a2"/><path d="M486.46,224.11l.24.89.36-.47-.23,0C486.91,224.05,486.64,224.17,486.46,224.11Z" fill="#f194a2"/><polygon points="485.22 229.02 484.77 228.91 485.41 229.42 485.22 229.02" fill="#f194a2"/><polygon points="485.28 230.18 484.89 230.14 485.13 230.44 485.28 230.18" fill="#f194a2"/><path d="M486.34,293.82l.21.18A.77.77,0,0,0,486.34,293.82Z" fill="#f194a2"/><path d="M485.61,292.13l-.19,0C485.55,292.21,485.63,292.21,485.61,292.13Z" fill="#f194a2"/><path d="M482.63,258.09c-.44.26-1.14.48-.69.56h.45A.84.84,0,0,1,482.63,258.09Z" fill="#f194a2"/><path d="M480.44,277.81l.14-.11-.4-.28Z" fill="#f194a2"/><path d="M482.22,278.14l-.28.48A1.6,1.6,0,0,0,482.22,278.14Z" fill="#f194a2"/><path d="M491.67,302.51l.54,0C492,302.13,491.88,302.43,491.67,302.51Z" fill="#f194a2"/><path d="M485.12,242a2.29,2.29,0,0,0-.32.79C485.08,242.43,485.48,242.13,485.12,242Z" fill="#f194a2"/><path d="M481.84,295.07c.14.12.25.15.34.1C482,295.05,481.92,295,481.84,295.07Z" fill="#f194a2"/><path d="M484.73,243.74l.11-.16a2,2,0,0,1,0-.78A.69.69,0,0,0,484.73,243.74Z" fill="#f194a2"/><path d="M496.63,340.67l-.07.07C496.61,340.77,496.62,340.73,496.63,340.67Z" fill="#f194a2"/><path d="M488.15,349.07a3.23,3.23,0,0,1,.18-.41A.93.93,0,0,0,488.15,349.07Z" fill="#f194a2"/><path d="M485.06,234.83c0-.25,0,0,0,0Z" fill="#f194a2"/><path d="M486.8,233.66a.32.32,0,0,0,.21.1A.41.41,0,0,1,486.8,233.66Z" fill="#f194a2"/><path d="M487.21,246.42v0C487.3,246.38,487.28,246.39,487.21,246.42Z" fill="#f194a2"/><path d="M485.27,234.46a1.55,1.55,0,0,0-.14.32A1.28,1.28,0,0,0,485.27,234.46Z" fill="#f194a2"/><path d="M485.06,234.51l.05-.21C485,234.26,485,234.29,485.06,234.51Z" fill="#f194a2"/><path d="M485.08,235.17a1.6,1.6,0,0,1,.05-.39s-.05.06-.07.05Z" fill="#f194a2"/><path d="M497.91,319.64l0,.06C498.1,319.93,498.05,319.82,497.91,319.64Z" fill="#f194a2"/><path d="M484.94,265.53s0,0,0,0l0,0Z" fill="#f194a2"/><path d="M485,266.45c-.39-.52-.26-.7-.06-.93l-1.28-.12Z" fill="#f194a2"/><path d="M488.47,297.71l.06-.72c.91.34,1,.9,1.17.15-1.23.57-1.22-2-2.47-1.44,0-.17.06-.33.08-.49,0,.11.12.09.15.2.25-1-1.12-.08-1.38-1.07-.06-.36,0-.67.26-.52l-.64-.56c-.07-.21.16-.26.24-.05-.22-.34-.37-.69-.56-1h0a5.16,5.16,0,0,1-.92-.42c.07-.35.19.09.32-.05l-.56-.48c.23-.37.76,0,.88.43,1-1.07-.56-.37-.25-1.87.12.17.23.34.36.51.58-.63.18-1,.42-1.75-.19.21-.71,1.67-1.25,1.13a.73.73,0,0,0-.38-.75c.45-.16.22-.46,0-.89l.62-.16c-.33-.4-.61-.28-1-.48-.07-.54.38-.78.75-1-.12-.86-.62.77-1-.19a3.09,3.09,0,0,0-.82-2c.13-.54.41,0,.55-.19l-.58-.36c0-.11.16-.1.24-.09-.26-.35-.64.06-.91-.52-.72-.09.91-1.35,0-2,.16-.2.4.06.64,0a8.59,8.59,0,0,0-1.13-1.69l.41-.72c-.47.52-1.05-.16-1.5-.81a4.48,4.48,0,0,0-.54.46,9.32,9.32,0,0,1-.3-1c.12-.11.33,0,.58.18a1.56,1.56,0,0,0-.13-.19c.26-.34.61-.13.95.14l-.42.33a1.92,1.92,0,0,0,1.17.47.61.61,0,0,1-.16-.32c.1.06.19.11.26.08s-.07-.13-.22-.3l.73-.18-.28-.07.55-1.19A6,6,0,0,1,481,272.8c.46.45.83.22,1.43.35-.7.28.11,1.14-.14,1.84.13-.37.41-.24.49-.13l-.38-1.39c.5.12.42-.21.68-.5-1,.07-.48-1.1-.64-1.69.34,0,.64.24.42.86.9-.54-.94-1.16-.16-1.73,0,.16-.09.24.06.34-.21-.44.23-1.29.46-1l0,.16c.37-1,.91-3.13.14-3.55a7.49,7.49,0,0,1,1.08.56c-.74-.9-1.4-1.81-2.1-2.75.64.4,2.5.35,2.6,1.32a1.17,1.17,0,0,0,.33-1.06c-.15.13-1.14.07-1.12-.18,1-.36.56-.3,1.48-.82-.24.19-1.21-.47-1.05-.88.14.13,1.07.35,1.14.55l-.73-1.42c.11.33.89.36,1.26.22-.24,0,.31-.9.3-1.22l-.39.37c.51-1.15-1.1-1.6-.79-2.73.19.19,1.3.71,1.58.14-.49-.43-2.41-1.87-2.61-2.95l.36-.12-.19-.84a16,16,0,0,1,2.72,3.34c.36-.39.4,0,.53-.72.36-.17.37.48.34.69l.57-1.55c-.67-.07-.38-1.35-1-1.39.14.61.21,1.22.31,1.85a2.17,2.17,0,0,1-1.31-2.45c.31-.23,1.14.43,1.36.45-.2-.19-.26-1.13-.08-1.21l.28.54c.35-.58-.71-1.16.05-1.8.08-.25,1-.64.6-.75a6.86,6.86,0,0,1-3.71-.33,9.43,9.43,0,0,1,1.33-1.44c.64-.34,1.34.82,1.9.53-.18,0-.38-.3-.44-.41.19-.25.55.19.54-.41-.67-.19.2-1.18-.54-.35-.13-.59.21-.59.26-1.27-.46.17-1.42-.76-1.54-1.34a.86.86,0,0,0,.51-.11c.18-1.15.52-1.75.62-2.84.17-.09.41-.6.68-.35-.1-.17-.32-.33-.31-.67.64-.61,0,.76.77.31-.39-.07-.47-.91-.69-1.4-.61.11-.2,1.1,0,1.6a2.68,2.68,0,0,1-2-2.1c-.16-.91.57-.36.45-.52.23-1.68-1.4-1.5-.73-2.87.56-.53,1.07,0,1.46-.09.17.74-.39,1.11-.39,1.61l.28-.6a1.07,1.07,0,0,1,.12,1c.5-.44.23-2.85.68-4.15-.18-.24-.36-.65-.58-.46l.07.42c-.44.37-.58-.79-.8-.28a2.42,2.42,0,0,1-.5-2l.62-.14c-.18,0-.38.5-.2.72-.26-.32.86-1.18,0-1.54l-.42.54c-.31-.56-1-1.24-.78-1.92-.6.31.07.15-.63.64.88-.42,0,1.75.89,1.08-.82.49-.36.86-1.07,1.5.2,0,.39-.22.28.35a.55.55,0,0,1,.17.13v0l0,0s0,0,0,0a.84.84,0,0,1,.31-.29c.46.3.43,1.21.66,1.53-.1.34-.22-.15-.44,0l.35.47c-.45,0-.77.89-1,.08l0,.72a1.52,1.52,0,0,0-.22,1.36c-.12.33.45.87.12.56l.22,1.14h-.11c-.09,1.11.61,2.34-.3,3.55a2.55,2.55,0,0,1,0,1.39l-.4.08c.11.5-.52,1.39-.14,1.64-1.1.39-.5,2.26-.78,3.07l.49.1a6.9,6.9,0,0,0,0,1.86l.45,0c.26.67-.58,1.51-.69,2.48-.16-.1-.08-.33.06-.49-1.17.95.18,2.54-.75,3.41a.52.52,0,0,1-.15.61.13.13,0,0,0,0-.06.62.62,0,0,0,0,.1,4.11,4.11,0,0,0-.31.29,1.36,1.36,0,0,0,.3-.23,4.79,4.79,0,0,0,0,.81h-.5v.07c-.25.22.15.29.55.24a1.34,1.34,0,0,0,.16.45c-.82,0,0,.83-.88.88.33.32-.15,1.51.59,2-.11,0-.19,0-.14-.12a1.12,1.12,0,0,0-.29,1l-.63-.07.53,1c-.51.32-.78.44-1.07-.16.33,1.3-.06,1,.35,2.08l-.37-.16c-.08.33.27,1-.1,1.11a4,4,0,0,0-1.06,2.23,14,14,0,0,1-1.09,3.22c1.21-.18-.67.84.21,1.07-.29.07-.49.32-.67,0,.1,1.06-.69,1.49,0,2.3-.29.09-.39-.27-.56-.18.05.09.21.36,0,.45s-.22-.17-.32-.35c-.05,1.09.79,1.25,1.58,1.37-.41.5-.4.78.13,1.17-.26.18-.53.48-.62-.17,0,.36-.38,2.26.26,2.27-.17.12-.05.51,0,.61a9.54,9.54,0,0,0,.11,1.69l.09-.23c.8.23.21.64.39,1.27h-.08c-.29,1.54.37.57,0,2.13l.46-.17c1-.08-.33,1.38.28,2.11l.19-.36c.46.34-1,1.62-1,2.13-.05.12-.19-.11-.29-.24-.19,1.37.65,0,1.08.8-.27.27-.89.06-.75.67-.15.4,1.6,1.35,1.35,2.33.17-.26.34-.53.68-.21.34.54-.25,2,.76,2.19a.29.29,0,0,1-.13.19c.4.36,1,1.29,1.53,1.35-1.31,1.18,2.11,2.29.75,3,.26.42.51.86.79,1.27l-.15,0a1.6,1.6,0,0,0,1.36,1.08c0,.25-.19.18-.27.2.44,1.36.56,1.45,1.82,2l-.36.36c.41.11.38,2.12,1.6,2.94a.33.33,0,0,1-.26,0c1.3.95.84,3.82,2.58,3.26l.87.58c-.52-1.13.77-.23.77-.82.37.38.14,1.4-.22.89l0-.12c-.92.25.39,1.53-.2,1.78,1.07,2.15,1.25,4.53,1.58,6.69l.68-.39.1.79c-.13.23-.52.35-.59-.19-.34.34.49.86.65.86-.17,1.12-.9-.31-.88,0l.11.43.07-.11c.34.32.66.32.7,1-.12.43-.43.25-.45.42-.05,0-.07.06,0,.25v1l.55-.42c.32.43,0,.94.66.46-.51.36-.57,1.28-.6,2.18a5.49,5.49,0,0,1-.2,2,2.68,2.68,0,0,1,.15,2,.39.39,0,0,1,.63.45c-1.28-.43-.75,1.13-1.81,1.48.74-.35-.2,1.86.83,1.31-.22.52-.5-.07-.89.27.23,1.4-1,2.72-1.32,4.29.16.08.5-.1.64.31l-1.09.55c0,.33.86.6.09,1,.17,0,.42-.07.4.15a21,21,0,0,0-1.95,4.48,8.3,8.3,0,0,1-2.8,4.07c.5-.22.4.05.25.35.18-.15.38.21.61.29l-1.24.87c.46.55-.69,1.27-.22,1.71l.12-.43c.35.89,1.84.16,2.63.7-.4-1,2-.94,1.42-2.5.29-.13.18.33.44.31-.23-.43-.16-.77.28-1.25l.06.11c.69-1.63,1.37-2.13,2.41-3.87l-.5-.05a1.49,1.49,0,0,1,.58-.53c-.48-.73-.49,1.09-1.05.37,1.12-.15,1.12-2.77,2.27-2.75.22-.63-.58,0-.36-.63l.34-.06-.3-.29a.8.8,0,0,1,.86-.41c-.06.09,0,.31-.05.42.53-.42.39-1.55.56-1.7l-.37.55c.29-1.79,1.26-3.85,1-5.7l-.25.08c-.12-1.37.45-1,.53-2.47l0,.06a1.71,1.71,0,0,1-.16-1.12c.21.41.6-.62.82-.1-.24-1.5-.26-.77-1-1.79l.39-.19a1.36,1.36,0,0,1-.53-1.11c.29.61.58-.44,1,.26a2,2,0,0,0,.12-1.82c-.16-.47-.27-.83.32-1.2-1-.69-.56,1.34-.78.95-.34.32-.77-.59-.67-1.06s1.29-.86,1.19-2.13c0,.13.08.13.08.26.25-.5-.41-.89-.07-1.51-.65-.25-.05-.76-.85-.74l.32,1.11c-.29-.63-1.24-1.09-1-2.18a1.74,1.74,0,0,1,.59.52c.17-.35-.26-.57-.09-.93.8,0,.44,1.34,1.1,2,.29-.39-.74-1.25.15-1-1.17-.32-.08-1.27-1.07-1.95l.47-.05c-.1-.12-.39-.34-.44-.59l.71.31c-.69-.56.13-1.45-.36-2,.41,1.38-.46.47-.63,1.13-1.08-1.47.92-1.31.06-3.14.18.23.06,1.06-.28.73a3,3,0,0,1,.1-1.22c-.59-1.19-.37.37-.86,0,.36-.63-.44-.5-.85-.93l.44-.2c-.38-1.46-1.08.09-1.33-1.24l.84.18-.46-.53.55-.14a2,2,0,0,1-1-1.43.68.68,0,0,1-1.14-.16c0-.5.51-.06,0-.74.36,0,.79,0,.62.54.15-.05.36,0,.52,0,0-.63-.55-1-.72-1.27a.63.63,0,0,1,.08.34l-1.23-.67c.05-.27.26-.22.46-.16-.18-.19-.46-.21-.69-.5.38-.13.71-.37,1.14,0l-1-.75c.1-.16.07-.76.28-.71-.16-.66-1.48-.94-1.68-1.83a.56.56,0,0,1-.34-.16c-.35-.73-.31-1.59-1.24-2.13l.34-.82c-.51-.56-.4,1.07-1.25.14-.64-.65.35-.58.37-.95-.54-.19-1.52-.51-1.4-1.49C488.3,297.29,488.31,297.52,488.47,297.71Zm-4.05-8c.15.13.55.34.32.56C484.16,290.26,484.36,290,484.42,289.69Zm-2.95-13.18c.15.15,0,.34-.15.56A.78.78,0,0,1,481.47,276.51Zm3.92-39s0,0,0,0C485.21,237.93,485.29,237.8,485.39,237.52Zm.24-.82a.15.15,0,0,0-.2,0c.12.06.13.25.08.46C485.64,237.06,485.73,237,485.63,236.7ZM495,322.62l.12-.16C495.26,322.8,495.13,322.71,495,322.62Z" fill="#f194a2"/><path d="M482,278.1a.59.59,0,0,1-.26.07C481.83,278.24,481.93,278.24,482,278.1Z" fill="#f194a2"/><path d="M491.57,302.5v0l.09,0Z" fill="#f194a2"/><path d="M488.7,250a.69.69,0,0,1-.28.3C488.53,250.34,488.64,250.27,488.7,250Z" fill="#f194a2"/><path d="M484.89,232.29l.12.54a.64.64,0,0,1,.16-.48C485.06,232.36,484.89,232.46,484.89,232.29Z" fill="#f194a2"/><path d="M487.84,227.63c-.06-.07,0-.16-.07-.24l-.23,0C487.57,227.75,487.75,228,487.84,227.63Z" fill="#f194a2"/><path d="M486.49,231.81c.4,0,.26-.38.19-.76v.07C486.11,231,486.3,231.41,486.49,231.81Z" fill="#f194a2"/><path d="M486.66,231a1,1,0,0,1,0-.35C486.42,230.58,486.6,230.76,486.66,231Z" fill="#f194a2"/><path d="M485.38,235.64c.11-.17-.52-.12-.35-.22C484.52,235.21,485.63,236.61,485.38,235.64Z" fill="#f194a2"/><polygon points="487.82 231.5 487.32 231.64 487.73 231.85 487.82 231.5" fill="#f194a2"/><path d="M487.42,234.48l.15-.6c-.08,0-.13-.07-.16-.17C487.38,234.08,487.28,234.49,487.42,234.48Z" fill="#f194a2"/><path d="M487.41,233.71a.79.79,0,0,0-.08-.48A1.91,1.91,0,0,0,487.41,233.71Z" fill="#f194a2"/><polygon points="487.98 232.33 487.87 232.51 487.83 232.93 487.98 232.33" fill="#f194a2"/><path d="M487.1,240.93l.11.67c.17.08.29-.1.23-.35S487.27,240.84,487.1,240.93Z" fill="#f194a2"/><path d="M488.56,239c-.11.18-.22.18-.39.28l.62.05Z" fill="#f194a2"/><path d="M488.62,241c.17.07.45,1,.45.15C488.9,241,488.79,240.35,488.62,241Z" fill="#f194a2"/><polygon points="486.89 250.79 486.91 250.63 485.9 250.51 486.89 250.79" fill="#f194a2"/><path d="M487.47,260c.48-.72-.54-.35-.07-1-.19-.25-.38.51-.53.27C487,259.87,486.75,260.08,487.47,260Z" fill="#f194a2"/><path d="M486.87,259.33a1.19,1.19,0,0,0-.1-.28A.83.83,0,0,0,486.87,259.33Z" fill="#f194a2"/><polygon points="486.8 350.33 486.38 350.62 486.83 350.54 486.8 350.33" fill="#f194a2"/><path d="M487,351.5l-.61-.25c.12.18.23.37.36.54C486.74,351.7,486.81,351.49,487,351.5Z" fill="#f194a2"/><path d="M485.24,288l-.16,0c-.14.12-.12.22-.07.44Z" fill="#f194a2"/><polygon points="487.18 294.09 487.14 293.99 486.7 294.43 487.18 294.09" fill="#f194a2"/><path d="M490.4,298.57c-.09-.2-.34-.37-.43-.58C490.31,298.36,489.8,299,490.4,298.57Z" fill="#f194a2"/></g><path d="M501.48,373.3c-10-4.37-8.94-15.48-8.94-15.48h-8.72s1.09,11.11-8.94,15.48c-11.71,5.09-15,24.2-5,32.26,0,0,3.65,2.73,18.31,2.73s18.32-2.73,18.32-2.73C516.53,397.5,513.2,378.39,501.48,373.3Z" fill="#d3626d"/><path d="M501.48,373.3c-10-4.37-8.94-15.48-8.94-15.48h-7.89s-1.09,11.11,8.94,15.48c11.71,5.09,15,24.2,5,32.26,0,0-3,2.23-14.36,2.66,1.21,0,2.53.07,3.94.07,14.67,0,18.32-2.73,18.32-2.73C516.53,397.5,513.2,378.39,501.48,373.3Z" fill="#d3626d"/><path d="M488.29,386.18c7.94,0,15.69-.29,23.17-.82-1.59-5.26-5-9.91-10-12.06-10-4.37-8.94-15.48-8.94-15.48h-8.72s1.09,11.11-8.94,15.48c-4.94,2.15-8.38,6.79-10,12.05C472.45,385.89,480.27,386.18,488.29,386.18Z" fill="#fff" opacity="0.5" style="mix-blend-mode:overlay"/><path d="M492.54,357.82c0,.46-2,.83-4.36.83s-4.36-.37-4.36-.83,1.95-.84,4.36-.84S492.54,357.35,492.54,357.82Z" fill="#32363e"/><path d="M480.05,393.39a21.05,21.05,0,0,0-9.28-17.46c-8.24,7.23-9.63,22.61-.9,29.63,0,0,1.2.9,5,1.66A21,21,0,0,0,480.05,393.39Z" fill="#fff" opacity="0.5" style="mix-blend-mode:overlay"/></g></g></g></svg>