<svg xmlns="http://www.w3.org/2000/svg" xmlns:xlink="http://www.w3.org/1999/xlink" viewBox="0 0 502.5 502.5"><defs><linearGradient id="linear-gradient" x1="249.65" y1="555.74" x2="252.67" y2="-18.91" gradientUnits="userSpaceOnUse"><stop offset="0" stop-color="#c4545f"/><stop offset="0.77" stop-color="#e57883"/><stop offset="1" stop-color="#ef838f"/></linearGradient></defs><g id="Layer_2" data-name="Layer 2"><g id="Layer_1-2" data-name="Layer 1"><rect width="502.5" height="502.5" fill="url(#linear-gradient)"/><g id="OBJECT"><path d="M428.06,427.67s19.9-60.06,1.71-85-32.6-36-23.49-56.13,5.06-53.06-19-62.94-12.9-47.1-39.55-68.47-48.4-11.71-61.18-38.07c-11.22-23.15-34.51-45-57.81-22.53a38.38,38.38,0,0,0-10.32,18.27c-1.86,7.25-8.37,19.82-30.35,32.38-33.82,19.33-20.41,31.79-34,54.11s-57.13,11.1-73.47,53.93S99.51,310.39,96.65,336s-19.8,39.56-9.48,91" fill="none" stroke="#e5c2a5" stroke-miterlimit="10"/><path d="M437.68,428.32s23.27-66.44,3.65-91.68S406.16,300.27,416,279.92s5.46-53.61-20.52-63.6-13.92-47.6-42.68-69.19S304.77,127.6,291,101c-12.11-23.39-41.43-37.74-66.57-15.07a38.24,38.24,0,0,0-11.14,18.46c-2,7.33-9,20-32.75,32.73-36.49,19.53-22,32.12-36.68,54.68s-55.17,14.82-73.28,52.61c-20.21,42.14,11.17,59.07,8.09,84.95s-10.85,46.41.29,98.35" fill="none" stroke="#e5c2a5" stroke-miterlimit="10"/><path d="M231.91,107.89a38.69,38.69,0,0,0-10.08,18.27c-1.82,7.26-8.18,19.82-29.65,32.39-33,19.33-19.93,31.78-33.2,54.11s-51.06,5.2-67,48,20.83,62.16,18,87.77S85.24,375.56,95.32,427h333S446,381,428.28,356s-31.84-36-22.94-56.13,4.94-53-18.58-62.94-12.6-47.1-38.63-68.47-47.27-11.7-59.75-38.06C277.41,107.28,254.67,85.46,231.91,107.89Z" fill="#f7e4d2"/><path d="M233.22,119.93a37,37,0,0,0-9.64,17.48c-1.74,6.94-7.82,19-28.36,31-31.6,18.49-19.07,30.41-31.76,51.76s-48.84,5-64.1,45.94,19.92,59.46,17.25,83.95-23.68,25.93-14,75.09H421.05s17-44,0-67.84-30.45-34.43-21.94-53.69,4.72-50.75-17.77-60.2-12-45.06-37-65.49-45.21-11.2-57.15-36.41C276.75,119.35,255,98.47,233.22,119.93Z" fill="none" stroke="#fff" stroke-miterlimit="10"/><path d="M356.11,241.31c-2-1.14-4.54-.32-5-1s2.11-2.61,2.93-4.68-.1-7.44-3.44-4.91a9.75,9.75,0,0,0-3.49,6.84s0,.23-.1.63a13.7,13.7,0,0,1-.52-6.39.36.36,0,0,0-.3-.42.35.35,0,0,0-.42.3,15.15,15.15,0,0,0,.21,5.76,15.08,15.08,0,0,0-4.46-3.32.36.36,0,1,0-.31.66s3.68,1.77,5.1,4.41a8.68,8.68,0,0,0-.74-.49,9.74,9.74,0,0,0-7.46-1.82c-4.09.88-.63,5.08,1.47,5.82s5.25.1,5.46.84-2.1,2.15-2.52,4.38,2.21,4.56,3.68,4.66,3.34-4.38,3.32-7.72c2.58,2,6.91,3.26,7.67,2.24C358.12,246,358.08,242.45,356.11,241.31Z" fill="#dba291"/><path d="M138.76,275.92c-.36-1.83-2.27-3-2.11-3.57s2.76-.12,4.48-.75,4.52-4.11,1.14-4.79a8,8,0,0,0-6.1,1.57,4.71,4.71,0,0,0-.44.29,11.12,11.12,0,0,1,3.64-3.8.3.3,0,1,0-.32-.51,12.46,12.46,0,0,0-3.42,3.26,12.61,12.61,0,0,0-.39-4.55.29.29,0,0,0-.37-.2.3.3,0,0,0-.21.37s.92,3.23.07,5.54a4.89,4.89,0,0,0-.11-.72,8.05,8.05,0,0,0-2.93-5.59c-2.77-2-3.47,2.38-2.78,4.07s2.79,3.29,2.46,3.82-2.47-.12-4.07.84-1.6,3.83-.86,4.79,4.51-.32,6.55-2.15c.16,2.69,1.76,6,2.8,5.94C137,279.68,139.13,277.75,138.76,275.92Z" fill="#dba291"/><path d="M251.19,147.41c-.36-1.84-2.28-3-2.11-3.58s2.76-.12,4.48-.75,4.52-4.11,1.14-4.79a8,8,0,0,0-6.1,1.58,3.45,3.45,0,0,0-.44.28,11.12,11.12,0,0,1,3.64-3.8.29.29,0,0,0,.1-.41.3.3,0,0,0-.42-.1,12.46,12.46,0,0,0-3.42,3.26,12.65,12.65,0,0,0-.39-4.55.29.29,0,0,0-.37-.2.3.3,0,0,0-.21.37s.92,3.23.07,5.54a5.22,5.22,0,0,0-.11-.72,8,8,0,0,0-2.93-5.58c-2.77-2.05-3.47,2.37-2.78,4.07s2.79,3.29,2.46,3.82-2.47-.13-4.07.83-1.6,3.83-.86,4.8,4.51-.33,6.55-2.16c.16,2.69,1.76,6,2.8,5.94C249.43,151.17,251.56,149.24,251.19,147.41Z" fill="#dba291"/><path d="M200.16,197.06a1.08,1.08,0,1,1-.23-1.51A1.07,1.07,0,0,1,200.16,197.06Z" fill="#fff"/><path d="M202.93,192.47a1.07,1.07,0,0,1-1.5.23,1.08,1.08,0,1,1,1.5-.23Z" fill="#fff"/><path d="M206.16,199.71a1.09,1.09,0,0,1-1.51.22,1.08,1.08,0,1,1,1.51-.22Z" fill="#fff"/><path d="M344.88,209.67a1.08,1.08,0,0,1-1.73-1.29,1.08,1.08,0,1,1,1.73,1.29Z" fill="#fff"/><path d="M347.65,205.08a1.07,1.07,0,1,1-.22-1.5A1.07,1.07,0,0,1,347.65,205.08Z" fill="#fff"/><path d="M350.88,212.31a1.08,1.08,0,1,1-.22-1.5A1.08,1.08,0,0,1,350.88,212.31Z" fill="#fff"/><path d="M293.84,166a1.08,1.08,0,0,1-1.51.22,1.08,1.08,0,0,1,1.28-1.73A1.08,1.08,0,0,1,293.84,166Z" fill="#fff"/><path d="M296.61,161.44a1.08,1.08,0,1,1-.22-1.5A1.08,1.08,0,0,1,296.61,161.44Z" fill="#fff"/><path d="M299.83,168.68a1.08,1.08,0,1,1-.22-1.51A1.08,1.08,0,0,1,299.83,168.68Z" fill="#fff"/><path d="M307.74,228.66a1.08,1.08,0,0,1-.14-1.52,1.07,1.07,0,1,1,.14,1.52Z" fill="#fff"/><path d="M312.17,231.67a1.08,1.08,0,0,1-.14-1.52,1.07,1.07,0,1,1,.14,1.52Z" fill="#fff"/><path d="M304.79,234.51a1.07,1.07,0,0,1-.15-1.51,1.08,1.08,0,1,1,1.66,1.37A1.07,1.07,0,0,1,304.79,234.51Z" fill="#fff"/><path d="M152.92,251.25a1.37,1.37,0,1,1-1.36-1.37A1.36,1.36,0,0,1,152.92,251.25Z" fill="#fff"/><path d="M336.12,180.73a1.7,1.7,0,1,1-1.7-1.7A1.7,1.7,0,0,1,336.12,180.73Z" fill="#fff"/><path d="M218.8,233.68a1.7,1.7,0,1,1-1.7-1.7A1.7,1.7,0,0,1,218.8,233.68Z" fill="#fff"/><path d="M251.25,122.74a1,1,0,1,1-1-1A1,1,0,0,1,251.25,122.74Z" fill="#fff"/><path d="M330.49,275a1.54,1.54,0,1,1-1.54-1.54A1.54,1.54,0,0,1,330.49,275Z" fill="#fff"/><path d="M229.49,157.76a1.54,1.54,0,1,1-1.54-1.54A1.54,1.54,0,0,1,229.49,157.76Z" fill="#fff"/><path d="M59.75,415.8H470.83a2.77,2.77,0,0,1,1.06,5.32c-27.5,11.29-100.41,36.88-202.6,39.8-95,2.72-174.42-22-211.22-36A4.73,4.73,0,0,1,59.75,415.8Z" fill="#f7e4d2"/><path d="M196.77,329.69c-.91-16.24-17.93-19.5-19.63-23.54s-4.45-12.31-16.7-16.21-19.88,3.31-26.74-1.1-13-8.06-21.16-2.52-14,3.51-25.8,2.18-21.2,10.05-21.2,10.05c-4.62,4.24-.16,9.61,10.73,12.24,15.38,3.72,11,13.71,19.19,17.76s18,0,24.13,4.94,5.71,13.78,13.36,15.87,16.67-3,21,0,6.76,11.92,12,15,20,3.84,20,3.84l3.57-.86S197.68,345.93,196.77,329.69Z" fill="#b9bc7e"/><path d="M187.12,362.23s-3.85-33.15-26.65-48.25S100.29,298.53,89,297.9l-11.33-.63s45.74-2.91,68.43,6.32C177.21,316.26,186.09,337,187.12,362.23Z" fill="#fffbf4"/><path d="M170.4,327.34s-19.07-17-21.94-31.21,5.56-19.46-.11-26.64-3.14-20.05,3-23.32,8.61-10.39,9.21-20.25,8.11-13.53,10.44-10.8c6.41,7.54,3.22,15.24,13,20s13.28,14.71,10.82,22.83,8.35,10.72,15.51,23.12,2,22.77-1.06,30.55,5.38,17.14,2.32,26.11-24.15,23.73-24.15,23.73S177.23,357.71,170.4,327.34Z" fill="#cfc293"/><path d="M170.2,228.85s6.3,24.27,13.88,55.56,8.85,69.87,8.85,69.87,4.39-28-1.3-54.28S170.68,232.89,170.2,228.85Z" fill="#fffbf4"/><path d="M173,340c-2.6-13.33,10.51-19.47,11.06-23.09s1.07-10.88,10.19-16.55S211,299,215.63,294s8.85-9.19,16.62-6.38,12,0,21.33-3.54,19.23,3.79,19.23,3.79c4.61,2.48,2.11,7.74-6.17,12.11-11.7,6.17-6.09,13.36-11.89,18.32s-14.53,3.72-18.52,9-1.8,12.34-7.56,15.6-14.11,1-17,4.33-3,11-6.62,14.6S189.6,369,189.6,369l-3.07,0S175.55,353.34,173,340Z" fill="#b9bc7e"/><path d="M187.45,364.37s-3.69-27.63,11.67-44.54,45.55-24.88,54.59-27.71l9-2.84s-37.64,7-54.11,19.17C186,325.11,183.09,343.69,187.45,364.37Z" fill="#fffbf4"/><path d="M178.43,364.32s-25.11-6.88-38.3-.85-15.62,14.32-15.62,14.32,5.65,2,16.39.47,12.35-7.86,19.84-4.84,9.94,5.94,16.25,4.14,9.54-8.56,9.54-8.56Z" fill="#9a9b82"/><path d="M190.8,365.22s6.75-7.78,16.55-7.27,11.51,3.94,16.31,4.15,7.45-1.29,14,.95A37.49,37.49,0,0,1,248,368.29s-6.66,9.64-17,7.15-18.21-4.11-21.61-.63S184.65,372,184.65,372Z" fill="#9a9b82"/><path d="M336.16,334.31s14.12,9.05,43.16,14.12,41.29-3.2,42.88-7.06-3.19-6-22.1-9.46-24-7.72-14.66-8.79,22.38,7.19,33.57,7.19,18.91-5.95,19.18-10-33.57-5.15-37.83-11,21.93.26,33.21,1.86,15.81-7.19,15-10.12-28.24-3.88-30.9-7.93,11.45-2.61,23.7,0,18.38-6.45,16.79-8.59-24.24-3.72-26.64-7.72,12.25-2.93,19.71-1.33,15.45-5.6,12.79-8-19.45-3.2-20-6.66,22.36-1.6,20.5-6.66-8.25-9.8-18.1-10-18.92,10.22-24.24,7,13.05-10.92,8.25-13.85S415,236,411.28,241.07s-4,13.59-8,13.32,2.93-12.25-.53-14.91-12.52,2.93-14.38,8.25.26,16-3.47,16.52.9-17.05-2.35-18.65-13.63,8.79-13.9,15.19,3.2,16.46-2.39,18.09-4.53-18.36-8.79-20.22S344.69,269,346,279s4.27,18.19.27,18.23-6.93-12.76-10.12-14.89-6.08,3.2-6.9,16.79S334.85,331,336.16,334.31Z" fill="#d1c795"/><path d="M331.61,356.19s15-38.38,32.37-59.65,51-34.1,67.18-35c0,0-38.29,7.12-62.91,37.56s-33.9,72.06-33.9,72.06l-6.71-1.32Z" fill="#fffbf4"/><path d="M60.49,412.57s2.14-8,12.63-11.66,12,6.22,18.64,5.83,9.68,12.43,9.68,12.43H58.16Z" fill="#9a9b82"/><path d="M85.85,418.71a94.3,94.3,0,0,0-2.7-10.06,66.5,66.5,0,0,0,7.15-29.58c-.16-17.21-12.08-35.25-12.08-35.25s-3.13,29.44,2.06,56.52c-3.6-9.69-8.2-20.2-12.46-29.39a51.69,51.69,0,0,0,5.05-21.68c0-13.41-9.24-27.54-9.24-27.54s-2.47,21.85,1.05,42.55c-3.15-6.58-5.86-12-7.5-15.2a51.39,51.39,0,0,0-5.54-20.32c-6.27-11.86-21-20.09-21-20.09s9.26,23.83,23.78,41c1.31,2.58,3.52,7,6.16,12.43a48,48,0,0,0-7.83-9C42.7,344.3,26,341.83,26,341.83s19,21,39.9,31.57c2.18,4.72,4.42,9.75,6.56,14.8a60.68,60.68,0,0,0-9-9.8c-13-11.29-34.4-14.33-34.4-14.33s23.19,25.41,49.27,39.07a119.27,119.27,0,0,1,4.81,16.11Z" fill="#b9bc7e"/><path d="M428.08,410.59h13.18s6-11,20.38-18.51,16-16.61,16.63-20.85-5.65-2.05-15.06,3.6-11.92,19-16,18.76S445.65,378,454.43,373s15.68-17.25,17.88-25.1-15.69-2.19-24.16,7.22-7.21,32.39-13.48,35.33,4.7-16.36-8-24.22c-5.1-3.16-6.43,5.86-4.86,17.29S431.22,400.24,428.08,410.59Z" fill="#9a9b82"/><path d="M405.89,417.41s23.14,2.52,41,2.52,24.74-1.61,24.74-1.61-3.9-7.33-15.35-10.07-12.6,4.12-17.63,0-14.21-7.1-22.22-4.81S405.89,417.41,405.89,417.41Z" fill="#d7ca8c"/><ellipse cx="258.61" cy="427.13" rx="138.31" ry="11.33" fill="#e2c9b5"/><path d="M387.3,364.59l-10.51,11.08v0l-2,2.08h0l-.12.13,0,0c-22.68-14-44.56-34.93-50.07-40.32a37,37,0,0,1-7.55-9.25c-4.85-8.57-11.39-24.58-15.94-36.3l-.61,2.55-8.21,34.79a141.36,141.36,0,0,1,12.44,23.83,124.22,124.22,0,0,1,5.46,16.88L263,397.84v.7l-.64-.34-.62.36v-.7l-48.23-25.93a126.72,126.72,0,0,1,6.29-21c.05-.1.08-.21.12-.31a142.19,142.19,0,0,1,9.93-20.1l-9.7-35-1.3-4.71-.71-2.53c-4.61,11.45-13.1,31.86-19,41.89a36.58,36.58,0,0,1-7.73,9.09c-5.6,5.28-27.92,25.79-50.86,39.4l-2.1-2.29-10.28-11.28L180.38,316l17.68-50.53c10.18-21.84,17.81-22.14,17.81-22.14h0a16.83,16.83,0,0,1,4.8-2.89c.59-.23,1.18-.46,1.78-.71h0a89.56,89.56,0,0,0,11.18-5.5,59.58,59.58,0,0,0,13-10.18,120.83,120.83,0,0,0,.86-13c0-2.14,0-3.6,0-3.6l11.12,1.14L269.76,207s.1,2.89.36,6.51c.25,3.26.61,7.13,1.16,10.06a50.75,50.75,0,0,0,5.77,4.85,79.33,79.33,0,0,0,20.84,10.54,17.25,17.25,0,0,1,4.33,2.24c1.59.39,8.48,3.16,17,22.43l16.71,50.85Z" fill="#5e4453"/><path d="M277.05,228.38c-1.79,2-7.27,6.32-22.79,9.89-21,4.82-31.8,1.42-31.8,1.42h0a89.47,89.47,0,0,0,11.17-5.5,59.11,59.11,0,0,0,13-10.18,120.83,120.83,0,0,0,.86-13l22.59,2.48c.26,3.26.62,7.13,1.17,10.06A49.64,49.64,0,0,0,277.05,228.38Z" fill="#3f2935"/><path d="M288.87,303.43c-7.37,3.26-20.24-3.06-31.18.47s-16.34,13.64-18.46,26.59,3.29,31.73,3.29,31.73-9.77,2.72-22.65-11.57a143.29,143.29,0,0,1,9.93-20.1l-11-39.71-.7-2.53s-2.63-13.58,4-23.93c0,0-2.05,11.06,1.8,21.17s12.91,10.11,22.37,9.88,9.33-3.47,20-1.17c17.83,3.84,24.8,2.11,29-3.74C298,286.65,296.22,300.17,288.87,303.43Z" fill="#3f2935"/><path d="M238.11,195.38s-2.53-5.17-5.87-5-4.45,7.32.25,12.86,9,3.17,9,3.17Z" fill="#ea8d78"/><path d="M279.92,194.57s2.34-5.26,5.67-5.18,4.73,7.14.25,12.86-8.83,3.51-8.83,3.51Z" fill="#ea8d78"/><path d="M281.42,183.9c.4,20.65-11.9,39.11-21.7,39.29-11.89.23-23.39-19.16-23.76-38.41-.27-14.25,8.27-26,22.51-26.24S281.15,169.66,281.42,183.9Z" fill="#ffa488"/><path d="M241.06,185.81a38.58,38.58,0,0,1,7-1.22c4.53-.33,6.2.14,6.2.14s-.87-2.54-4.69-2.47S241.06,185.81,241.06,185.81Z" fill="#2f2a00"/><path d="M254,191.38s-2.67-3.6-6.12-3.63-6.49,3.88-6.49,3.88.94,1,5.83,1.24S254,191.38,254,191.38Z" fill="#ea8d78"/><path d="M247.78,192.58a21.11,21.11,0,0,1-6.33-.93l0,0h0a4.86,4.86,0,0,1-1.74.47,5.13,5.13,0,0,0,2.59.16,9.21,9.21,0,0,0,5.56,1.43c4.26,0,6.19-2.31,6.19-2.31A17.26,17.26,0,0,1,247.78,192.58Z" fill="#2f2a00"/><path d="M276.15,185.14a38.71,38.71,0,0,0-7-.95c-4.54-.16-6.19.38-6.19.38s.77-2.58,4.59-2.65S276.15,185.14,276.15,185.14Z" fill="#2f2a00"/><path d="M263.43,191.2s2.54-3.7,6-3.87,6.64,3.63,6.64,3.63-.9,1.07-5.78,1.47S263.43,191.2,263.43,191.2Z" fill="#ea8d78"/><path d="M277.79,191.37A5,5,0,0,1,276,191h0l0,0a21.28,21.28,0,0,1-6.29,1.17,17.44,17.44,0,0,1-6.26-1s2,2.19,6.28,2.07a9.21,9.21,0,0,0,5.5-1.65A5.08,5.08,0,0,0,277.79,191.37Z" fill="#2f2a00"/><path d="M255.76,203.76a8.72,8.72,0,0,0,3.33,1.19,6.17,6.17,0,0,0,3.27-1.31s-1.39-.15-3.06-.19A20,20,0,0,0,255.76,203.76Z" fill="#ea8d78"/><path d="M259.88,210.16a17.15,17.15,0,0,0,6.05-1.38,32.77,32.77,0,0,0-5-.23,2.14,2.14,0,0,0-1.31,1.16,2.17,2.17,0,0,0-1.35-1.11,32.92,32.92,0,0,0-5,.42,17.12,17.12,0,0,0,6.09,1.15v0h.46Z" fill="#743f3d"/><path d="M254.47,210.6s.78,1.1,3.66,1.8,5-.48,6.7-1.59a6.83,6.83,0,0,1-4.81,3.38C256.77,214.59,254.59,211,254.47,210.6Z" fill="#ea8d78"/><path d="M267.61,170.78A24.59,24.59,0,0,0,256,168.5c-6.67.34-11.85,5.55-13.78,9.24s-3.89,4.74-3.89,4.74.61,8.94-1.11,12.75c0,0-2.31-3.86-5-4.82a44.42,44.42,0,0,1-.88-16.84c1.4-8.69,10.61-18,23-19.33S273,159,273,159s8.22,4.64,10.67,12.52.35,18.11.35,18.11-2.12,1.07-3.48,4.77c0,0-4-6-2.95-12.68C277.61,181.72,276,171.07,267.61,170.78Z" fill="#743f3d"/><path d="M275,163.44c-2.49.79-18.51-7.89-18.51-7.89a11.62,11.62,0,0,1,.36-3.21,10.09,10.09,0,0,1,6.53-7.35,12.79,12.79,0,0,1,2.16-.57,12.18,12.18,0,0,1,13.28,7.79C280.5,157.19,277.47,162.67,275,163.44Z" fill="#743f3d"/><path d="M254.22,184.73a28.71,28.71,0,0,1,2.43,7.33,19.8,19.8,0,0,1,.15,7.59s-.86-12.5-7.22-15.15A28.65,28.65,0,0,1,254.22,184.73Z" fill="#ea8d78"/><path d="M267.61,170.78s-7.91-2.65-14.65.28-6.57,7.21-11.25,7.57l-.6-1.12s1.24.24,4.09-2S254.06,165.18,267.61,170.78Z" fill="#743f3d"/><path d="M235.43,407s-6.47.83-8.73,1.27c0,0-9-1.3-12.84-1.14s-5.87,4.68-8,9.59-10.46,10.13-13.4,13.19-3,7.53-2.95,8.48-1.85,3.65-.84,5.86,2.1,1.48,3,1.23,1.59-1.82,1.59-1.82a10.66,10.66,0,0,0,3.41-.33c1-.45.14-.67,2.42-.83a14,14,0,0,0,4.88-1c1.39-.57,10.91-10.45,16.07-13.08s13.1-2,13.1-2Z" fill="#ffa488"/><path d="M381.55,413.68c-15.37,8.59-40.83,12-70.29,13.76q-5.38.33-10.94.6l.51,12.77-6.21-.07c-12.15-.15-40.48-.51-70-1.1-47.78-.94-85.79-12.8-96.76-23.37a24.92,24.92,0,0,1-7.32-20.84c.89-6,4.46-11.69,11.74-15.28a57.7,57.7,0,0,1,8.86-3.11c12.84-3.67,36.08-8.12,61.72-8.36l1.16-.09c3.38-5.07,15.87-17.94,15.87-17.94a77.08,77.08,0,0,0,20.8,11.78c6.34,2.32,13.6,3.81,20.93,2.92,21.21-2.56,42.52-14.38,42.52-14.38,4.31,4.29,8.44,14.37,8.44,14.37,21.23.2,56.4,6.64,64,10.43l.14.09A23.17,23.17,0,0,1,389,384C395.81,392.82,395.36,406,381.55,413.68Z" fill="#e9835b"/><path d="M128.08,365.12a67,67,0,0,0-7.48-.77c-2.15,0-6.47,1.41-8.91,1.82s-3.66.5-3.6.86.89,1.27,3.59,1.65,5-.34,6.45-.37,1.76.83,1.76.83a8.14,8.14,0,0,1-6.15,4.71c-4.7.82-6.55.12-6.87-.54s1.67-5.24,1.15-6.95-1.32-1.56-2.3,1.15S103,372.83,103,374.6s3.07,3.31,3.07,3.31-5.83-.68-7.58.95,1.75,1.68,4.51,1.93,5.35,1.06,7,.85c0,0-7.41-.11-8.86,1.08s1.51,2,4.32,1.94,6.63.55,7.24.54c0,0-6.6.8-6.38,2.45s1.42.52,5,.88a24.15,24.15,0,0,0,10-.74c3.4-1.05,17-11.4,17-11.4Z" fill="#ffa488"/><path d="M356.39,381.29c-28.24,4-107.28,24.24-107.28,24.24S207.47,386.47,179.55,382c-26.51-4.24-42-2.13-38.43-5,12.84-3.67,36.08-8.12,61.72-8.36l1.16-.09c3.38-5.07,15.87-17.94,15.87-17.94a77.08,77.08,0,0,0,20.8,11.78c1,4.66,17.62,27.57,29.61,23.8s27.76-8.93,35.29-6.34,22.82,1.17,33.36-1.2S356.39,381.29,356.39,381.29Z" fill="#cc6a4c"/><path d="M376.79,375.67v0a5,5,0,0,1-2,2.08h0l-.17.1c-22.68-14-44.56-34.93-50.07-40.32a37,37,0,0,1-7.55-9.25c-4.84-8.57-11.39-24.58-15.94-36.3l2.62-21.83s9.8,42.25,20.16,55.86S376.79,375.67,376.79,375.67Z" fill="#3f2935"/><path d="M220.11,295.55l-1.31-4.71-.7-2.53c-4.61,11.45-13.11,31.86-19,41.89a36.58,36.58,0,0,1-7.73,9.09c-5.6,5.28-27.92,25.79-50.86,39.4l-2.1-2.29s45.2-38.6,58.47-53.79,21.42-48.29,21.42-48.29Z" fill="#3f2935"/><path d="M381.55,413.68c-15.37,8.59-40.83,12-70.29,13.76a73.31,73.31,0,0,1-21.11-6.81v-1.46l-41-13.63c.35.09,7.09-1.81,7.09-1.81,18.67,4.16,64.67,16.7,88.63,11.21,30.81-7.06,32-20,37.63-26.48A14.38,14.38,0,0,1,389,384C395.81,392.82,395.36,406,381.55,413.68Z" fill="#cc6a4c"/><path d="M290.15,420.62s6.45.95,8.7,1.44c0,0,9.06-1.12,12.86-.89s5.78,4.8,7.82,9.74,10.26,10.34,13.14,13.45,2.86,7.59,2.78,8.54,1.78,3.68.73,5.88-2.13,1.43-3.06,1.16-1.55-1.85-1.55-1.85a10.57,10.57,0,0,1-3.4-.39c-1-.47-.13-.68-2.41-.88a14.05,14.05,0,0,1-4.86-1.09c-1.38-.6-10.71-10.66-15.81-13.39S292,440.06,292,440.06Z" fill="#ffa488"/><path d="M387.3,364.6a67.15,67.15,0,0,1,7.5-.63c2.14.08,6.44,1.53,8.87,2s3.66.57,3.58.93-.9,1.26-3.61,1.58-5-.44-6.45-.49-1.78.79-1.78.79a8.18,8.18,0,0,0,6.07,4.83c4.68.91,6.55.25,6.88-.41s-1.58-5.27-1-7,1.35-1.54,2.28,1.19,2.62,5.37,2.55,7.15-3.13,3.25-3.13,3.25,5.84-.58,7.56,1.08-1.78,1.65-4.55,1.85-5.37,1-7,.71c0,0,7.41,0,8.84,1.26s-1.55,2-4.36,1.86-6.64.42-7.25.39c0,0,6.58.93,6.34,2.57s-1.43.5-5.06.79a24.07,24.07,0,0,1-10-.94c-3.39-1.1-16.74-11.71-16.74-11.71Z" fill="#ffa488"/><path d="M294.62,440.74c-12.15-.15-40.48-.51-70-1.1-47.78-.94-85.79-12.8-96.76-23.37a24.92,24.92,0,0,1-7.32-20.84c4,3.14,11.85,8.61,26.74,16.05,24.45,12.24,69.62,18.83,105.38,22.28s39,1.93,39,1.93Z" fill="#cc6a4c"/><path d="M269.55,157.88c-4.83-2.36-12.46-3.8-12.46-3.8a13.11,13.11,0,0,1-.26-1.74,10.09,10.09,0,0,1,6.53-7.35,13,13,0,0,1,2.16-.57c-.81.83-1.65,2.37-.91,4.93C265.85,153.71,274.37,160.24,269.55,157.88Z" fill="#603030"/><path d="M265.05,166.86s-8.9-3.37-17.41,0-9.7,12.46-11.69,13.35c0,0,1.73-12.19,10.87-14.85S265.05,166.86,265.05,166.86Z" fill="#603030"/><path d="M271.79,161.25l-3.37,7.59A6.56,6.56,0,0,0,271.79,161.25Z" fill="#603030"/></g></g></g></svg>