<svg xmlns="http://www.w3.org/2000/svg" viewBox="0 0 205.94 222.66"><g id="Layer_2" data-name="Layer 2"><g id="OBJECTS"><path d="M205.26,151.49c-2.88-11.41-13.93-19.1-17.89-30.18-2.29-6.41-2-13.41-2.66-20.19C182.21,75.05,164.43,51,140.23,41c-23-9.53-50.84-6-70.9,8.66A63.67,63.67,0,0,0,52.39,62.38c-8,8.49-13.51,19-18.9,29.34L6,144.51c-3.65,7-7.41,14.84-5.42,22.48,1.71,6.56,7.47,11.45,13.8,13.89s13.22,2.83,20,3.19l108.38,5.78c14.31.76,29.24,1.42,42.37-4.35S208.76,165.39,205.26,151.49Z" fill="#f7f2f0"/><path d="M191.82,184c0,2.28-38.07,4.13-85,4.13s-85-1.85-85-4.13,38.07-4.14,85-4.14S191.82,181.69,191.82,184Z" fill="#ede3df"/><path d="M32.68,67.42c.17-3.27-.48-7.26-3.52-8.48a5.85,5.85,0,0,0-5.3.83,17.26,17.26,0,0,0-3.88,4l-4.74,6c-2.76,3.52-5.65,7.4-5.63,11.87a10.21,10.21,0,0,0,4.76,8.49C27.76,98.4,32.24,76.16,32.68,67.42Z" fill="#f7f2f0"/><path d="M151.16,173.44c5.48-4.49,9.1-10.93,11.32-17.67s3.15-13.81,4.07-20.84" fill="none" stroke="#ede3df" stroke-miterlimit="10"/><path d="M171.43,130.47a15.1,15.1,0,0,1,9.07-1.87c-1.8,2.76-3.66,5.58-6.29,7.56a10.76,10.76,0,0,1-6.69,2.27c-3.58-.14-1.13-3.51.2-5A15.24,15.24,0,0,1,171.43,130.47Z" fill="#ede3df"/><path d="M164.28,128.56a15.12,15.12,0,0,0-7.18-5.86c.32,3.28.66,6.64,2.09,9.62a10.67,10.67,0,0,0,4.87,5.1c3.24,1.54,2.63-2.58,2.13-4.5A15.43,15.43,0,0,0,164.28,128.56Z" fill="#ede3df"/><path d="M169.33,144.09a15.1,15.1,0,0,1,9.07-1.87c-1.8,2.76-3.66,5.58-6.3,7.56a10.71,10.71,0,0,1-6.68,2.27c-3.58-.14-1.13-3.51.2-5A15.06,15.06,0,0,1,169.33,144.09Z" fill="#ede3df"/><path d="M162.17,142.18a15.15,15.15,0,0,0-7.17-5.86c.32,3.28.66,6.64,2.08,9.62A10.72,10.72,0,0,0,162,151c3.25,1.54,2.63-2.58,2.13-4.5A14.88,14.88,0,0,0,162.17,142.18Z" fill="#ede3df"/><path d="M166.23,158a15.09,15.09,0,0,1,9.25.56c-2.46,2.19-5,4.43-8,5.65a10.71,10.71,0,0,1-7,.45c-3.43-1.07-.19-3.68,1.48-4.75A15.15,15.15,0,0,1,166.23,158Z" fill="#ede3df"/><path d="M159.82,154.33a15.14,15.14,0,0,0-5.4-7.53c-.54,3.26-1.09,6.59-.49,9.83a10.74,10.74,0,0,0,3.37,6.2c2.73,2.33,3.21-1.81,3.23-3.8A15,15,0,0,0,159.82,154.33Z" fill="#ede3df"/><path d="M159.64,169.47a15.14,15.14,0,0,1,9,2.13c-2.79,1.74-5.67,3.52-8.89,4.2a10.75,10.75,0,0,1-7-.75c-3.19-1.64.45-3.66,2.28-4.44A15.28,15.28,0,0,1,159.64,169.47Z" fill="#ede3df"/><path d="M154,164.73a15.11,15.11,0,0,0-4-8.34c-1.09,3.11-2.19,6.3-2.16,9.6a10.73,10.73,0,0,0,2.27,6.68c2.29,2.76,3.47-1.23,3.83-3.18A15.2,15.2,0,0,0,154,164.73Z" fill="#ede3df"/><path d="M64.33,174.82c-7.1-5.82-11.78-14.16-14.66-22.89s-4.08-17.88-5.27-27" fill="none" stroke="#ede3df" stroke-miterlimit="10"/><path d="M38.08,119.17a19.57,19.57,0,0,0-11.75-2.42c2.34,3.57,4.74,7.22,8.16,9.78a13.8,13.8,0,0,0,8.65,2.94c4.64-.18,1.47-4.54-.26-6.44A19.27,19.27,0,0,0,38.08,119.17Z" fill="#ede3df"/><path d="M47.34,116.7a19.67,19.67,0,0,1,9.3-7.59c-.42,4.25-.86,8.6-2.7,12.45a13.87,13.87,0,0,1-6.31,6.61c-4.2,2-3.41-3.34-2.76-5.83A19.6,19.6,0,0,1,47.34,116.7Z" fill="#ede3df"/><path d="M40.81,136.8a19.73,19.73,0,0,0-11.75-2.42c2.33,3.58,4.74,7.22,8.15,9.79a13.88,13.88,0,0,0,8.65,2.94c4.65-.18,1.47-4.54-.25-6.45A19.87,19.87,0,0,0,40.81,136.8Z" fill="#ede3df"/><path d="M50.07,134.33a19.62,19.62,0,0,1,9.29-7.58c-.41,4.25-.86,8.59-2.7,12.45a13.82,13.82,0,0,1-6.31,6.61c-4.19,2-3.4-3.35-2.75-5.83A19.51,19.51,0,0,1,50.07,134.33Z" fill="#ede3df"/><path d="M44.82,154.87a19.64,19.64,0,0,0-12,.72c3.19,2.84,6.46,5.74,10.42,7.32a13.82,13.82,0,0,0,9.12.58c4.44-1.38.24-4.76-1.92-6.15A19.3,19.3,0,0,0,44.82,154.87Z" fill="#ede3df"/><path d="M53.11,150.06a19.65,19.65,0,0,1,7-9.74c.7,4.21,1.41,8.52.64,12.72a13.92,13.92,0,0,1-4.37,8c-3.54,3-4.16-2.34-4.18-4.91A19.45,19.45,0,0,1,53.11,150.06Z" fill="#ede3df"/><path d="M53.35,169.68a19.5,19.5,0,0,0-11.67,2.75C45.3,174.69,49,177,53.2,177.87a13.79,13.79,0,0,0,9.08-1c4.14-2.12-.58-4.74-2.94-5.74A19.35,19.35,0,0,0,53.35,169.68Z" fill="#ede3df"/><path d="M60.71,163.53A19.58,19.58,0,0,1,66,152.74c1.41,4,2.84,8.16,2.79,12.43a13.85,13.85,0,0,1-2.93,8.65c-3,3.57-4.5-1.6-5-4.13A19.59,19.59,0,0,1,60.71,163.53Z" fill="#ede3df"/><circle cx="141.04" cy="70.62" r="18.89" fill="#ede3df"/><circle cx="141.04" cy="70.62" r="14.5" fill="#f7f2f0"/><path d="M151.48,7.06,152,5.38l.57,1.68a9.07,9.07,0,0,0,4.23,5h0a9.13,9.13,0,0,0-4.23,5L152,18.83l-.56-1.68a9.1,9.1,0,0,0-4.24-5h0A9.05,9.05,0,0,0,151.48,7.06Z" fill="#f6c25c"/><path d="M140.21,21.55l.44-1.3.45,1.3a7,7,0,0,0,3.3,3.94h0a7,7,0,0,0-3.3,3.94l-.45,1.31-.44-1.31a7,7,0,0,0-3.3-3.94h0A7,7,0,0,0,140.21,21.55Z" fill="#f6c25c"/><path d="M53.28,25.77l-.51-1.52-.52,1.52a8.25,8.25,0,0,1-3.85,4.6h0A8.25,8.25,0,0,1,52.25,35l.52,1.52L53.28,35a8.27,8.27,0,0,1,3.86-4.6h0A8.27,8.27,0,0,1,53.28,25.77Z" fill="#f6c25c"/><path d="M64.05,39.34l-.4-1.19-.41,1.19a6.36,6.36,0,0,1-3,3.59h0a6.43,6.43,0,0,1,3,3.59l.41,1.19.4-1.19a6.46,6.46,0,0,1,3-3.59h0A6.4,6.4,0,0,1,64.05,39.34Z" fill="#f6c25c"/><path d="M137.42,157.27H75.55s.6-10.19,1.47-23.74C78.39,111.63,80.41,81,81.54,70a18.47,18.47,0,0,1,.6-4.09,21.9,21.9,0,0,1,6-1.45c1-.14,8-1.91,8.67-2.55,1.38-1.27,18.45-.91,21.29.41,1.19.55,5.76,1.35,6.57,1.61,1.12.37,2.23.69,3.26,1h0c3.33.87,5.94,1.26,5.94,1.26l.1,2.46,2.48,64.8Z" fill="#e8d9cd"/><path d="M94.28,42.45a8,8,0,0,1-5.78-3.83,8.94,8.94,0,0,1-.59-1c-.81-1.74-1.19-7.84.74-9.32,1.35-1,2.4.39,2.9,1.33h0a7.06,7.06,0,0,1,.33.72Z" fill="#ca816d"/><path d="M94.57,42.55c-2.69-.19-5-2.27-6.07-3.93q-.14-.25-.24-.48c-.82-1.74-1.2-7.85.73-9.32,1.1-.83,2-.06,2.56.76h0a7.06,7.06,0,0,1,.33.72Z" fill="#b67158"/><path d="M88.16,33.12a3.24,3.24,0,0,0,.13,1.48c.59,2,2.24,3.56,3.83,5a6.2,6.2,0,0,1-.63-3.2c0-.38.08-.76.07-1.14C91.53,33.69,88.66,30.22,88.16,33.12Z" fill="#ca816d"/><path d="M92.91,40.13l-.09-.06-.26-.18a4,4,0,0,1-.78-.86,4.27,4.27,0,0,1-.67-1.61,4.21,4.21,0,0,1,.14-2.15,1.33,1.33,0,0,1,.1-.28l0-.06s0,0,0,0h0l0-.06,0-.11-.11-.23c-.16-.3-.32-.57-.49-.83a8.73,8.73,0,0,0-.52-.71,5,5,0,0,0-.5-.57.93.93,0,0,0-.51-.26.63.63,0,0,0-.42.1.43.43,0,0,0-.18.22.3.3,0,0,0,0,.1.29.29,0,0,1,0-.11.52.52,0,0,1,.15-.28.83.83,0,0,1,.49-.21,1.23,1.23,0,0,1,.67.23,4.2,4.2,0,0,1,.61.53,6,6,0,0,1,.61.69,7.9,7.9,0,0,1,.58.85l.13.23.06.13.08.17.06.12a.61.61,0,0,1,0,.12l-.07.18a.92.92,0,0,0-.09.23,4.4,4.4,0,0,0-.2,1.91A4.72,4.72,0,0,0,92,38.9a4.85,4.85,0,0,0,.6.93l.21.22Z" fill="#8c503d"/><path d="M119.57,42.45a8,8,0,0,0,5.78-3.83,7.7,7.7,0,0,0,.59-1c.82-1.74,1.2-7.84-.73-9.32-1.36-1-2.4.39-2.9,1.33h0a6.14,6.14,0,0,0-.34.72Z" fill="#ca816d"/><path d="M119.29,42.55c2.68-.19,5-2.27,6.06-3.93.1-.17.18-.33.25-.48.81-1.74,1.19-7.85-.74-9.32-1.09-.83-2-.06-2.55.76h0a6.14,6.14,0,0,0-.34.72Z" fill="#b67158"/><path d="M125.7,33.12a3.39,3.39,0,0,1-.13,1.48c-.59,2-2.25,3.56-3.83,5a6.41,6.41,0,0,0,.63-3.2,10.9,10.9,0,0,1-.07-1.14C122.32,33.69,125.19,30.22,125.7,33.12Z" fill="#ca816d"/><path d="M121,40.13l.09-.06.25-.18a4,4,0,0,0,.79-.86,4.44,4.44,0,0,0,.67-1.61,4.21,4.21,0,0,0-.14-2.15,2.33,2.33,0,0,0-.11-.28l0-.06h0l0-.06.06-.11a1.63,1.63,0,0,1,.11-.23,8.25,8.25,0,0,1,.49-.83,8.73,8.73,0,0,1,.51-.71,5,5,0,0,1,.51-.57.93.93,0,0,1,.5-.26.66.66,0,0,1,.43.1.48.48,0,0,1,.18.22.42.42,0,0,1,0,.1.29.29,0,0,0,0-.11.52.52,0,0,0-.15-.28.77.77,0,0,0-.48-.21,1.18,1.18,0,0,0-.67.23,4.26,4.26,0,0,0-.62.53,7.11,7.11,0,0,0-.61.69,7.86,7.86,0,0,0-.57.85l-.13.23-.06.13-.09.17-.05.12a.61.61,0,0,0,.05.12l.07.18a1.57,1.57,0,0,1,.09.23,4.4,4.4,0,0,1,.2,1.91,4.72,4.72,0,0,1-.45,1.55,5.33,5.33,0,0,1-.61.93,2.36,2.36,0,0,1-.21.22Z" fill="#8c503d"/><path d="M117.05,62c-1,1.21-2.83,5.4-11.65,4.75-3.46-.25-6.16-2.59-8.74-4.75a5.67,5.67,0,0,0,2.16-1.65,37.22,37.22,0,0,0,.37-4.23c.2-3.54.39-8,.39-8l14.61.14s-.15,5.55.17,9.13c.13,1.51.34,2.67.69,2.91A16.13,16.13,0,0,0,117.05,62Z" fill="#b67158"/><path d="M114.36,57.4a18,18,0,0,1-15.17-1.26c.2-3.54.39-8,.39-8l14.61.14S114,53.82,114.36,57.4Z" fill="#8c503d"/><path d="M121.77,33A65.28,65.28,0,0,1,120,41.12c-1.29,4.48-3,9.26-7.84,10.92S101.05,53.4,97.4,49.57c-2.35-2.46-3-6-3.91-9.12-3.15-11-5.34-28.07,7.61-33.68,4.61-2,10.54-2.41,14.91.42,3.82,2.48,5.53,6.69,6.09,11.06A52.42,52.42,0,0,1,121.77,33Z" fill="#ca816d"/><path d="M121.42,31.86a67.89,67.89,0,0,1-1.76,8.08c-1.27,4.47-3,9.26-7.68,10.92s-10.85,1.36-14.41-2.47c-2.3-2.47-2.95-6-3.83-9.12-3.08-11-5.23-28.08,7.45-33.69,4.51-2,10.32-2.41,14.59.42,3.75,2.48,5.42,6.7,6,11.07A53.56,53.56,0,0,1,121.42,31.86Z" fill="#b67158"/><path d="M105,36.65s3.11-1.63,3.54-2.29c0,0,1.16,1.4.39,2.31A7.16,7.16,0,0,1,105,36.65Z" fill="#ca816d"/><path d="M108.9,36.67a6.08,6.08,0,0,1-4.45.53,25.66,25.66,0,0,1,.76-9.91,19.47,19.47,0,0,0,.5,9.1A7.52,7.52,0,0,0,108.9,36.67Z" fill="#8c503d"/><path d="M98.53,36.09c-.26.69-2.13.61-4.19-.16s-3.52-2-3.27-2.63,2.14-.61,4.2.16S98.79,35.41,98.53,36.09Z" fill="#ca816d"/><path d="M123.43,33.17c.29.67-1.13,1.9-3.16,2.75s-3.91,1-4.19.31,1.14-1.91,3.17-2.75S123.15,32.49,123.43,33.17Z" fill="#ca816d"/><path d="M102.22,41.38a7.08,7.08,0,0,0,5.67,2.37,7.33,7.33,0,0,0,5.45-3.08A10.67,10.67,0,0,1,102.22,41.38Z" fill="#8c503d"/><path d="M101.63,22.87a1.79,1.79,0,0,0-1.25-2.09,4.12,4.12,0,0,0-2.65.22,13.21,13.21,0,0,0-4.24,2.44A17.27,17.27,0,0,1,101.63,22.87Z" fill="#444"/><path d="M119.37,23a7.67,7.67,0,0,0-2.45-2.26,4.76,4.76,0,0,0-3.24-.53,3.44,3.44,0,0,0-2.48,2.05A13.7,13.7,0,0,1,119.37,23Z" fill="#444"/><path d="M102.83,26.51a5.85,5.85,0,0,1-3.7,2.16,6.43,6.43,0,0,1-4.33-.81,4.76,4.76,0,0,0,4.93,2.32A3.67,3.67,0,0,0,102.83,26.51Z" fill="#2a2b2b"/><path d="M111.05,26.51a5.8,5.8,0,0,0,3.69,2.16,6.42,6.42,0,0,0,4.33-.81,4.74,4.74,0,0,1-4.92,2.32A3.65,3.65,0,0,1,111.05,26.51Z" fill="#2a2b2b"/><path d="M127.9,14.53a23.28,23.28,0,0,1-2.61,1V28.37l-3.55,3.49.11-15.54a22.52,22.52,0,0,1-5.53.26c-6.22-.51-9.6-7.32-9.6-7.32-.13,3.73-14.88,14.1-14.88,14.1l.75,8-4.12-2.29-.76-2.34a15.27,15.27,0,0,1-9-4.06c-.2-.19-.39-.38-.58-.58a6.68,6.68,0,0,0,3.63-3.31,24.67,24.67,0,0,0,1.68-4.66c1.28-4.16,2.95-8.7,6.7-11.07a19.27,19.27,0,0,1,17.7-1.64c10-5.26,15,7.84,15.78,9.38A9.51,9.51,0,0,0,126,13.21C127,14,127.9,14.53,127.9,14.53Z" fill="#1d1e1e"/><path d="M126,13.21a26.87,26.87,0,0,1-6.94.13c-5-.62-10-3.3-12.14-7.75C103.17,11,99,16.46,93.17,19.88a21.12,21.12,0,0,1-14.47,2.8c-.2-.19-.39-.38-.58-.58a6.7,6.7,0,0,0,3.62-3.29s0,0,0,0a24.67,24.67,0,0,0,1.68-4.66c1.28-4.16,2.95-8.7,6.7-11.07a19.27,19.27,0,0,1,17.7-1.64c6.73-3.53,11.16,1.22,13.6,5.17a42.47,42.47,0,0,1,2.18,4.21A9.51,9.51,0,0,0,126,13.21Z" fill="#444"/><path d="M112.71,3.3c.28,1.08.58,2.16.87,3.25a24.77,24.77,0,0,1-7.79-4.11,9.66,9.66,0,0,1-3.42,4.72c0-1.12,0-2.23,0-3.35a20.68,20.68,0,0,1-12.46,14,10.49,10.49,0,0,0,2-4.83,20.37,20.37,0,0,1-10.18,5.84s0,0,0,0a24.67,24.67,0,0,0,1.68-4.66c1.28-4.16,2.95-8.7,6.7-11.07a19.27,19.27,0,0,1,17.7-1.64c6.73-3.53,11.16,1.22,13.6,5.17A33.77,33.77,0,0,1,112.71,3.3Z" fill="#595959"/><path d="M72,153.85s37.14-6.38,76.79,2.91l-40.94,23.07Z" fill="#8c7a89"/><path d="M79.55,151.18c-5.13-2.79-10.66-3.35-16.35-2.84-4.79.43-12.57,2.92-15.54,7.38-2.45,3.66,1.42,10.11,3.45,13.33,2.37,3.75,5.76,6.55,9.25,9.2,6.75,5.13,47.25,18.38,65.64,22.7L137.18,183C120.2,173.14,84.51,153.87,79.55,151.18Z" fill="#a598a2"/><path d="M172.21,215.87a4.22,4.22,0,0,1-.21,1.31c0,.08-.06.15-.08.24-.24.68-.56,1.27-.71,1.22s-15.25-2-17.1-2.85l-14.79-8.18-7.79-4.29.94-2.34,1.34-3.34,1.23-3.07s.42-.43,1.12-1.06c2.15-1.93,6.88-5.83,9.12-4.52,2.93,1.71,6.39,13.43,7.57,13.73s7.37,1.13,8.28,1.8S172.13,215,172.21,215.87Z" fill="#b67158"/><path d="M171.92,217.42c-.24.68-.56,1.27-.71,1.22s-15.25-2-17.1-2.85l-14.79-8.18-7.79-4.29.94-2.34.76.6s19.57,11.48,22,12.37C157.1,214.66,167.54,216.61,171.92,217.42Z" fill="#ca816d"/><polygon points="140.94 188.08 125.87 180.16 115.53 198.21 132.16 204.38 140.94 188.08" fill="#a598a2"/><path d="M135.27,151.18c5.13-2.79,10.66-3.35,16.35-2.84,4.79.43,12.56,2.92,15.54,7.38,2.44,3.66-1.43,10.11-3.46,13.33-2.36,3.75-5.75,6.55-9.24,9.2-6.76,5.13-48.59,18.38-67,22.7l-7-16.52C97.48,174.53,130.31,153.87,135.27,151.18Z" fill="#bcacb8"/><path d="M85.66,198.61l-9,3.54s-8.49,14.56-11.19,15.61S62,222,59.77,222.62a1.82,1.82,0,0,1-.94-.06,6.17,6.17,0,0,1-1.75-1c-.27-.2-.55-.43-.83-.68A19.13,19.13,0,0,1,54,218.65c-.22-.26-.42-.51-.61-.77A14.9,14.9,0,0,1,52,215.62c-.14-.28-.27-.55-.37-.81h0a6,6,0,0,1-.29-1,9.3,9.3,0,0,1,.13-3.5v0a15.45,15.45,0,0,1,1-3.21c-.27.09-4.11,1.39-5.29-.92s-1-6.59,1.25-8.46a11.57,11.57,0,0,1,3.94-2.32s6.53,1.09,7.08-.14.83-4.83,2.34-5.68,10.55-1.74,10.55-1.74l1.44-.44,7.45-2.25,3.11,9.4,0,0Z" fill="#b67158"/><path d="M55.14,201.17c.11.22-.12.55-.37.38-1.12-.77-2.29-2.13-3.78-1.48-.56.25-.55.27-.66.8a8.18,8.18,0,0,0-.16,1.21c0,.54-.05,1.07-.07,1.61A6.51,6.51,0,0,0,55,202.22a.2.2,0,0,1,.27.26c-1.19,1.89-3.68,2.45-5.75,2.12a.53.53,0,0,1-.38-.49c-.18-1.41-.38-4.5,1.39-5.07A4.58,4.58,0,0,1,55.14,201.17Z" fill="#8c503d"/><path d="M58.61,218.05a12,12,0,0,1-2.36,2.88c.28.24.56.47.83.67a9.26,9.26,0,0,0,2.53-3,.6.6,0,0,0-.1-.7.5.5,0,0,0-.41-.17A.56.56,0,0,0,58.61,218.05Z" fill="#8c503d"/><path d="M56.17,215.1a21,21,0,0,1-1.71,2c-.33.3-.68.55-1,.82.19.26.39.51.61.77a8.09,8.09,0,0,0,2.93-3C57.21,215.2,56.54,214.66,56.17,215.1Z" fill="#8c503d"/><path d="M54.81,211.75c-.67.63-1.17,1.4-1.86,2a9.9,9.9,0,0,1-1.38,1h0a6.29,6.29,0,0,0,.37.8,8.26,8.26,0,0,0,3.58-3.32A.46.46,0,0,0,54.81,211.75Z" fill="#8c503d"/><path d="M85.66,198.61l-9,3.54s-8.49,14.56-11.19,15.61S62,222,59.77,222.62a1.82,1.82,0,0,1-.94-.06c.75-1.07,1.84-2.66,2.56-3.91,1.21-2.1,4-3.34,7.42-7s6.3-13.3,6.3-13.3l9.2-3.74,0,0Z" fill="#ca816d"/><polygon points="71.67 188.08 87.03 180.56 96.46 198.64 80.45 204.38 71.67 188.08" fill="#bcacb8"/><path d="M133.75,65.91s10.64,2.7,14.79,8.62,12.93,25,12.93,25l-25.76,8.55-1.64-40.64" fill="#e8d9cd"/><path d="M138.84,139l-1.93.74-1,.37-.69.22a5.62,5.62,0,0,1-.62.2l-1.43.52c-2.37.85-4.91,1.84-6.85,2.64s-3.3,1.37-3.3,1.37-8.59.35-13.85.28a21.73,21.73,0,0,1-3.63-.24c-.26-.07-.39-.15-.4-.26s.29-.46.81-.73a27.25,27.25,0,0,1,8.08-2.36,13.94,13.94,0,0,0,4.54-1.8c.46-.25.91-.51,1.36-.77,2.69-1.61,5.09-3.48,4.42-4.15s-2.26-.67-3.92-.53a32.24,32.24,0,0,0-4.12.66,4.08,4.08,0,0,1-3.55-1.39c-.58-.69,7.83-2.27,9.52-3.21.75-.43,2.82-.59,5.52-.28.44.05.92.13,1.41.2s1.55.17,2.51.25l1.36.14,1.44-.84,1.47-.85.37-.21a11,11,0,0,0-.16,3.48,13.49,13.49,0,0,0,1.34,4.55,3.32,3.32,0,0,0,.22.41A8.48,8.48,0,0,0,138.84,139Z" fill="#b77158"/><path d="M139,139l-1.22-1.52-.31-.37-4.34-5.36,2.88-2.5,12.83-11.08-5.15-12.67,13.56-4.54,1.22-.38,1.36-.43s5,13.5,5.65,17.51C167.14,127.66,139,139,139,139Z" fill="#b77158"/><path d="M139,139l-1.22-1.52a8.48,8.48,0,0,0,1.1,1.59l-1.93.74-1,.37-.69.22a5.62,5.62,0,0,1-.62.2l-1.43.52c-2.37.85-4.91,1.84-6.85,2.64s-3.3,1.37-3.3,1.37-8.59.35-13.85.28a21.73,21.73,0,0,1-3.63-.24c-.26-.07-.39-.15-.4-.26s.29-.46.81-.73c3.74-.06,11.65-.18,14.2,0,3.37.22,7.75-2.7,10.79-3.91.89-.35,3.37-1.58,6.51-3.16l.09,0c7.55-3.83,18.81-9.74,20.69-10.77,2.66-1.46,5.09-5.73,5.16-9l-4.94-16.73,1.36-.43s5,13.5,5.65,17.51C167.14,127.66,139,139,139,139Z" fill="#ca816d"/><path d="M82.14,65.91s-10.64,2.7-14.79,8.62-12.93,25-12.93,25l24.64,6.62,2.76-38.71" fill="#e8d9cd"/><path d="M113.07,144.11a.17.17,0,0,1-.06.11.67.67,0,0,1-.32.18,21.63,21.63,0,0,1-3.62.45c-5.24.39-13.84.54-13.84.54s-1.39-.5-3.38-1.18-4.57-1.52-7-2.23l-1.46-.42c-.22-.05-.42-.11-.62-.17s-.48-.11-.71-.18l-1-.31-2-.63a8.66,8.66,0,0,0,1-1.69,8.19,8.19,0,0,0,.36-.86,13.47,13.47,0,0,0,.86-4.14,10.19,10.19,0,0,0-.36-3.47l.4.2,1.51.76,1.49.75c.44-.07.89-.16,1.34-.22,1-.14,1.86-.26,2.49-.4l1.4-.28c2.67-.47,4.75-.42,5.53,0,1.74.83,10.21,1.92,9.69,2.63a4.14,4.14,0,0,1-3.47,1.61,29.92,29.92,0,0,0-4.15-.42c-1.66,0-3.27.11-3.87.76s1.87,2.43,4.66,3.87c.46.25.92.48,1.38.7a14.05,14.05,0,0,0,4.64,1.53C105.8,141.42,113.14,143.2,113.07,144.11Z" fill="#b77158"/><path d="M84.37,132.62l-3.72,5.18-.55.78-1.17,1.63s-28.78-9.64-27.68-19.73c.45-4,5.31-20.46,5.31-20.46l1.31.42,1,.32,14.24,3.82L67.89,120l13.47,10.31Z" fill="#b77158"/><path d="M121.75,108.31c-2.36,4.23-6.83,7-11.49,8.25a37,37,0,0,1-7.16,1.17c-1.11.09-5.65.89-6.23-.2a29.76,29.76,0,0,1,4.92-1.23c1.72-.44,3.43-.9,5.13-1.4a64.42,64.42,0,0,0,9.77-3.72c.88-.43,1.76-.88,2.61-1.37C119.89,109.48,121.42,108.9,121.75,108.31Z" fill="#d8c1b2"/><path d="M113,144.22a.67.67,0,0,1-.32.18,21.63,21.63,0,0,1-3.62.45c-5.24.39-13.84.54-13.84.54s-1.39-.5-3.38-1.18-4.57-1.52-7-2.23l-1.46-.42c-.22-.05-.42-.11-.62-.17s-.48-.11-.71-.18l-1-.31-2-.63a8.66,8.66,0,0,0,1-1.69l-1.17,1.63s-28.78-9.64-27.68-19.73c.45-4,5.31-20.46,5.31-20.46l1.31.42c-1.38,4.68-5.64,19.45-5,22.35.46,2.14,15.22,9.5,27.63,14.93l.19.08c7.58,3.31,14.24,5.88,16.21,6.07C101,144.27,109.69,144.25,113,144.22Z" fill="#ca816d"/></g></g></svg>