<svg xmlns="http://www.w3.org/2000/svg" viewBox="0 0 156.4 190.41"><g id="Layer_2" data-name="Layer 2"><g id="OBJECTS"><circle cx="77.66" cy="122.99" r="67.42" transform="translate(-59.56 171.23) rotate(-77.1)" fill="#19a89c" opacity="0.11"/><path d="M54.3,158c4.28-5.74,2.64-14.94-3.29-19-2.94-2-6.88-3-8.49-6.2s-.05-7.45-1.61-10.76c-2.57-5.48-11-4.42-15.6-8.31-2.26-1.9-3.39-4.81-5.27-7.08s-5.34-3.91-7.73-2.17c-2,1.48-2.06,4.65-.86,6.87s3.25,3.81,5,5.62c2.77,2.83,4.93,6.58,4.7,10.53-.13,2.36-1.1,4.8-.28,7,1.48,4,7.53,4.39,9.5,8.17S29,151.26,30,155.47c.65,2.63,3,4.57,5.54,5.47a24.82,24.82,0,0,0,8,1S52.32,160.62,54.3,158Z" fill="#19a89c"/><g opacity="0.74"><path d="M49.22,160.36a.34.34,0,0,1-.33-.26c-4.17-15.74-23.74-41-23.93-41.27a.35.35,0,0,1,.55-.43c.19.26,19.85,25.64,24.05,41.52a.35.35,0,0,1-.25.43Z" fill="#fff"/></g><path d="M102.5,159.44c-4.28-5.74-2.64-14.94,3.28-19,3-2,6.89-3,8.5-6.2s0-7.45,1.61-10.77c2.57-5.47,11-4.42,15.6-8.31,2.26-1.9,3.39-4.8,5.27-7.08s5.33-3.9,7.72-2.17c2,1.48,2.06,4.65.87,6.87s-3.26,3.82-5,5.62c-2.77,2.83-4.93,6.58-4.7,10.54.14,2.36,1.11,4.8.29,7-1.48,4-7.53,4.39-9.5,8.17s1.42,8.58.37,12.79c-.66,2.62-3,4.56-5.55,5.47a24.79,24.79,0,0,1-8,1S104.47,162.1,102.5,159.44Z" fill="#19a89c"/><g opacity="0.74"><path d="M107.57,161.84a.35.35,0,0,0,.34-.26c4.17-15.74,23.73-41,23.93-41.27a.35.35,0,0,0-.55-.43c-.2.25-19.85,25.64-24,41.52a.34.34,0,0,0,.24.42Z" fill="#fff"/></g><path d="M139.72,154.82l5,10.56c1,1.72,3.82,6.3,4,6.82a1.17,1.17,0,0,1-.3,1.17c-1.21,1.1-4.66-5.12-5.13-6l-.39.33c1.58,2.83,4.57,8.24,4.8,8.89a1.32,1.32,0,0,1-.32,1.44c-1.43,1.16-5.87-7.39-6.58-8.8l-.74.47c1.49,3.16,4.7,10,4.93,10.76a1.34,1.34,0,0,1-.38,1.51C143,183.11,138,171.24,138,171.24l-.09-.23-.81.44c1.06,3,3.23,9.15,3.36,9.85a1.33,1.33,0,0,1-.56,1.37c-1.74,1-5.1-10-5.1-10L131,167.09c-.5.23-.9.88-1,2.32-.16,2.78-.7,2.88-.7,2.88-2.52.29-1.81-4.35-1.93-8.51a10.65,10.65,0,0,1,2.22-6.57,2.28,2.28,0,0,1,.43-.52l-.59-5.11,7.88-3.53Z" fill="#f4b998"/><path d="M123.72,111.46a136.62,136.62,0,0,1,14.85,41l-7.41,3.37s-19.78-27.91-18.11-40.31C113.05,115.51,120.93,107.11,123.72,111.46Z" fill="#f4b998"/><path d="M95.31,73.14s19.68-6.55,31.52,47.59c0,0-6,7.24-10.36,4.82l-19-37S88,74.34,95.31,73.14Z" fill="#f4b998"/><path d="M104.41,102.13c5.15-1.68,10.14-3.77,15.15-5.82-11.23-27.5-24.25-23.17-24.25-23.17-7.35,1.2,2.13,15.42,2.13,15.42Z" fill="#f3714f" opacity="0.29"/><path d="M99.3,71s14.71.07,19.92,22.07l-20.48,7.51S80.19,78.67,99.3,71Z" fill="#ec9804"/><path d="M116.65,93.09a13.29,13.29,0,0,1-5.28-1.34,19.41,19.41,0,0,1-6.6-3.88,38.55,38.55,0,0,1-9.88-14.39c-11.4,9.08,3.85,27.09,3.85,27.09l20.48-7.51s0-.1,0-.16A10.72,10.72,0,0,1,116.65,93.09Z" fill="#f3714f" opacity="0.58"/><path d="M102.22,176.33s6.68-3.87,10.16,1.13,11.73,5.83,17,6.66,1.3,4.58-.87,5-27.93-2.31-27.93-2.31Z" fill="#faad93"/><path d="M68.74,60.06s-.31,7.86-.94,9.72,13.76,10.88,21.89,0l-.62-8.56S73.75,50.35,68.74,60.06Z" fill="#faad93"/><path d="M84.33,71.16a34.77,34.77,0,0,0,4.89-7.9l-.15-2S73.75,50.35,68.74,60.06c0,0,0,.25,0,.66C71.64,69.19,76.91,79.94,84.33,71.16Z" fill="#f3714f" opacity="0.43"/><path d="M109.16,163.74s-16.69,7.13-27.57,20.77H72.15S58,163.12,46.76,160.64c0,0,4-19.22,30.11-18.29C76.87,142.35,105.17,138.63,109.16,163.74Z" fill="#42d7d9"/><path d="M109.16,163.74s-16.69,7.13-27.57,20.77H72.15S58,163.12,46.76,160.64c0,0,4-19.22,30.11-18.29C76.87,142.35,105.17,138.63,109.16,163.74Z" fill="#19a89c" opacity="0.43"/><path d="M3.62,177.74s26,12.44,65.23,7.93a13.37,13.37,0,0,0,11-9.69s5.18-1.13-2.62-5.21c0,0-45.25-20.21-62.54-14.2C-.63,161.9-3,173.82,3.62,177.74Z" fill="#42d7d9"/><path d="M19,178c-6.93-1.52-14-4.1-18.92-9-.52,3.67.79,7.1,3.51,8.72,0,0,26,12.44,65.23,7.93a13.62,13.62,0,0,0,3.93-1.21C54.7,185.1,37.11,182,19,178Z" fill="#19a89c" opacity="0.43"/><path d="M140.14,152.66C123.91,151.52,83.84,169,83.84,169c-3.34,2.18-6.74,2.82-7,4.82C74,175,71.06,176.21,68,177.58l1.68,10.48s27.53.85,50.2-3.91c21.31-4,33.68-11.44,33.68-11.44C159.64,168.2,156.38,153.81,140.14,152.66Z" fill="#42d7d9"/><path d="M143.82,174.24c-7.19,2.89-15,4.46-22.6,5.72-17.31,2.87-34.81,3.42-52.32,3.49l.74,4.61s27.53.85,50.2-3.91c21.31-4,33.68-11.44,33.68-11.44a7.31,7.31,0,0,0,2.79-5C152.65,170.64,148,172.55,143.82,174.24Z" fill="#19a89c" opacity="0.43"/><path d="M68,177.58s-6.68-3.86-10.16,1.13-11.74,5.83-16.95,6.66-1.3,4.58.87,5,27.92-2.31,27.92-2.31Z" fill="#faad93"/><path d="M67.8,69.78l-13.8,0-4.17,84.53s41.89,7.7,56.58-.37L100,71,89.69,69.78S82.91,79.9,67.8,69.78Z" fill="#ec9804"/><path d="M57,113.87a20.52,20.52,0,0,0-5.14-1.53l-1.52,30.87c3.75,0,7.72-.59,9.45-3.34s-.32-5.77-1.08-8.57a14.1,14.1,0,0,1,.09-7.38C59.73,120.25,61.38,116.17,57,113.87Z" fill="#f3714f" opacity="0.58"/><path d="M69.25,84c1.18,3.41,3.32,3.64,6.19,2.19,2.23-1.12,4.73-1.9,7.17-.9s3.45,4.14,6.38,2.59c2.15-1.14,3.47-4.32,4.3-6.41a36.91,36.91,0,0,0,2.16-11l-5.76-.7s-6.41,9.57-20.66.79C68.59,75,67.8,79.86,69.25,84Z" fill="#f3714f" opacity="0.58"/><path d="M98.72,120c-4.38,4.09-1.69,9.53-3.18,14.64-1.19,4.05-4.49,5.88-7.42,8.54-5.08,4.62-3,10.12.84,14.44,7-.29,13.29-1.31,17.45-3.6l-2.88-37A15.94,15.94,0,0,0,98.72,120Z" fill="#f3714f" opacity="0.58"/><g opacity="0.6"><path d="M80.07,78c-8.86,0-15.5-6.54-15.78-6.82a.5.5,0,0,1,0-.68.48.48,0,0,1,.68,0C65,70.53,71.62,77,80.07,77a14.36,14.36,0,0,0,12.1-6,.48.48,0,0,1,.82.5A15.1,15.1,0,0,1,80.07,78Z" fill="#2d294c"/></g><path d="M122.05,161.79l-.19-.95C113,162.41,86.66,170.91,74.31,175l.13-.47c-1.64-.39-40.18-9.59-51.41-9.59v1c10.26,0,44.9,8.08,50.42,9.38l-3.21,1.07-.6.08v.11l-1.86.62.34.91,1.66-.56,1.59,11,1-.13-1.61-11.2C80.17,174,112.16,163.54,122.05,161.79Z" fill="#2d294c" opacity="0.53"/><g opacity="0.58"><path d="M74,105.5c-.24-2.17-.21-4.54,1-6.33s4.15-2.54,5.66-1a9.51,9.51,0,0,1,1.35,2.54,2.69,2.69,0,0,0,2.12,1.74,2.92,2.92,0,0,0,1.25-.34c1.58-.71,3.23-1.68,4.94-1.37A4.29,4.29,0,0,1,93.61,105,6.74,6.74,0,0,1,91,110a16.2,16.2,0,0,0-3,2.58C87,114,86.91,116,86.66,117.75s-.9,3.75-2.53,4.52a3.21,3.21,0,0,1-3.44-.5c-1.16-1-1.48-2.86-2.82-3.66s-2.94-.24-4.46-.23c-2.17,0-4.58-1.77-4.13-3.89.5-2.42,4.08-3.22,4.5-5.65Z" fill="#f3714f"/></g><g opacity="0.58"><path d="M67.46,140.78a6.8,6.8,0,0,1,3-3.89c1.54-.73,3.87-.13,4.37,1.52a6.94,6.94,0,0,1,0,2.23,2.16,2.16,0,0,0,.88,2,2.55,2.55,0,0,0,1,.25c1.39.12,2.91.09,4,1a3.32,3.32,0,0,1,.77,4.1A5.12,5.12,0,0,1,78,150.31a13,13,0,0,0-3.07.61c-1.28.58-2,1.85-2.85,3s-2,2.19-3.44,2.1a2.72,2.72,0,0,1-2.27-1.65c-.45-1.14,0-2.5-.68-3.55s-2-1.29-3.1-1.86C61,148.1,59.92,146,61,144.71c1.23-1.44,4.07-.62,5.25-2.11Z" fill="#f3714f"/></g><g opacity="0.6"><path d="M69.28,120.44a.48.48,0,0,1,.35-.89,18.62,18.62,0,0,0,18.56-6.09.49.49,0,0,1,.68,0,.48.48,0,0,1,0,.68,19.58,19.58,0,0,1-19.57,6.38Z" fill="#2d294c" opacity="0.63"/></g><g opacity="0.6"><path d="M84.47,156.09A241.26,241.26,0,0,1,50,153a.48.48,0,0,1-.4-.55.48.48,0,0,1,.55-.4c.43.07,42.54,7,55.58-.36a.48.48,0,1,1,.47.84C101.43,155.22,93.19,156.09,84.47,156.09Z" fill="#2d294c"/></g><g opacity="0.63"><path d="M104.49,183.12a.51.51,0,0,1-.44-.28c-2.74-6,4.2-13,4.49-13.29a.5.5,0,0,1,.68,0,.48.48,0,0,1,0,.68c-.06.07-6.76,6.87-4.29,12.2a.48.48,0,0,1-.24.64A.46.46,0,0,1,104.49,183.12Z" fill="#2d294c"/></g><g opacity="0.63"><path d="M107.57,183.12a.48.48,0,0,1-.48-.44,13.14,13.14,0,0,1,2.73-8.69.48.48,0,0,1,.68-.08.47.47,0,0,1,.08.67,12.39,12.39,0,0,0-2.54,8,.47.47,0,0,1-.43.52Z" fill="#2d294c"/></g><path d="M26.29,158.71l-3.06,11.2c-.73,1.87-2.66,6.84-2.75,7.38a1.13,1.13,0,0,0,.52,1.07c1.41.83,3.71-5.86,4-6.8a4.79,4.79,0,0,0,.45.25c-1.06,3.05-3,8.87-3.16,9.54a1.29,1.29,0,0,0,.6,1.34c1.65.84,4.5-8.29,4.95-9.8l.83.32c-.9,3.34-2.84,10.58-2.94,11.37a1.32,1.32,0,0,0,.66,1.39c1.87.78,4.69-11.69,4.69-11.69s0-.16.05-.24l.89.27c-.5,3.1-1.53,9.49-1.53,10.19a1.3,1.3,0,0,0,.82,1.22c1.93.59,3.24-10.72,3.24-10.72l2.8-6.09c.54.12,1.07.67,1.42,2.05.68,2.67,1.24,2.66,1.24,2.66,2.59-.21,1-4.57.35-8.62a10.33,10.33,0,0,0-3.45-5.93,2.35,2.35,0,0,0-.53-.43l-.36-5.06-8.57-1.9Z" fill="#f4b998"/><path d="M34.23,113.62A132.32,132.32,0,0,0,27,156.19L35.05,158s14.64-30.86,10.64-42.54C45.69,115.49,36.22,108.87,34.23,113.62Z" fill="#f4b998"/><path d="M55.57,71s-21-2.55-22.73,52.18c0,0,7.4,5.85,11.3,2.67l12.17-39.5S63.16,70.77,55.57,71Z" fill="#f4b998"/><path d="M39.21,86.08a67.68,67.68,0,0,0-3.54,11.61,102.68,102.68,0,0,1,15.17,6.43l3.51-11.37A107,107,0,0,1,39.21,86.08Z" fill="#f3714f" opacity="0.29"/><path d="M54,69.82s-14.69.71-19,22.91l20.79,6.61S73.42,76.67,54,69.82Z" fill="#ec9804"/><g opacity="0.43"><polygon points="119.28 90.83 119 89.91 102.99 94.94 102.62 80.44 101.65 80.46 102.13 98.88 103.09 98.86 103.01 95.94 119.28 90.83" fill="#2d294c"/><polygon points="53.46 94.58 36.15 88.97 35.85 89.88 53.15 95.49 52.55 97.3 53.46 97.61 57.71 84.85 56.8 84.55 53.46 94.58" fill="#2d294c"/></g><g opacity="0.83"><rect x="37.64" y="118.14" width="0.96" height="5.39" transform="translate(-88.49 125.82) rotate(-74.74)" fill="#f3714f"/></g><g opacity="0.83"><rect x="116.92" y="119.18" width="6.34" height="0.96" transform="translate(-40.83 66.34) rotate(-26.57)" fill="#f3714f"/></g><path d="M99.17,28.78c0-11.94-8.8-21.62-19.66-21.62S59.84,16.84,59.84,28.78c0,.21,0,.43,0,.64,0,.06-.06.11-.08.16S57.4,63.49,79.62,65.34v.08l.61,0,.65,0v-.09C98.1,63.66,99.09,38.92,99,31.6A23.86,23.86,0,0,0,99.17,28.78Z" fill="#faad93"/><path d="M61.66,37s-4.72-5.9-5.5-1.18,2.68,16.47,8.42,12Z" fill="#faad93"/><path d="M61,39.5s-2.26-3.46-2.93-.94.58,9.11,3.94,7Z" fill="#f3714f" opacity="0.43"/><path d="M97.1,36.64s4.72-5.9,5.51-1.18-2.68,16.47-8.42,12Z" fill="#faad93"/><path d="M97.56,39s2.16-3.51,2.9-1-.35,9.11-3.76,7.06Z" fill="#f3714f" opacity="0.43"/><path d="M59.3,34.67s2.24,3.29,2.1,6S62.84,35.46,63.24,30s1.57-12.19,5.11-9.83,9,6.29,13.37,4.33l-2.36-2a47.43,47.43,0,0,0,9,1.57c5.11.4.39-2.36.39-2.36s8.26,2,8.26,5.51.39,13,.39,13,1.18-6.29,3.54-6.68,2.76-6.29,2-10.22S97.44-2.29,72.28,4c0,0-5.51,0-8.65-2.75S53.8.46,57.73,5.57,53.8.85,51.05,2.43,53,13,56.55,14.62,56.55,30.74,59.3,34.67Z" fill="#2d294c"/><path d="M64.84,34.2s4.48-4,9.77-2.08c0,0,1.13,1.74-.16,2.07s-7.58-.1-8.9,1.46Z" fill="#2d294c"/><path d="M70.84,43.41a7.26,7.26,0,0,1-3.28-1.24.38.38,0,0,1-.06-.57.48.48,0,0,1,.63-.05,5.47,5.47,0,0,0,5.7.47.48.48,0,0,1,.62.15.37.37,0,0,1-.14.55A5.84,5.84,0,0,1,70.84,43.41Z" fill="#2d294c"/><path d="M88.3,44.14A7.26,7.26,0,0,1,85,42.9a.39.39,0,0,1-.07-.57.5.5,0,0,1,.64,0,5.47,5.47,0,0,0,5.7.47.48.48,0,0,1,.62.15.37.37,0,0,1-.14.55A5.84,5.84,0,0,1,88.3,44.14Z" fill="#2d294c"/><path d="M94.62,34.2s-4.48-4-9.77-2.08c0,0-1.13,1.74.16,2.07s7.57-.1,8.9,1.46Z" fill="#2d294c"/><path d="M77.92,49.38c.91,0,1.7.13,2.48.17a6.42,6.42,0,0,0,2.36-.17,2,2,0,0,1-1.05.89,3.27,3.27,0,0,1-1.38.18,3.88,3.88,0,0,1-1.3-.32A3.41,3.41,0,0,1,77.92,49.38Z" fill="#f3714f"/><path d="M81.12,57.67a15.08,15.08,0,0,1-5.69-1.32.34.34,0,0,1-.16-.45.35.35,0,0,1,.45-.17c.06,0,6,2.75,9.17.05a.34.34,0,0,1,.44.52A6.35,6.35,0,0,1,81.12,57.67Z" fill="#2d294c"/><path d="M69.3,15c1.5,1.08,2.87,2.22,4.29,3.3s2.87,2.14,4.3,3.3A15.53,15.53,0,0,1,73,19,15.73,15.73,0,0,1,69.3,15Z" fill="#fff" opacity="0.3"/><path d="M75.29,13.5c1.7,1.35,3.32,2.69,5,3.91s3.5,2.33,5.33,3.5a17.07,17.07,0,0,1-5.86-2.77A17.35,17.35,0,0,1,75.29,13.5Z" fill="#fff" opacity="0.3"/><path d="M99.43,30.52c-.13-1.2-.3-2.37-.51-3.52-.12-.58-.22-1.15-.37-1.72A7.41,7.41,0,0,0,98,23.69a4.8,4.8,0,0,0-2.47-2A12.44,12.44,0,0,1,94,20.76a3.7,3.7,0,0,1-1.22-1.36A7.55,7.55,0,0,0,95.85,21a7.83,7.83,0,0,1,1.68.81,3.83,3.83,0,0,1,1.31,1.48,11.26,11.26,0,0,1,.78,3.62A14.11,14.11,0,0,1,99.43,30.52Z" fill="#fff" opacity="0.3"/><path d="M93.85,14.35a13.46,13.46,0,0,1,2.61,1.56,13,13,0,0,1,2.27,2,7,7,0,0,1-2.81-1.29A7,7,0,0,1,93.85,14.35Z" fill="#fff" opacity="0.3"/><path d="M62.92,18c-.15,1.9-.41,3.73-.59,5.57s-.33,3.68-.58,5.56a16.33,16.33,0,0,1-.32-5.66A16.61,16.61,0,0,1,62.92,18Z" fill="#fff" opacity="0.3"/><path d="M60.32,2.88A10.51,10.51,0,0,0,62.64,6.1,10.88,10.88,0,0,0,66,8.22a5.12,5.12,0,0,1-4-1.46A5.12,5.12,0,0,1,60.32,2.88Z" fill="#fff" opacity="0.3"/><path d="M53.29,6.31a9.28,9.28,0,0,0,2.42,3.33,9.32,9.32,0,0,0,3.64,1.94,4.28,4.28,0,0,1-2.24-.13,5.85,5.85,0,0,1-2-1.12A5.07,5.07,0,0,1,53.29,6.31Z" fill="#fff" opacity="0.3"/></g></g></svg>