<svg xmlns="http://www.w3.org/2000/svg" viewBox="0 0 156.4 191.1"><g id="Layer_2" data-name="Layer 2"><g id="OBJECTS"><circle cx="78.2" cy="120.12" r="67.42" transform="translate(-62.03 90.48) rotate(-45)" fill="#19a89c" opacity="0.11"/><path d="M58.27,158.86c4.28-5.74,2.64-14.94-3.29-19-2.94-2-6.88-3-8.49-6.2s-.05-7.45-1.61-10.76c-2.57-5.48-11-4.43-15.6-8.31-2.26-1.9-3.39-4.81-5.27-7.08s-5.34-3.91-7.73-2.17c-2,1.48-2.06,4.64-.86,6.87s3.25,3.81,5,5.61c2.77,2.84,4.93,6.59,4.7,10.54-.13,2.36-1.1,4.8-.28,7,1.48,4,7.53,4.39,9.5,8.17s-1.42,8.57-.37,12.78c.65,2.63,3,4.57,5.54,5.47a24.82,24.82,0,0,0,8,1S56.29,161.52,58.27,158.86Z" fill="#19a89c"/><g opacity="0.74"><path d="M53.19,161.26a.34.34,0,0,1-.33-.26c-4.17-15.74-23.74-41-23.93-41.27a.35.35,0,0,1,.55-.43c.19.26,19.85,25.64,24.05,41.52a.35.35,0,0,1-.25.43Z" fill="#fff"/></g><path d="M98.88,157.11c-4.28-5.75-2.64-15,3.29-19,2.94-2,6.88-3,8.49-6.2s0-7.45,1.61-10.76c2.57-5.47,11-4.42,15.6-8.31,2.26-1.9,3.39-4.8,5.27-7.08s5.34-3.91,7.73-2.17c2,1.48,2.06,4.65.87,6.87s-3.26,3.81-5,5.62c-2.77,2.83-4.93,6.58-4.7,10.53.13,2.37,1.1,4.8.28,7-1.48,4-7.53,4.39-9.5,8.17s1.42,8.57.37,12.78c-.65,2.63-3,4.57-5.54,5.48a25.09,25.09,0,0,1-8,1S100.86,159.76,98.88,157.11Z" fill="#19a89c"/><g opacity="0.74"><path d="M104,159.5a.34.34,0,0,0,.33-.26c4.17-15.74,23.74-41,23.93-41.27a.35.35,0,0,0-.55-.43c-.19.26-19.84,25.65-24,41.52a.35.35,0,0,0,.25.43Z" fill="#fff"/></g><path d="M16.39,72.58A193.43,193.43,0,0,0,63.14,48.74l-3.37-7.62S19.86,51,10.87,62.28C10.87,62.28,10.42,74.31,16.39,72.58Z" fill="#faad93"/><path d="M59.77,41.12l-2.09.55a32.65,32.65,0,0,1-5.4,8.07c-5.28,5.76-12.34,9.67-18.79,14-1.27,1.21-2.55,2.42-3.81,3.64A200.77,200.77,0,0,0,63.14,48.74Z" fill="#f3714f" opacity="0.36"/><path d="M69,81.88S59.63,100.93,13.26,72c0,0-.79-9.47,4-11L56.71,72.73S73.42,75.63,69,81.88Z" fill="#faad93"/><path d="M23.76,65.65a19.29,19.29,0,0,1,5-.66,23.63,23.63,0,0,1,2.52.13,11.88,11.88,0,0,1,2.49.53,44.69,44.69,0,0,1-5,.3A30.29,30.29,0,0,1,23.76,65.65Z" fill="#f3714f"/><path d="M139.29,72.59A191,191,0,0,1,92.86,48.88l3.37-7.61s39.67,9.79,48.58,21C144.81,62.28,145.23,74.31,139.29,72.59Z" fill="#faad93"/><path d="M124.21,66.58c-4.9-4.36-9.92-8.61-14.87-12.91-4.42-3.85-9.75-6.68-13.73-11l-2.75,6.22a197.71,197.71,0,0,0,31.39,17.74Z" fill="#f3714f" opacity="0.36"/><path d="M86.63,81.88S96,100.93,142.41,72c0,0,.79-9.47-4-11L99,72.73S82.25,75.63,86.63,81.88Z" fill="#faad93"/><path d="M121.36,65.65a11,11,0,0,1,2.54-.86,15,15,0,0,1,2.67-.35,12.9,12.9,0,0,1,2.7.22,7.26,7.26,0,0,1,2.52,1c-.9-.12-1.75-.2-2.61-.25s-1.72,0-2.58,0C124.88,65.45,123.16,65.61,121.36,65.65Z" fill="#f3714f"/><path d="M102.22,177s6.68-3.87,10.16,1.13,11.73,5.83,17,6.66,1.3,4.58-.87,5-27.93-2.31-27.93-2.31Z" fill="#faad93"/><path d="M68.74,60.75s-.31,7.86-.94,9.72,13.76,10.88,21.89,0l-.62-8.56S73.75,51,68.74,60.75Z" fill="#faad93"/><path d="M84.33,71.85A34.93,34.93,0,0,0,89.22,64l-.15-2.05S73.75,51,68.74,60.75c0,0,0,.25,0,.66C71.64,69.88,76.91,80.63,84.33,71.85Z" fill="#f3714f" opacity="0.43"/><path d="M107.48,163.34s-15.79,6.77-26.09,19.73H72.46s-13.38-20.32-24-22.67c0,0,3.78-18.25,28.5-17.37C76.93,143,103.7,139.5,107.48,163.34Z" fill="#42d7d9"/><path d="M107.48,163.34s-15.79,6.77-26.09,19.73H72.46s-13.38-20.32-24-22.67c0,0,3.78-18.25,28.5-17.37C76.93,143,103.7,139.5,107.48,163.34Z" fill="#19a89c" opacity="0.43"/><path d="M3.62,178.44s26,12.43,65.23,7.92a13.37,13.37,0,0,0,11-9.69s5.18-1.13-2.62-5.21c0,0-45.25-20.21-62.54-14.2C-.63,162.59-3,174.51,3.62,178.44Z" fill="#42d7d9"/><path d="M19,178.71c-6.93-1.52-14-4.1-18.92-9-.52,3.66.79,7.1,3.51,8.72,0,0,26,12.43,65.23,7.92a13.62,13.62,0,0,0,3.93-1.21C54.7,185.79,37.11,182.68,19,178.71Z" fill="#19a89c" opacity="0.43"/><path d="M140.14,153.35c-16.23-1.14-56.3,16.36-56.3,16.36-3.34,2.18-6.74,2.82-7,4.82-2.83,1.13-5.78,2.37-8.88,3.74l1.68,10.48s27.53.85,50.2-3.91c21.31-4,33.68-11.44,33.68-11.44C159.64,168.89,156.38,154.5,140.14,153.35Z" fill="#42d7d9"/><path d="M143.82,174.93c-7.19,2.89-15,4.46-22.6,5.73-17.31,2.86-34.81,3.41-52.32,3.48l.74,4.61s27.53.85,50.2-3.91c21.31-4,33.68-11.44,33.68-11.44a7.31,7.31,0,0,0,2.79-5C152.65,171.33,148,173.24,143.82,174.93Z" fill="#19a89c" opacity="0.43"/><path d="M68,178.27s-6.68-3.86-10.16,1.13-11.74,5.83-16.95,6.66-1.3,4.58.87,5,27.92-2.31,27.92-2.31Z" fill="#faad93"/><path d="M67.8,70.47l-13.8,0L49.83,155s41.89,7.7,56.58-.37L100,71.73,89.69,70.47S82.91,80.59,67.8,70.47Z" fill="#ec9804"/><path d="M57,114.56A20.52,20.52,0,0,0,51.9,113L50.38,143.9c3.75,0,7.72-.59,9.45-3.34s-.32-5.76-1.08-8.57a14.07,14.07,0,0,1,.09-7.37C59.73,120.94,61.38,116.87,57,114.56Z" fill="#f3714f" opacity="0.58"/><path d="M69.25,84.72c1.18,3.41,3.32,3.64,6.19,2.19,2.23-1.12,4.73-1.9,7.17-.9S86.06,90.15,89,88.6c2.15-1.14,3.47-4.32,4.3-6.41a36.9,36.9,0,0,0,2.16-11l-5.76-.71S83.28,80,69,71.26C68.59,75.71,67.8,80.55,69.25,84.72Z" fill="#f3714f" opacity="0.58"/><path d="M98.72,120.66c-4.38,4.08-1.69,9.52-3.18,14.63-1.19,4.05-4.49,5.88-7.42,8.54-5.08,4.62-3,10.12.84,14.44,7-.29,13.29-1.31,17.45-3.6l-2.88-37A16,16,0,0,0,98.72,120.66Z" fill="#f3714f" opacity="0.58"/><path d="M58.38,70.24a99.73,99.73,0,0,1-10.85-1.67c-2.92-.83-4.59,24.2-4.59,24.2L55,98.19S65.05,89,58.38,70.24Z" fill="#ec9804"/><path d="M96.54,71.49a101.59,101.59,0,0,0,10.85-1.66C110.31,69,112,94,112,94l-12.1,5.42S89.87,90.26,96.54,71.49Z" fill="#ec9804"/><g opacity="0.6"><path d="M46.28,94.5h-.06a.47.47,0,0,1-.41-.54l3.33-24.19a.49.49,0,0,1,.54-.41.47.47,0,0,1,.41.54L46.76,94.08A.49.49,0,0,1,46.28,94.5Z" fill="#2d294c"/></g><g opacity="0.6"><path d="M109.26,94.91a.48.48,0,0,1-.47-.39l-4.17-23.36a.48.48,0,0,1,.39-.56.49.49,0,0,1,.56.39l4.17,23.36a.49.49,0,0,1-.39.56Z" fill="#2d294c"/></g><g opacity="0.6"><path d="M80.07,78.65c-8.86,0-15.5-6.54-15.78-6.82a.48.48,0,0,1,.68-.68c.07.07,6.65,6.54,15.1,6.54a14.36,14.36,0,0,0,12.1-6,.48.48,0,0,1,.66-.16.48.48,0,0,1,.16.66A15.1,15.1,0,0,1,80.07,78.65Z" fill="#2d294c"/></g><path d="M122.05,162.48l-.19-.95c-8.85,1.57-35.2,10.07-47.55,14.13l.13-.47C72.8,174.8,34.26,165.6,23,165.6v1c10.26,0,44.9,8.08,50.42,9.39L70.24,177l-.6.08v.11l-1.86.62.34.91,1.66-.56,1.59,11,1-.13-1.61-11.2C80.17,174.73,112.16,164.23,122.05,162.48Z" fill="#2d294c" opacity="0.53"/><g opacity="0.58"><path d="M74,106.19c-.24-2.17-.21-4.54,1-6.33s4.15-2.54,5.66-1a9.66,9.66,0,0,1,1.35,2.54,2.69,2.69,0,0,0,2.12,1.74,2.92,2.92,0,0,0,1.25-.34c1.58-.71,3.23-1.68,4.94-1.37a4.29,4.29,0,0,1,3.23,4.24,6.74,6.74,0,0,1-2.57,5,15.88,15.88,0,0,0-3,2.59c-1.06,1.45-1.13,3.37-1.38,5.16s-.9,3.75-2.53,4.52a3.19,3.19,0,0,1-3.44-.5c-1.16-1-1.48-2.86-2.82-3.66s-2.94-.24-4.46-.23c-2.17,0-4.58-1.77-4.13-3.89.5-2.42,4.08-3.22,4.5-5.65Z" fill="#f3714f"/></g><g opacity="0.58"><path d="M67.46,141.47a6.8,6.8,0,0,1,3-3.89c1.54-.73,3.87-.13,4.37,1.52a6.94,6.94,0,0,1,0,2.23,2.16,2.16,0,0,0,.88,2,2.55,2.55,0,0,0,1,.25c1.39.12,2.91.09,4,1a3.32,3.32,0,0,1,.77,4.1A5.12,5.12,0,0,1,78,151a13,13,0,0,0-3.07.61c-1.28.58-2,1.85-2.85,3s-2,2.19-3.44,2.1A2.72,2.72,0,0,1,66.32,155c-.45-1.14,0-2.5-.68-3.55s-2-1.29-3.1-1.86c-1.55-.82-2.62-2.94-1.53-4.21,1.23-1.44,4.07-.62,5.25-2.1Z" fill="#f3714f"/></g><g opacity="0.6"><path d="M71.72,125a.49.49,0,0,1-.47-.41.48.48,0,0,1,.4-.55,18.63,18.63,0,0,0,14.21-13.42.48.48,0,0,1,.59-.33.48.48,0,0,1,.34.59,19.59,19.59,0,0,1-15,14.11Z" fill="#2d294c"/></g><g opacity="0.6"><path d="M84.47,156.78A241.26,241.26,0,0,1,50,153.72a.48.48,0,0,1-.4-.55.48.48,0,0,1,.55-.4c.43.07,42.54,7,55.58-.36a.48.48,0,1,1,.47.84C101.43,155.91,93.19,156.78,84.47,156.78Z" fill="#2d294c"/></g><path d="M98.48,28.78c0-11.94-8.81-21.62-19.67-21.62S59.14,16.84,59.14,28.78c0,.21,0,.43,0,.64l-.08.16S56.7,63.49,78.93,65.34v.08l.6,0,.66,0v-.09C97.4,63.66,98.39,38.92,98.3,31.6A23.85,23.85,0,0,0,98.48,28.78Z" fill="#faad93"/><path d="M61,37s-4.71-5.9-5.5-1.18,2.68,16.47,8.42,12Z" fill="#faad93"/><path d="M60.32,39.5s-2.25-3.46-2.93-.94.58,9.11,3.94,7Z" fill="#f3714f" opacity="0.43"/><path d="M96.4,36.64s4.72-5.9,5.51-1.18-2.68,16.47-8.42,12Z" fill="#faad93"/><path d="M96.86,39s2.16-3.51,2.9-1S99.41,47.1,96,45.05Z" fill="#f3714f" opacity="0.43"/><path d="M58.6,34.67s2.24,3.29,2.1,6S62.14,35.46,62.54,30s1.57-12.19,5.11-9.83,9,6.29,13.37,4.33l-2.36-2a47.43,47.43,0,0,0,9,1.57c5.11.4.4-2.36.4-2.36s8.25,2,8.25,5.51.4,13,.4,13,1.18-6.29,3.53-6.68,2.76-6.29,2-10.22S96.75-2.29,71.58,4c0,0-5.5,0-8.65-2.75S53.1.46,57,5.57,53.1.85,50.35,2.43s2,10.61,5.5,12.19S55.85,30.74,58.6,34.67Z" fill="#2d294c"/><path d="M64.14,34.2s4.48-4,9.77-2.08c0,0,1.13,1.74-.16,2.07s-7.58-.1-8.9,1.46Z" fill="#2d294c"/><path d="M70.14,43.41a7.26,7.26,0,0,1-3.28-1.24.38.38,0,0,1-.06-.57.48.48,0,0,1,.63-.05,5.49,5.49,0,0,0,5.71.47.47.47,0,0,1,.61.15.37.37,0,0,1-.14.55A5.84,5.84,0,0,1,70.14,43.41Z" fill="#2d294c"/><path d="M87.6,44.14a7.26,7.26,0,0,1-3.28-1.24.38.38,0,0,1-.06-.57.48.48,0,0,1,.63,0,5.47,5.47,0,0,0,5.7.47.48.48,0,0,1,.62.15.37.37,0,0,1-.14.55A5.84,5.84,0,0,1,87.6,44.14Z" fill="#2d294c"/><path d="M93.92,34.2s-4.48-4-9.77-2.08c0,0-1.13,1.74.16,2.07s7.58-.1,8.9,1.46Z" fill="#2d294c"/><path d="M77.23,49.38c.91,0,1.69.13,2.47.17a6.42,6.42,0,0,0,2.36-.17,2,2,0,0,1-1,.89,3.25,3.25,0,0,1-1.37.18,3.88,3.88,0,0,1-1.31-.32A3.26,3.26,0,0,1,77.23,49.38Z" fill="#f3714f"/><path d="M80.42,57.67a15.08,15.08,0,0,1-5.69-1.32.34.34,0,0,1-.16-.45.35.35,0,0,1,.45-.17c.06,0,6,2.75,9.17.05a.34.34,0,0,1,.44.52A6.35,6.35,0,0,1,80.42,57.67Z" fill="#2d294c"/><path d="M68.61,15c1.49,1.08,2.86,2.22,4.29,3.3s2.86,2.14,4.29,3.3A15.53,15.53,0,0,1,72.34,19,15.69,15.69,0,0,1,68.61,15Z" fill="#fff" opacity="0.3"/><path d="M74.59,13.5c1.7,1.35,3.32,2.69,5,3.91s3.5,2.33,5.34,3.5a17,17,0,0,1-5.87-2.77A17.35,17.35,0,0,1,74.59,13.5Z" fill="#fff" opacity="0.3"/><path d="M98.73,30.52c-.13-1.2-.3-2.37-.51-3.52-.12-.58-.22-1.15-.37-1.72a7.41,7.41,0,0,0-.52-1.59,4.8,4.8,0,0,0-2.47-2,13.17,13.17,0,0,1-1.58-.89,3.7,3.7,0,0,1-1.22-1.36A7.55,7.55,0,0,0,95.15,21a7.83,7.83,0,0,1,1.68.81,3.93,3.93,0,0,1,1.32,1.48,11.52,11.52,0,0,1,.77,3.62A14.11,14.11,0,0,1,98.73,30.52Z" fill="#fff" opacity="0.3"/><path d="M93.15,14.35a13.46,13.46,0,0,1,2.61,1.56,13.43,13.43,0,0,1,2.28,2,7,7,0,0,1-2.82-1.29A7.12,7.12,0,0,1,93.15,14.35Z" fill="#fff" opacity="0.3"/><path d="M62.22,18c-.15,1.9-.41,3.73-.59,5.57s-.33,3.68-.58,5.56a16.57,16.57,0,0,1-.32-5.66A16.85,16.85,0,0,1,62.22,18Z" fill="#fff" opacity="0.3"/><path d="M59.62,2.88A10.51,10.51,0,0,0,61.94,6.1a10.88,10.88,0,0,0,3.35,2.12,5.09,5.09,0,0,1-4-1.46A5.09,5.09,0,0,1,59.62,2.88Z" fill="#fff" opacity="0.3"/><path d="M52.59,6.31a9.24,9.24,0,0,0,6.06,5.27,4.28,4.28,0,0,1-2.24-.13,5.94,5.94,0,0,1-2-1.12A5.07,5.07,0,0,1,52.59,6.31Z" fill="#fff" opacity="0.3"/><g opacity="0.63"><path d="M104.49,183.81a.51.51,0,0,1-.44-.28c-2.74-5.95,4.2-13,4.49-13.29a.5.5,0,0,1,.68,0,.48.48,0,0,1,0,.68c-.06.07-6.76,6.87-4.29,12.2a.48.48,0,0,1-.24.64A.46.46,0,0,1,104.49,183.81Z" fill="#2d294c"/></g><g opacity="0.63"><path d="M107.57,183.81a.48.48,0,0,1-.48-.44,13.14,13.14,0,0,1,2.73-8.69.49.49,0,0,1,.68-.08.47.47,0,0,1,.08.67,12.39,12.39,0,0,0-2.54,8,.47.47,0,0,1-.43.52Z" fill="#2d294c"/></g></g></g></svg>