<svg xmlns="http://www.w3.org/2000/svg" viewBox="0 0 156.4 189.34"><g id="Layer_2" data-name="Layer 2"><g id="OBJECTS"><circle cx="76.75" cy="121.91" r="67.42" transform="translate(-63.72 89.98) rotate(-45)" fill="#19a89c" opacity="0.11"/><path d="M40.84,146.23c1-2.15,6.15-13.13.58-11.53-3.55,1-3.27,4.8-2.39,7.84-2-4-4.22-8.2-6.67-12.41,1-2.15,6.15-13.14.58-11.54-4.17,1.19-3,6.2-1.89,9.32a144.4,144.4,0,0,0-13.57-19.13C15.88,104.9,11,94.27,8.23,99.9s6,9,8.9,9.95A134.06,134.06,0,0,1,26.2,122c-3.78-2.8-12.1-8.34-11.72-2.48.41,6.45,10,4.73,12.77,4.08,2.73,4.22,5.23,8.52,7.5,12.72-2.87-1.87-14.13-8.84-13.16-2.3,1,6.76,11.41,3.57,13.47,2.87,2.5,4.68,4.72,9.23,6.62,13.4C38,148,28.31,142.37,29.22,148.47c.94,6.33,10.15,3.92,13,3C47.27,162.74,50,171,50.05,171.17l.92-.3A232.6,232.6,0,0,0,40.84,146.23Z" fill="#fec166"/><path d="M23.89,104.55c-6.86,3.23,1.35,14,1.35,14S30.76,101.33,23.89,104.55Z" fill="#fec166"/><path d="M116.56,150c-.72-1.93-4.19-11.79.46-9.95,3,1.17,2.4,4.39,1.39,6.92,2-3.27,4.31-6.68,6.77-10.09-.72-1.93-4.18-11.79.46-9.95,3.48,1.37,2.11,5.58.85,8.16a124,124,0,0,1,13.24-15.29c1.7-3.19,6.74-11.92,8.69-6.85s-5.92,7.26-8.48,7.8a114.19,114.19,0,0,0-8.8,9.7c3.48-2.09,11.08-6.15,10.27-1.16-.89,5.51-8.94,3.23-11.3,2.44-2.7,3.4-5.21,6.88-7.51,10.3,2.63-1.37,12.88-6.42,11.49-.88-1.42,5.72-10.09,2.11-11.79,1.33-2.55,3.81-4.83,7.53-6.81,11,3.33-1.68,12.14-5.7,10.85-.54-1.34,5.35-9,2.51-11.4,1.5-5.29,9.24-8.31,16.08-8.38,16.24l-.76-.33A199.33,199.33,0,0,1,116.56,150Z" fill="#fec166"/><path d="M134.58,115.64c5.62,3.34-2.33,11.93-2.33,11.93S129,112.3,134.58,115.64Z" fill="#fec166"/><path d="M61.1,69.9S46.9,59.2,17.37,104.56c0,0,3.56,12.33,7.91,11.07L53.41,83.22S66.5,72.44,61.1,69.9Z" fill="#faad93"/><path d="M92.45,70.51s14.2-10.71,43.73,34.66c0,0-3.56,12.33-7.91,11.07L100.14,83.82S87.06,73.05,92.45,70.51Z" fill="#faad93"/><path d="M61.1,69.9S50.59,62,28.85,88.65c3.32,3.83,6.53,7.76,9.66,11.74l14.9-17.17S66.5,72.44,61.1,69.9Z" fill="#f3714f" opacity="0.27"/><path d="M100.14,83.82l14.55,16.76c4.07-2.84,8.29-5.5,12.45-8.24C103.75,62,92.45,70.51,92.45,70.51,87.06,73.05,100.14,83.82,100.14,83.82Z" fill="#f3714f" opacity="0.27"/><path d="M102.22,175.25s6.68-3.87,10.16,1.13,11.73,5.82,17,6.66,1.3,4.57-.87,5-27.93-2.31-27.93-2.31Z" fill="#faad93"/><path d="M68.74,59s-.31,7.86-.94,9.72,13.76,10.87,21.89,0l-.62-8.56S73.75,49.26,68.74,59Z" fill="#faad93"/><path d="M84.33,70.07a34.49,34.49,0,0,0,4.89-7.89l-.15-2S73.75,49.26,68.74,59c0,0,0,.25,0,.65C71.64,68.1,76.91,78.85,84.33,70.07Z" fill="#f3714f" opacity="0.43"/><path d="M109.16,162.65s-16.69,7.13-27.57,20.77H72.15S58,162,46.76,159.55c0,0,4-19.21,30.11-18.28C76.87,141.27,105.17,137.55,109.16,162.65Z" fill="#42d7d9"/><path d="M109.16,162.65s-16.69,7.13-27.57,20.77H72.15S58,162,46.76,159.55c0,0,4-19.21,30.11-18.28C76.87,141.27,105.17,137.55,109.16,162.65Z" fill="#19a89c" opacity="0.43"/><path d="M3.62,176.66s26,12.43,65.23,7.92a13.37,13.37,0,0,0,11-9.68s5.18-1.13-2.62-5.21c0,0-45.25-20.21-62.54-14.21C-.63,160.82-3,172.73,3.62,176.66Z" fill="#42d7d9"/><path d="M19,176.94c-6.93-1.52-14-4.11-18.92-9-.52,3.66.79,7.1,3.51,8.72,0,0,26,12.43,65.23,7.92a13.77,13.77,0,0,0,3.93-1.2C54.7,184,37.11,180.91,19,176.94Z" fill="#19a89c" opacity="0.43"/><path d="M140.14,151.58c-16.23-1.15-56.3,16.35-56.3,16.35-3.34,2.19-6.74,2.83-7,4.82-2.83,1.14-5.78,2.37-8.88,3.75L69.64,187s27.53.85,50.2-3.91c21.31-4,33.68-11.43,33.68-11.43C159.64,167.11,156.38,152.73,140.14,151.58Z" fill="#42d7d9"/><path d="M143.82,173.16c-7.19,2.89-15,4.46-22.6,5.72-17.31,2.87-34.81,3.42-52.32,3.49l.74,4.6s27.53.85,50.2-3.91c21.31-4,33.68-11.43,33.68-11.43a7.35,7.35,0,0,0,2.79-5C152.65,169.55,148,171.47,143.82,173.16Z" fill="#19a89c" opacity="0.43"/><path d="M68,176.5s-6.68-3.87-10.16,1.13-11.74,5.82-16.95,6.66-1.3,4.58.87,5S69.64,187,69.64,187Z" fill="#faad93"/><path d="M67.8,68.7l-13.8,0-4.17,84.53s41.89,7.71,56.58-.36L100,70,89.69,68.7S82.91,78.82,67.8,68.7Z" fill="#ec9804"/><path d="M57,112.79a20.52,20.52,0,0,0-5.14-1.53l-1.52,30.86c3.75,0,7.72-.58,9.45-3.33s-.32-5.77-1.08-8.58a14.07,14.07,0,0,1,.09-7.37C59.73,119.16,61.38,115.09,57,112.79Z" fill="#f3714f" opacity="0.58"/><path d="M69.25,83c1.18,3.4,3.32,3.63,6.19,2.19,2.23-1.12,4.73-1.9,7.17-.9s3.45,4.14,6.38,2.58c2.15-1.13,3.47-4.31,4.3-6.41a36.78,36.78,0,0,0,2.16-11l-5.76-.7s-6.41,9.56-20.66.78C68.59,73.94,67.8,78.78,69.25,83Z" fill="#f3714f" opacity="0.58"/><path d="M98.72,118.88C94.34,123,97,128.4,95.54,133.51c-1.19,4.06-4.49,5.88-7.42,8.55-5.08,4.61-3,10.12.84,14.43,7-.29,13.29-1.31,17.45-3.59l-2.88-37A15.74,15.74,0,0,0,98.72,118.88Z" fill="#f3714f" opacity="0.58"/><g opacity="0.6"><path d="M80.07,76.87c-8.86,0-15.5-6.53-15.78-6.81a.5.5,0,0,1,0-.68.48.48,0,0,1,.68,0c.07.06,6.65,6.53,15.1,6.53a14.36,14.36,0,0,0,12.1-6,.49.49,0,0,1,.66-.17.48.48,0,0,1,.16.66A15.07,15.07,0,0,1,80.07,76.87Z" fill="#2d294c"/></g><path d="M122.05,160.7l-.19-.94c-8.85,1.57-35.2,10.07-47.55,14.13l.13-.48C72.8,173,34.26,163.83,23,163.83v1c10.26,0,44.9,8.08,50.42,9.38l-3.21,1.06-.6.08v.12l-1.86.62.34.9,1.66-.55,1.59,11,1-.13-1.61-11.2C80.17,173,112.16,162.46,122.05,160.7Z" fill="#2d294c" opacity="0.53"/><g opacity="0.58"><path d="M74,104.42c-.24-2.18-.21-4.54,1-6.34s4.15-2.54,5.66-1a9.51,9.51,0,0,1,1.35,2.54,2.71,2.71,0,0,0,2.12,1.74,3.07,3.07,0,0,0,1.25-.34c1.58-.72,3.23-1.68,4.94-1.37a4.29,4.29,0,0,1,3.23,4.24,6.74,6.74,0,0,1-2.57,5,16.2,16.2,0,0,0-3,2.58c-1.06,1.46-1.13,3.38-1.38,5.16s-.9,3.75-2.53,4.53a3.23,3.23,0,0,1-3.44-.5c-1.16-1-1.48-2.86-2.82-3.66s-2.94-.25-4.46-.24c-2.17,0-4.58-1.76-4.13-3.89.5-2.41,4.08-3.22,4.5-5.65Z" fill="#f3714f"/></g><g opacity="0.58"><path d="M67.46,139.7a6.73,6.73,0,0,1,3-3.89c1.54-.73,3.87-.14,4.37,1.51a7,7,0,0,1,0,2.23,2.17,2.17,0,0,0,.88,2,2.54,2.54,0,0,0,1,.24c1.39.12,2.91.1,4,1a3.33,3.33,0,0,1,.77,4.1A5.1,5.1,0,0,1,78,149.23a13.47,13.47,0,0,0-3.07.6c-1.28.58-2,1.86-2.85,3s-2,2.19-3.44,2.09a2.68,2.68,0,0,1-2.27-1.65c-.45-1.14,0-2.5-.68-3.55s-2-1.29-3.1-1.86C61,147,59.92,144.89,61,143.62c1.23-1.44,4.07-.62,5.25-2.1Z" fill="#f3714f"/></g><g opacity="0.6"><path d="M69.28,119.36a.48.48,0,0,1-.25-.57.47.47,0,0,1,.6-.32,18.62,18.62,0,0,0,18.56-6.09.48.48,0,0,1,.68,0,.47.47,0,0,1,0,.67,19.6,19.6,0,0,1-19.57,6.39Z" fill="#2d294c" opacity="0.63"/></g><g opacity="0.6"><path d="M84.47,155C68.59,155,51.08,152.13,50,152a.49.49,0,0,1-.4-.56.47.47,0,0,1,.55-.39c.43.07,42.54,7,55.58-.36a.48.48,0,1,1,.47.83C101.43,154.14,93.19,155,84.47,155Z" fill="#2d294c"/></g><g opacity="0.63"><path d="M104.49,182a.49.49,0,0,1-.44-.28c-2.74-5.94,4.2-13,4.49-13.28a.48.48,0,0,1,.68.68c-.06.07-6.76,6.86-4.29,12.2a.49.49,0,0,1-.24.64A.45.45,0,0,1,104.49,182Z" fill="#2d294c"/></g><g opacity="0.63"><path d="M107.57,182a.47.47,0,0,1-.48-.43,13.13,13.13,0,0,1,2.73-8.69.49.49,0,0,1,.68-.09.48.48,0,0,1,.08.68,12.37,12.37,0,0,0-2.54,8,.48.48,0,0,1-.43.53Z" fill="#2d294c"/></g><path d="M98.16,125.4l-9,4.13c-1.48.88-5.43,3.24-5.87,3.39a.84.84,0,0,1-.91-.36c-.78-1.22,4.55-4.12,5.3-4.52a3.64,3.64,0,0,1-.23-.39c-2.44,1.33-7.07,3.84-7.62,4a1,1,0,0,1-1.13-.4c-.81-1.44,6.49-5.12,7.7-5.72-.11-.24-.22-.48-.32-.73-2.68,1.22-8.49,3.85-9.13,4a1,1,0,0,1-1.19-.46C75,126.75,85,122.7,85,122.7l.2-.06-.29-.8c-2.51.82-7.68,2.5-8.26,2.58a1,1,0,0,1-1-.62c-.62-1.72,8.57-4.23,8.57-4.23L89,116.28c-.14-.5-.63-.92-1.78-1.09-2.24-.33-2.27-.85-2.27-.85,0-2.42,3.68-1.45,7-1.31a7.78,7.78,0,0,1,5.11,2.53,1.88,1.88,0,0,1,.38.44l4.18-.24,2.15,7.74Z" fill="#faad93"/><path d="M135,104.78a121.73,121.73,0,0,0-37.22,12l3.08,7.38s28.7-.35,36.34-8.58C137.23,115.56,139.28,104.6,135,104.78Z" fill="#faad93"/><path d="M55.93,124.83l9,4.16c1.48.89,5.42,3.26,5.86,3.42a.84.84,0,0,0,.91-.36c.79-1.22-4.53-4.14-5.28-4.54q.12-.18.24-.39c2.42,1.34,7.05,3.87,7.59,4a1,1,0,0,0,1.14-.39c.81-1.44-6.47-5.15-7.68-5.75.11-.24.22-.49.32-.73,2.68,1.23,8.48,3.88,9.12,4.06a1,1,0,0,0,1.19-.45c.77-1.64-9.25-5.73-9.25-5.73l-.2-.06.29-.8c2.51.83,7.67,2.53,8.25,2.61a1,1,0,0,0,1.06-.61c.63-1.72-8.56-4.27-8.56-4.27l-4.79-3.31c.14-.49.63-.91,1.78-1.08,2.24-.32,2.28-.84,2.28-.84,0-2.42-3.68-1.46-7.05-1.33A7.71,7.71,0,0,0,57,115a1.81,1.81,0,0,0-.39.44l-4.17-.26-2.19,7.73Z" fill="#faad93"/><path d="M19.14,104.06a121.54,121.54,0,0,1,37.17,12.13l-3.1,7.37s-28.7-.47-36.31-8.73C16.9,114.83,14.9,103.86,19.14,104.06Z" fill="#faad93"/><path d="M56.49,68.48S43.05,66.8,30.17,83.6l16.24,14,11.2-6.71S65.44,71.28,56.49,68.48Z" fill="#ec9804"/><path d="M98.29,69.6s13.44-1.68,26.32,15.12l-16.24,14L97.17,92S89.33,72.4,98.29,69.6Z" fill="#ec9804"/><g opacity="0.45"><rect x="46.88" y="88.52" width="11.66" height="0.96" transform="translate(-42.02 130.55) rotate(-83.04)" fill="#2d294c"/></g><g opacity="0.45"><rect x="101.64" y="87.99" width="0.96" height="8.02" transform="translate(-17 23.43) rotate(-12.09)" fill="#2d294c"/></g><g opacity="0.45"><polygon points="48.31 96.26 32.64 81.14 33.3 80.45 48.98 95.57 48.31 96.26" fill="#2d294c"/></g><g opacity="0.45"><rect x="102.87" y="89.55" width="22.57" height="0.96" transform="translate(-29.93 109.47) rotate(-45.94)" fill="#2d294c"/></g><path d="M128.5,108.66c-3.18-1.59-8-.53-8.08-.52l-.21-.94c.21,0,5.24-1.14,8.72.6Z" fill="#f3714f"/><path d="M25.43,109.17l-.6-.75c2.92-2.34,8.51-1.81,8.75-1.79l-.1,1S28.05,107.08,25.43,109.17Z" fill="#f3714f"/><path d="M98.58,28.78c0-11.94-8.8-21.62-19.66-21.62S59.25,16.84,59.25,28.78c0,.21,0,.43,0,.64l-.08.16S56.81,63.49,79,65.34v.08l.61,0,.65,0v-.09C97.51,63.66,98.5,38.92,98.41,31.6A23.86,23.86,0,0,0,98.58,28.78Z" fill="#faad93"/><path d="M61.07,37s-4.72-5.9-5.5-1.18,2.68,16.47,8.41,12Z" fill="#faad93"/><path d="M60.43,39.5S58.17,36,57.5,38.56s.58,9.11,3.94,7Z" fill="#f3714f" opacity="0.43"/><path d="M96.51,36.64s4.72-5.9,5.51-1.18-2.68,16.47-8.42,12Z" fill="#faad93"/><path d="M97,39s2.16-3.51,2.9-1-.35,9.11-3.76,7.06Z" fill="#f3714f" opacity="0.43"/><path d="M58.71,34.67s2.24,3.29,2.1,6S62.25,35.46,62.65,30s1.57-12.19,5.11-9.83,9,6.29,13.37,4.33l-2.36-2a47.43,47.43,0,0,0,9,1.57c5.11.4.39-2.36.39-2.36s8.26,2,8.26,5.51.39,13,.39,13,1.18-6.29,3.54-6.68,2.76-6.29,2-10.22S96.85-2.29,71.69,4c0,0-5.51,0-8.65-2.75s-9.83-.79-5.9,4.32S53.21.85,50.46,2.43,52.42,13,56,14.62,56,30.74,58.71,34.67Z" fill="#2d294c"/><path d="M64.25,34.2s4.48-4,9.77-2.08c0,0,1.13,1.74-.16,2.07s-7.58-.1-8.9,1.46Z" fill="#2d294c"/><path d="M70.25,43.41A7.26,7.26,0,0,1,67,42.17a.38.38,0,0,1-.06-.57.48.48,0,0,1,.63-.05,5.47,5.47,0,0,0,5.7.47.48.48,0,0,1,.62.15.37.37,0,0,1-.14.55A5.84,5.84,0,0,1,70.25,43.41Z" fill="#2d294c"/><path d="M87.71,44.14a7.26,7.26,0,0,1-3.28-1.24.39.39,0,0,1-.07-.57.49.49,0,0,1,.63,0,5.5,5.5,0,0,0,5.71.47.48.48,0,0,1,.62.15.37.37,0,0,1-.14.55A5.84,5.84,0,0,1,87.71,44.14Z" fill="#2d294c"/><path d="M94,34.2s-4.48-4-9.77-2.08c0,0-1.13,1.74.16,2.07s7.57-.1,8.9,1.46Z" fill="#2d294c"/><path d="M77.33,49.38c.91,0,1.7.13,2.48.17a6.42,6.42,0,0,0,2.36-.17,2,2,0,0,1-1,.89,3.27,3.27,0,0,1-1.38.18,3.88,3.88,0,0,1-1.3-.32A3.41,3.41,0,0,1,77.33,49.38Z" fill="#f3714f"/><path d="M80.53,57.67a15.08,15.08,0,0,1-5.69-1.32.34.34,0,0,1-.16-.45.35.35,0,0,1,.45-.17c.06,0,6,2.75,9.17.05a.34.34,0,0,1,.44.52A6.35,6.35,0,0,1,80.53,57.67Z" fill="#2d294c"/><path d="M68.71,15c1.5,1.08,2.87,2.22,4.29,3.3s2.87,2.14,4.3,3.3A15.53,15.53,0,0,1,72.45,19,15.56,15.56,0,0,1,68.71,15Z" fill="#fff" opacity="0.3"/><path d="M74.7,13.5c1.7,1.35,3.32,2.69,5,3.91s3.5,2.33,5.33,3.5a17.07,17.07,0,0,1-5.86-2.77A17.35,17.35,0,0,1,74.7,13.5Z" fill="#fff" opacity="0.3"/><path d="M98.84,30.52c-.13-1.2-.3-2.37-.51-3.52-.12-.58-.23-1.15-.37-1.72a7.41,7.41,0,0,0-.52-1.59,4.8,4.8,0,0,0-2.47-2,12.44,12.44,0,0,1-1.58-.89,3.7,3.7,0,0,1-1.22-1.36A7.55,7.55,0,0,0,95.26,21a7.83,7.83,0,0,1,1.68.81,3.83,3.83,0,0,1,1.31,1.48A11.26,11.26,0,0,1,99,26.91,14.11,14.11,0,0,1,98.84,30.52Z" fill="#fff" opacity="0.3"/><path d="M93.26,14.35a13.46,13.46,0,0,1,2.61,1.56,13,13,0,0,1,2.27,2,7,7,0,0,1-2.81-1.29A7,7,0,0,1,93.26,14.35Z" fill="#fff" opacity="0.3"/><path d="M62.33,18c-.15,1.9-.41,3.73-.59,5.57s-.33,3.68-.59,5.56a16.57,16.57,0,0,1-.31-5.66A16.61,16.61,0,0,1,62.33,18Z" fill="#fff" opacity="0.3"/><path d="M59.73,2.88A10.65,10.65,0,0,0,62,6.1,11.05,11.05,0,0,0,65.4,8.22a5.12,5.12,0,0,1-4-1.46A5.12,5.12,0,0,1,59.73,2.88Z" fill="#fff" opacity="0.3"/><path d="M52.7,6.31a9.18,9.18,0,0,0,6.06,5.27,4.28,4.28,0,0,1-2.24-.13,5.85,5.85,0,0,1-2-1.12A5.07,5.07,0,0,1,52.7,6.31Z" fill="#fff" opacity="0.3"/></g></g></svg>