<svg xmlns="http://www.w3.org/2000/svg" viewBox="0 0 203.02 211.77"><g id="Layer_2" data-name="Layer 2"><g id="OBJECTS"><ellipse cx="104.65" cy="195.69" rx="93.09" ry="16.08" fill="#ede3df"/><ellipse cx="104.65" cy="195.69" rx="84.03" ry="9.58" fill="#f7f2f0"/><path d="M50.38,20.54l-.5-1.47-.5,1.47A8,8,0,0,1,45.66,25h0a8,8,0,0,1,3.72,4.44l.5,1.48.5-1.48A8,8,0,0,1,54.1,25h0A8,8,0,0,1,50.38,20.54Z" fill="#f6c25c"/><path d="M57.78,33.57l-.38-1.15L57,33.57A6.21,6.21,0,0,1,54.1,37h0A6.23,6.23,0,0,1,57,40.5l.39,1.14.38-1.14A6.23,6.23,0,0,1,60.69,37h0A6.21,6.21,0,0,1,57.78,33.57Z" fill="#f6c25c"/><path d="M95.49,23.93c-20.58,5.79-37.89,21-45.39,39.85C47.22,71,45.67,78.87,41.32,85.46c-8.14,12.34-24.42,18-33.71,29.63a34.38,34.38,0,0,0-7.3,26,35.65,35.65,0,0,0,14.24,23.39c13.85,10.19,33.06,10.19,50.67,9.72l91.85-2.42c10.19-.27,20.83-.65,29.72-5.31a30.28,30.28,0,0,0,15.81-21A28.86,28.86,0,0,0,195,120.8c-5.71-6-14.07-9.92-17.84-17.12-3.93-7.52-1.78-16.41-1.52-24.78,1.18-38.54-30.25-54.54-51.05-57.09A74.65,74.65,0,0,0,95.49,23.93Z" fill="#f7f2f0"/><rect x="143.42" y="127.22" width="31.23" height="9.7" rx="0.9" fill="#ede3df"/><rect x="121.78" y="67.54" width="31.23" height="9.7" rx="0.9" fill="#ede3df"/><rect x="49" y="130.36" width="31.23" height="9.7" rx="0.9" fill="#ede3df"/><rect x="37.86" y="113.73" width="31.23" height="9.7" rx="0.9" fill="#ede3df"/><path d="M124.27,94.07s0,.09,0,.13a43,43,0,0,1-1.74,9.17c-.14.49-.28.92-.39,1.26l-12.37-3.42S106,85,105.59,84.37a3.79,3.79,0,0,0-1.42-1.07s-1.26-3.81-2.15-3.77l-.88,0-1.1,0c-.88,0-1.8,3.51-1.8,3.51h0a3.79,3.79,0,0,0-1.55,1.07c-.44.64-4.29,17.11-4.29,17.11l-17,3.58c-.37-.65-.72-1.34-1.07-2.06a29.57,29.57,0,0,1-2.18-6.33c-.11-.53-.21-1.06-.3-1.62,0-.18,0-.36-.07-.57-.7-8.08,6.8-31.8,6.8-31.8l.73-.16c.38-.07.74-.15,1.06-.23l.75-.16,1.13,0h.22L82.07,63c9.33,8.6,23.67,6.86,32.37-1.47h0l.23-.21-.06,0,2.79.91h0a54.93,54.93,0,0,0,1.3,9.62,51.87,51.87,0,0,0,1.46,5.33c0,.1,3.87,11.44,4.09,14.63A19.6,19.6,0,0,1,124.27,94.07Z" fill="#615269"/><path d="M114.68,61.31l-.23.21h0c-8.7,8.33-23,10.07-32.37,1.47l.39-1.17,11.41-.26h0l10.39-.23,9.85-.22.5.16Z" fill="#615269"/><path d="M130.7,159c-.09,0-28.64,8.31-59.8,1.87.08-.59,2.12-12.07,4.19-24,0-.23.07-.48.11-.71,1-5.68,2-11.41,2.73-16.06q.27-1.58.48-3c.06-.37.12-.73.18-1.07.37-2.35.63-4.17.76-5.22-.82-1.27-2.43-3.32-4-6.07l17-3.58s3.85-16.47,4.29-17.11A3.79,3.79,0,0,1,98.23,83h0s.92-3.54,1.8-3.51l1.1,0,.88,0c.89,0,2.15,3.77,2.15,3.77a3.79,3.79,0,0,1,1.42,1.07c.44.64,4.16,16.84,4.16,16.84l12.37,3.42a7.15,7.15,0,0,1-.31.78v0c.2,2,.45,4.21.74,6.43l.42,2.46.43,2.43Z" fill="#615269"/><path d="M114.68,61.31l-.23.21h0c-8.7,8.33-23,10.07-32.37,1.47l.39-1.17h-.22l.26-.12,9.44-4.12,14.34-.46h0l8.32,4.14Z" fill="#f3a080"/><path d="M79.9,21.14a67.27,67.27,0,0,0-5,31.31s26.56,4.79,47.89-.82c0,0-2.67-25-3.92-30.9Z" fill="#4a0e2f"/><path d="M83.27,24.84a49.86,49.86,0,0,0-4.09,24.32s21.78,3.7,39.29-.66c0,0-2.18-19.42-3.2-24Z" fill="#38102b"/><path d="M101.79,54a14.63,14.63,0,0,1-9.05-1.34c.14-3.61.08-8,.08-8l12.17,0a62.73,62.73,0,0,0,.17,7.47A6.81,6.81,0,0,1,101.79,54Z" fill="#ea7c6f"/><path d="M104.09,61.49a13.72,13.72,0,0,0,2.83-3.58l-.06,0c-1-.78-1.46-3.14-1.7-5.65a6.76,6.76,0,0,1-3.37,1.8,14.63,14.63,0,0,1-9.05-1.34,23.29,23.29,0,0,1-.42,4.37,5.09,5.09,0,0,1-1.78,1.68c2.16,2.15,4.51,4.05,7.32,4.7C100,64,102.13,62.91,104.09,61.49Z" fill="#f3a080"/><path d="M84.45,37.87A7.29,7.29,0,0,1,79.38,34a6.53,6.53,0,0,1-.49-1c-.64-1.64-.64-7.25,1.21-8.49,1.3-.87,2.18.49,2.58,1.38h0a5.66,5.66,0,0,1,.27.67Z" fill="#f8bf92"/><path d="M84.45,37.87A7.29,7.29,0,0,1,79.38,34c-.08-.16-.15-.31-.21-.46-.64-1.64-.64-7.25,1.21-8.49,1.06-.71,1.83.05,2.3.84h0a5.66,5.66,0,0,1,.27.67Z" fill="#f3a080"/><path d="M79.37,29a3.12,3.12,0,0,0,0,1.36c.42,1.9,1.85,3.39,3.22,4.78a5.91,5.91,0,0,1-.39-3c0-.35.12-.69.13-1C82.43,29.69,80,26.34,79.37,29Z" fill="#ea7c6f"/><path d="M83.33,35.67l-.08-.06L83,35.43a4.07,4.07,0,0,1-.67-.83,4.24,4.24,0,0,1-.52-1.52,3.94,3.94,0,0,1,.25-2,2.56,2.56,0,0,1,.11-.24l0-.06s0,0,0,0h0l0-.05,0-.11-.09-.21c-.13-.28-.26-.55-.4-.79s-.29-.48-.43-.68a4.6,4.6,0,0,0-.43-.55.87.87,0,0,0-.45-.27.64.64,0,0,0-.4.06.47.47,0,0,0-.18.2.32.32,0,0,0,0,.09.24.24,0,0,1,0-.1.57.57,0,0,1,.16-.25.71.71,0,0,1,.45-.16,1,1,0,0,1,.6.24,5.24,5.24,0,0,1,.54.52,7.82,7.82,0,0,1,.52.67,6.36,6.36,0,0,1,.47.81,1.63,1.63,0,0,1,.11.23l0,.11.07.16,0,.12,0,.11-.08.15a1.89,1.89,0,0,0-.09.21,4,4,0,0,0-.3,1.74,4.55,4.55,0,0,0,.33,1.45,4.13,4.13,0,0,0,.5.88l.18.22Z" fill="#b54b57"/><path d="M112.91,38.89a7.33,7.33,0,0,0,5.34-3.47,7.65,7.65,0,0,0,.55-1c.76-1.59,1.17-7.19-.6-8.56-1.23-1-2.2.33-2.67,1.19h0a6.08,6.08,0,0,0-.31.66Z" fill="#f8bf92"/><path d="M112.91,38.89a7.33,7.33,0,0,0,5.34-3.47,3.74,3.74,0,0,0,.23-.44c.76-1.59,1.17-7.2-.6-8.56-1-.78-1.82-.08-2.35.67h0a6.08,6.08,0,0,0-.31.66Z" fill="#f3a080"/><path d="M118.62,30.37a3,3,0,0,1-.14,1.36c-.56,1.86-2.09,3.25-3.56,4.53a5.72,5.72,0,0,0,.61-2.93c0-.35-.07-.7-.06-1C115.51,30.87,118.17,27.7,118.62,30.37Z" fill="#ea7c6f"/><path d="M114.19,36.77l.09-.05.23-.17a3.31,3.31,0,0,0,.73-.78,4.08,4.08,0,0,0,.63-1.47,3.86,3.86,0,0,0-.11-2,1.84,1.84,0,0,0-.09-.25l0-.07h0s0,0,0,0l0-.06.06-.1.1-.21c.15-.27.3-.52.46-.76s.32-.45.48-.64a5,5,0,0,1,.46-.52,1,1,0,0,1,.47-.24.55.55,0,0,1,.39.1.38.38,0,0,1,.17.2.35.35,0,0,1,0,.1.27.27,0,0,0,0-.1.48.48,0,0,0-.14-.26.67.67,0,0,0-.44-.2,1.08,1.08,0,0,0-.62.2,4.15,4.15,0,0,0-.57.48,7,7,0,0,0-.56.63,7.66,7.66,0,0,0-.54.78l-.12.21-.06.11-.08.16,0,.11a.37.37,0,0,0,0,.11l.06.17a1.8,1.8,0,0,1,.08.21,4.15,4.15,0,0,1,.17,1.76,4.31,4.31,0,0,1-.43,1.42,3.9,3.9,0,0,1-.56.84,2.15,2.15,0,0,1-.2.21Z" fill="#b54b57"/><path d="M115.37,26.73s-.83,10.89-3.87,14.83c-2.54,3.3-6.17,8.58-11.73,10.22a5.24,5.24,0,0,1-3.32-.12c-5.43-2-8.67-7.55-11-11-2.75-4.15-2.8-15.07-2.8-15.07,0-.72,0-1.42,0-2.1v0C83.8,2.81,99.8,4.51,99.8,4.51s15.79.71,15.59,21.15C115.39,26,115.38,26.37,115.37,26.73Z" fill="#f8bf92"/><path d="M115.39,25.66c-.15,1.74-1.1,11-3.84,14.55-2.54,3.3-6.17,8.57-11.73,10.21a5.24,5.24,0,0,1-3.32-.12c-5.43-2-8.67-7.55-11-11-2.75-4.15-2.8-15.07-2.8-15.07v-.77C83.8,2.81,99.8,4.51,99.8,4.51S115.59,5.22,115.39,25.66Z" fill="#f3a080"/><path d="M92.49,40.17a10.66,10.66,0,0,0,6,1.81A8.72,8.72,0,0,0,104,39.86,17.54,17.54,0,0,1,92.49,40.17Z" fill="#dd5b67"/><path d="M95.82,42.91a3.71,3.71,0,0,0,2.61,1.14,3.3,3.3,0,0,0,2.36-1.3A5.47,5.47,0,0,1,95.82,42.91Z" fill="#dd5b67"/><path d="M98.06,34.93A2.31,2.31,0,0,1,100,36.29a.46.46,0,0,1,0,.3c-.05.15-.22.21-.37.25a7.77,7.77,0,0,1-3.22.11C94.49,36.61,97.1,34.86,98.06,34.93Z" fill="#ea7c6f"/><path d="M97,36.48s0-.12,0-.33,0-.22,0-.37,0-.31,0-.49,0-.37,0-.58,0-.44,0-.67c0-.46,0-1,0-1.5s0-1,0-1.5c0-.24,0-.46,0-.67s0-.41,0-.59,0-.34,0-.49,0-.27,0-.37,0-.32,0-.32l.17.27c0,.09.12.21.18.34s.14.29.21.46.15.37.21.58a5.75,5.75,0,0,1,.18.69,7.48,7.48,0,0,1,.16,1.62A7.28,7.28,0,0,1,98,34.17a6.06,6.06,0,0,1-.2.68c-.07.21-.16.4-.23.57s-.16.32-.23.45a2.18,2.18,0,0,1-.2.33Z" fill="#dd5b67"/><path d="M113.33,36.22s0-.25.15-.68c0-.1,0-.22.08-.35s.06-.28.09-.43c.07-.31.15-.65.22-1l.12-.6c0-.21.08-.42.12-.65.09-.44.16-.92.25-1.42.17-1,.33-2.09.48-3.24s.27-2.25.37-3.26c0-.51.1-1,.12-1.44,0-.23,0-.45,0-.66s0-.42,0-.61c0-.39,0-.75,0-1.06,0-.16,0-.3,0-.44s0-.26,0-.37c0-.44,0-.7,0-.7l.2.66c0,.1.06.22.1.35s.07.27.11.43.16.66.22,1.05c0,.2.07.41.11.62s0,.45.08.68c.07.47.09,1,.12,1.52a22.05,22.05,0,0,1-.14,3.48,21.81,21.81,0,0,1-.75,3.39c-.17.5-.32,1-.5,1.41-.09.22-.17.43-.26.62l-.26.56c-.16.36-.34.66-.48.93s-.14.27-.21.38l-.19.3C113.46,36,113.33,36.22,113.33,36.22Z" fill="#38102b"/><path d="M84.42,38.48s-.1-.22-.25-.62-.38-1-.62-1.74-.48-1.64-.71-2.66a30.12,30.12,0,0,1-.54-3.35c-.12-1.21-.16-2.36-.16-3.42s.07-2,.15-2.79.17-1.44.25-1.88.12-.68.12-.68l.11.68c.07.44.17,1.07.28,1.84s.24,1.69.36,2.71.27,2.13.39,3.3.22,2.29.29,3.31.15,2,.2,2.74.08,1.42.1,1.87S84.42,38.48,84.42,38.48Z" fill="#38102b"/><path d="M89.6,34.36c-.29.7-2.26.56-4.38-.32s-3.61-2.18-3.32-2.88,2.25-.56,4.38.32S89.89,33.65,89.6,34.36Z" fill="#ea7c6f"/><path d="M115.77,32.23c.27.71-1.26,2-3.42,2.76s-4.12.88-4.39.17,1.27-1.95,3.42-2.76S115.5,31.51,115.77,32.23Z" fill="#ea7c6f"/><path d="M121.42,27l-11.74-3.24-1.45-7.36-.55-2.8L107.17,16l-1.39,6.6c-3.93.76-14.06.15-14.06.15l-1.47-6.82-.46-2.13-1,2.62-3.35,8.63-8.19.32a34.63,34.63,0,0,1,1.39-8.87C80.65,9.46,85.73.68,98.3,0c12.17-.63,18,8.34,20.73,16.1A46,46,0,0,1,121.42,27Z" fill="#38102b"/><path d="M119,16.13c-.4.12-.8.22-1.19.31a17.72,17.72,0,0,1-7.64.59,11.5,11.5,0,0,1-2-.61l-.55-2.8L107.17,16c-.92-.39-1.84-.8-2.78-1.1-3.94-1.27-8.26-.8-12.22.41-.63.19-1.28.41-1.92.62l-.46-2.13-1,2.62c-2.56.83-5.13,1.49-7.72.95a10.69,10.69,0,0,1-2.43-.87A25.94,25.94,0,0,1,83.51,7C86.64,3.27,91.3.39,98.3,0a18.29,18.29,0,0,1,16.33,7.62A32.08,32.08,0,0,1,119,16.13Z" fill="#4a0e2f"/><path d="M99,6.59a3.45,3.45,0,0,0,.86,2.19,21.46,21.46,0,0,1-8.74-2,2.21,2.21,0,0,0-.4,2.4A15,15,0,0,1,83.51,7C86.64,3.27,91.3.39,98.3,0a18.29,18.29,0,0,1,16.33,7.62C109.33,8.52,104,8.53,99,6.59Z" fill="#5f1234"/><path d="M85.48,22.57s5.12-4.8,7.31-3.63c1.27.68.42,1.37.42,1.37Z" fill="#4a0e2f"/><path d="M111.46,23.29s-3.43-4.67-5.38-4.06c-1.14.36-.55,1.05-.55,1.05Z" fill="#4a0e2f"/><path d="M106.61,26.61a8.12,8.12,0,0,1,2.4-.31,4.81,4.81,0,0,1,2.31.65,5.62,5.62,0,0,1-2.65,1.6,12.46,12.46,0,0,1-3.1.43,4.24,4.24,0,0,1-1.28-.11,1.44,1.44,0,0,1-.9-.6c-.15-.36.51-.57.76-.7A11.85,11.85,0,0,1,106.61,26.61Z" fill="#ea7c6f"/><path d="M90.11,26.61a8.12,8.12,0,0,0-2.4-.31A4.78,4.78,0,0,0,85.4,27a5.57,5.57,0,0,0,2.65,1.6,12.4,12.4,0,0,0,3.1.43,4.18,4.18,0,0,0,1.27-.11,1.44,1.44,0,0,0,.9-.6c.16-.36-.5-.57-.75-.7A12.07,12.07,0,0,0,90.11,26.61Z" fill="#ea7c6f"/><path d="M85.26,26.71A8.61,8.61,0,0,0,93.53,28a4.89,4.89,0,0,1-4.27,1.68A5.75,5.75,0,0,1,85.26,26.71Z" fill="#1d1e1e"/><path d="M86,29a1.42,1.42,0,0,0,2-.12c-.06.07-.45-.12-.52-.16a1.07,1.07,0,0,1-.22-.15c-.1-.07-.12-.07-.21,0A1.82,1.82,0,0,1,86,29Z" fill="#1d1e1e"/><path d="M111.48,26.71A8.62,8.62,0,0,1,103.21,28a4.87,4.87,0,0,0,4.26,1.68A5.77,5.77,0,0,0,111.48,26.71Z" fill="#1d1e1e"/><path d="M110.74,29a1.37,1.37,0,0,1-1,.34,1.43,1.43,0,0,1-1-.46c.06.07.46-.12.52-.16a.91.91,0,0,0,.23-.15c.09-.07.12-.07.21,0A1.79,1.79,0,0,0,110.74,29Z" fill="#1d1e1e"/><path d="M149.23,117.25c-1.21,1.82-7.91,5.83-9.32,5.83-.7,0-8.62-3.12-16.52-6.32-8.19-3.32-16.36-6.69-16.36-6.69a28.18,28.18,0,0,1-6-1.26c-.1-.06-.2-.1-.28-.16-.48-.31-.28-9.78,0-17.84a.66.66,0,0,0,0-.14c.16-5.32.34-10,.38-10.94,0-.11,0-.17,0-.17l.88,0c.89,0,2.15,3.77,2.15,3.77a3.79,3.79,0,0,1,1.42,1.07c.44.64,4.16,16.84,4.16,16.84l12.37,3.42,10.12,2.81L129.58,98l14.77-4.57s.41,1.51,1,3.76C147,103.52,150.13,115.9,149.23,117.25Z" fill="#f3a080"/><path d="M114.44,61.52h0Z" fill="#f3a080"/><path d="M144.35,93.38,129.58,98l-9.31-20a64.91,64.91,0,0,1-2.85-15.79c2.07.45,5.1,1,8.69,1.62C133,64.89,144.35,93.38,144.35,93.38Z" fill="#f3a080"/><path d="M101.34,108.65a1.74,1.74,0,0,1-.28.16,28,28,0,0,1-6,1.26s-8.37,3.59-16.7,7.08c-7.86,3.3-15.68,6.51-16.36,6.51-1.42,0-9.11-3.64-10.32-5.46-.92-1.37,1.64-14.79,3-21.31,0,0,0,0,0-.06a62,62,0,0,1,2-7.48c2.68-7.89,9-24.71,14.19-25.54,3-.49,5.67-1,7.67-1.4,0,0-7.5,23.72-6.8,31.8L70.51,98,69,106.12l6.37-1.33,17-3.58s3.85-16.47,4.29-17.11A3.79,3.79,0,0,1,98.23,83h0s.92-3.54,1.8-3.51l1.1,0s.24,6.55.39,13.43c0,.17,0,.33,0,.48C101.71,100.82,101.76,108.37,101.34,108.65Z" fill="#f3a080"/><path d="M101.14,79.56a212,212,0,0,0,.2,29.09S101.92,91.05,101.14,79.56Z" fill="#b54b57"/><path d="M98.24,83,96.48,93.27S96.21,87.41,98.23,83Z" fill="#b54b57"/><path d="M104.17,83.3l1.22,10A27.5,27.5,0,0,0,104.17,83.3Z" fill="#b54b57"/><path d="M165,189.19c-4.76,4-61.46,4.83-61.46,4.83s-56.71-.81-61.46-4.83-2.56-25,0-29c2.14-3.36,22.29-12.7,28.9-15.68l2.09-.95,28.37,1.07,30.24-1,3.86,1.91c6.57,3.23,27.32,11.29,29.46,14.66C167.58,164.23,169.77,185.16,165,189.19Z" fill="#e8d9cd"/><path d="M132.09,143.85c-8.3,5.2-13.76,8.11-23.52,9A63.44,63.44,0,0,1,71,144.53l2.09-.95,28.37,1.07,26.1-3.8A53,53,0,0,0,132.09,143.85Z" fill="#d8c1b2"/><polygon points="93.97 180.42 112.27 178.51 113.93 193.09 93.97 180.42" fill="#ea7c6f"/><polygon points="112.07 176.69 113.94 193.25 114.95 178.92 147.15 168.25 112.07 176.69" fill="#d8c1b2"/><polygon points="127.56 172.96 109.77 164.21 123 174.06 127.56 172.96" fill="#d8c1b2"/><path d="M95.91,183a2.94,2.94,0,0,1-1.13.32,5,5,0,0,1-4-1.67c-1-1.1-1.08-2.62-1.8-3.94a123,123,0,0,0-7.83-12.47,86.62,86.62,0,0,1,11.34,13.23,128.43,128.43,0,0,0-13.8-27.55,52.76,52.76,0,0,1,15.85,26.41S95.31,180.67,95.91,183Z" fill="#d8c1b2"/><path d="M87.82,179v14.68c7-.16,12.27-.3,12.27-.3l.28-3,.76-8.23Z" fill="#f3a080"/><path d="M113,181.63c1.24.32,2.1,2.85,2.72,3.64.3.37,1.48.11,2.63-.26s2.47-.95,2.47-.95a8.73,8.73,0,0,1,3.26,1c1.92.93,2.89,3.89,2.45,5.84a1.83,1.83,0,0,1-1,1.19,5.5,5.5,0,0,1-2.69.43,11,11,0,0,1,1.33,2.12h0a7,7,0,0,1,.73,2.5,3.78,3.78,0,0,1,0,.74h0a5.44,5.44,0,0,1-.13.63,10.82,10.82,0,0,1-.63,1.9c-.1.23-.19.43-.3.66a15.36,15.36,0,0,1-1.18,2,5.34,5.34,0,0,1-.48.64,2.75,2.75,0,0,1-1.73,1.22c-1.71,0-2.9-2.19-5-2.43s-10.08-7.38-10.08-7.38l-5.27-1.8-2.58-.88.15-2.24.07-.89.51-7.32,2.89.12,2.87.13,1.11.05,1.19-.17C108.26,181.86,112.07,181.38,113,181.63Z" fill="#f3a080"/><path d="M124.94,197.1a7,7,0,0,0-.73-2.5h0a11.56,11.56,0,0,0-1.33-2.12s-3.54,6.32-5.84,6.6-10.21-6.24-10.21-6.24l-6.46-2.49-2.64-1-9.91,1.12v3.19c7-.16,12.27-.3,12.27-.3l5.27,1.8s8,7.12,10.08,7.38,3.31,2.43,5,2.43a2.75,2.75,0,0,0,1.73-1.22,5.34,5.34,0,0,0,.48-.64,15.36,15.36,0,0,0,1.18-2c.1-.23.2-.43.3-.66a10.82,10.82,0,0,0,.63-1.9,5.44,5.44,0,0,0,.13-.63h0A3.78,3.78,0,0,0,124.94,197.1Z" fill="#f8bf92"/><path d="M120.46,201.45a8.89,8.89,0,0,0,2.21,1.63,6.62,6.62,0,0,1-.47.64,6.78,6.78,0,0,1-2.36-1.68.44.44,0,0,1,0-.52.35.35,0,0,1,.25-.19A.41.41,0,0,1,120.46,201.45Z" fill="#b54b57"/><path d="M121.66,198.89a15.94,15.94,0,0,0,1.59,1.09c.29.15.59.27.89.4-.09.22-.18.44-.29.66a6,6,0,0,1-2.65-1.59C120.94,199.15,121.32,198.64,121.66,198.89Z" fill="#b54b57"/><path d="M122,196.24c.6.33,1.1.79,1.71,1.11a8.14,8.14,0,0,0,1.18.49h0a5.74,5.74,0,0,1-.13.65,6.17,6.17,0,0,1-3.17-1.74A.33.33,0,0,1,122,196.24Z" fill="#b54b57"/><path d="M123.3,186.86c.14,0,.26.1.35.2a4.42,4.42,0,0,1,.92,3.18,3.35,3.35,0,0,1-3.18.11c.75-.14,1.51-.38,2.26-.52A3,3,0,0,0,123.3,186.86Z" fill="#b54b57"/><path d="M102.28,183.84a20.57,20.57,0,0,0,5.16,1.41c.09.3.58.28.57-.07,0-1.39,1.68-.86,2.33-.5.46.25.84.62,1.29.87a.14.14,0,0,0,.2-.19c-.69-1.32-4.06-2.6-4.37-.54-1.6-.65-3.41-.95-5-1.51C102.09,183.19,102,183.72,102.28,183.84Z" fill="#b54b57"/><polygon points="87.82 193.63 91.13 176.96 60.67 164.21 86.44 177.9 87.82 193.63" fill="#d8c1b2"/><path d="M182,153.13h17.57a0,0,0,0,1,0,0v28.92a2.38,2.38,0,0,1-2.38,2.38H184.35a2.38,2.38,0,0,1-2.38-2.38V153.13A0,0,0,0,1,182,153.13Z" transform="translate(381.51 337.56) rotate(180)" fill="#ede3df"/><path d="M193.55,143.06a13.79,13.79,0,0,0-1.58-3.53l-1.61-2.86a7.68,7.68,0,0,0-2.65,6.66c.13,1.46,1.48,6.8,3.59,6.48,1.06-.16,1.8-2.06,2.08-2.93A7,7,0,0,0,193.55,143.06Z" fill="#fff"/><path d="M15.89,153.13H28.7a2.38,2.38,0,0,1,2.38,2.38v28.92a0,0,0,0,1,0,0H13.51a0,0,0,0,1,0,0V155.51A2.38,2.38,0,0,1,15.89,153.13Z" fill="#ede3df"/><path d="M19.5,143.06a14.51,14.51,0,0,1,1.58-3.53l1.61-2.86a7.62,7.62,0,0,1,2.65,6.66c-.13,1.46-1.47,6.8-3.59,6.48-1.05-.16-1.8-2.06-2.08-2.93A7.09,7.09,0,0,1,19.5,143.06Z" fill="#fff"/><path d="M142.4,20.54l.5-1.47.49,1.47A8,8,0,0,0,147.12,25h0a8,8,0,0,0-3.73,4.44l-.49,1.48-.5-1.48A8,8,0,0,0,138.68,25h0A8,8,0,0,0,142.4,20.54Z" fill="#f6c25c"/><path d="M135,33.57l.39-1.15.39,1.15A6.21,6.21,0,0,0,138.68,37h0a6.23,6.23,0,0,0-2.91,3.47l-.39,1.14L135,40.5a6.18,6.18,0,0,0-2.9-3.47h0A6.16,6.16,0,0,0,135,33.57Z" fill="#f6c25c"/></g></g></svg>