<svg xmlns="http://www.w3.org/2000/svg" viewBox="0 0 156.4 189.04"><g id="Layer_2" data-name="Layer 2"><g id="OBJECTS"><circle cx="78.35" cy="112.81" r="67.42" transform="translate(-56.82 88.44) rotate(-45)" fill="#19a89c" opacity="0.11"/><path d="M40.84,142.46c1-2.15,6.15-13.13.58-11.54-3.55,1-3.27,4.81-2.39,7.84-2-4-4.22-8.2-6.67-12.41,1-2.15,6.15-13.13.58-11.54-4.17,1.2-3,6.2-1.89,9.33A143.85,143.85,0,0,0,17.48,105c-1.6-3.87-6.44-14.51-9.25-8.88s6,9,8.9,10a133.91,133.91,0,0,1,9.07,12.17c-3.78-2.8-12.1-8.34-11.72-2.48.41,6.45,10,4.73,12.77,4.08,2.73,4.23,5.23,8.53,7.5,12.73-2.87-1.88-14.13-8.85-13.16-2.3,1,6.76,11.41,3.56,13.47,2.86,2.5,4.68,4.72,9.23,6.62,13.4-3.66-2.31-13.37-7.95-12.46-1.85.94,6.34,10.15,3.93,13,3,5.06,11.25,7.78,19.5,7.84,19.68l.92-.29A231.61,231.61,0,0,0,40.84,142.46Z" fill="#fec166"/><path d="M23.89,100.78c-6.86,3.22,1.35,14,1.35,14S30.76,97.56,23.89,100.78Z" fill="#fec166"/><path d="M116.56,146.22c-.72-1.93-4.19-11.78.46-9.95,3,1.17,2.4,4.4,1.39,6.93,2-3.27,4.31-6.68,6.77-10.1-.72-1.93-4.18-11.78.46-9.95,3.48,1.38,2.11,5.58.85,8.17A124.06,124.06,0,0,1,139.73,116c1.7-3.19,6.74-11.91,8.69-6.85s-5.92,7.27-8.48,7.81a112.55,112.55,0,0,0-8.8,9.69c3.48-2.09,11.08-6.15,10.27-1.15-.89,5.5-8.94,3.23-11.3,2.43-2.7,3.4-5.21,6.88-7.51,10.3,2.63-1.37,12.88-6.41,11.49-.87-1.42,5.71-10.09,2.1-11.79,1.33-2.55,3.81-4.83,7.53-6.81,10.95,3.33-1.69,12.14-5.71,10.85-.55-1.34,5.36-9,2.52-11.4,1.51-5.29,9.23-8.31,16.08-8.38,16.23l-.76-.33A200.56,200.56,0,0,1,116.56,146.22Z" fill="#fec166"/><path d="M134.58,111.86c5.62,3.34-2.33,11.93-2.33,11.93S129,108.52,134.58,111.86Z" fill="#fec166"/><path d="M40.62,89.44s-2.83,32.86,5.9,36.71c0,0,4.88,2.82,6.42-.26s.51-37,.51-37S42.93,83.79,40.62,89.44Z" fill="#faad93"/><path d="M114.45,88.93s2.82,32.86-5.91,36.71c0,0-4.87,2.82-6.41-.26s-.52-37-.52-37S112.14,83.28,114.45,88.93Z" fill="#faad93"/><path d="M55,68.39s-14.68-.51-17.5,26.44H56.19S64.23,80.75,55,68.39Z" fill="#ec9804"/><path d="M98.6,69.42s14.75,2.9,18.77,26.18l-19.92.26S89.41,81.78,98.6,69.42Z" fill="#ec9804"/><path d="M102.22,175s6.68-3.86,10.16,1.13,11.73,5.83,17,6.66,1.3,4.58-.87,5-27.93-2.31-27.93-2.31Z" fill="#faad93"/><path d="M68.74,58.7s-.31,7.85-.94,9.71,13.76,10.88,21.89,0l-.62-8.56S73.75,49,68.74,58.7Z" fill="#faad93"/><path d="M84.33,69.79a34.71,34.71,0,0,0,4.89-7.89l-.15-2S73.75,49,68.74,58.7c0,0,0,.25,0,.65C71.64,67.82,76.91,78.57,84.33,69.79Z" fill="#f3714f" opacity="0.43"/><path d="M109.16,162.37s-16.69,7.13-27.57,20.77H72.15S58,161.75,46.76,159.27c0,0,4-19.22,30.11-18.29C76.87,141,105.17,137.26,109.16,162.37Z" fill="#42d7d9"/><path d="M109.16,162.37s-16.69,7.13-27.57,20.77H72.15S58,161.75,46.76,159.27c0,0,4-19.22,30.11-18.29C76.87,141,105.17,137.26,109.16,162.37Z" fill="#19a89c" opacity="0.43"/><path d="M3.62,176.38s26,12.43,65.23,7.92a13.37,13.37,0,0,0,11-9.69s5.18-1.13-2.62-5.21c0,0-45.25-20.21-62.54-14.2C-.63,160.53-3,172.45,3.62,176.38Z" fill="#42d7d9"/><path d="M19,176.65c-6.93-1.52-14-4.1-18.92-9-.52,3.66.79,7.1,3.51,8.72,0,0,26,12.43,65.23,7.92a13.62,13.62,0,0,0,3.93-1.21C54.7,183.73,37.11,180.62,19,176.65Z" fill="#19a89c" opacity="0.43"/><path d="M140.14,151.3c-16.23-1.15-56.3,16.35-56.3,16.35-3.34,2.18-6.74,2.82-7,4.82-2.83,1.13-5.78,2.37-8.88,3.75l1.68,10.47s27.53.85,50.2-3.91c21.31-4,33.68-11.44,33.68-11.44C159.64,166.83,156.38,152.44,140.14,151.3Z" fill="#42d7d9"/><path d="M143.82,172.87c-7.19,2.89-15,4.46-22.6,5.73-17.31,2.86-34.81,3.42-52.32,3.49l.74,4.6s27.53.85,50.2-3.91c21.31-4,33.68-11.44,33.68-11.44a7.31,7.31,0,0,0,2.79-5C152.65,169.27,148,171.18,143.82,172.87Z" fill="#19a89c" opacity="0.43"/><path d="M68,176.22s-6.68-3.87-10.16,1.12S46.06,183.17,40.85,184s-1.3,4.58.87,5,27.92-2.31,27.92-2.31Z" fill="#faad93"/><path d="M67.8,68.41l-13.8,0L49.83,153s41.89,7.71,56.58-.37L100,69.67,89.69,68.41S82.91,78.54,67.8,68.41Z" fill="#ec9804"/><path d="M57,112.5A20.94,20.94,0,0,0,51.9,111l-1.52,30.87c3.75,0,7.72-.59,9.45-3.34s-.32-5.76-1.08-8.57a14.07,14.07,0,0,1,.09-7.37C59.73,118.88,61.38,114.81,57,112.5Z" fill="#f3714f" opacity="0.58"/><path d="M69.25,82.66c1.18,3.41,3.32,3.64,6.19,2.19,2.23-1.12,4.73-1.9,7.17-.9s3.45,4.14,6.38,2.59c2.15-1.14,3.47-4.32,4.3-6.41a36.84,36.84,0,0,0,2.16-11l-5.76-.71S83.28,78,69,69.2C68.59,73.65,67.8,78.5,69.25,82.66Z" fill="#f3714f" opacity="0.58"/><path d="M98.72,118.6c-4.38,4.08-1.69,9.52-3.18,14.63-1.19,4.06-4.49,5.88-7.42,8.54-5.08,4.62-3,10.12.84,14.44,7-.29,13.29-1.31,17.45-3.6l-2.88-37A16,16,0,0,0,98.72,118.6Z" fill="#f3714f" opacity="0.58"/><g opacity="0.6"><path d="M80.07,76.59c-8.86,0-15.5-6.54-15.78-6.82a.48.48,0,0,1,.68-.68c.07.07,6.65,6.54,15.1,6.54a14.36,14.36,0,0,0,12.1-6,.48.48,0,0,1,.66-.16.48.48,0,0,1,.16.66A15.1,15.1,0,0,1,80.07,76.59Z" fill="#2d294c"/></g><path d="M122.05,160.42l-.19-.95c-8.85,1.58-35.2,10.07-47.55,14.13l.13-.47c-1.64-.39-40.18-9.59-51.41-9.59v1c10.26,0,44.9,8.08,50.42,9.39L70.24,175l-.6.08v.11c-1.14.38-1.8.61-1.86.62l.34.91,1.66-.56,1.59,11,1-.13-1.61-11.2C80.17,172.67,112.16,162.17,122.05,160.42Z" fill="#2d294c" opacity="0.53"/><g opacity="0.58"><path d="M74,104.13c-.24-2.17-.21-4.54,1-6.33s4.15-2.54,5.66-1a9.45,9.45,0,0,1,1.35,2.53,2.68,2.68,0,0,0,2.12,1.74,2.92,2.92,0,0,0,1.25-.34c1.58-.71,3.23-1.68,4.94-1.37a4.3,4.3,0,0,1,3.23,4.24,6.72,6.72,0,0,1-2.57,5,16.64,16.64,0,0,0-3,2.59c-1.06,1.45-1.13,3.37-1.38,5.16s-.9,3.75-2.53,4.52a3.21,3.21,0,0,1-3.44-.49c-1.16-1-1.48-2.86-2.82-3.66s-2.94-.25-4.46-.24c-2.17,0-4.58-1.77-4.13-3.89.5-2.41,4.08-3.22,4.5-5.65Z" fill="#f3714f"/></g><g opacity="0.58"><path d="M67.46,139.41a6.74,6.74,0,0,1,3-3.88c1.54-.74,3.87-.14,4.37,1.51a6.94,6.94,0,0,1,0,2.23,2.14,2.14,0,0,0,.88,2,2.55,2.55,0,0,0,1,.25c1.39.12,2.91.09,4,1a3.32,3.32,0,0,1,.77,4.1A5.12,5.12,0,0,1,78,148.94a13,13,0,0,0-3.07.61c-1.28.58-2,1.85-2.85,3s-2,2.2-3.44,2.1A2.72,2.72,0,0,1,66.32,153c-.45-1.14,0-2.5-.68-3.55s-2-1.29-3.1-1.86c-1.55-.82-2.62-2.94-1.53-4.21,1.23-1.44,4.07-.62,5.25-2.1Z" fill="#f3714f"/></g><g opacity="0.6"><path d="M71.72,122.89a.48.48,0,0,1-.07-1,18.63,18.63,0,0,0,14.21-13.41.48.48,0,0,1,.93.25,19.56,19.56,0,0,1-15,14.11Z" fill="#2d294c"/></g><g opacity="0.6"><path d="M84.47,154.72A241.26,241.26,0,0,1,50,151.66a.48.48,0,0,1-.4-.55.49.49,0,0,1,.55-.4c.43.07,42.54,7,55.58-.36a.48.48,0,1,1,.47.84C101.43,153.85,93.19,154.72,84.47,154.72Z" fill="#2d294c"/></g><g opacity="0.63"><path d="M104.49,181.75a.49.49,0,0,1-.44-.28c-2.74-5.95,4.2-13,4.49-13.28a.48.48,0,0,1,.68.68c-.06.06-6.76,6.86-4.29,12.2a.48.48,0,0,1-.24.63A.46.46,0,0,1,104.49,181.75Z" fill="#2d294c"/></g><g opacity="0.63"><path d="M107.57,181.75a.48.48,0,0,1-.48-.43,13.15,13.15,0,0,1,2.73-8.7.49.49,0,0,1,.68-.08.48.48,0,0,1,.08.68,12.36,12.36,0,0,0-2.54,8,.48.48,0,0,1-.43.53Z" fill="#2d294c"/></g><g opacity="0.52"><path d="M117.11,92.81l-14.94.25-.49-5.71a.48.48,0,1,0-1,.08l.77,9a.48.48,0,0,0,.48.44h0a.48.48,0,0,0,.44-.52l-.2-2.31,14.87-.25a.48.48,0,0,0,.48-.49A.51.51,0,0,0,117.11,92.81Z" fill="#2d294c"/><path d="M53.21,86.14h0a.47.47,0,0,0-.48.46l-.19,6-.09,0L38.07,92a.49.49,0,0,0-.5.46A.48.48,0,0,0,38,93l14.38.52h0l.08,0,0,1.57a.48.48,0,0,0,.46.5h0a.48.48,0,0,0,.48-.47l.26-8.47A.49.49,0,0,0,53.21,86.14Z" fill="#2d294c"/></g><path d="M66.5,90.81l-8.61-6.47c-1.6-1-5.83-3.5-6.21-3.84a1,1,0,0,1-.23-1.08c.57-1.4,6,2.19,6.82,2.7.06-.14.12-.29.19-.43-2.51-1.64-7.27-4.77-7.74-5.2a1.18,1.18,0,0,1-.32-1.31c.73-1.54,8,3.53,9.2,4.37.14-.23.28-.46.43-.69-2.57-1.94-8.1-6.14-8.62-6.66a1.21,1.21,0,0,1-.3-1.4c.92-1.61,10.07,5.91,10.07,5.91a1.37,1.37,0,0,1,.18.16l.5-.71c-2.14-2-6.51-6.07-6.91-6.59a1.17,1.17,0,0,1-.09-1.34c1.07-1.53,8.46,6,8.46,6l5.51,2.88c.33-.39.4-1.09-.12-2.3-1-2.33-.6-2.64-.6-2.64,2-1.3,3.33,2.77,5.15,6.1a9.53,9.53,0,0,1,.84,6.28,2.17,2.17,0,0,1-.15.61l2.61,3.9-5.2,6.21Z" fill="#faad93"/><path d="M110.89,120.17s-15.51-19.17-37-34l-4,7.27s21,31,33.48,34.9C103.42,128.29,114.11,124.69,110.89,120.17Z" fill="#faad93"/><path d="M87.48,97.66a6.49,6.49,0,0,1,0-1.07c-3.75-3.21-7.86-6.45-12.21-9.54l-.28-.4-1,1.4c-.13.18-.26.37-.4.55l-.56.79c-.18.27-.35.54-.52.81l-.37.58c-.28.48-.55,1-.79,1.46a6.1,6.1,0,0,1-.54.93l-.08.11A8.82,8.82,0,0,1,70,94l1,1a218.33,218.33,0,0,0,16.68,20.93A94.66,94.66,0,0,0,87.48,97.66Z" fill="#f3714f" opacity="0.27"/><path d="M106.59,117.53a.36.36,0,0,1-.35-.31,15.21,15.21,0,0,0-3-6,.37.37,0,0,1,0-.51.36.36,0,0,1,.51,0,15.91,15.91,0,0,1,3.16,6.34.36.36,0,0,1-.3.41Z" fill="#f3714f"/><path d="M88,91.51l8.78-6.23c1.62-.91,5.92-3.34,6.31-3.68a1,1,0,0,0,.25-1.06c-.52-1.42-6.11,2-6.88,2.51l-.18-.44c2.55-1.57,7.39-4.57,7.87-5a1.19,1.19,0,0,0,.35-1.31c-.69-1.56-8.09,3.32-9.31,4.13l-.4-.71c2.61-1.87,8.25-5.92,8.79-6.43a1.21,1.21,0,0,0,.34-1.38c-.89-1.64-10.23,5.64-10.23,5.64l-.18.15L93,77c2.18-1.93,6.67-5.9,7.08-6.4a1.19,1.19,0,0,0,.13-1.35C99.2,67.7,91.62,75,91.62,75L86,77.76c-.32-.4-.37-1.1.18-2.29,1.08-2.31.68-2.63.68-2.63-2-1.35-3.4,2.69-5.31,6a9.46,9.46,0,0,0-1,6.26,1.87,1.87,0,0,0,.13.61L78,89.5l5,6.35Z" fill="#faad93"/><path d="M44.18,120.43s15.5-19.17,37-34.05l4,7.26s-21,31-33.48,34.91C51.64,128.55,41,124.94,44.18,120.43Z" fill="#faad93"/><path d="M48.83,116.76a.27.27,0,0,1-.12,0,.36.36,0,0,1-.22-.46c.08-.2,1.89-5,4.34-5.86a.35.35,0,0,1,.45.22.37.37,0,0,1-.23.46c-1.76.59-3.4,4.12-3.88,5.43A.35.35,0,0,1,48.83,116.76Z" fill="#f3714f"/><path d="M99,28.78c0-11.94-8.8-21.62-19.67-21.62S59.7,16.84,59.7,28.78c0,.21,0,.43,0,.64,0,.06-.05.11-.07.16S57.26,63.49,79.48,65.34v.08l.6,0,.66,0v-.09C98,63.66,99,38.92,98.86,31.6A23.86,23.86,0,0,0,99,28.78Z" fill="#faad93"/><path d="M61.52,37S56.8,31.13,56,35.85s2.68,16.47,8.42,12Z" fill="#faad93"/><path d="M60.88,39.5s-2.26-3.46-2.94-.94.59,9.11,4,7Z" fill="#f3714f" opacity="0.43"/><path d="M97,36.64s4.72-5.9,5.5-1.18-2.68,16.47-8.42,12Z" fill="#faad93"/><path d="M97.41,39s2.17-3.51,2.91-1-.35,9.11-3.76,7.06Z" fill="#f3714f" opacity="0.43"/><path d="M59.16,34.67s2.23,3.29,2.1,6S62.7,35.46,63.09,30s1.57-12.19,5.11-9.83,9,6.29,13.37,4.33l-2.36-2a47.64,47.64,0,0,0,9.05,1.57c5.11.4.39-2.36.39-2.36s8.26,2,8.26,5.51.39,13,.39,13,1.18-6.29,3.54-6.68,2.75-6.29,2-10.22S97.3-2.29,72.14,4c0,0-5.51,0-8.66-2.75S53.65.46,57.59,5.57,53.65.85,50.9,2.43s2,10.61,5.51,12.19S56.41,30.74,59.16,34.67Z" fill="#2d294c"/><path d="M64.7,34.2s4.48-4,9.77-2.08c0,0,1.13,1.74-.16,2.07s-7.58-.1-8.9,1.46Z" fill="#2d294c"/><path d="M70.7,43.41a7.26,7.26,0,0,1-3.28-1.24.38.38,0,0,1-.07-.57.49.49,0,0,1,.63-.05,5.5,5.5,0,0,0,5.71.47.48.48,0,0,1,.62.15.37.37,0,0,1-.15.55A5.8,5.8,0,0,1,70.7,43.41Z" fill="#2d294c"/><path d="M88.16,44.14a7.39,7.39,0,0,1-3.29-1.24.38.38,0,0,1-.06-.57.48.48,0,0,1,.63,0,5.49,5.49,0,0,0,5.71.47.48.48,0,0,1,.62.15.38.38,0,0,1-.15.55A5.81,5.81,0,0,1,88.16,44.14Z" fill="#2d294c"/><path d="M94.47,34.2s-4.48-4-9.77-2.08c0,0-1.13,1.74.16,2.07s7.58-.1,8.9,1.46Z" fill="#2d294c"/><path d="M77.78,49.38c.91,0,1.7.13,2.48.17a6.37,6.37,0,0,0,2.35-.17,2,2,0,0,1-1,.89,3.21,3.21,0,0,1-1.37.18,3.88,3.88,0,0,1-1.3-.32A3.21,3.21,0,0,1,77.78,49.38Z" fill="#f3714f"/><path d="M81,57.67a15.06,15.06,0,0,1-5.68-1.32.34.34,0,0,1-.17-.45.35.35,0,0,1,.45-.17c.06,0,6,2.75,9.17.05a.34.34,0,0,1,.48,0,.34.34,0,0,1,0,.48A6.35,6.35,0,0,1,81,57.67Z" fill="#2d294c"/><path d="M69.16,15c1.49,1.08,2.86,2.22,4.29,3.3s2.87,2.14,4.3,3.3A15.31,15.31,0,0,1,72.9,19,15.56,15.56,0,0,1,69.16,15Z" fill="#fff" opacity="0.3"/><path d="M75.15,13.5c1.69,1.35,3.32,2.69,5,3.91s3.51,2.33,5.34,3.5a16.89,16.89,0,0,1-5.86-2.77A17.2,17.2,0,0,1,75.15,13.5Z" fill="#fff" opacity="0.3"/><path d="M99.29,30.52c-.14-1.2-.31-2.37-.52-3.52-.11-.58-.22-1.15-.37-1.72a6.89,6.89,0,0,0-.51-1.59,4.84,4.84,0,0,0-2.47-2,11.79,11.79,0,0,1-1.58-.89,3.64,3.64,0,0,1-1.23-1.36A7.68,7.68,0,0,0,95.7,21a7.41,7.41,0,0,1,1.68.81,3.85,3.85,0,0,1,1.32,1.48,11,11,0,0,1,.77,3.62A13.66,13.66,0,0,1,99.29,30.52Z" fill="#fff" opacity="0.3"/><path d="M93.71,14.35a14.08,14.08,0,0,1,2.61,1.56,13.77,13.77,0,0,1,2.27,2,7,7,0,0,1-2.81-1.29A7,7,0,0,1,93.71,14.35Z" fill="#fff" opacity="0.3"/><path d="M62.78,18c-.15,1.9-.41,3.73-.59,5.57s-.34,3.68-.59,5.56a16.32,16.32,0,0,1-.31-5.66A16.61,16.61,0,0,1,62.78,18Z" fill="#fff" opacity="0.3"/><path d="M60.18,2.88A10.65,10.65,0,0,0,62.49,6.1a11,11,0,0,0,3.35,2.12,5.09,5.09,0,0,1-4-1.46A5.08,5.08,0,0,1,60.18,2.88Z" fill="#fff" opacity="0.3"/><path d="M53.15,6.31a9.18,9.18,0,0,0,6.06,5.27A4.27,4.27,0,0,1,57,11.45a5.85,5.85,0,0,1-2-1.12A5,5,0,0,1,53.15,6.31Z" fill="#fff" opacity="0.3"/></g></g></svg>