<svg xmlns="http://www.w3.org/2000/svg" viewBox="0 0 213.63 220.68"><g id="Layer_2" data-name="Layer 2"><g id="OBJECTS"><path d="M160.53,7.65l.66-1.95.66,2a10.53,10.53,0,0,0,4.94,5.89h0a10.6,10.6,0,0,0-4.94,5.89l-.66,2-.66-2a10.6,10.6,0,0,0-4.94-5.89h0A10.53,10.53,0,0,0,160.53,7.65Z" fill="#f6c25c"/><path d="M150.71,24.93l.51-1.52.52,1.52a8.25,8.25,0,0,0,3.85,4.6h0a8.2,8.2,0,0,0-3.85,4.59l-.52,1.53-.51-1.53a8.25,8.25,0,0,0-3.86-4.59h0A8.3,8.3,0,0,0,150.71,24.93Z" fill="#f6c25c"/><path d="M64.94,18.16l-.5-1.51-.51,1.51a8.15,8.15,0,0,1-3.81,4.53h0a8.14,8.14,0,0,1,3.81,4.54l.51,1.5.5-1.5a8.18,8.18,0,0,1,3.81-4.54h0A8.19,8.19,0,0,1,64.94,18.16Z" fill="#f6c25c"/><path d="M72.51,31.46l-.4-1.17-.39,1.17a6.37,6.37,0,0,1-3,3.54h0a6.33,6.33,0,0,1,3,3.54l.39,1.17.4-1.17a6.33,6.33,0,0,1,3-3.54h0A6.37,6.37,0,0,1,72.51,31.46Z" fill="#f6c25c"/><path d="M137.5,38.73c-16.42-7.63-37.13-11-51.7-.26-13.32,9.81-17,27.81-25.59,42-9.59,15.8-25.32,26.69-38.47,39.69S-2.73,150.81.58,169c2.76,15.16,15.44,27.05,29.7,32.9s30,6.65,45.44,6.95a843,843,0,0,0,93.21-3.39c10.16-.93,20.61-2.15,29.54-7.07s16.06-14.5,15.07-24.65c-.76-7.75-5.95-14.39-7.5-22-1.79-8.74,1.33-17.63,2.23-26.5,2.09-20.64-8.48-37.07-23.63-49.71C168.84,62.35,156.83,47.7,137.5,38.73Z" fill="#f7f2f0"/><rect x="15.56" y="142.13" width="23.74" height="32.09" fill="#ede3df"/><circle cx="26.94" cy="158.18" r="7.94" transform="translate(-133.51 159.49) rotate(-80.81)" fill="#f7f2f0"/><path d="M33.21,158.18a6.28,6.28,0,1,1-6.27-6.28A6.27,6.27,0,0,1,33.21,158.18Z" fill="#ede3df"/><path d="M156.34,160.82c7.66-4.78,13.22-12.52,16.29-21s3.77-17.71,3.06-26.71" fill="none" stroke="#ede3df" stroke-miterlimit="10"/><path d="M178.36,113.14a19.19,19.19,0,0,0,7.58-8c.29-.57.54-1.33.11-1.81a1.14,1.14,0,0,0-.94-.34,2.93,2.93,0,0,0-1,.3,15.29,15.29,0,0,0-8.66,10.8c0,.19-.14.54.09.67s.53-.26.72-.4A16.21,16.21,0,0,1,178.36,113.14Z" fill="#ede3df"/><path d="M173.35,112.92a19.21,19.21,0,0,1-6.17-9.09c-.2-.62-.32-1.41.18-1.82a1.14,1.14,0,0,1,1-.18,2.84,2.84,0,0,1,.92.46A15.31,15.31,0,0,1,176,114.37c0,.19.05.55-.21.64s-.47-.34-.63-.51A16.41,16.41,0,0,0,173.35,112.92Z" fill="#ede3df"/><path d="M178.68,130.38a25.57,25.57,0,0,0,11.51-9c.5-.71,1-1.66.5-2.38a1.53,1.53,0,0,0-1.18-.62,4.17,4.17,0,0,0-1.35.2c-5.94,1.71-11.56,6.61-13.47,12.6-.07.25-.28.68,0,.9s.73-.24,1-.4A22.75,22.75,0,0,1,178.68,130.38Z" fill="#ede3df"/><path d="M172.13,129.13A25.57,25.57,0,0,1,165.72,116c-.14-.85-.15-1.91.59-2.36a1.53,1.53,0,0,1,1.32,0,3.78,3.78,0,0,1,1.13.77c4.61,4.12,7.52,11,6.63,17.21,0,.25,0,.74-.38.81s-.56-.53-.75-.8A22.32,22.32,0,0,0,172.13,129.13Z" fill="#ede3df"/><path d="M172.23,147.53a25.51,25.51,0,0,0,13.45-5.77c.66-.55,1.35-1.35,1.09-2.17a1.49,1.49,0,0,0-1-.9,3.84,3.84,0,0,0-1.35-.15c-6.19.11-12.87,3.4-16.26,8.7-.14.21-.46.58-.24.86s.77,0,1.09-.12A24.4,24.4,0,0,1,172.23,147.53Z" fill="#ede3df"/><path d="M166.22,144.64a25.58,25.58,0,0,1-2.81-14.37c.08-.85.35-1.88,1.18-2.12a1.49,1.49,0,0,1,1.29.3,3.83,3.83,0,0,1,.89,1c3.39,5.18,4.44,12.56,2,18.34-.1.24-.22.7-.58.68s-.4-.66-.51-1A23.65,23.65,0,0,0,166.22,144.64Z" fill="#ede3df"/><path d="M163.13,159.4a25.55,25.55,0,0,0,14.46-2.25c.78-.37,1.65-1,1.6-1.83a1.54,1.54,0,0,0-.72-1.12,3.81,3.81,0,0,0-1.28-.48c-6-1.43-13.31.1-17.91,4.39-.19.17-.58.45-.44.78s.75.15,1.08.15A24.83,24.83,0,0,1,163.13,159.4Z" fill="#ede3df"/><path d="M158,155.11a25.66,25.66,0,0,1,.85-14.62c.3-.81.81-1.73,1.67-1.76a1.52,1.52,0,0,1,1.18.61,3.88,3.88,0,0,1,.61,1.22c2,5.86,1.18,13.27-2.65,18.26-.15.2-.39.62-.73.51s-.23-.74-.26-1.06A23.08,23.08,0,0,0,158,155.11Z" fill="#ede3df"/><path d="M74.35,174c-7.67-4.78-13.23-12.52-16.3-21S54.29,135.32,55,126.32" fill="none" stroke="#ede3df" stroke-miterlimit="10"/><path d="M52.33,126.37a19.22,19.22,0,0,1-7.59-8c-.29-.58-.53-1.33-.11-1.82a1.13,1.13,0,0,1,.94-.33,2.84,2.84,0,0,1,1,.29,15.28,15.28,0,0,1,8.66,10.81c0,.19.14.53-.09.66s-.52-.25-.72-.4A18.06,18.06,0,0,0,52.33,126.37Z" fill="#ede3df"/><path d="M57.33,126.14a19.19,19.19,0,0,0,6.18-9.09c.19-.62.31-1.4-.19-1.81a1.14,1.14,0,0,0-1-.18,3,3,0,0,0-.92.45,15.28,15.28,0,0,0-6.77,12.08c0,.2,0,.56.2.65s.47-.34.64-.52A17.4,17.4,0,0,1,57.33,126.14Z" fill="#ede3df"/><path d="M52,143.6a25.55,25.55,0,0,1-11.51-9c-.5-.7-1-1.65-.49-2.37a1.48,1.48,0,0,1,1.17-.62,3.66,3.66,0,0,1,1.35.2c5.95,1.7,11.56,6.61,13.47,12.6.08.24.29.68,0,.89s-.73-.23-1-.39A22.94,22.94,0,0,0,52,143.6Z" fill="#ede3df"/><path d="M58.55,142.36A25.66,25.66,0,0,0,65,129.2c.13-.86.14-1.91-.6-2.36a1.49,1.49,0,0,0-1.32,0,3.81,3.81,0,0,0-1.13.78c-4.61,4.12-7.52,11-6.63,17.2,0,.26,0,.74.39.81s.56-.53.74-.8A24.42,24.42,0,0,1,58.55,142.36Z" fill="#ede3df"/><path d="M58.46,160.76A25.62,25.62,0,0,1,45,155c-.66-.56-1.35-1.36-1.08-2.17a1.52,1.52,0,0,1,1-.91,3.87,3.87,0,0,1,1.36-.15c6.18.12,12.87,3.41,16.26,8.7.14.22.45.59.23.87s-.77,0-1.08-.12A23,23,0,0,0,58.46,160.76Z" fill="#ede3df"/><path d="M64.47,157.87a25.49,25.49,0,0,0,2.8-14.37c-.08-.86-.35-1.88-1.18-2.12a1.51,1.51,0,0,0-1.29.29,4,4,0,0,0-.89,1c-3.39,5.17-4.44,12.55-2,18.34.1.23.23.7.58.68s.41-.66.52-1A22.82,22.82,0,0,1,64.47,157.87Z" fill="#ede3df"/><path d="M67.56,172.63a25.57,25.57,0,0,1-14.47-2.26c-.78-.37-1.65-1-1.59-1.83a1.48,1.48,0,0,1,.71-1.11,4,4,0,0,1,1.28-.48c6-1.43,13.32.1,17.91,4.39.19.17.59.45.45.77s-.76.16-1.08.16A21.6,21.6,0,0,0,67.56,172.63Z" fill="#ede3df"/><path d="M72.66,168.34a25.57,25.57,0,0,0-.85-14.62c-.3-.81-.81-1.73-1.67-1.76a1.51,1.51,0,0,0-1.18.6,4,4,0,0,0-.6,1.23c-2,5.85-1.19,13.26,2.64,18.25.16.21.39.63.73.52s.23-.74.26-1.06A22.46,22.46,0,0,1,72.66,168.34Z" fill="#ede3df"/><path d="M203.74,178.88c0,2.25-37.56,4.08-83.89,4.08S36,181.13,36,178.88s37.56-4.08,83.88-4.08S203.74,176.63,203.74,178.88Z" fill="#ede3df"/><path d="M32.46,93.73a10.49,10.49,0,0,0,1.22-5.59c-.25-1.92-1.68-3.8-3.6-4s-3.39,1.15-4.74,2.39L7.49,102.92c-1.67,1.53-3.43,3.22-3.86,5.45-.71,3.67,2.68,6.86,6.31,6.45,2.85-.33,6.23-2.92,8.55-4.5A39.85,39.85,0,0,0,32.46,93.73Z" fill="#f7f2f0"/><path d="M149.11,156.41c-5.29-29.78-6.49-90.62-11.17-92.24-5.66-2-10-1.65-16.73-2.27-5.81-.54-11.12-.07-16.25,0C96.69,62,94.53,64,89.19,67.67c-1.24.86-7,56.68-7.91,88.74Z" fill="#b9506e"/><path d="M100.33,43.55a8.15,8.15,0,0,1-5.89-3.89,9.34,9.34,0,0,1-.6-1.08c-.83-1.77-1.22-8,.75-9.49,1.38-1.05,2.45.39,3,1.35h0a6.14,6.14,0,0,1,.34.72Z" fill="#eebd90"/><path d="M100.62,43.66c-2.73-.2-5.07-2.31-6.18-4-.09-.18-.18-.34-.25-.5-.83-1.77-1.22-8,.75-9.49,1.12-.85,2-.07,2.61.77h0a6.14,6.14,0,0,1,.34.72Z" fill="#e79e80"/><path d="M94.09,34.05a3.37,3.37,0,0,0,.13,1.51c.61,2.07,2.29,3.62,3.9,5.06a6.42,6.42,0,0,1-.63-3.26c0-.38.08-.77.07-1.16C97.53,34.63,94.61,31.09,94.09,34.05Z" fill="#e27c6f"/><path d="M98.93,41.19l-.09-.06L98.58,41a4.73,4.73,0,0,1-.8-.87,4.58,4.58,0,0,1-.68-1.64,4.39,4.39,0,0,1,.14-2.2,2.33,2.33,0,0,1,.11-.28l0-.07h0l0-.06-.06-.11c0-.08-.07-.16-.11-.23a9.54,9.54,0,0,0-.5-.85,8.39,8.39,0,0,0-.53-.72,4.3,4.3,0,0,0-.51-.58,1,1,0,0,0-.52-.27.67.67,0,0,0-.43.1.46.46,0,0,0-.18.23.25.25,0,0,0,0,.1.29.29,0,0,1,0-.11.53.53,0,0,1,.16-.29.8.8,0,0,1,.49-.21,1.16,1.16,0,0,1,.68.23,4.41,4.41,0,0,1,.63.54,7.18,7.18,0,0,1,.62.7,7.74,7.74,0,0,1,.58.87l.14.24.06.12.09.18,0,.12a1.12,1.12,0,0,1,0,.13l-.07.18a.85.85,0,0,0-.09.24,4.52,4.52,0,0,0-.21,1.94A5.17,5.17,0,0,0,98,39.94a4.74,4.74,0,0,0,.62.94c.09.11.17.18.21.23Z" fill="#b34b57"/><path d="M126.1,43.55A8.13,8.13,0,0,0,132,39.66a8,8,0,0,0,.6-1.08c.83-1.77,1.22-8-.75-9.49-1.38-1.05-2.44.39-3,1.35h0a7.06,7.06,0,0,0-.33.72Z" fill="#eebd90"/><path d="M125.81,43.66c2.74-.2,5.07-2.31,6.18-4,.09-.18.18-.34.25-.5.83-1.77,1.22-8-.75-9.49-1.12-.85-2-.07-2.61.77h0a7.06,7.06,0,0,0-.33.72Z" fill="#e79e80"/><path d="M132.34,34.05a3.37,3.37,0,0,1-.13,1.51c-.6,2.07-2.29,3.62-3.9,5.06a6.53,6.53,0,0,0,.64-3.26c0-.38-.08-.77-.08-1.16C128.9,34.63,131.83,31.09,132.34,34.05Z" fill="#e27c6f"/><path d="M127.5,41.19l.09-.06.26-.18a4.12,4.12,0,0,0,.8-.87,4.41,4.41,0,0,0,.68-1.64,4.18,4.18,0,0,0-.14-2.2,1.33,1.33,0,0,0-.1-.28l0-.07s0,0,0,0h0l0-.06.06-.11.12-.23a7.59,7.59,0,0,1,.49-.85c.18-.26.35-.5.53-.72a4.3,4.3,0,0,1,.51-.58,1,1,0,0,1,.52-.27.66.66,0,0,1,.43.1.49.49,0,0,1,.19.23.35.35,0,0,1,0,.1.29.29,0,0,0,0-.11.53.53,0,0,0-.16-.29.8.8,0,0,0-.49-.21,1.16,1.16,0,0,0-.68.23,4.41,4.41,0,0,0-.63.54,8.79,8.79,0,0,0-.62.7,9.39,9.39,0,0,0-.58.87c0,.08-.09.16-.13.24l-.07.12-.08.18-.06.12a1.12,1.12,0,0,0,.05.13l.07.18a1.33,1.33,0,0,1,.1.24,4.67,4.67,0,0,1,.2,1.94,4.9,4.9,0,0,1-.46,1.58,4.34,4.34,0,0,1-.62.94,2.88,2.88,0,0,1-.21.23Z" fill="#b34b57"/><path d="M121.73,63.49c-.87,1.24-2.38,5.51-9.81,4.85-2.92-.26-5.2-2.64-7.37-4.85a5.06,5.06,0,0,0,1.82-1.67c.09-.27.2-2,.3-4.15.18-3.64.34-8.33.34-8.33l12.32.15s0,.09,0,.24c0,.78,0,3.25,0,5.75v0c0,.54,0,1.09.05,1.61.09,2.31.29,4.33.67,4.65A16.89,16.89,0,0,0,121.73,63.49Z" fill="#e79e80"/><path d="M119.43,57.06l-.06,0A6.92,6.92,0,0,1,116,58.85a17.66,17.66,0,0,1-9.32-1.18c.18-3.64.34-8.33.34-8.33l12.32.15s0,.09,0,.24c0,.76-.12,3.17,0,5.75v0C119.35,56,119.38,56.55,119.43,57.06Z" fill="#e27c6f"/><path d="M128.5,34s-2.63,13.34-5.58,16.64l-.35.36c-.12.11-.24.22-.37.32l0,0-.34.28-.28.2-.26.17q-.41.26-.84.48l-.45.24h0l-.46.21q-.5.21-1,.39a16.11,16.11,0,0,1-10.83,0c-.33-.12-.65-.25-1-.39l-.46-.21h0l-.46-.24c-.15-.08-.31-.16-.45-.25h0l-.44-.28-.47-.32c-.12-.1-.24-.19-.36-.3a3,3,0,0,1-.38-.33l-.35-.36a4.89,4.89,0,0,1-.41-.53c-.13-.2-.27-.41-.4-.64l-.26-.49c0-.09-.08-.17-.13-.26-.17-.36-.33-.74-.49-1.14a2.88,2.88,0,0,0-.13-.31A83.9,83.9,0,0,1,98.11,34a8.42,8.42,0,0,1-.24-.84c-.07-.28-.14-.59-.2-.9,0-.16,0-.32-.08-.48s0-.34-.07-.51c0-.32-.09-.65-.12-1,0-.06,0-.13,0-.18v0c0-.16,0-.32,0-.48l0-.49a56,56,0,0,1,0-6.79s0-.37.06-1l0-.28a1.6,1.6,0,0,1,0-.3c0-.13,0-.27,0-.41s0-.41.08-.63c.06-.39.13-.81.22-1.25l.09-.43c.13-.59.28-1.2.48-1.82,0-.13.08-.27.13-.41a13.41,13.41,0,0,1,.59-1.48l.18-.38.24-.46c.08-.14.16-.26.23-.39l.07-.11h0a8,8,0,0,1,1.44-1.72c1.62-1.41,4-1.62,6.23-1.38a53.66,53.66,0,0,0,11.19,0c2.23-.24,4.63,0,6.23,1.38,1.9,1.66,2.88,4.45,3.38,6.8a24.49,24.49,0,0,1,.53,4.25s.11.76.2,1.93C129.24,26.76,129.43,31.28,128.5,34Z" fill="#e79e80"/><path d="M119,40.57a11.25,11.25,0,0,1-11.57,2.22A8.17,8.17,0,0,0,114,44.46,7.13,7.13,0,0,0,119,40.57Z" fill="#db5b67"/><path d="M116.19,45.17a4.16,4.16,0,0,1-3.64.86,4.5,4.5,0,0,0,2.18.8A1.72,1.72,0,0,0,116.19,45.17Z" fill="#db5b67"/><path d="M128.5,34s-2.63,13.34-5.58,16.64l-.35.36c-.12.11-.24.22-.37.32l0,0-.34.28-.28.2-.26.17q-.41.26-.84.48l-.45.24h0l-.46.21q-.5.21-1,.39a16.11,16.11,0,0,1-10.83,0c-.33-.12-.65-.25-1-.39l-.46-.21h0l-.46-.24c-.15-.08-.31-.16-.45-.25h0l-.44-.28-.47-.32c-.12-.1-.24-.19-.36-.3a3,3,0,0,1-.38-.33l-.35-.36a4.89,4.89,0,0,1-.41-.53c-.13-.2-.27-.41-.4-.64l-.26-.49c0-.09-.08-.17-.13-.26-.16-.36-.33-.74-.49-1.14a2.88,2.88,0,0,0-.13-.31A83.9,83.9,0,0,1,98.11,34c-.08-.26-.17-.54-.24-.84s-.14-.59-.2-.9c0-.16,0-.32-.08-.48s0-.34-.07-.51c0-.32-.09-.65-.12-1,0-.07,0-.14,0-.21s0-.32,0-.48l0-.49a56,56,0,0,1,0-6.79s0-.37.06-1l0-.28a1.6,1.6,0,0,1,0-.3c0-.13,0-.27,0-.41s0-.41.08-.63c.06-.39.13-.81.22-1.25l.09-.43c.13-.59.28-1.2.48-1.82,0-.13.08-.27.13-.41a13.41,13.41,0,0,1,.59-1.48l.18-.38.24-.46c.08-.14.16-.26.23-.39l.07-.11c-2.28,13-2.6,26.92,4,37,4.22,4.22,15.1,5.66,18.84-.68,5.07-8.59,5.56-16.75,6.32-25.08C129.24,26.76,129.43,31.28,128.5,34Z" fill="#eebd90"/><path d="M130.87,29l-2.52,3.19-2.54-16.24-2.14-1.18V12l-1.94,2.72c-5.12.92-20.87.53-20.87.53L97.59,31.74l-3-2.65.32-7.42.29-6.93C91.88,13.7,91,6.28,91,6.28l7.11.26C95.07,5,94.48.16,94.48.16c2.17-1.12,29.44,4,33.37,6.38,2.36,1.45,3,9.22,3.09,15.22C131,25.77,130.87,29,130.87,29Z" fill="#d84d46"/><path d="M130.94,21.76a6.25,6.25,0,0,1-1.75-1.8c-1.34-2.11-1.54-4.72-1.67-7.23l-2-.47c.25-1.23.49-2.47.73-3.7a17.31,17.31,0,0,1-9.09,0l1.69,2a46.28,46.28,0,0,1-13.9.35l1.33,1.94a25,25,0,0,1-9.12.7,5.92,5.92,0,0,1,.11,5.9,5.72,5.72,0,0,1-2.34,2.26l.29-6.93c-3.12-1-4.06-7.55-4.17-8.37h0a.45.45,0,0,1,0-.08l7.11.26C95.07,5,94.48.16,94.48.16c2.17-1.12,29.44,4,33.37,6.38,1.05.65,1.76,2.56,2.23,5A63.43,63.43,0,0,1,130.94,21.76Z" fill="#e87458"/><path d="M130.08,11.55a6.52,6.52,0,0,1-3-4.25,180.82,180.82,0,0,1-21.2-3.48l4,3.11a20,20,0,0,1-9.34-.56c.82,1.19,1.64,2.39,2.47,3.57A14.05,14.05,0,0,1,91,6.37h0a.45.45,0,0,1,0-.08l7.11.26C95.07,5,94.48.16,94.48.16c2.17-1.12,29.44,4,33.37,6.38C128.9,7.19,129.61,9.1,130.08,11.55Z" fill="#e5925a"/><path d="M117.22,29.1a5.12,5.12,0,0,0,3.57.95,5.58,5.58,0,0,0,3.41-1.68,4.1,4.1,0,0,1-3.56,3.06A3.14,3.14,0,0,1,117.22,29.1Z" fill="#2a2b2b"/><path d="M107.82,29.1a5.14,5.14,0,0,1-3.57.95,5.55,5.55,0,0,1-3.41-1.68,4.09,4.09,0,0,0,3.56,3.06A3.14,3.14,0,0,0,107.82,29.1Z" fill="#2a2b2b"/><path d="M100.72,22.47s7.3-3.57,9.42-1.69c1.24,1.1.06,1.58.06,1.58Z" fill="#e87458"/><path d="M125.33,24.54s-5.77-5.71-8.39-4.61c-1.52.65-.55,1.49-.55,1.49Z" fill="#e87458"/><path d="M115.56,37.11a4.33,4.33,0,0,0-5.45,0,4.45,4.45,0,0,0,2.71,1.05A4.58,4.58,0,0,0,115.56,37.11Z" fill="#e27c6f"/><path d="M115.56,37.11a4.7,4.7,0,0,1-3,1.26,4.44,4.44,0,0,1-3-1.08,15.18,15.18,0,0,0,1.7-8.57,12.92,12.92,0,0,1-.09,8.44A6.43,6.43,0,0,0,115.56,37.11Z" fill="#db5b67"/><path d="M104.66,37.08c-.26.69-2.17.62-4.27-.16s-3.59-2-3.33-2.69,2.18-.62,4.27.16S104.92,36.38,104.66,37.08Z" fill="#e27c6f"/><path d="M130,34.1c.28.68-1.16,1.94-3.23,2.8s-4,1-4.26.32,1.15-1.95,3.22-2.81S129.75,33.41,130,34.1Z" fill="#e27c6f"/><path d="M169.12,131a27.31,27.31,0,0,1-12.55-12c-4.79-9-10.95-20.65-10.95-20.65l17-7s9.66,15.93,9.73,16.62-3.2,23-3.2,23" fill="#ed715d"/><path d="M165.5,128.75c3.47,4.23,8.85,2.71,12.75-9s-2.55-45.83-2.55-45.83l-1.63-.1-.69-5.33-.82-2.58-.08-.24s-4.15,2.38-4.34,3c-1.75,6.06-8.41,33.13-8.81,40.6A28.54,28.54,0,0,0,165.5,128.75Z" fill="#f3a080"/><path d="M165.5,128.75s-4.32-15.06-3.88-19.61S168.55,73.34,169,71s3.92-2.24,3.92-2.24l-.32-2.88-.08-.24s-4.15,2.38-4.34,3c-1.75,6.06-8.41,33.13-8.81,40.6A28.54,28.54,0,0,0,165.5,128.75Z" fill="#f48771"/><path d="M198.7,58.24c-.76,2.07-6.56,8.76-8.79,11.12s-4.42,2.92-6.15,2.63a11.49,11.49,0,0,0-5.91,1c-1.73.78-3-.48-4.25-.85-.61-.18-.75-1.75-.72-3.35a11,11,0,0,0-.4-3.13l2.72-.4s1.3-3.59,2.19-4.43,4-4,4.08-5-.4-5.53.4-5.92,2.24-.28,2.62,1.89.29,5.28.66,5.66a20.36,20.36,0,0,0,2.6,1.45S189.09,56.82,189,56s-2.26-1.75-2.87-2.48-2.87-3.76-2-3.71c1.28.07,9,2.88,9.35,4.83a9.82,9.82,0,0,1-.66,4.22c-.16.32-.67,1.43-.67,1.43h0a.82.82,0,0,0,.22,0,1.4,1.4,0,0,0,1.37-.85c.54-1.1,1.94-3.33,1.92-4.25s1-4.66,2.25-4.19S199.45,56.17,198.7,58.24Z" fill="#f48771"/><path d="M198.7,58.24c-.76,2.07-6.56,8.76-8.79,11.12s-4.42,2.92-6.15,2.63a11.49,11.49,0,0,0-5.91,1c-1.73.78-2.44,1.28-3.73.93s-1.27-3.53-1.24-5.13a22.11,22.11,0,0,1,3.41.58c1,.35,2.38-.72,3.6-1.27s5-1.19,6.84-2.14,5.45-5.6,5.45-5.6h0l.2.07,0,0a1.4,1.4,0,0,0,1.37-.85c.54-1.1,1.94-3.33,1.92-4.25s1-4.66,2.25-4.19S199.45,56.17,198.7,58.24Z" fill="#f3a080"/><path d="M183,62.94a10,10,0,0,0,.57-3.21,4,4,0,0,1,0,3.43c-.21.42-1.44,2.17-2,1.85-.31-.17.54-.66.66-.78A4.19,4.19,0,0,0,183,62.94Z" fill="#b54b57"/><path d="M70.5,126.63a27.36,27.36,0,0,0,11.14-13.35c3.77-9.42,4.69-22.5,4.69-22.5L72.6,86.5s-7.84,16.9-7.84,17.59,5.74,22.54,5.74,22.54" fill="#ed715d"/><path d="M99.65,62.52c-1,0-11.37,1-15.91,3S67.6,91,67.6,91l19.12,14.66,16-39.75" fill="#b9506e"/><path d="M73.85,124.05c-3,4.58-8.49,3.67-13.67-7.58s-2.53-45.83-2.53-45.83l1.61-.28.1-5.38.53-2.64,0-.26s4.39,1.91,4.65,2.55c2.41,5.82,12,32,13.23,39.37A28.54,28.54,0,0,1,73.85,124.05Z" fill="#f3a080"/><path d="M73.85,124.05s2.63-15.45,1.69-19.93S64.69,69.31,64,67s-4.14-1.79-4.14-1.79V62.34l0-.26s4.39,1.91,4.65,2.55c2.41,5.82,12,32,13.23,39.37A28.54,28.54,0,0,1,73.85,124.05Z" fill="#f48771"/><path d="M33.07,57.64c1,2,7.48,8,10,10.08s4.72,2.41,6.4,1.93a11.54,11.54,0,0,1,6,.3c1.81.58,2.89-.8,4.13-1.32.58-.24.55-1.81.35-3.41a11.14,11.14,0,0,1,0-3.14L57.19,62s-1.69-3.43-2.67-4.16-4.41-3.59-4.59-4.48-.22-5.55-1.06-5.84-2.26,0-2.39,2.17.29,5.28,0,5.69A20.14,20.14,0,0,1,44,57.09s-1.56-1.93-1.55-2.72,2.05-2,2.57-2.79,2.45-4,1.55-3.9c-1.27.21-8.59,3.85-8.77,5.84A9.86,9.86,0,0,0,39,57.63c.2.31.82,1.35.82,1.35h0l-.21.05a1.41,1.41,0,0,1-1.46-.7c-.65-1-2.29-3.1-2.38-4S34.24,49.79,33,50.4,32.09,55.67,33.07,57.64Z" fill="#f48771"/><path d="M33.07,57.64c1,2,7.48,8,10,10.08s4.72,2.41,6.4,1.93a11.54,11.54,0,0,1,6,.3c1.81.58,2.57,1,3.81.51s.87-3.64.67-5.24a23,23,0,0,0-3.33,1c-1,.46-2.44-.45-3.72-.86s-5.07-.64-7-1.37-6-5-6-5h0l-.19.1,0,0a1.41,1.41,0,0,1-1.46-.7c-.65-1-2.29-3.1-2.38-4S34.24,49.79,33,50.4,32.09,55.67,33.07,57.64Z" fill="#f3a080"/><path d="M49.21,60.57a9.92,9.92,0,0,1-.92-3.13,4,4,0,0,0,.39,3.41c.25.4,1.66,2,2.23,1.61.3-.2-.6-.59-.74-.7A4.09,4.09,0,0,1,49.21,60.57Z" fill="#b54b57"/><path d="M130.86,62.52c1,0,11.37,1,15.91,3S162.91,91,162.91,91l-18.72,14.22L130.86,62.52" fill="#b9506e"/><path d="M78.77,149.85s38.22-6.56,79,3L115.66,176.6Z" fill="#262638"/><path d="M86.57,147.11c-5.28-2.87-11-3.45-16.83-2.92-4.93.44-12.93,3-16,7.59-2.52,3.77,1.47,10.4,3.56,13.72,2.43,3.86,5.92,6.75,9.51,9.47,7,5.28,48.64,18.91,67.58,23.37l11.5-18.44C128.41,169.71,91.67,149.88,86.57,147.11Z" fill="#343345"/><path d="M181.94,213.69a4.2,4.2,0,0,1-.21,1.35c0,.09-.06.16-.08.24-.25.71-.58,1.31-.73,1.27s-15.71-2.07-17.61-2.94l-15.22-8.42-8-4.41,1-2.41,1.37-3.44,1.28-3.16s.43-.44,1.15-1.09c2.21-2,7.08-6,9.38-4.66,3,1.77,6.59,13.82,7.79,14.14s7.59,1.16,8.53,1.85S181.86,212.76,181.94,213.69Z" fill="#f3a080"/><path d="M181.65,215.28c-.25.71-.58,1.31-.73,1.27s-15.71-2.07-17.61-2.94l-15.22-8.42-8-4.41,1-2.41.78.61S162,210.8,164.44,211.71C166.39,212.45,177.14,214.45,181.65,215.28Z" fill="#f8bf92"/><polygon points="149.76 185.09 134.25 176.93 123.61 195.51 140.72 201.87 149.76 185.09" fill="#343345"/><path d="M143.92,147.11c5.28-2.87,11-3.45,16.83-2.92,4.93.44,12.93,3,16,7.59,2.52,3.77-1.46,10.4-3.55,13.72-2.43,3.86-5.92,6.75-9.52,9.47-6.95,5.28-50,18.91-68.94,23.37l-7.19-17C105,171.14,138.81,149.88,143.92,147.11Z" fill="#434356"/><path d="M92.86,195.92l-9.21,3.65s-8.75,15-11.52,16.06-3.63,4.41-5.91,5a1.88,1.88,0,0,1-1-.07,6.12,6.12,0,0,1-1.8-1c-.28-.21-.56-.44-.85-.7a18.83,18.83,0,0,1-2.29-2.34q-.33-.39-.63-.78a15.56,15.56,0,0,1-1.51-2.34,6.73,6.73,0,0,1-.38-.83h0a7.66,7.66,0,0,1-.3-1,9.62,9.62,0,0,1,.13-3.6v0a15.58,15.58,0,0,1,1.07-3.3c-.28.09-4.24,1.43-5.45-.95s-1-6.79,1.29-8.71a12.08,12.08,0,0,1,4.06-2.39s6.72,1.13,7.28-.14.85-5,2.41-5.85,10.86-1.79,10.86-1.79l1.48-.45,7.67-2.32,3.2,9.68,0,0Z" fill="#f3a080"/><path d="M61.45,198.56c.1.22-.12.57-.38.39-1.15-.79-2.37-2.2-3.89-1.52-.58.26-.57.28-.69.82a10.42,10.42,0,0,0-.16,1.25c0,.55-.06,1.1-.07,1.65a6.66,6.66,0,0,0,5-1.51.2.2,0,0,1,.27.27c-1.22,2-3.78,2.52-5.92,2.18a.54.54,0,0,1-.38-.5c-.19-1.46-.39-4.64,1.43-5.22A4.71,4.71,0,0,1,61.45,198.56Z" fill="#b54b57"/><path d="M65,215.94a12.25,12.25,0,0,1-2.42,3c.29.25.57.48.86.69a9.56,9.56,0,0,0,2.6-3.07.62.62,0,0,0-.11-.72.51.51,0,0,0-.42-.17A.58.58,0,0,0,65,215.94Z" fill="#b54b57"/><path d="M62.51,212.9a21,21,0,0,1-1.77,2,12.46,12.46,0,0,1-1.07.85c.2.27.41.53.63.79a8.27,8.27,0,0,0,3-3.06C63.57,213,62.89,212.45,62.51,212.9Z" fill="#b54b57"/><path d="M61.11,209.45c-.69.65-1.21,1.45-1.92,2.08a11.15,11.15,0,0,1-1.42,1.06h0a6.73,6.73,0,0,0,.38.83A8.52,8.52,0,0,0,61.84,210,.46.46,0,0,0,61.11,209.45Z" fill="#b54b57"/><path d="M92.86,195.92l-9.21,3.65s-8.75,15-11.52,16.06-3.63,4.41-5.91,5a1.88,1.88,0,0,1-1-.07c.78-1.09,1.89-2.73,2.63-4,1.25-2.16,4.09-3.44,7.64-7.24S82,195.61,82,195.61l9.47-3.84,0,0Z" fill="#f8bf92"/><polygon points="78.45 185.09 94.27 177.35 103.98 195.96 87.5 201.87 78.45 185.09" fill="#434356"/></g></g></svg>