<svg xmlns="http://www.w3.org/2000/svg" viewBox="0 0 221.05 219.15"><g id="Layer_2" data-name="Layer 2"><g id="OBJECTS"><path d="M111.86,31.73A59.83,59.83,0,0,0,65,56.6C53.47,73,50.53,94.75,36.81,109.34c-6.54,7-15,11.7-22.42,17.74S.38,141.3,0,150.84c-.31,7.92,3.91,15.55,9.85,20.8s13.44,8.41,21,10.69c26.31,7.88,54.41,6.1,81.81,4.24l58-3.93c8.61-.58,17.33-1.18,25.56-3.78s16.08-7.45,20.58-14.82c7.62-12.46,3.93-29.11-4.2-41.25s-20-21.19-30.24-31.58C175.77,84.46,169.61,76.8,166,68c-2.6-6.3-3.49-11.54-8.34-16.5C145.65,39.21,129.14,31.37,111.86,31.73Z" fill="#f7f2f0"/><ellipse cx="116.21" cy="178.11" rx="82.34" ry="4" fill="#ede3df"/><path d="M70.91,71a1.83,1.83,0,0,1,.58-.79.91.91,0,0,1,.94-.08,1,1,0,0,1,.4.6,2.23,2.23,0,0,1,0,.73,1.35,1.35,0,0,1,1.11-1,1.36,1.36,0,0,1,1.32.62,2.44,2.44,0,0,1,.2,1.6,4.45,4.45,0,0,1-.67,2,2.06,2.06,0,0,1-1.76.94c-1.61-.12-2.45-1.91-2.4-3.35A3.48,3.48,0,0,1,70.91,71Z" fill="#ede3df"/><path d="M66.84,76a1.74,1.74,0,0,1-.57-.79.88.88,0,0,1,.21-.92.92.92,0,0,1,.69-.19,2,2,0,0,1,.7.22,1.35,1.35,0,0,1,.44-2.42,2.4,2.4,0,0,1,1.58.31,4.32,4.32,0,0,1,1.65,1.23,2.06,2.06,0,0,1,.35,2c-.61,1.5-2.58,1.75-3.93,1.26A3.52,3.52,0,0,1,66.84,76Z" fill="#ede3df"/><path d="M70.37,81.45a1.77,1.77,0,0,1-.93.3.81.81,0,0,1-.78-1.2,2,2,0,0,1,.42-.6,1.34,1.34,0,0,1-2.16-1.17,2.38,2.38,0,0,1,.78-1.4,4.28,4.28,0,0,1,1.68-1.19,2.09,2.09,0,0,1,2,.28c1.23,1,.86,3,0,4.12A3.62,3.62,0,0,1,70.37,81.45Z" fill="#ede3df"/><path d="M76.62,79.78a1.78,1.78,0,0,1,0,1,.88.88,0,0,1-.7.62.92.92,0,0,1-.68-.25,2.24,2.24,0,0,1-.43-.58A1.37,1.37,0,0,1,74.45,82a1.35,1.35,0,0,1-1.43.27,2.35,2.35,0,0,1-1.1-1.18,4.33,4.33,0,0,1-.61-2,2.07,2.07,0,0,1,.87-1.79c1.38-.85,3.11.1,3.92,1.3A3.63,3.63,0,0,1,76.62,79.78Z" fill="#ede3df"/><path d="M77,73.31a1.81,1.81,0,0,1,.93.31.89.89,0,0,1,.36.86.93.93,0,0,1-.44.57,2.34,2.34,0,0,1-.69.23,1.35,1.35,0,0,1,1.06,2.22,2.4,2.4,0,0,1-1.46.68,4.48,4.48,0,0,1-2.06,0,2.06,2.06,0,0,1-1.43-1.39c-.39-1.57,1-2.92,2.43-3.32A3.56,3.56,0,0,1,77,73.31Z" fill="#ede3df"/><path d="M74.64,76.16a2,2,0,1,1-1.81-2.09A2,2,0,0,1,74.64,76.16Z" fill="#fff"/><path d="M146,166.24c6.52-5.34,10.82-13,13.46-21s3.74-16.42,4.83-24.78" fill="none" stroke="#ede3df" stroke-miterlimit="10"/><path d="M170.14,115.15a18,18,0,0,1,10.78-2.22c-2.14,3.28-4.35,6.63-7.48,9a12.76,12.76,0,0,1-7.95,2.7c-4.26-.16-1.35-4.17.24-5.92A17.75,17.75,0,0,1,170.14,115.15Z" fill="#ede3df"/><path d="M161.63,112.88a17.92,17.92,0,0,0-8.53-7c.38,3.9.79,7.89,2.48,11.43a12.71,12.71,0,0,0,5.79,6.06c3.85,1.83,3.13-3.07,2.53-5.35A17.88,17.88,0,0,0,161.63,112.88Z" fill="#ede3df"/><path d="M167.63,131.34a18,18,0,0,1,10.79-2.22c-2.14,3.28-4.35,6.63-7.49,9a12.71,12.71,0,0,1-7.94,2.7c-4.26-.16-1.35-4.17.24-5.92A18.12,18.12,0,0,1,167.63,131.34Z" fill="#ede3df"/><path d="M159.13,129.07a18,18,0,0,0-8.53-7c.38,3.9.79,7.89,2.48,11.43a12.73,12.73,0,0,0,5.79,6.07c3.85,1.82,3.13-3.08,2.53-5.36A17.88,17.88,0,0,0,159.13,129.07Z" fill="#ede3df"/><path d="M164,147.92a18,18,0,0,1,11,.67c-2.93,2.6-5.93,5.26-9.57,6.72a12.74,12.74,0,0,1-8.37.53c-4.08-1.27-.22-4.37,1.77-5.65A18.09,18.09,0,0,1,164,147.92Z" fill="#ede3df"/><path d="M156.34,143.51a18,18,0,0,0-6.43-8.94c-.64,3.86-1.29,7.82-.58,11.68a12.72,12.72,0,0,0,4,7.37c3.24,2.77,3.82-2.15,3.84-4.51A18.32,18.32,0,0,0,156.34,143.51Z" fill="#ede3df"/><path d="M156.11,161.52a17.93,17.93,0,0,1,10.72,2.53c-3.32,2.07-6.74,4.18-10.57,5a12.68,12.68,0,0,1-8.34-.9c-3.8-1.94.53-4.35,2.7-5.27A18,18,0,0,1,156.11,161.52Z" fill="#ede3df"/><path d="M149.36,155.88a17.93,17.93,0,0,0-4.81-9.91c-1.29,3.7-2.6,7.49-2.56,11.41a12.7,12.7,0,0,0,2.69,7.94c2.73,3.28,4.13-1.47,4.55-3.79A17.85,17.85,0,0,0,149.36,155.88Z" fill="#ede3df"/><path d="M76.85,150.35c-5.78-4.74-9.59-11.53-11.93-18.62s-3.31-14.55-4.28-22" fill="none" stroke="#ede3df" stroke-miterlimit="10"/><path d="M55.5,105.07a16,16,0,0,0-9.56-2c1.9,2.91,3.85,5.88,6.63,8a11.34,11.34,0,0,0,7,2.4c3.78-.15,1.2-3.7-.21-5.25A16,16,0,0,0,55.5,105.07Z" fill="#ede3df"/><path d="M63,103.06a15.94,15.94,0,0,1,7.56-6.17c-.34,3.46-.7,7-2.2,10.13a11.3,11.3,0,0,1-5.13,5.38c-3.41,1.62-2.77-2.72-2.24-4.75A15.8,15.8,0,0,1,63,103.06Z" fill="#ede3df"/><path d="M57.71,119.42a16,16,0,0,0-9.56-2c1.9,2.91,3.86,5.88,6.64,8a11.23,11.23,0,0,0,7,2.39c3.77-.14,1.19-3.69-.21-5.24A16,16,0,0,0,57.71,119.42Z" fill="#ede3df"/><path d="M65.25,117.41a15.94,15.94,0,0,1,7.56-6.17c-.34,3.46-.7,7-2.2,10.13a11.35,11.35,0,0,1-5.13,5.38c-3.42,1.61-2.77-2.73-2.24-4.75A15.8,15.8,0,0,1,65.25,117.41Z" fill="#ede3df"/><path d="M61,134.11a16.06,16.06,0,0,0-9.74.59c2.59,2.31,5.26,4.67,8.48,6a11.21,11.21,0,0,0,7.42.47c3.61-1.12.19-3.87-1.57-5A15.71,15.71,0,0,0,61,134.11Z" fill="#ede3df"/><path d="M67.72,130.21a16,16,0,0,1,5.69-7.93c.58,3.43,1.15,6.94.52,10.35a11.26,11.26,0,0,1-3.55,6.53c-2.88,2.45-3.38-1.9-3.4-4A15.72,15.72,0,0,1,67.72,130.21Z" fill="#ede3df"/><path d="M67.92,146.16a16,16,0,0,0-9.5,2.24c2.95,1.84,6,3.71,9.37,4.43a11.27,11.27,0,0,0,7.39-.8c3.37-1.72-.47-3.85-2.39-4.67A16.1,16.1,0,0,0,67.92,146.16Z" fill="#ede3df"/><path d="M73.91,141.17a15.93,15.93,0,0,1,4.25-8.79c1.15,3.28,2.32,6.64,2.28,10.11a11.31,11.31,0,0,1-2.39,7c-2.42,2.91-3.66-1.3-4-3.35A15.6,15.6,0,0,1,73.91,141.17Z" fill="#ede3df"/><path d="M171.59,95.2a2.18,2.18,0,0,1,.7-.94,1.08,1.08,0,0,1,1.12-.1,1.09,1.09,0,0,1,.47.71,2.37,2.37,0,0,1,0,.88,1.62,1.62,0,0,1,2.92-.39,2.84,2.84,0,0,1,.23,1.91,5.34,5.34,0,0,1-.79,2.34,2.49,2.49,0,0,1-2.11,1.11c-1.93-.13-2.94-2.28-2.88-4A4.41,4.41,0,0,1,171.59,95.2Z" fill="#ede3df"/><path d="M166.72,101.22a2.07,2.07,0,0,1-.68-1,1,1,0,0,1,.25-1.09,1.1,1.1,0,0,1,.82-.24,2.74,2.74,0,0,1,.84.26,1.61,1.61,0,0,1,.53-2.89,2.82,2.82,0,0,1,1.89.37,5.19,5.19,0,0,1,2,1.48,2.49,2.49,0,0,1,.41,2.34c-.73,1.8-3.08,2.1-4.7,1.51A4.13,4.13,0,0,1,166.72,101.22Z" fill="#ede3df"/><path d="M170.94,107.72a2.14,2.14,0,0,1-1.12.35,1.06,1.06,0,0,1-1-.58,1.09,1.09,0,0,1,0-.85,2.77,2.77,0,0,1,.51-.72,1.63,1.63,0,0,1-1.75.14,1.66,1.66,0,0,1-.84-1.53,2.88,2.88,0,0,1,.94-1.69,5.24,5.24,0,0,1,2-1.42,2.48,2.48,0,0,1,2.36.33c1.48,1.25,1,3.58,0,4.93A4.11,4.11,0,0,1,170.94,107.72Z" fill="#ede3df"/><path d="M178.42,105.71a2.11,2.11,0,0,1,0,1.17,1.06,1.06,0,0,1-.84.74,1.1,1.1,0,0,1-.81-.29,2.6,2.6,0,0,1-.52-.71,1.61,1.61,0,0,1-2.13,2,2.86,2.86,0,0,1-1.31-1.41,5.1,5.1,0,0,1-.73-2.36,2.48,2.48,0,0,1,1-2.14c1.65-1,3.72.12,4.69,1.55A4.1,4.1,0,0,1,178.42,105.71Z" fill="#ede3df"/><path d="M178.82,98a2,2,0,0,1,1.11.37,1,1,0,0,1,.44,1,1.06,1.06,0,0,1-.52.67,2.55,2.55,0,0,1-.83.28,1.66,1.66,0,0,1,1.49.92,1.65,1.65,0,0,1-.22,1.74,2.89,2.89,0,0,1-1.75.81,5.16,5.16,0,0,1-2.47,0,2.47,2.47,0,0,1-1.71-1.65c-.46-1.88,1.26-3.5,2.92-4A4.21,4.21,0,0,1,178.82,98Z" fill="#ede3df"/><path d="M176.05,101.38a2.34,2.34,0,1,1-2.17-2.49A2.33,2.33,0,0,1,176.05,101.38Z" fill="#fff"/><path d="M28.37,146c1.84,1.57,11,4.86,14.42,5.92s5.81.42,7.31-.79a12.73,12.73,0,0,1,6.19-2.27c2.07-.18,2.57-2,3.61-3.1.49-.5-.23-2.08-1.11-3.61-1-1.71-2.12-3.93-2.12-3.93l-2,1.81s-3.19-2.75-4.49-3.06-6-1.74-6.58-2.57S41,128.84,40,128.9s-2.3.94-1.5,3.23,2.57,5.22,2.42,5.78a22.5,22.5,0,0,1-1.71,2.79s-2.41-1.28-2.75-2.09,1.23-2.89,1.42-3.93.73-5.15-.12-4.61c-1.18.75-7,7.59-6.36,9.68a11,11,0,0,0,2.9,3.68c.34.22,1.42,1,1.42,1h0a.86.86,0,0,1-.19.14,1.57,1.57,0,0,1-1.78-.08c-1.1-.76-3.65-2.15-4.13-3s-3.44-4-4.41-2.81S26.54,144.38,28.37,146Z" fill="#f48771"/><path d="M28.37,146c1.84,1.57,11,4.86,14.42,5.92s5.81.42,7.31-.79a12.73,12.73,0,0,1,6.19-2.27c2.07-.18,3-.06,4.08-1.11.48-.5-.7-4.07-1.58-5.6a25.29,25.29,0,0,0-3,2.4c-.8.9-2.67.6-4.13.73s-5.41,1.53-7.71,1.63-8.25-2.44-8.25-2.44h0l-.14.18-.05,0a1.57,1.57,0,0,1-1.78-.08c-1.1-.76-3.65-2.15-4.13-3s-3.44-4-4.41-2.81S26.54,144.38,28.37,146Z" fill="#f3a080"/><path d="M46,142a10.89,10.89,0,0,1-2.27-2.77,4.41,4.41,0,0,0,1.86,3.28c.42.3,2.54,1.31,2.95.68.22-.34-.86-.34-1-.4A4.46,4.46,0,0,1,46,142Z" fill="#b54b57"/><path d="M90.75,108.18s-4,13-6.18,18.78-25.09,21.55-25.09,21.55l0-.14L59,146.85l-1.12-4.1-1.24-4.56,12.75-15.67,8.24-29.75Z" fill="#f3a080"/><polygon points="79.23 94.61 71.93 123.97 57.91 142.75 56.67 138.19 69.33 121.83 77.66 92.77 79.23 94.61" fill="#f48771"/><path d="M202.78,146.69c-1.83,1.57-11,4.84-14.42,5.9s-5.81.41-7.31-.8a12.74,12.74,0,0,0-6.18-2.28c-2.08-.18-2.58-2-3.61-3.1-.49-.5.23-2.08,1.11-3.6,1-1.72,2.13-3.93,2.13-3.93l2,1.8s3.18-2.74,4.49-3.05,6-1.73,6.58-2.56,2.6-5.52,3.58-5.45,2.3.94,1.49,3.22-2.58,5.22-2.42,5.78a21.57,21.57,0,0,0,1.71,2.8s2.41-1.28,2.74-2.09-1.22-2.9-1.41-3.93-.72-5.15.12-4.61c1.19.75,7,7.59,6.36,9.68a10.85,10.85,0,0,1-2.91,3.68c-.34.22-1.42,1-1.42,1h0a.86.86,0,0,0,.19.14,1.57,1.57,0,0,0,1.78-.08c1.1-.76,3.65-2.15,4.13-3s3.44-3.95,4.41-2.81S204.62,145.11,202.78,146.69Z" fill="#f48771"/><path d="M202.78,146.69c-1.83,1.57-11,4.84-14.42,5.9s-5.81.41-7.31-.8a12.74,12.74,0,0,0-6.18-2.28c-2.08-.18-3.05-.06-4.08-1.11-.49-.5.7-4.07,1.58-5.59a24.24,24.24,0,0,1,3,2.4c.8.89,2.67.6,4.13.73s5.41,1.54,7.71,1.64,8.25-2.43,8.25-2.43h0l.14.17.05,0a1.57,1.57,0,0,0,1.78-.08c1.1-.76,3.65-2.15,4.13-3s3.44-3.95,4.41-2.81S204.62,145.11,202.78,146.69Z" fill="#f3a080"/><path d="M185.19,142.7a11.14,11.14,0,0,0,2.28-2.77,4.42,4.42,0,0,1-1.87,3.28c-.42.29-2.54,1.31-2.95.67-.22-.33.86-.34,1-.4A4.43,4.43,0,0,0,185.19,142.7Z" fill="#b54b57"/><path d="M140.45,108.83s4,13,6.16,18.79,25.07,21.58,25.07,21.58l0-.14.42-1.52,1.12-4.1,1.24-4.56L161.77,123.2l-8.21-29.76Z" fill="#f3a080"/><polygon points="151.99 95.28 159.25 124.64 173.25 143.44 174.49 138.88 161.85 122.51 153.56 93.44 151.99 95.28" fill="#f48771"/><path d="M145.48,72.47a7.53,7.53,0,0,1-.16,1A10,10,0,0,1,141.23,79a21.92,21.92,0,0,1-5.75,2.7l-.66.22h0c-12.3,4-25.86,4.81-38.14.75A29.76,29.76,0,0,1,92.39,81a18,18,0,0,1-2-1.13,16.9,16.9,0,0,1-2.31-1.75A11.6,11.6,0,0,1,84,70a4,4,0,0,1,0-.49c.1-3.28,2.33-6.54,5.53-7.27C87,59.75,84.35,57,83.83,53.51c-.45-3.09.91-6.18,2.71-8.75s4-4.79,5.72-7.42a21.86,21.86,0,0,0,1.83-3.57c.1-.24.2-.49.28-.73a20.73,20.73,0,0,0,.71-2.41c.14-.59.25-1.18.34-1.77,0-.33.08-.65.11-1a21.17,21.17,0,0,0,0-4.06l3.14-.61,2.48-.47.74-.15,5.48-1.06L115,20.05l2-.38,1.23-.24,10.07-1.94.11,0,.24,0v.1a7.48,7.48,0,0,0,0,.82,13.11,13.11,0,0,0,1.43,5.05c.15.32.32.64.49.95s.45.76.69,1.14a30.75,30.75,0,0,0,2.28,3c.21.25.43.5.65.74,3,3.34,6.39,6.41,8.32,10.43a17.38,17.38,0,0,1-4.72,20.46,23.53,23.53,0,0,1,5.79,5.6A10.28,10.28,0,0,1,145.48,72.47Z" fill="#ffdda0"/><path d="M123.74,24.9l1,.14c-.78,2.58.36,5.4,2.1,7.46s4,3.56,6.07,5.32,3.93,3.93,4.42,6.57A9.92,9.92,0,0,1,135,52.12a27.81,27.81,0,0,1-6.31,5.36,6.51,6.51,0,0,1,5.57,9.43c-1.18,2.33-3.61,3.72-6,4.73a37.4,37.4,0,0,1-19.89,2.46c-3.63-.55-7.4-1.79-9.66-4.67s-2.25-7.74.83-9.72a17.88,17.88,0,0,1-5.73-4,7.81,7.81,0,0,1-2.05-6.45c.41-2,1.81-3.68,3-5.37a29.44,29.44,0,0,0,5.22-15.06C107.51,25.54,115.46,25.18,123.74,24.9Z" fill="#efca8f"/><path d="M131.65,66.89s10.53,1.77,12.29,3.79l15.81,18.26-18,22L136.58,107l.2-15.69Z" fill="#e27f3d"/><path d="M89.84,110.93l-3.69-3.61h0l-14-13.62-4.89-4.75L83.07,70.68a3.78,3.78,0,0,1,1-.7,11.6,11.6,0,0,0,4,8.13,16.9,16.9,0,0,0,2.31,1.75c-2,6.07-3.78,12.84-3.53,16.41a28.91,28.91,0,0,0,2.45,9.65l1.24,2.58Z" fill="#e27f3d"/><path d="M95.36,66.89l-.07.32h0L92.39,81,90.22,91.31l-.93,14.61a28.91,28.91,0,0,1-2.45-9.65c-.25-3.57,1.58-10.34,3.53-16.41a16.9,16.9,0,0,1-2.31-1.75A11.6,11.6,0,0,1,84,70C87.17,68.27,95.36,66.89,95.36,66.89Z" fill="#e27f3d"/><path d="M143.61,163.21c-.08,0-33,6.76-63.09-2.11.26-1.09,11-41.59,12.38-48.42a72,72,0,0,1-3.61-6.75h0a28.91,28.91,0,0,1-2.45-9.65c-.25-3.57,1.58-10.34,3.53-16.41,2.12-6.57,4.4-12.33,4.4-12.33l.52-.31h0l1.89-1.14,1.61-1,.29,0,12.24.67L116,66l14.43.79,1.18.06a.33.33,0,0,1,0,.08c.06.24.29,1.07.62,2.32.73,2.76,2,7.54,3.19,12.44,1.62,6.66,3.14,13.54,3.09,15.86a27.08,27.08,0,0,1-1,6.11,38.78,38.78,0,0,1-2.55,7.11c0,2,.12,4.17.21,6.37Z" fill="#e27f3d"/><path d="M131.16,67.3l-9.37-6.38L120,60.51l-.82,0L108,61l-.9,0-1.45.56-6.75,3.67C107.31,75.35,121.68,75.16,131.16,67.3Z" fill="#f3a080"/><path d="M116.78,57a14.44,14.44,0,0,1-8.91-1.41c.17-3.55.16-7.84.16-7.84l12,.15a61.42,61.42,0,0,0,.09,7.37A6.67,6.67,0,0,1,116.78,57Z" fill="#ea7c6f"/><path d="M119,64.42a13.53,13.53,0,0,0,2.83-3.5l-.06,0c-1-.78-1.41-3.11-1.62-5.58A6.67,6.67,0,0,1,116.78,57a14.44,14.44,0,0,1-8.91-1.41,22.44,22.44,0,0,1-.46,4.3c-.12.39-.78,1-1.77,1.63,2.11,2.15,4.4,4,7.17,4.72C114.9,66.82,117,65.8,119,64.42Z" fill="#f3a080"/><path d="M99.86,40.94a7.24,7.24,0,0,1-5-3.84,6.68,6.68,0,0,1-.47-1c-.62-1.62-.56-7.16,1.28-8.36,1.29-.84,2.14.51,2.53,1.39h0a5.23,5.23,0,0,1,.25.67Z" fill="#f8bf92"/><path d="M99.86,40.94a7.24,7.24,0,0,1-5-3.84c-.08-.16-.14-.31-.2-.45-.62-1.63-.56-7.16,1.28-8.36,1-.69,1.8.07,2.26.85h0a5.23,5.23,0,0,1,.25.67Z" fill="#f3a080"/><path d="M94.94,32.11a3.08,3.08,0,0,0,0,1.35c.41,1.87,1.8,3.36,3.13,4.73a5.82,5.82,0,0,1-.35-2.92c.05-.35.12-.69.14-1C98,32.85,95.59,29.52,94.94,32.11Z" fill="#ea7c6f"/><path d="M98.77,38.75l-.08-.06s-.12-.09-.21-.18a3.67,3.67,0,0,1-.66-.82,4,4,0,0,1-.49-1.5,3.83,3.83,0,0,1,.26-1.94,1.34,1.34,0,0,1,.12-.24l0-.06h0l0-.06,0-.1-.09-.21a8.29,8.29,0,0,0-.39-.79,7,7,0,0,0-.42-.67,4.44,4.44,0,0,0-.41-.54.91.91,0,0,0-.44-.28.6.6,0,0,0-.39.06.44.44,0,0,0-.18.19.25.25,0,0,0,0,.1.19.19,0,0,1,0-.1.43.43,0,0,1,.15-.25.71.71,0,0,1,.45-.16,1.1,1.1,0,0,1,.59.25,3.65,3.65,0,0,1,.52.52q.26.3.51.66a7.79,7.79,0,0,1,.46.81l.1.22,0,.11.06.16,0,.12-.06.1-.07.16a.68.68,0,0,0-.1.21,4,4,0,0,0-.31,1.71,4.44,4.44,0,0,0,.31,1.42,4.22,4.22,0,0,0,.48.88c.07.1.14.17.18.22Z" fill="#b54b57"/><path d="M127.89,42.24a7.22,7.22,0,0,0,5.3-3.36,7.76,7.76,0,0,0,.56-1c.76-1.56,1.22-7.07-.5-8.44-1.21-1-2.18.31-2.65,1.15h0c-.2.36-.32.64-.32.64Z" fill="#f8bf92"/><path d="M127.89,42.24a7.22,7.22,0,0,0,5.3-3.36c.09-.15.17-.3.24-.44.76-1.56,1.22-7.08-.51-8.44-1-.78-1.79-.1-2.32.64h0c-.2.36-.32.64-.32.64Z" fill="#f3a080"/><path d="M133.6,33.91a2.88,2.88,0,0,1-.14,1.33c-.57,1.83-2.1,3.18-3.55,4.43a5.75,5.75,0,0,0,.62-2.88c0-.35-.06-.69,0-1C130.54,34.36,133.2,31.27,133.6,33.91Z" fill="#ea7c6f"/><path d="M129.18,40.16l.08,0a2.56,2.56,0,0,0,.23-.16,3.34,3.34,0,0,0,.73-.76,4.09,4.09,0,0,0,.64-1.44,3.88,3.88,0,0,0-.09-2,1.84,1.84,0,0,0-.09-.25l0-.06h0l0-.05,0-.1c0-.07.07-.14.11-.2.14-.27.3-.52.45-.75s.32-.44.48-.63a4.64,4.64,0,0,1,.47-.5.84.84,0,0,1,.46-.23.57.57,0,0,1,.38.09.44.44,0,0,1,.17.21.16.16,0,0,1,0,.09.15.15,0,0,0,0-.1.46.46,0,0,0-.13-.25.65.65,0,0,0-.44-.2,1.06,1.06,0,0,0-.61.19,4.65,4.65,0,0,0-.56.47,6.8,6.8,0,0,0-.57.61,5.39,5.39,0,0,0-.53.76l-.12.21-.06.11-.08.15-.06.11a.37.37,0,0,0,0,.11l.06.16a2,2,0,0,1,.08.22,4,4,0,0,1,.14,1.73,4.29,4.29,0,0,1-.43,1.39,3.77,3.77,0,0,1-.57.83l-.19.2Z" fill="#b54b57"/><path d="M130.45,30.28s-.94,10.72-4,14.58c-2.54,3.22-6.18,8.38-11.67,9.94a5.16,5.16,0,0,1-3.27-.15c-5.33-2.06-8.47-7.53-10.7-11-2.66-4.12-2.6-14.88-2.6-14.88,0-.72,0-1.41.07-2.07v0c1.26-20.32,17-18.48,17-18.48s15.56.87,15.15,21Z" fill="#f8bf92"/><path d="M130.48,29.23c-.17,1.71-1.2,10.81-3.94,14.29-2.54,3.23-6.17,8.39-11.67,9.94a5.09,5.09,0,0,1-3.27-.15c-5.33-2.06-8.46-7.53-10.7-11-2.66-4.12-2.6-14.88-2.6-14.88,0-.25,0-.49,0-.73v0c1.26-20.32,17-18.48,17-18.48S130.89,9.09,130.48,29.23Z" fill="#f3a080"/><path d="M108.77,43.44a14.32,14.32,0,0,0,11.11-.83,6.94,6.94,0,0,1-4.94,2.69A10.13,10.13,0,0,1,108.77,43.44Z" fill="#dd5b67"/><path d="M111.68,46.59a6.83,6.83,0,0,0,5.87-.6,3.75,3.75,0,0,1-2.64,1.65A4.75,4.75,0,0,1,111.68,46.59Z" fill="#dd5b67"/><path d="M113.3,38.18a2.24,2.24,0,0,1,1.87,1.37.42.42,0,0,1,0,.29c0,.14-.22.2-.37.24a7.58,7.58,0,0,1-3.18.07C109.76,39.8,112.36,38.1,113.3,38.18Z" fill="#ea7c6f"/><path d="M112.21,39.69s0-.11,0-.32,0-.22,0-.36,0-.31,0-.48,0-.37,0-.58,0-.42,0-.65c0-.46,0-1,.06-1.48s0-1,0-1.49c0-.23,0-.45,0-.65s0-.4,0-.58,0-.34,0-.48a3.57,3.57,0,0,0,0-.37c0-.21,0-.32,0-.32s.06.09.16.27l.18.34a4.19,4.19,0,0,1,.2.46,5.36,5.36,0,0,1,.2.57,6.14,6.14,0,0,1,.17.68,6.68,6.68,0,0,1,.14,1.59,7.7,7.7,0,0,1-.23,1.59,7.61,7.61,0,0,1-.44,1.23c-.08.17-.16.32-.23.44s-.14.24-.2.33S112.21,39.69,112.21,39.69Z" fill="#dd5b67"/><path d="M101.18,29.57a8.6,8.6,0,0,0,8.25,1.32,4.87,4.87,0,0,1-4.25,1.67A5.77,5.77,0,0,1,101.18,29.57Z" fill="#1d1e1e"/><path d="M101.92,31.9a1.39,1.39,0,0,0,2-.13c-.06.07-.45-.12-.52-.15a1.7,1.7,0,0,1-.22-.15c-.09-.07-.12-.07-.21,0A1.8,1.8,0,0,1,101.92,31.9Z" fill="#1d1e1e"/><path d="M126.41,29.55a8.65,8.65,0,0,1-8.3,1.33,4.91,4.91,0,0,0,4.28,1.68A5.8,5.8,0,0,0,126.41,29.55Z" fill="#1d1e1e"/><path d="M125.67,31.89a1.45,1.45,0,0,1-1,.35,1.49,1.49,0,0,1-1-.47c.06.07.46-.12.52-.16a1.3,1.3,0,0,0,.23-.15c.09-.07.12-.07.21,0A1.76,1.76,0,0,0,125.67,31.89Z" fill="#1d1e1e"/><path d="M128.33,39.61s0-.24.16-.66c0-.11,0-.23.08-.35s.06-.27.1-.42c.06-.31.15-.64.22-1l.13-.59.12-.63c.1-.44.17-.91.27-1.4.17-1,.34-2.06.5-3.19s.29-2.21.4-3.21c.05-.5.1-1,.13-1.42,0-.22.05-.44.06-.65s0-.41,0-.6c0-.39.05-.73.07-1s0-.3,0-.44,0-.25,0-.36c0-.44,0-.69,0-.69s.08.23.2.65l.1.35q0,.19.09.42c.07.3.15.65.21,1,0,.2.07.4.1.61s.05.44.08.68c.06.46.08,1,.1,1.49a20.56,20.56,0,0,1-.18,3.43,20.26,20.26,0,0,1-.77,3.34c-.17.49-.33,1-.51,1.38-.09.21-.17.42-.26.61s-.18.37-.26.55c-.16.35-.34.65-.49.91s-.14.26-.21.37l-.18.3C128.47,39.42,128.33,39.61,128.33,39.61Z" fill="#efca8f"/><path d="M99.82,41.54s-.09-.22-.24-.62-.37-1-.59-1.72-.46-1.62-.67-2.63a29.33,29.33,0,0,1-.5-3.31,30.24,30.24,0,0,1-.12-3.36c0-1,.09-2,.18-2.76s.18-1.41.26-1.84.12-.67.12-.67,0,.24.11.67.15,1.05.25,1.82.22,1.67.33,2.67.24,2.1.35,3.25.19,2.26.25,3.27.12,1.93.17,2.7.06,1.4.08,1.84S99.82,41.54,99.82,41.54Z" fill="#efca8f"/><path d="M105,37.53c-.3.69-2.23.53-4.32-.36S97.12,35,97.41,34.29s2.23-.52,4.32.37S105.26,36.84,105,37.53Z" fill="#ea7c6f"/><path d="M130.78,35.7c.26.71-1.26,1.91-3.39,2.69s-4.08.83-4.33.12,1.26-1.91,3.39-2.69S130.52,35,130.78,35.7Z" fill="#ea7c6f"/><path d="M115.86,17.34c.61,1.25,1.21,2.48,1.82,3.71-6.11-2.24-9.4-3.66-12.17-9.56a28.31,28.31,0,0,1-12,20.3c-.29-1.74-.54-3.53-.68-5.31-.38-4.51,0-9,2.38-12.79a14.24,14.24,0,0,1,7.33-5.77A13.1,13.1,0,0,1,109.65,1a16.57,16.57,0,0,1,9.56-.53,18,18,0,0,1,6.22,2.69,19.35,19.35,0,0,1,7.41,11.6,26.14,26.14,0,0,1,.49,3.49c.44,5.39.19,13,.19,13S120.71,21.87,115.86,17.34Z" fill="#efca8f"/><path d="M99.39,22.37s8.47-2.3,10.2.26c1,1.5-.34,1.77-.34,1.77Z" fill="#ffdda0"/><path d="M129.34,23.59s-8.21-3.07-10.17-.68c-1.15,1.4.17,1.79.17,1.79Z" fill="#ffdda0"/><path d="M124.18,16.18a61.8,61.8,0,0,1-13.09-7.07,15.43,15.43,0,0,0,.18,3.46A37.9,37.9,0,0,1,104.08,8a22.86,22.86,0,0,1-4.94,11.24,6.49,6.49,0,0,0-.59-3.76c.15.31-.49,1.71-.6,2.06-.23.71-.47,1.42-.74,2.12a17.74,17.74,0,0,1-4.09,6.53l-.3.3a24.7,24.7,0,0,1,.59-8.69,14.91,14.91,0,0,1,1.79-4.1,14.26,14.26,0,0,1,7.27-5.75l.06,0a11.94,11.94,0,0,1,3.12-4.39,12.89,12.89,0,0,1,4-2.54,16.57,16.57,0,0,1,9.56-.53A17.1,17.1,0,0,1,131.61,11a21,21,0,0,1,1.23,3.74,26.14,26.14,0,0,1,.49,3.49A34.3,34.3,0,0,1,124.18,16.18Z" fill="#ffdda0"/><path d="M102.47,7.94a1.39,1.39,0,0,1-.06.19,9.74,9.74,0,0,1-3.36,5.21c0-.61.06-1.2.09-1.8a26,26,0,0,1-5.73,6.25,14.91,14.91,0,0,1,1.79-4.1A14.26,14.26,0,0,1,102.47,7.94Z" fill="#feeaaf"/><path d="M110.65,2.93c0,.82.06,1.64.09,2.46a18.09,18.09,0,0,1-5.09-1.86,12.89,12.89,0,0,1,4-2.54,16.57,16.57,0,0,1,9.56-.53A17.1,17.1,0,0,1,131.61,11C124.07,11,116.65,7.62,110.65,2.93Z" fill="#feeaaf"/><path d="M129.78,107.47c-2.47,1-4.49,2.51-7.73,3.51-3,1-6.26-1.12-9.44-1.29-2.72-.15-5.42.48-8.14.62s-5.67-.3-7.63-2.19a8.68,8.68,0,0,0,8.54,4.71c1.88-.24,3.65-1.11,5.53-1.31,2.5-.27,6.31,1.55,8.8,1.9C124.31,114.06,129.49,107.44,129.78,107.47Z" fill="#ca4f29"/><path d="M82.23,153s35.71-6.12,73.84,2.81L116.7,178Z" fill="#2a2b2b"/><path d="M89.52,150.42c-4.94-2.68-10.25-3.22-15.72-2.73-4.61.42-12.08,2.81-14.94,7.09-2.36,3.53,1.36,9.72,3.32,12.82,2.27,3.61,5.53,6.3,8.88,8.85,6.5,4.94,45.44,17.67,63.13,21.83l10.75-17.23C128.6,171.53,94.29,153,89.52,150.42Z" fill="#3a3939"/><path d="M178.61,212.62a3.61,3.61,0,0,1-.2,1.26c0,.08,0,.15-.07.23-.24.66-.55,1.22-.68,1.18-.28-.06-14.67-1.93-16.45-2.75L147,204.68l-7.48-4.12.9-2.25,1.29-3.22,1.19-3s.4-.41,1.07-1c2.07-1.87,6.62-5.62,8.77-4.36,2.82,1.65,6.15,12.91,7.28,13.21s7.08,1.08,8,1.73S178.54,211.75,178.61,212.62Z" fill="#f3a080"/><path d="M178.34,214.11c-.24.66-.55,1.22-.68,1.18-.28-.06-14.67-1.93-16.45-2.75L147,204.68l-7.48-4.12.9-2.25.73.57s18.82,11,21.13,11.89C164.08,211.46,174.12,213.33,178.34,214.11Z" fill="#f8bf92"/><polygon points="148.55 185.9 134.06 178.28 124.12 195.64 140.1 201.57 148.55 185.9" fill="#3a3939"/><path d="M143.09,150.42c4.94-2.68,10.25-3.22,15.72-2.73,4.61.42,12.08,2.81,14.94,7.09,2.36,3.53-1.36,9.72-3.32,12.82-2.27,3.61-5.53,6.3-8.88,8.85-6.5,4.94-46.73,17.67-64.41,21.83L90.42,182.4C106.76,172.88,138.32,153,143.09,150.42Z" fill="#444"/><path d="M95.39,196l-8.6,3.41s-8.17,14-10.76,15-3.39,4.13-5.52,4.68a1.82,1.82,0,0,1-.91-.06,5.72,5.72,0,0,1-1.69-.92c-.25-.19-.52-.41-.79-.65A17.8,17.8,0,0,1,65,215.29c-.21-.25-.4-.48-.59-.73A14.54,14.54,0,0,1,63,212.38a7.2,7.2,0,0,1-.35-.77h0a5.88,5.88,0,0,1-.28-.92,8.83,8.83,0,0,1,.12-3.37h0a15,15,0,0,1,1-3.09c-.26.08-4,1.33-5.09-.89s-.93-6.34,1.21-8.13A11.13,11.13,0,0,1,63.36,193s6.28,1,6.8-.14.8-4.64,2.26-5.46,10.14-1.67,10.14-1.67l1.38-.43,7.17-2.16,3,9v0Z" fill="#f3a080"/><path d="M66.05,198.48c.1.22-.11.54-.35.37-1.08-.73-2.21-2-3.64-1.42-.54.24-.53.26-.64.77a9,9,0,0,0-.15,1.16c0,.52-.05,1-.06,1.55a6.2,6.2,0,0,0,4.65-1.42c.16-.1.36.1.26.25-1.14,1.83-3.53,2.36-5.53,2a.5.5,0,0,1-.36-.46c-.17-1.37-.36-4.34,1.34-4.88A4.39,4.39,0,0,1,66.05,198.48Z" fill="#b54b57"/><path d="M69.38,214.72a11.46,11.46,0,0,1-2.26,2.76c.27.24.54.46.8.65a8.81,8.81,0,0,0,2.43-2.87.59.59,0,0,0-.1-.67.49.49,0,0,0-.39-.16A.55.55,0,0,0,69.38,214.72Z" fill="#b54b57"/><path d="M67,211.88a18.35,18.35,0,0,1-1.65,1.88,11.3,11.3,0,0,1-1,.8c.19.25.38.49.59.73a7.7,7.7,0,0,0,2.82-2.85C68,212,67.4,211.46,67,211.88Z" fill="#b54b57"/><path d="M65.73,208.66c-.64.61-1.12,1.35-1.79,2a11.65,11.65,0,0,1-1.32,1h0q.15.38.36.78a7.9,7.9,0,0,0,3.44-3.21A.43.43,0,0,0,65.73,208.66Z" fill="#b54b57"/><path d="M95.39,196l-8.6,3.41s-8.17,14-10.76,15-3.39,4.13-5.52,4.68a1.82,1.82,0,0,1-.91-.06c.72-1,1.76-2.55,2.45-3.76,1.17-2,3.82-3.21,7.14-6.76s6.06-12.8,6.06-12.8l8.85-3.59v0Z" fill="#f8bf92"/><polygon points="81.94 185.9 96.71 178.67 105.78 196.06 90.39 201.57 81.94 185.9" fill="#444"/><path d="M98.89,65.22S107,85.21,115,83.44,131.16,67.3,131.16,67.3Z" fill="#f3a080"/><path d="M132.32,25.9a1.4,1.4,0,0,1,.39-.62.69.69,0,0,1,.7-.11.73.73,0,0,1,.33.42,1.71,1.71,0,0,1,0,.55,1.05,1.05,0,0,1,.79-.77,1,1,0,0,1,1,.39,1.81,1.81,0,0,1,.23,1.19,3.25,3.25,0,0,1-.39,1.5,1.56,1.56,0,0,1-1.27.79c-1.21,0-1.94-1.29-2-2.37A2.66,2.66,0,0,1,132.32,25.9Z" fill="#e27f3d"/><path d="M129.54,29.89a1.31,1.31,0,0,1-.47-.57.66.66,0,0,1,.11-.69.72.72,0,0,1,.51-.19,1.65,1.65,0,0,1,.53.13,1,1,0,0,1-.49-1,1,1,0,0,1,.69-.86,1.86,1.86,0,0,1,1.2.15,3.15,3.15,0,0,1,1.3.84,1.53,1.53,0,0,1,.37,1.45c-.38,1.15-1.83,1.44-2.87,1.15A2.58,2.58,0,0,1,129.54,29.89Z" fill="#e27f3d"/><path d="M132.48,33.76a1.37,1.37,0,0,1-.69.27.66.66,0,0,1-.63-.31.72.72,0,0,1,0-.54,1.75,1.75,0,0,1,.29-.47,1,1,0,0,1-1.68-.76,1.79,1.79,0,0,1,.51-1.1,3.35,3.35,0,0,1,1.2-1A1.55,1.55,0,0,1,133,30c1,.71.81,2.19.21,3.08A3,3,0,0,1,132.48,33.76Z" fill="#e27f3d"/><path d="M137.07,32.17a1.3,1.3,0,0,1,0,.73.61.61,0,0,1-1,.35,1.56,1.56,0,0,1-.36-.41,1,1,0,0,1-1.24,1.36,1.77,1.77,0,0,1-.89-.82,3.44,3.44,0,0,1-.56-1.44,1.58,1.58,0,0,1,.56-1.39c1-.71,2.33-.09,3,.76A2.74,2.74,0,0,1,137.07,32.17Z" fill="#e27f3d"/><path d="M137,27.31a1.44,1.44,0,0,1,.71.18.66.66,0,0,1,.32.63.69.69,0,0,1-.3.45,1.83,1.83,0,0,1-.5.21,1,1,0,0,1,.91,1.6,1.81,1.81,0,0,1-1.06.59,3.35,3.35,0,0,1-1.54.09,1.57,1.57,0,0,1-1.15-1A2.3,2.3,0,0,1,136,27.48,2.63,2.63,0,0,1,137,27.31Z" fill="#e27f3d"/><path d="M135.38,29.57a1.46,1.46,0,1,1-1.46-1.47A1.46,1.46,0,0,1,135.38,29.57Z" fill="#fff5ee"/><path d="M172.54,21l.51-1.51.51,1.51a8.18,8.18,0,0,0,3.85,4.58h0a8.21,8.21,0,0,0-3.85,4.58l-.51,1.52-.51-1.52a8.25,8.25,0,0,0-3.85-4.58h0A8.21,8.21,0,0,0,172.54,21Z" fill="#f6c25c"/><path d="M164.9,34.43l.4-1.19.4,1.19a6.39,6.39,0,0,0,3,3.57h0a6.38,6.38,0,0,0-3,3.58l-.4,1.18-.4-1.18a6.43,6.43,0,0,0-3-3.58h0A6.45,6.45,0,0,0,164.9,34.43Z" fill="#f6c25c"/><path d="M50.12,40.49,49.61,39l-.51,1.52a8.2,8.2,0,0,1-3.84,4.58h0a8.23,8.23,0,0,1,3.84,4.58l.51,1.52.51-1.52A8.25,8.25,0,0,1,54,45.07h0A8.21,8.21,0,0,1,50.12,40.49Z" fill="#f6c25c"/><path d="M57.76,53.93l-.4-1.19L57,53.93a6.39,6.39,0,0,1-3,3.57h0a6.39,6.39,0,0,1,3,3.57l.4,1.19.4-1.19a6.45,6.45,0,0,1,3-3.57h0A6.45,6.45,0,0,1,57.76,53.93Z" fill="#f6c25c"/></g></g></svg>