<svg xmlns="http://www.w3.org/2000/svg" viewBox="0 0 208.31 211.2"><g id="Layer_2" data-name="Layer 2"><g id="OBJECTS"><path d="M90.5,37.74A65.19,65.19,0,0,0,42.69,78.2C39.39,87.05,38,96.74,33,104.75c-7.48,12-21.9,18.41-28.95,30.64C-2.68,147.05-.86,163,8.31,172.86c11,11.87,28.94,13.53,45.12,14.42L139.09,192c13.75.76,27.86,1.48,41-2.68s25.29-14.29,27.75-27.85c1.91-10.52-2.22-21.26-7.78-30.4-5-8.18-10.94-15.67-15.51-24.12a289.45,289.45,0,0,1-12.13-26.45,57.91,57.91,0,0,0-16-21.69c-7.51-6.38-16.76-10.2-25.26-15C119.13,37,104.07,35.12,90.5,37.74Z" fill="#f7f2f0"/><rect x="83.29" y="54.95" width="63.64" height="42.03" fill="#ede3df"/><rect x="88.49" y="58.38" width="53.24" height="35.17" fill="#f7f2f0"/><path d="M65.19,169.94c-7.7-4.81-13.3-12.59-16.38-21.13S45,131,45.73,122" fill="none" stroke="#ede3df" stroke-miterlimit="10"/><path d="M43.05,122a19.21,19.21,0,0,1-7.62-8c-.3-.58-.54-1.33-.12-1.82a1.11,1.11,0,0,1,.95-.34,2.66,2.66,0,0,1,1,.3A15.36,15.36,0,0,1,46,123c0,.19.14.54-.09.67s-.53-.26-.72-.41A19,19,0,0,0,43.05,122Z" fill="#ede3df"/><path d="M48.08,121.78a19.31,19.31,0,0,0,6.21-9.14c.2-.62.32-1.41-.19-1.83a1.16,1.16,0,0,0-1-.17,3,3,0,0,0-.93.45,15.39,15.39,0,0,0-6.81,12.15c0,.19-.05.55.21.64s.47-.33.64-.51A16.5,16.5,0,0,1,48.08,121.78Z" fill="#ede3df"/><path d="M42.72,139.33a25.7,25.7,0,0,1-11.57-9.1c-.5-.7-1-1.66-.5-2.38a1.54,1.54,0,0,1,1.18-.63,4,4,0,0,1,1.36.21c6,1.71,11.62,6.64,13.54,12.66.08.25.29.68,0,.9s-.74-.23-1-.39A22.55,22.55,0,0,0,42.72,139.33Z" fill="#ede3df"/><path d="M49.31,138.08a25.73,25.73,0,0,0,6.45-13.23c.14-.86.14-1.92-.6-2.37a1.51,1.51,0,0,0-1.33,0,3.81,3.81,0,0,0-1.13.78c-4.64,4.15-7.57,11-6.67,17.3,0,.26,0,.74.39.81s.56-.53.75-.8A22.51,22.51,0,0,1,49.31,138.08Z" fill="#ede3df"/><path d="M49.22,156.58a25.74,25.74,0,0,1-13.53-5.8c-.66-.56-1.36-1.36-1.1-2.18a1.55,1.55,0,0,1,1-.91,4,4,0,0,1,1.37-.15c6.21.11,12.94,3.42,16.35,8.74.14.22.45.59.23.87s-.77,0-1.09-.12A24.79,24.79,0,0,0,49.22,156.58Z" fill="#ede3df"/><path d="M55.26,153.68a25.79,25.79,0,0,0,2.82-14.45c-.09-.86-.36-1.89-1.19-2.13a1.53,1.53,0,0,0-1.3.29,3.91,3.91,0,0,0-.89,1.05c-3.41,5.2-4.46,12.62-2,18.43.1.24.22.71.58.69s.41-.67.52-1A21.26,21.26,0,0,1,55.26,153.68Z" fill="#ede3df"/><path d="M58.36,168.52a25.74,25.74,0,0,1-14.54-2.27c-.78-.37-1.66-1-1.6-1.84a1.47,1.47,0,0,1,.72-1.12,3.82,3.82,0,0,1,1.28-.49c6.05-1.43,13.39.1,18,4.42.19.17.59.45.45.78s-.76.16-1.09.15A23.31,23.31,0,0,0,58.36,168.52Z" fill="#ede3df"/><path d="M63.49,164.2a25.68,25.68,0,0,0-.85-14.7c-.3-.81-.81-1.74-1.68-1.77a1.55,1.55,0,0,0-1.18.61,4,4,0,0,0-.61,1.24c-2,5.88-1.19,13.33,2.65,18.35.16.2.4.62.74.51s.23-.74.26-1.06A23,23,0,0,1,63.49,164.2Z" fill="#ede3df"/><path d="M152.77,170.34c7.7-4.81,13.29-12.59,16.38-21.13s3.79-17.81,3.08-26.86" fill="none" stroke="#ede3df" stroke-miterlimit="10"/><path d="M174.9,122.4a19.35,19.35,0,0,0,7.63-8c.29-.58.54-1.34.11-1.83a1.16,1.16,0,0,0-.94-.34,3.15,3.15,0,0,0-1,.3A15.36,15.36,0,0,0,172,123.4c0,.19-.15.54.09.67s.52-.26.72-.41A16.93,16.93,0,0,1,174.9,122.4Z" fill="#ede3df"/><path d="M169.87,122.18a19.34,19.34,0,0,1-6.21-9.15c-.19-.62-.31-1.4.19-1.82a1.15,1.15,0,0,1,1-.18,2.94,2.94,0,0,1,.92.46,15.35,15.35,0,0,1,6.81,12.14c0,.2.05.56-.2.65s-.48-.34-.64-.52A17.45,17.45,0,0,0,169.87,122.18Z" fill="#ede3df"/><path d="M175.23,139.73a25.74,25.74,0,0,0,11.58-9.1c.49-.71,1-1.66.49-2.39a1.53,1.53,0,0,0-1.18-.62,3.88,3.88,0,0,0-1.35.2c-6,1.71-11.63,6.64-13.55,12.67-.08.24-.29.68,0,.9s.74-.24,1-.4A23.67,23.67,0,0,1,175.23,139.73Z" fill="#ede3df"/><path d="M168.65,138.48a25.72,25.72,0,0,1-6.45-13.24c-.14-.85-.15-1.91.59-2.36a1.54,1.54,0,0,1,1.34,0,3.94,3.94,0,0,1,1.13.78c4.63,4.14,7.56,11,6.67,17.3,0,.25,0,.74-.39.81s-.57-.53-.75-.8A22.65,22.65,0,0,0,168.65,138.48Z" fill="#ede3df"/><path d="M168.74,157a25.71,25.71,0,0,0,13.53-5.81c.66-.55,1.36-1.35,1.09-2.18a1.49,1.49,0,0,0-1-.9,3.88,3.88,0,0,0-1.36-.16c-6.22.12-12.94,3.43-16.35,8.75-.14.22-.46.59-.24.87s.78,0,1.09-.12A23.31,23.31,0,0,1,168.74,157Z" fill="#ede3df"/><path d="M162.7,154.07a25.65,25.65,0,0,1-2.82-14.44c.08-.87.35-1.89,1.18-2.14a1.53,1.53,0,0,1,1.3.3,3.91,3.91,0,0,1,.9,1c3.41,5.2,4.46,12.62,2,18.44-.1.24-.23.7-.59.68s-.4-.66-.51-1A24.58,24.58,0,0,0,162.7,154.07Z" fill="#ede3df"/><path d="M159.59,168.91a25.69,25.69,0,0,0,14.55-2.26c.78-.38,1.65-1,1.6-1.85a1.56,1.56,0,0,0-.72-1.12,3.86,3.86,0,0,0-1.29-.48c-6-1.44-13.38.1-18,4.41-.19.18-.59.46-.45.79s.76.15,1.09.15A23.33,23.33,0,0,1,159.59,168.91Z" fill="#ede3df"/><path d="M154.46,164.6a25.77,25.77,0,0,1,.86-14.7c.29-.81.81-1.74,1.68-1.77a1.49,1.49,0,0,1,1.18.61,4,4,0,0,1,.61,1.23c2,5.89,1.19,13.34-2.66,18.35-.16.21-.39.63-.74.52s-.22-.74-.25-1.07A22.94,22.94,0,0,0,154.46,164.6Z" fill="#ede3df"/><polygon points="208.31 211.2 2.56 211.2 17.35 183.58 194.75 183.58 208.31 211.2" fill="#ede3df"/><polygon points="13.68 204.54 21.34 190.24 190.6 190.24 197.62 204.54 13.68 204.54" fill="#fff"/><path d="M97.13,85.41c-.16.44-.26.74-.26.74h0a4.14,4.14,0,0,0-1.57,1.2c-.5.7-4.62,18.7-4.62,18.7l-11,3a29.56,29.56,0,0,1-5-7.91c-1.18-2.91-.77-6.41.11-9.54h0a36.49,36.49,0,0,1,3.5-8.12l0-.24L74.79,64.12l6.11-.84.23-.07,1-.33,1.47-.46.11,1.73,1,15.43A34,34,0,0,0,97.13,85.41Z" fill="#b6c09c"/><path d="M79.92,121.54,80.44,110c-.26-.29-.52-.6-.79-.92l11-3s4.12-18,4.62-18.7a4.14,4.14,0,0,1,1.57-1.2h0s.1-.3.26-.74a34,34,0,0,1-12.37-5.83l-1-15.43-.11-1.73.23-.08,4.84-1.55.06,0,.13,0L103.1,67l.09,0,17-4.64h0l1.25-.35h0l.17-.06h0l1.4.38-.09,1.12L121.48,80.8s-3,3.46-14.94,5.12a21.61,21.61,0,0,1-2.5.21,3.49,3.49,0,0,1,1.15.91c.48.72,4.76,19,4.76,19l14.77,3.1c-.1.14-.22.26-.33.39l.68,14,5.83,32.33-59-1.35Z" fill="#b6c09c"/><path d="M118.26,111.31a33.49,33.49,0,0,1-13.4-4.11,24.46,24.46,0,0,1-14.93,3.54,18.18,18.18,0,0,0,14.93-.56A20.19,20.19,0,0,0,118.26,111.31Z" fill="#38634e"/><path d="M110.5,62.8l-6.22,2.38L96.4,62.8a45.17,45.17,0,0,0,.4-7.16c0-4.43-.4-8.58-.4-8.58l12.31-1.81a82.94,82.94,0,0,0,.79,9.7C110,59,110.5,62.8,110.5,62.8Z" fill="#b77158"/><path d="M109.5,55a12.67,12.67,0,0,1-5.62,2.84c-2.47.34-4.87-.78-7.08-2.15,0-4.43-.4-8.58-.4-8.58l12.31-1.81A82.94,82.94,0,0,0,109.5,55Z" fill="#8c503d"/><path d="M116.81,39.36a7.53,7.53,0,0,0,5.25-3.9,6.45,6.45,0,0,0,.51-1c.68-1.68.73-7.46-1.16-8.75-1.33-.9-2.24.48-2.67,1.4h0c-.18.39-.28.69-.28.69Z" fill="#ca816d"/><path d="M116.81,39.36a7.53,7.53,0,0,0,5.25-3.9,3.92,3.92,0,0,0,.22-.47c.67-1.68.73-7.46-1.17-8.75-1.07-.73-1.88,0-2.37.85h0c-.18.39-.28.69-.28.69Z" fill="#b77158"/><path d="M122.12,30.26a3.16,3.16,0,0,1-.05,1.4c-.46,1.95-1.94,3.46-3.36,4.87a6.07,6.07,0,0,0,.43-3c0-.36-.11-.71-.13-1.08C119,31,121.49,27.54,122.12,30.26Z" fill="#ca816d"/><path d="M118,37.1l.08-.06.23-.18A4,4,0,0,0,119,36a4.15,4.15,0,0,0,.55-1.55,4,4,0,0,0-.24-2,2.72,2.72,0,0,0-.11-.25l0-.06h0l0-.05,0-.11.1-.22a7.68,7.68,0,0,1,.42-.81c.15-.25.3-.48.45-.7a3.79,3.79,0,0,1,.45-.55.91.91,0,0,1,.46-.28.57.57,0,0,1,.4.07.44.44,0,0,1,.19.2.35.35,0,0,1,0,.1.27.27,0,0,0,0-.1.47.47,0,0,0-.16-.26.69.69,0,0,0-.46-.17,1,1,0,0,0-.62.24,4.59,4.59,0,0,0-.56.53,8.08,8.08,0,0,0-.54.68c-.17.26-.34.53-.5.83a2.4,2.4,0,0,1-.11.23l0,.12-.07.17-.05.11.06.11.07.17a.88.88,0,0,1,.1.22,4.2,4.2,0,0,1,.28,1.79,4.54,4.54,0,0,1-.34,1.48,4.74,4.74,0,0,1-.53.9,2.92,2.92,0,0,1-.19.23Z" fill="#8c503d"/><path d="M87.54,40.13a7.52,7.52,0,0,1-5.45-3.61,8,8,0,0,1-.56-1c-.77-1.65-1.13-7.41.7-8.8,1.27-1,2.26.36,2.73,1.25h0a5,5,0,0,1,.32.67Z" fill="#ca816d"/><path d="M87.54,40.13a7.52,7.52,0,0,1-5.45-3.61c-.09-.16-.17-.31-.24-.46-.76-1.64-1.12-7.4.7-8.79,1-.79,1.88-.06,2.41.71h0a5,5,0,0,1,.32.67Z" fill="#b77158"/><path d="M81.76,31.33a3.13,3.13,0,0,0,.12,1.39c.56,1.93,2.12,3.36,3.62,4.69a5.79,5.79,0,0,1-.59-3c0-.36.07-.72.06-1.08C85,31.87,82.24,28.59,81.76,31.33Z" fill="#ca816d"/><path d="M86.25,38l-.09-.06-.24-.17a3.57,3.57,0,0,1-.74-.81,4.1,4.1,0,0,1-.63-1.52,3.89,3.89,0,0,1,.13-2,1.39,1.39,0,0,1,.1-.26l0-.06h0l0-.06,0-.11-.11-.21c-.15-.28-.3-.54-.46-.79s-.33-.46-.49-.67a5.16,5.16,0,0,0-.47-.53,1,1,0,0,0-.48-.25.63.63,0,0,0-.4.09.44.44,0,0,0-.17.21.25.25,0,0,0,0,.1.24.24,0,0,1,0-.1.49.49,0,0,1,.15-.27.76.76,0,0,1,.45-.2,1.18,1.18,0,0,1,.63.21,4.58,4.58,0,0,1,.59.51,7.56,7.56,0,0,1,.57.65,5.88,5.88,0,0,1,.54.8,2.53,2.53,0,0,1,.13.22l.06.12.07.16.06.11a.61.61,0,0,1-.05.12l-.07.17a1.43,1.43,0,0,0-.08.22,4,4,0,0,0-.19,1.8,4.67,4.67,0,0,0,.42,1.46,4,4,0,0,0,.58.88c.08.1.15.16.19.21Z" fill="#8c503d"/><path d="M85.13,27.61S85.88,38.82,89,42.9c2.58,3.41,6.26,8.87,12,10.61a5.38,5.38,0,0,0,3.41-.09c5.6-2,9-7.68,11.39-11.23,2.86-4.24,3-15.47,3-15.47,0-.74,0-1.46,0-2.16v0c-.9-21.22-17.36-19.62-17.36-19.62S85.11,5.5,85.12,26.51C85.11,26.87,85.12,27.24,85.13,27.61Z" fill="#ca816d"/><path d="M85.12,26.51c.14,1.79,1,11.3,3.81,15,2.58,3.42,6.26,8.87,12,10.61a5.38,5.38,0,0,0,3.41-.09c5.6-2,9-7.68,11.38-11.23,2.86-4.24,3-15.46,3-15.46,0-.26,0-.52,0-.77v0c-.9-21.22-17.36-19.62-17.36-19.62S85.11,5.5,85.12,26.51Z" fill="#b77158"/><path d="M105.85,44a7.16,7.16,0,0,1-5.77.17,3,3,0,0,0,2.64,1.37A5,5,0,0,0,105.85,44Z" fill="#8c503d"/><path d="M110,38.63l-.33.45a8.37,8.37,0,0,1-1.06,1.12,10.63,10.63,0,0,1-4.58,2.4,10.86,10.86,0,0,1-5.2,0,8.45,8.45,0,0,1-1.48-.51l-.52-.24.56.1a11.92,11.92,0,0,0,1.52.19,16.41,16.41,0,0,0,4.89-.42,15.77,15.77,0,0,0,4.51-1.87,13.54,13.54,0,0,0,1.25-.85Z" fill="#8c503d"/><path d="M102.33,35.19a2.9,2.9,0,0,1,2.61,1.45.5.5,0,0,1,.1.37c0,.19-.25.3-.43.36a9.9,9.9,0,0,1-4.07.62C98.06,37.84,101.11,35.24,102.33,35.19Z" fill="#ca816d"/><path d="M101.18,37.31s0-.15,0-.41a3.83,3.83,0,0,0,0-.48c0-.19,0-.4,0-.63s0-.48,0-.74,0-.55,0-.85c0-.59-.1-1.23-.16-1.91s-.14-1.31-.21-1.9c0-.29-.08-.57-.12-.84s-.08-.51-.12-.73-.07-.44-.1-.62-.06-.34-.09-.47-.07-.41-.07-.41l.25.33a3.86,3.86,0,0,1,.28.4,5.29,5.29,0,0,1,.34.55c.11.21.24.45.35.71s.22.54.33.84a9.84,9.84,0,0,1,.44,2,10.08,10.08,0,0,1,0,2.07c0,.32-.09.61-.16.89s-.14.53-.21.76-.15.43-.22.6-.14.33-.2.45Z" fill="#8c503d"/><path d="M113.83,24.69a3.68,3.68,0,0,1-1.75,1.6,1.49,1.49,0,0,0-1.16-.55c-1.09,0-1.92,1.48-1.86,3.23s1,3.13,2.07,3.09,1.93-1.48,1.87-3.23a4.7,4.7,0,0,0-.29-1.49A5.75,5.75,0,0,0,113.83,24.69Z" fill="#2a2b2b"/><path d="M110.94,29.23a4.48,4.48,0,0,0,2.46,0,4.53,4.53,0,0,0,2-1.42,4.49,4.49,0,0,0-2.46,0A4.54,4.54,0,0,0,110.94,29.23Z" fill="#faefe6"/><path d="M90.5,25.31a3.62,3.62,0,0,0,1.83,1.5,1.54,1.54,0,0,1,1.13-.61c1.09,0,2,1.38,2,3.13s-.82,3.18-1.91,3.2-2-1.38-2-3.13a4.77,4.77,0,0,1,.21-1.5A5.77,5.77,0,0,1,90.5,25.31Z" fill="#2a2b2b"/><path d="M93.63,29.69a4,4,0,0,1-4.54-1.17,4.51,4.51,0,0,1,2.45-.14A4.56,4.56,0,0,1,93.63,29.69Z" fill="#faefe6"/><path d="M116.76,41.46l.27-.64c.17-.41.4-1,.65-1.78s.51-1.69.75-2.73a31.06,31.06,0,0,0,.59-3.44,31.39,31.39,0,0,0,.19-3.51c0-1.08,0-2.06-.12-2.88s-.16-1.47-.23-1.93-.12-.7-.12-.7,0,.25-.13.7-.18,1.1-.3,1.89-.26,1.74-.4,2.78-.29,2.19-.42,3.39-.25,2.35-.34,3.4-.17,2-.23,2.81-.09,1.47-.12,1.92S116.76,41.46,116.76,41.46Z" fill="#efca8f"/><path d="M87.21,41.46l-.27-.64c-.17-.41-.39-1-.64-1.78a28.25,28.25,0,0,1-.76-2.73A31.06,31.06,0,0,1,85,32.87a31.39,31.39,0,0,1-.19-3.51c0-1.08,0-2.06.13-2.88s.16-1.47.23-1.93.12-.7.12-.7.05.25.12.7.18,1.1.3,1.89.26,1.74.4,2.78.3,2.19.43,3.39.25,2.35.34,3.4.16,2,.22,2.81.1,1.47.13,1.92S87.21,41.46,87.21,41.46Z" fill="#efca8f"/><path d="M121.48,62c-.19.25-.38.49-.59.73a20.44,20.44,0,0,1-12.14,7,20.85,20.85,0,0,1-20.1-9l8.12-2.35h13.16Z" fill="#b77158"/><path d="M116.33,21.64s-7.73-4.9-10.25-2.88c-1.47,1.18-.2,1.87-.2,1.87Z" fill="#ffdda0"/><path d="M87.47,23.24S94.16,17,97,18.51c1.66.89.55,1.79.55,1.79Z" fill="#ffdda0"/><path d="M111.55,35.7c.3.73,2.31.6,4.51-.29s3.73-2.2,3.44-2.93-2.31-.6-4.51.29S111.26,35,111.55,35.7Z" fill="#ca816d"/><path d="M84.67,33.26c-.29.73,1.28,2,3.48,2.87s4.23.95,4.52.22-1.28-2-3.49-2.87S85,32.53,84.67,33.26Z" fill="#ca816d"/><path d="M120.87,25.44,118,28.38l-1.47-11.55a26.79,26.79,0,0,1-4.35-.88l-.52-5.18-1.42,5.08c-1.35.42-9.47.1-9.47.1L99.57,8.84l-2.31,6.63-8.79,1.36L86,28.65l-2.85-2.26s-.57-5.23-.72-9.69a21.27,21.27,0,0,1,.27-5.61C83.6,8.29,92.08.3,101.93,0s17,7.08,17.83,9.45a22.69,22.69,0,0,1,.6,4.24C120.73,18.53,120.87,25.44,120.87,25.44Z" fill="#efca8f"/><path d="M120.36,13.7c-1.86-.22-3.77-.41-5.54-.69a20.22,20.22,0,0,0-4.29-6.9l-2.32,4.56a2.75,2.75,0,0,1-.55.82c-1.06,1-3.17-.08-4.27.81a36.9,36.9,0,0,1-3.61-8.8c-2.56,3.07-5,6.37-7.57,9.44a42.43,42.43,0,0,0-9.79,3.76,21.6,21.6,0,0,1,.26-5.56.07.07,0,0,1,0-.05C83.6,8.29,92.08.3,101.93,0a21.66,21.66,0,0,1,17,8.08,5.57,5.57,0,0,1,.81,1.37A22.69,22.69,0,0,1,120.36,13.7Z" fill="#ffdda0"/><path d="M119,8.09C117.57,8,116.18,8,114.77,8a13.88,13.88,0,0,0-5.88-5c-.15.63-.2,1.09-.34,1.72-1.44.21-2.9.4-4.34.6a10.63,10.63,0,0,0-6-3.94c-3.07,3.45-6.11,7.84-10.64,8.77-1.62.32-3.25.65-4.87,1a.07.07,0,0,1,0-.05C83.6,8.29,92.08.3,101.93,0A21.66,21.66,0,0,1,119,8.09Z" fill="#feeaaf"/><polygon points="80.9 63.28 74.98 65.18 78.2 83.28 78.02 83.52 75.27 68.02 74.75 65.18 80.9 63.22 80.9 63.28" fill="#e79e80"/><path d="M123,62.37l-.09,1.12L121.48,80.8s-3,3.46-14.94,5.12a21.61,21.61,0,0,1-2.5.21h-.54a25.6,25.6,0,0,1-3.06-.15h0l-.29,0H100a27.77,27.77,0,0,1-2.88-.53,34,34,0,0,1-12.37-5.83l-1-15.43-.11-1.73v-.08l5-1.61.1,0,1.28.57L103,67l.13,0,17-4.65,1.43-.38.11,0h0Z" fill="#b77158"/><path d="M167.09,194.18c-4.86,4.11-62.81,4.94-62.81,4.94s-57.95-.83-62.81-4.94-2.61-25.51,0-29.62c2.19-3.43,22.78-13,29.54-16,1.33-.61,2.13-1,2.13-1l29,1.09,30.91-1,4,2c6.71,3.31,27.91,11.54,30.1,15C169.71,168.67,172,190.06,167.09,194.18Z" fill="#444"/><path d="M133.44,147.84c-8.48,5.32-14.07,8.29-24,9.22A64.75,64.75,0,0,1,71,148.53c1.33-.61,2.13-1,2.13-1l29,1.09,26.67-3.88A53.81,53.81,0,0,0,133.44,147.84Z" fill="#2a2b2b"/><polygon points="94.48 185.21 113.18 183.26 114.88 198.17 94.48 185.21" fill="#8c503d"/><polygon points="112.97 181.41 114.89 198.33 115.92 183.68 148.83 172.78 112.97 181.41" fill="#2a2b2b"/><polygon points="128.81 177.6 110.63 168.65 124.15 178.72 128.81 177.6" fill="#2a2b2b"/><path d="M96.47,187.8a3,3,0,0,1-1.16.33,5.12,5.12,0,0,1-4.09-1.7c-1-1.13-1.11-2.69-1.84-4a124.31,124.31,0,0,0-8-12.74A88.35,88.35,0,0,1,93,183.17,131.28,131.28,0,0,0,78.86,155a53.85,53.85,0,0,1,16.2,27S95.85,185.47,96.47,187.8Z" fill="#2a2b2b"/><path d="M88.19,183.72v15c7.13-.16,12.54-.3,12.54-.3l.29-3,.78-8.4Z" fill="#b77158"/><path d="M113.92,186.45c1.27.33,2.14,2.91,2.77,3.72.31.38,1.52.11,2.7-.27s2.52-1,2.52-1a8.91,8.91,0,0,1,3.33,1c2,.94,3,4,2.5,6a1.85,1.85,0,0,1-1,1.22,5.7,5.7,0,0,1-2.76.44,11.42,11.42,0,0,1,1.37,2.16h0a7.18,7.18,0,0,1,.74,2.55,4,4,0,0,1,0,.76h0a5.9,5.9,0,0,1-.13.66,11.63,11.63,0,0,1-.65,1.94l-.3.67a16.82,16.82,0,0,1-1.21,2.09c-.16.23-.32.45-.49.65a2.82,2.82,0,0,1-1.77,1.25c-1.75,0-3-2.24-5.13-2.49s-10.3-7.54-10.3-7.54l-5.39-1.84-2.64-.9.16-2.29.07-.9.53-7.48,3,.12,2.93.12,1.13,0,1.22-.17C109.08,186.69,113,186.2,113.92,186.45Z" fill="#b77158"/><path d="M126.13,202.26a7.18,7.18,0,0,0-.74-2.55h0a11.42,11.42,0,0,0-1.37-2.16s-3.61,6.46-6,6.75-10.44-6.38-10.44-6.38l-6.6-2.55-2.7-1-10.13,1.13v3.26c7.13-.16,12.54-.3,12.54-.3l5.39,1.84s8.13,7.27,10.3,7.54,3.38,2.48,5.13,2.49a2.82,2.82,0,0,0,1.77-1.25c.17-.2.33-.42.49-.65a16.82,16.82,0,0,0,1.21-2.09l.3-.67a11.63,11.63,0,0,0,.65-1.94,5.9,5.9,0,0,0,.13-.66h0A4,4,0,0,0,126.13,202.26Z" fill="#ca816d"/><path d="M121.55,206.71a8.88,8.88,0,0,0,2.26,1.67c-.16.23-.32.45-.48.65a7,7,0,0,1-2.42-1.72.45.45,0,0,1,0-.53.37.37,0,0,1,.27-.2A.44.44,0,0,1,121.55,206.71Z" fill="#8c503d"/><path d="M122.78,204.09a14,14,0,0,0,1.62,1.11,9.58,9.58,0,0,0,.92.42c-.09.22-.19.44-.31.67a6.12,6.12,0,0,1-2.7-1.63C122,204.36,122.43,203.84,122.78,204.09Z" fill="#8c503d"/><path d="M123.15,201.38c.61.34,1.12.81,1.75,1.14a9.16,9.16,0,0,0,1.2.5h0a5.9,5.9,0,0,1-.13.66,6.2,6.2,0,0,1-3.24-1.77A.34.34,0,0,1,123.15,201.38Z" fill="#8c503d"/><path d="M124.46,191.8c.14,0,.26.1.35.2a4.57,4.57,0,0,1,1,3.25,3.43,3.43,0,0,1-3.26.12c.77-.15,1.55-.39,2.31-.53A3.11,3.11,0,0,0,124.46,191.8Z" fill="#8c503d"/><path d="M103,188.71a21,21,0,0,0,5.28,1.45.3.3,0,0,0,.58-.08c0-1.42,1.72-.88,2.38-.51.47.26.85.63,1.32.89a.15.15,0,0,0,.2-.2c-.7-1.34-4.14-2.65-4.47-.55-1.63-.66-3.48-1-5.14-1.54C102.78,188.05,102.63,188.59,103,188.71Z" fill="#8c503d"/><polygon points="88.19 198.72 91.58 181.68 60.45 168.65 86.78 182.64 88.19 198.72" fill="#2a2b2b"/><path d="M101,109.15c0,.91,0,1.73,0,2.44a7.82,7.82,0,0,1-.29,2.73,1.92,1.92,0,0,1-.32.18c-1.84.87-6.63,1.4-6.63,1.4s-6.35,2.62-13.76,5.64l-4.41,1.79c-8.78,3.56-17.58,7-18.35,7-1.57,0-9-4.45-10.36-6.48-1-1.5,2.44-15.26,4.31-22.34.66-2.51,1.12-4.19,1.12-4.19l16.4,5.09L65.68,113l11.24-3.13,2.73-.75,11-3s4.12-18,4.62-18.7a4.14,4.14,0,0,1,1.57-1.2h0s.1-.3.26-.74c.46-1.21,1.4-3.47,2.12-3.44l1,0h0v.09s0,.06,0,.1v.1a1,1,0,0,1,0,.17c0,.64.07,1.88.14,3.51.08,2.23.18,5.19.27,8.37v.05a.41.41,0,0,0,0,.11C100.83,99.6,101,105.21,101,109.15Z" fill="#b77158"/><path d="M85.45,62h0Z" fill="#f3a080"/><path d="M82.15,62.88l-1,.33-.23.07L75,65.18l3.22,18.1,0,.24a36.49,36.49,0,0,0-3.5,8.12h0l-6.11,10.79-16.4-5.09S64.89,65.71,72.49,64.51c4-.65,7.34-1.3,9.65-1.8A1.15,1.15,0,0,1,82.15,62.88Z" fill="#b77158"/><path d="M129.79,101.19a29.47,29.47,0,0,1-5.07,8L110,106.06s-4.28-18.3-4.76-19a3.49,3.49,0,0,0-1.15-.91,21.61,21.61,0,0,0,2.5-.21c11.91-1.66,14.94-5.12,14.94-5.12l1.43-17.31.09-1.12L121.6,62l.11,0,1.52.41,2.08.57h0l.4.11,3.69,1-3.15,18.24a43.41,43.41,0,0,1,3.64,9.78v0C130.64,95.23,130.86,98.55,129.79,101.19Z" fill="#b6c09c"/><path d="M155.13,124.93c-1.35,2-9.89,6.07-11.47,6.07-.75,0-9.45-3.56-18.18-7.23l-.41-.17c-9.1-3.82-18.13-7.7-18.13-7.7s-4.79-.53-6.63-1.4a1.7,1.7,0,0,1-.3-.18,6.81,6.81,0,0,1-.31-2.49c0-.64,0-1.38,0-2.22,0-3.17,0-7.53.13-11.86v-.29c0-.17,0-.35,0-.53.09-4.14.22-8.16.31-11,.06-2.07.12-3.49.13-3.85V82l1.21-.06c1,0,2,3.9,2,3.9h0a3.64,3.64,0,0,1,.58.27,3.49,3.49,0,0,1,1.15.91c.48.72,4.76,19,4.76,19l14.77,3.1,4.12.87,7.07,1.49-1.65-9-4.32-10.41v0a43.41,43.41,0,0,0-3.64-9.78l3.15-18.24-3.69-1-.4-.11c2.22.46,5.13,1,8.47,1.56,5.82.91,12.8,19.61,15.76,28.37a66.2,66.2,0,0,1,2.25,8.31.64.64,0,0,1,0,.07C153.3,108.5,156.14,123.41,155.13,124.93Z" fill="#b77158"/><path d="M100.23,82a237,237,0,0,1-.22,32.32S99.36,94.77,100.23,82Z" fill="#8c503d"/><path d="M103.45,85.85l2,11.39s.3-6.51-2-11.38Z" fill="#8c503d"/><path d="M96.86,86.16,95.51,97.24A30.45,30.45,0,0,1,96.86,86.16Z" fill="#8c503d"/><path d="M97.76,72.41a12.88,12.88,0,0,1-2.23,5.3q-.42.62-.9,1.2c-1.72-2.3-4.78-3.35-6.36-5.75a7.09,7.09,0,0,1-.18-6.74,9.83,9.83,0,0,1-2.57-3.32c-1.6-3.27,1.38-4.35,1.38-4.35s-3-1.82-3.61-3.8,2-4.53,2-4.53a6,6,0,0,1-2.76-3.55c-1-2.77,2.38-7.6,2.38-7.6l2,.79.77.3,4.72,7.54A20.37,20.37,0,0,1,95,51.82c1,2.16-2,4.34-2,4.34s1.67,2.7,2.82,4.17c.65.84-.52,2.74-1.63,4.21a5.9,5.9,0,0,1,1.58,1.1A8,8,0,0,1,97.76,72.41Z" fill="#efca8f"/><path d="M95.53,77.71q-.42.62-.9,1.2a8.51,8.51,0,0,0-1.35-1.4c-1.68-1.44-3.79-2.5-5-4.35a7.09,7.09,0,0,1-.18-6.74,9.83,9.83,0,0,1-2.57-3.32c-1.6-3.27,1.38-4.35,1.38-4.35s-3-1.82-3.61-3.8,2-4.53,2-4.53a6,6,0,0,1-2.76-3.55c-.59-1.62.33-4,1.19-5.61a20.5,20.5,0,0,1,1.19-2l2,.79c-.09.24-.2.49-.3.73a10.29,10.29,0,0,0-1,3.91,5.23,5.23,0,0,0,4.78,5,11.84,11.84,0,0,0-2,1.85,4.07,4.07,0,0,0-1,2.47,4.12,4.12,0,0,0,1.59,3.11,12,12,0,0,0,3.16,1.73C91,58.78,90.34,59.91,90,60.93a3.32,3.32,0,0,0,.5,3.11,4.49,4.49,0,0,0,2.76,1.64c-1.46.54-1.88,3.08-1.28,4.52s1.78,2.55,2.57,3.9A7.89,7.89,0,0,1,95.53,77.71Z" fill="#ffdda0"/><path d="M93.28,77.51c-1.68-1.44-3.79-2.5-5-4.35a7.09,7.09,0,0,1-.18-6.74,9.83,9.83,0,0,1-2.57-3.32c-1.6-3.27,1.38-4.35,1.38-4.35s-3-1.82-3.61-3.8,2-4.53,2-4.53a6,6,0,0,1-2.76-3.55c-.59-1.62.33-4,1.19-5.61a7.63,7.63,0,0,0-.39,3.48,7.71,7.71,0,0,0,4.27,5.91c-1.7.21-2.61,2.33-2.12,4a6.72,6.72,0,0,0,3.43,3.63c-1.5.1-2.47,1.88-2.16,3.35a5.22,5.22,0,0,0,2.9,3.29c-1.43,2.49-.53,5.73,1.07,8.13a17.82,17.82,0,0,1,2.39,3.92A4,4,0,0,1,93.28,77.51Z" fill="#feeaaf"/><path d="M170.13,91.22a6.31,6.31,0,0,1-3.27,2,6.09,6.09,0,0,1-2.33.12c-.69-.09-1.7-.26-.83-1a6.88,6.88,0,0,1,4-1.51A6.69,6.69,0,0,1,170.13,91.22Z" fill="#fff"/><path d="M167,99.39a6.25,6.25,0,0,1-2.94-2.48,6.1,6.1,0,0,1-.84-2.18c-.13-.68-.28-1.69.68-1.09A6.82,6.82,0,0,1,166.6,97,6.59,6.59,0,0,1,167,99.39Z" fill="#fff"/><path d="M158.31,99a6.27,6.27,0,0,1,1.44-3.57,6.17,6.17,0,0,1,1.82-1.47c.61-.33,1.52-.79,1.25.31a6.77,6.77,0,0,1-2.35,3.57A6.46,6.46,0,0,1,158.31,99Z" fill="#fff"/><path d="M156,90.54a6.2,6.2,0,0,1,5.8,1.54c.5.48,1.22,1.21.09,1.29a6.75,6.75,0,0,1-4.12-1.13A6.51,6.51,0,0,1,156,90.54Z" fill="#fff"/><path d="M163.32,85.75a6.22,6.22,0,0,1,.92,3.73,6.06,6.06,0,0,1-.6,2.26c-.3.63-.77,1.54-1.2.49a6.86,6.86,0,0,1-.19-4.27A6.3,6.3,0,0,1,163.32,85.75Z" fill="#fff"/><path d="M163.84,93.17a.88.88,0,1,1-.88-.87A.88.88,0,0,1,163.84,93.17Z" fill="#ede3df"/><path d="M31.45,156.1A8.88,8.88,0,0,1,26.83,159a8.74,8.74,0,0,1-3.3.18c-1-.13-2.41-.38-1.18-1.4A9.7,9.7,0,0,1,28,155.62,9.29,9.29,0,0,1,31.45,156.1Z" fill="#fff"/><path d="M27.07,167.66a8.78,8.78,0,0,1-5.36-6.59c-.18-1-.39-2.4,1-1.55a9.68,9.68,0,0,1,3.78,4.73A9.19,9.19,0,0,1,27.07,167.66Z" fill="#fff"/><path d="M14.72,167.06a8.9,8.9,0,0,1,2-5,9.09,9.09,0,0,1,2.57-2.09c.87-.47,2.17-1.11,1.77.45a9.64,9.64,0,0,1-3.32,5.05A9.23,9.23,0,0,1,14.72,167.06Z" fill="#fff"/><path d="M11.47,155.14a8.78,8.78,0,0,1,8.21,2.18c.71.68,1.72,1.71.12,1.82a9.67,9.67,0,0,1-5.83-1.6A9.36,9.36,0,0,1,11.47,155.14Z" fill="#fff"/><path d="M21.81,148.36a8.85,8.85,0,0,1,1.31,5.28,8.69,8.69,0,0,1-.85,3.2c-.42.89-1.1,2.17-1.69.68a9.61,9.61,0,0,1-.28-6A9.13,9.13,0,0,1,21.81,148.36Z" fill="#fff"/><path d="M22.54,158.86a1.24,1.24,0,1,1-2.48,0,1.24,1.24,0,1,1,2.48,0Z" fill="#ede3df"/><path d="M144.48,40.31l-.43,1.6-.63-1.53a8.53,8.53,0,0,0-4.29-4.48h0a8.53,8.53,0,0,0,3.67-5l.42-1.61.64,1.54a8.53,8.53,0,0,0,4.29,4.48h0A8.53,8.53,0,0,0,144.48,40.31Z" fill="#f6c25c"/><path d="M151.48,25.87l-.33,1.26-.5-1.2a6.66,6.66,0,0,0-3.35-3.5h0a6.64,6.64,0,0,0,2.86-3.9l.34-1.26.49,1.2a6.66,6.66,0,0,0,3.35,3.5h0A6.67,6.67,0,0,0,151.48,25.87Z" fill="#f6c25c"/><path d="M52,9l-.65-1.94L50.7,9a10.57,10.57,0,0,1-4.93,5.88h0a10.55,10.55,0,0,1,4.93,5.87l.66,1.95L52,20.78a10.55,10.55,0,0,1,4.93-5.87h0A10.57,10.57,0,0,1,52,9Z" fill="#f6c25c"/><path d="M61.81,26.26l-.51-1.52-.51,1.52a8.23,8.23,0,0,1-3.85,4.59h0a8.21,8.21,0,0,1,3.85,4.58L61.3,37l.51-1.52a8.21,8.21,0,0,1,3.85-4.58h0A8.23,8.23,0,0,1,61.81,26.26Z" fill="#f6c25c"/></g></g></svg>